<svg id="Layer_1" xmlns="http://www.w3.org/2000/svg" viewBox="0 0 512 512"><style>.st0{fill:#383fcf}</style><path class="st0" d="M211.5 264.3c.6.1 1.2.2 1.9.2 3.9 0 7.4-2.7 8.3-6.7.7-3 15.9-72.4 17.1-138.4h8.7V256c0 4.7 3.8 8.5 8.5 8.5s8.5-3.8 8.5-8.5V110.9c0-4.7-3.8-8.5-8.5-8.5h-20c-1.9-4.9-4.7-13.1-5.4-21.5l25.4-19L281.4 81c-1.2 13.4-7.4 26.1-7.5 26.2-.6 1.2-.9 2.5-.9 3.8 0 68.4 16.6 143.7 17.3 146.9.9 4 4.4 6.7 8.3 6.7.6 0 1.2-.1 1.9-.2 4.6-1 7.5-5.6 6.5-10.2-.2-.8-16.6-75.2-16.9-141.3 2.4-5.3 8.5-20.5 8.5-36 0-2.7-1.3-5.2-3.4-6.8l-30.7-23V8.5c0-4.7-3.8-8.5-8.5-8.5s-8.5 3.8-8.5 8.5v38.4l-30.7 23c-2.1 1.6-3.4 4.1-3.4 6.8 0 15.6 6.2 30.7 8.5 35.9-.3 66.1-16.7 140.7-16.8 141.4-1.1 4.7 1.8 9.3 6.4 10.3zM179.2 290.1h15c-8.6 36.1-22.4 64.1-22.6 64.5-2.1 4.2-.4 9.3 3.8 11.4a8.49 8.49 0 0 0 11.4-3.8c.7-1.4 15.9-32.1 24.9-72.1h16.6l-14.8 66.4c-1 4.6 1.9 9.2 6.5 10.2.6.1 1.2.2 1.9.2 3.9 0 7.4-2.7 8.3-6.7l15.6-70.1h20.4l15.6 70.1c.9 4 4.4 6.7 8.3 6.7.6 0 1.2-.1 1.9-.2 4.6-1 7.5-5.6 6.5-10.2l-14.8-66.4h16.6c9 40 24.2 70.7 24.9 72.1a8.49 8.49 0 0 0 11.4 3.8c4.2-2.1 5.9-7.2 3.8-11.4-.2-.3-14-28.3-22.6-64.5h15c4.7 0 8.5-3.8 8.5-8.5s-3.8-8.5-8.5-8.5H179.2c-4.7 0-8.5 3.8-8.5 8.5s3.8 8.5 8.5 8.5zM503.5 494.9h-97.7c-7.5-11.9-31.6-51.5-51.9-102.4H367c4.7 0 8.5-3.8 8.5-8.5s-3.8-8.5-8.5-8.5H145.1c-4.7 0-8.5 3.8-8.5 8.5s3.8 8.5 8.5 8.5h13.1c-20.3 50.8-44.4 90.5-51.9 102.4H8.5c-4.7 0-8.5 3.8-8.5 8.5s3.8 8.5 8.5 8.5h494.9c4.7 0 8.5-3.8 8.5-8.5.1-4.6-3.7-8.5-8.4-8.5zm-315.8 0c0-37.6 30.6-68.3 68.3-68.3s68.3 30.6 68.3 68.3H187.7zm153.6 0c0-47.1-38.3-85.3-85.3-85.3s-85.3 38.3-85.3 85.3h-44.3c11.4-18.8 32.3-56.2 50.2-102.4h159c17.8 46.2 38.8 83.6 50.2 102.4h-44.5z"/></svg>