<svg id="Layer_1" xmlns="http://www.w3.org/2000/svg" viewBox="0 0 512 512"><style>.st0{fill:#383fcf}</style><path class="st0" d="M298.7 17.1h8.5v8.5c0 4.7 3.8 8.5 8.5 8.5s8.5-3.8 8.5-8.5v-8.5h85.3v8.5c0 4.7 3.8 8.5 8.5 8.5s8.5-3.8 8.5-8.5v-8.5h8.5c4.7 0 8.5-3.8 8.5-8.5S439.9 0 435.2 0H298.7c-4.7 0-8.5 3.8-8.5 8.5s3.8 8.6 8.5 8.6zM136.5 93.9v68.3c0 4.7 3.8 8.5 8.5 8.5s8.5-3.8 8.5-8.5V93.9c0-4.7-3.8-8.5-8.5-8.5-4.6-.1-8.5 3.8-8.5 8.5z"/><path class="st0" d="M76.8 68.3h8.5v93.9c0 4.7 3.8 8.5 8.5 8.5s8.5-3.8 8.5-8.5V68.3h85.3v93.9c0 4.7 3.8 8.5 8.5 8.5s8.5-3.8 8.5-8.5V68.3h8.5c4.7 0 8.5-3.8 8.5-8.5s-3.8-8.5-8.5-8.5H76.8c-4.7 0-8.5 3.8-8.5 8.5s3.8 8.5 8.5 8.5zM298.7 68.3h8.5v93.9c0 4.7 3.8 8.5 8.5 8.5s8.5-3.8 8.5-8.5V68.3h85.3v93.9c0 4.7 3.8 8.5 8.5 8.5s8.5-3.8 8.5-8.5V68.3h8.5c4.7 0 8.5-3.8 8.5-8.5s-3.8-8.5-8.5-8.5H298.7c-4.7 0-8.5 3.8-8.5 8.5s3.8 8.5 8.5 8.5z"/><path class="st0" d="M358.4 93.9v68.3c0 4.7 3.8 8.5 8.5 8.5s8.5-3.8 8.5-8.5V93.9c0-4.7-3.8-8.5-8.5-8.5s-8.5 3.8-8.5 8.5zM76.8 17.1h8.5v8.5c0 4.7 3.8 8.5 8.5 8.5s8.5-3.8 8.5-8.5v-8.5h85.3v8.5c0 4.7 3.8 8.5 8.5 8.5s8.5-3.8 8.5-8.5v-8.5h8.5c4.7 0 8.5-3.8 8.5-8.5S218 0 213.3 0H76.8c-4.7 0-8.5 3.8-8.5 8.5s3.8 8.6 8.5 8.6zM145.1 315.7v51.2c0 4.7 3.8 8.5 8.5 8.5s8.5-3.8 8.5-8.5v-51.2c0-4.7-3.8-8.5-8.5-8.5s-8.5 3.8-8.5 8.5zM221.9 341.3c0 18.8 15.3 34.1 34.1 34.1s34.1-15.3 34.1-34.1-15.3-34.1-34.1-34.1-34.1 15.3-34.1 34.1zm51.2 0c0 9.4-7.7 17.1-17.1 17.1-9.4 0-17.1-7.7-17.1-17.1 0-9.4 7.7-17.1 17.1-17.1 9.4.1 17.1 7.7 17.1 17.1zM110.9 315.7v51.2c0 4.7 3.8 8.5 8.5 8.5s8.5-3.8 8.5-8.5v-51.2c0-4.7-3.8-8.5-8.5-8.5s-8.5 3.8-8.5 8.5z"/><path class="st0" d="M503.5 494.9h-59.7V315.7c0-4.7-3.8-8.5-8.5-8.5s-8.5 3.8-8.5 8.5v179.2h-25.6v-42.7c0-20.6-10.8-31.5-19.6-40.2-3.3-3.3-8.7-3.3-12.1 0-8.7 8.7-19.6 19.6-19.6 40.2v42.7h-25.6V315.7c0-4.7-3.8-8.5-8.5-8.5s-8.5 3.8-8.5 8.5v179.2h-25.6v-42.7c0-20.6-10.8-31.5-19.6-40.2-3.3-3.3-8.7-3.3-12.1 0-8.7 8.7-19.6 19.6-19.6 40.2v42.7h-25.6V315.7c0-4.7-3.8-8.5-8.5-8.5s-8.5 3.8-8.5 8.5v179.2h-25.6v-42.7c0-20.6-10.8-31.5-19.6-40.2-3.3-3.3-8.7-3.3-12.1 0-8.7 8.7-19.6 19.6-19.6 40.2v42.7H85.3V315.7c0-4.7-3.8-8.5-8.5-8.5s-8.5 3.8-8.5 8.5v179.2H8.5c-4.7 0-8.5 3.8-8.5 8.5s3.8 8.5 8.5 8.5h494.9c4.7 0 8.5-3.8 8.5-8.5s-3.7-8.5-8.4-8.5zm-358.4 0H128v-42.7c0-9.9 3.5-16 8.5-21.8 5.1 5.8 8.5 11.9 8.5 21.8l.1 42.7zm119.4 0h-17.1v-42.7c0-9.9 3.5-16 8.5-21.8 5.1 5.8 8.5 11.9 8.5 21.8l.1 42.7zm119.5 0h-17.1v-42.7c0-9.9 3.5-16 8.5-21.8 5.1 5.8 8.5 11.9 8.5 21.8l.1 42.7z"/><path class="st0" d="M349.9 315.7v51.2c0 4.7 3.8 8.5 8.5 8.5s8.5-3.8 8.5-8.5v-51.2c0-4.7-3.8-8.5-8.5-8.5s-8.5 3.8-8.5 8.5zM59.7 290.1h392.5c4.7 0 8.5-3.8 8.5-8.5s-3.8-8.5-8.5-8.5h-8.5v-76.8c0-4.7-3.8-8.5-8.5-8.5H76.8c-4.7 0-8.5 3.8-8.5 8.5v76.8h-8.5c-4.7 0-8.5 3.8-8.5 8.5s3.7 8.5 8.4 8.5zm264.6-85.3h102.4v68.3h-25.6v-42.7c0-4.7-3.8-8.5-8.5-8.5s-8.5 3.8-8.5 8.5v42.7H367v-42.7c0-4.7-3.8-8.5-8.5-8.5s-8.5 3.8-8.5 8.5v42.7h-25.6l-.1-68.3zm-119.5 0h102.4v68.3h-25.6v-42.7c0-4.7-3.8-8.5-8.5-8.5s-8.5 3.8-8.5 8.5v42.7h-17.1v-42.7c0-4.7-3.8-8.5-8.5-8.5s-8.5 3.8-8.5 8.5v42.7h-25.6l-.1-68.3zm-119.5 0h102.4v68.3h-25.6v-42.7c0-4.7-3.8-8.5-8.5-8.5s-8.5 3.8-8.5 8.5v42.7H128v-42.7c0-4.7-3.8-8.5-8.5-8.5s-8.5 3.8-8.5 8.5v42.7H85.3v-68.3zM384 315.7v51.2c0 4.7 3.8 8.5 8.5 8.5s8.5-3.8 8.5-8.5v-51.2c0-4.7-3.8-8.5-8.5-8.5s-8.5 3.8-8.5 8.5z"/></svg>