<svg id="Layer_1" xmlns="http://www.w3.org/2000/svg" viewBox="-395 264 80 33"><style>.st0{fill:#a6acb6}</style><path class="st0" d="M-363.3 277h-3.6c-.3 0-.5.2-.5.4l-1.5 9.3c-.1.2.1.4.3.4h1.8c.3 0 .5-.2.5-.4l.4-2.5c.1-.3.3-.4.5-.4h1.2c2.4 0 3.8-1.2 4.2-3.5.2-1 0-1.8-.5-2.3-.7-.7-1.6-1-2.8-1zm.4 3.4c-.2 1.3-1.2 1.3-2.2 1.3h-.5l.4-2.5c0-.2.2-.3.3-.3h.3c.6 0 1.3 0 1.6.4.1.3.2.7.1 1.1zM-352.4 280.4h-1.8c-.2 0-.3.1-.3.3l-.1.5-.1-.2c-.4-.5-1.2-.7-2.1-.7-1.9 0-3.6 1.4-3.9 3.5-.2 1 .1 2 .6 2.7.5.6 1.3.9 2.2.9 1.5 0 2.4-1 2.4-1l-.1.5c-.1.2.1.4.3.4h1.5c.3 0 .5-.2.5-.4l1-6c.2-.4.1-.5-.1-.5zm-2.4 3.3c-.2 1-1 1.7-2 1.7-.5 0-.9-.2-1.2-.5s-.4-.7-.3-1.2c.2-1 1-1.7 2-1.7.5 0 .9.2 1.2.5.2.3.3.8.3 1.2zM-343.1 280.4h-1.8c-.2 0-.3.1-.4.2l-2.4 3.6-1-3.4c-.1-.2-.3-.4-.5-.4h-1.7c-.2 0-.4.2-.3.4l1.9 5.7-1.8 2.6c-.2.2 0 .5.3.5h1.8c.2 0 .3-.1.4-.2l5.8-8.4c.1-.4 0-.6-.3-.6zM-337.3 277h-3.6c-.3 0-.5.2-.5.4l-1.5 9.3c-.1.2.1.4.3.4h1.9c.2 0 .3-.1.4-.3l.4-2.7c.1-.3.3-.4.5-.4h1.2c2.4 0 3.8-1.2 4.2-3.5.2-1 0-1.8-.5-2.3-.7-.6-1.6-.9-2.8-.9zm.4 3.4c-.2 1.3-1.2 1.3-2.2 1.3h-.5l.4-2.5c0-.2.2-.3.3-.3h.3c.6 0 1.3 0 1.6.4.1.3.2.7.1 1.1zM-326.4 280.4h-1.8c-.2 0-.3.1-.3.3l-.1.5-.1-.2c-.4-.5-1.2-.7-2.1-.7-1.9 0-3.6 1.4-3.9 3.5-.2 1 .1 2 .6 2.7.5.6 1.3.9 2.2.9 1.5 0 2.4-1 2.4-1l-.1.5c-.1.2.1.4.3.4h1.5c.3 0 .5-.2.5-.4l1-6c.3-.4.1-.5-.1-.5zm-2.4 3.3c-.2 1-1 1.7-2 1.7-.5 0-.9-.2-1.2-.5s-.4-.7-.3-1.2c.2-1 1-1.7 2-1.7.5 0 .9.2 1.2.5.2.3.3.8.3 1.2zM-324.3 277.2l-1.5 9.5c-.1.2.1.4.3.4h1.5c.3 0 .5-.2.5-.4l1.5-9.3c.1-.2-.1-.4-.3-.4h-1.7c-.2 0-.3.1-.3.2z"/><path d="M-384.1 289l.3-1.8h-3.6l2.1-13.1c0-.1.1-.1.1-.1.1 0 .1-.1.1-.1h5c1.7 0 2.8.3 3.4 1 .3.3.5.6.5 1 .1.4.1.9 0 1.4v.5l.3.2c.2.1.4.3.6.4.3.3.4.6.5 1 .1.4.1.9-.1 1.5-.1.6-.3 1.2-.6 1.7-.3.4-.6.8-1 1.1-.4.3-.8.5-1.3.6-.5.1-1 .2-1.7.2h-.4c-.3 0-.5.1-.7.3s-.4.4-.4.7l-.1.2-.5 3.1v.1c0 .1 0 .1-.1.1h-.1-2.3z" fill="#253b80"/><path class="st0" d="M-375.7 277.5c0 .1-.1.2-.1.3-.6 3.4-2.9 4.5-5.8 4.5h-1.5c-.4 0-.6.3-.7.6l-.7 4.7-.2 1.3c-.1.2.2.4.4.4h2.6c.3 0 .6-.2.6-.5v-.1l.5-3.1.1-.2c.1-.3.3-.5.6-.5h.4c2.5 0 4.5-1 5.1-4 .3-1.2.1-2.3-.5-3-.3-.1-.5-.3-.8-.4z"/><path d="M-376.3 277.2c-.1-.1-.2-.1-.3-.1s-.2-.1-.3-.1c-.4-.1-.9-.1-1.3-.1h-4c-.1 0-.2 0-.3.1-.2.1-.3.3-.4.5l-.9 5.3v.2c.1-.4.4-.6.7-.6h1.5c2.9 0 5.2-1.2 5.9-4.6 0-.1.1-.2.1-.3-.2-.1-.4-.2-.5-.2-.1-.1-.2-.1-.2-.1z" fill="#c8ced6"/><path class="st0" d="M-382.8 277.5c.1-.2.2-.4.4-.5.1-.1.2-.1.3-.1h3.9c.5 0 .9.1 1.3.1.1 0 .2.1.3.1s.2.1.3.1c.1 0 .1.1.2.1.2.1.4.2.5.2.2-1.2 0-2.1-.7-2.9-.7-.9-2.1-1.2-3.8-1.2h-5c-.4 0-.6.3-.7.6l-2.1 13.2c-.1.3.2.5.4.5h3.1l.8-4.9.8-5.3z"/></svg>