<svg id="Layer_1" xmlns="http://www.w3.org/2000/svg" viewBox="0 0 960 560"><style>.st0{fill:#a6acb6}</style><path class="st0" d="M851.4 234.4c0-8.7 6.8-15.6 15-15.6 8.4 0 15 7.1 15 15.6 0 8.7-6.6 15.6-15 15.6-8.2.2-15-6.7-15-15.6zm15 12.2c6.3 0 11.4-5.4 11.4-12s-5.2-12-11.4-12c-6.3 0-11.4 5.4-11.4 12s5 12 11.4 12zm-2.1-5.2h-3.2v-13.8h5.7c1.1 0 2.5 0 3.4.7 1.1.7 1.6 2 1.6 3.4 0 1.6-.9 3-2.2 3.4l2.5 6.1h-3.4l-2-5.4h-2.3v5.6h-.1zm0-7.6h1.8c.7 0 1.4 0 1.8-.2.5-.2.7-.9.7-1.6 0-.5-.2-1.1-.7-1.4-.5-.2-1.4-.2-1.8-.2h-1.6l-.2 3.4zM637 129.8l-4.1 26.7c-8.8-4.7-15.5-6.6-22.4-6.6-18.6 0-31.8 19.1-31.8 46.1 0 18.6 8.8 30 23.4 30 6.1 0 12.9-2 21.3-6.3l-4.3 28.1c-9.3 2.7-15.2 3.6-22.3 3.6-27 0-43.8-20.4-43.8-53.1 0-44 23.2-74.9 56.5-74.9 4.3 0 8.2.5 11.4 1.4l10.4 2.7c2.7 1.2 3.5 1.4 5.7 2.3zM553.8 148.2c-.7-.2-1.6-.2-2.5-.2-8.2 0-12.9 4.3-20.7 16.3l2.2-15.2h-22.7l-15.5 100h25.1c9-61.3 11.4-71.7 23.4-71.7h1.8c2.2-12 5.2-20.9 9.5-29.1l-.6-.1zM403.9 247.8c-6.8 2.2-12.3 3.4-17.9 3.4-12.7 0-19.7-7.7-19.7-22 0-2.7.2-5.9.7-9l1.6-9.8 1.1-7.9 10.9-68.3h25l-3 14.7h12.9l-3.6 24.3h-12.7l-6.6 41.7c-.2 1.8-.5 3.2-.5 4.1 0 5.2 2.7 7.4 8.7 7.4 3 0 5-.2 6.8-.9l-3.7 22.3zM304.9 180.6c0 12.7 5.9 21.3 19.1 27.9 10 5 11.8 6.6 11.8 11.1 0 6.1-4.6 9-14.2 9-7.4 0-14.2-1.1-22.4-4.1l-3.4 23.2 1.1.2 4.6.9c1.6.2 3.6.7 6.6.9 5.9.5 10.7.9 13.9.9 26.4 0 38.6-10.7 38.6-33.3 0-13.6-5-21.8-17.7-27.9-10.4-5-11.5-6.1-11.5-10.9 0-5.4 4.1-8.2 12.3-8.2 5 0 11.5.7 17.9 1.6l3.6-23.2c-6.6-1.1-16.3-2-22-2-28.7.1-38.5 15.4-38.3 33.9zM836.9 248.9h-23.7l1.1-9.8c-6.8 7.7-14.1 11.1-23.2 11.1-18.3 0-30.4-16.6-30.4-41.5 0-33.3 18.6-61.5 40.9-61.5 9.8 0 17 4.3 24 13.6l5.4-35.2h24.8l-18.9 123.3zm-37-23.3c11.8 0 19.9-13.9 19.9-33.8 0-12.7-4.7-19.7-13.4-19.7-11.4 0-19.6 14.1-19.6 33.6.1 13.1 4.5 19.9 13.1 19.9zM483.2 246.9c-8.7 2.7-16.8 4.1-25.9 4.1-27.9 0-42.6-15.5-42.6-44.9 0-34.5 18.6-59.7 43.8-59.7 20.7 0 33.8 14.2 33.8 36.5 0 7.3-.9 14.5-3.2 24.8h-49.9c-.2 1.6-.2 2.2-.2 3.2 0 11.8 7.4 17.7 22 17.7 8.8 0 17-2 26.1-6.3l-3.9 24.6zm-14.1-59.7c.2-2 .2-3.8.2-5 0-8.2-4.3-12.9-11.8-12.9-7.9 0-13.6 6.3-15.9 17.9h27.5zM204.2 248.9h-24.9l14.2-94.6-32.2 94.6h-17.1l-2-93.9-15.2 93.9h-23.4l19.6-123h36l1 76.3 24.5-76.3h39zM268.8 204.4c-2.7-.2-3.8-.5-5.7-.5-14.2 0-21.3 5.2-21.3 15.2 0 6.1 3.6 10.2 9 10.2 10.1.1 17.6-10.1 18-24.9zm18.2 44.5h-20.9l.5-10.4c-6.3 8.4-14.7 12-26.4 12-13.6 0-22.9-11.1-22.9-27.2 0-24.5 16.3-38.6 44-38.6 3 0 6.6.2 10.2.7.7-3.4.9-4.7.9-6.6 0-6.6-4.3-9-16.1-9-7.1 0-15.2 1.1-20.9 3l-3.2 1.1-2.2.7 3.4-22.4c12.5-3.8 20.9-5.4 30-5.4 21.5 0 32.9 10.2 32.9 29.2 0 5-.5 8.7-2 19.9l-5 35.6-.9 6.3-.7 5-.5 3.6-.2 2.5zM680.3 204.4c-2.5-.2-3.8-.5-5.7-.5-14.2 0-21.5 5.2-21.5 15.2 0 6.1 3.6 10.2 9 10.2 10.3.1 17.8-10.1 18.2-24.9zm18.2 44.5h-20.9l.5-10.4c-6.3 8.4-14.7 12-26.4 12-13.6 0-22.9-11.1-22.9-27.2 0-24.5 16.3-38.6 44-38.6 2.7 0 6.6.2 10.2.7.7-3.4.9-4.7.9-6.6 0-6.6-4.3-9-16.1-9-7.1 0-15.2 1.1-20.9 3l-3.6.9-2.2.7 3.4-22.4c12.5-3.8 20.9-5.4 30-5.4 21.5 0 32.9 10.2 32.9 29.2 0 5-.5 8.7-2 19.9l-5.2 35.4-.7 6.3-.7 5-.5 3.4.2 3.1zM768.6 148.2c-.7-.2-1.6-.2-2.5-.2-8.2 0-12.9 4.3-20.7 16.3l2.2-15.2h-22.7l-15.5 100h25.1c9-61.3 11.4-71.7 23.4-71.7h1.8c2.2-12 5.4-20.9 9.5-29.1l-.6-.1zM663.4 346.3c0 22.7-7.1 36-18.2 36-8.2.2-12.9-8.8-12.9-22.3 0-15.9 7.3-34 18.6-34 9.3 0 12.5 9.8 12.5 20.3zm24.7.1c0-25.1-12.5-44.9-35.9-44.9-27 0-44.5 23.8-44.5 58.9 0 25.1 10.4 45.8 35.9 45.8 25.6.2 44.5-18 44.5-59.8zM615.7 284l-3.8 26.7c-8.4-4.7-14.2-6.6-20.9-6.6-17.5 0-29.7 19.1-29.7 46.1 0 18.6 8.2 30 21.8 30 5.9 0 12.3-2 19.9-6.3l-4.1 28.1c-8.7 2.7-14.2 3.6-20.9 3.6-25.1 0-41.1-20.4-41.1-53.1 0-44 21.8-74.9 52.9-74.9 4.1 0 7.4.5 10.4 1.4l9.5 2.7c3.3 1 3.9 1.2 6 2.3zM460.7 302.2c-.7-.2-1.6-.2-2.5-.2-7.7 0-12 4.3-19.3 16.3l2.2-15.2h-21l-14.2 100h23.4c8.4-61.3 10.7-71.7 21.8-71.7.7 0 .7 0 1.8.2 2-12 5-20.9 8.8-29.1l-1-.3zM766.5 402.3h-22.3l1.1-9.8c-6.3 7.7-13.1 11.1-21.8 11.1-17 0-28.4-16.6-28.4-41.5 0-33.3 17.5-61.5 38.1-61.5 9 0 16.1 4.3 22.4 13.9l5.2-35.2h23.3l-17.6 123zm-34.7-23.6c11.1 0 18.6-13.9 18.6-33.8 0-12.7-4.3-19.6-12.5-19.6-10.7 0-18.2 13.9-18.2 33.6.1 13.2 4.2 19.8 12.1 19.8zM241.2 401.8c-7.9 2.7-15.6 4.1-24 4.1-26.1 0-39.7-15.5-39.7-44.9 0-34.3 17.5-59.7 40.9-59.7 19.3 0 31.6 14.1 31.6 36.5 0 7.3-.9 14.5-3 24.8h-46.5c-.2 1.6-.2 2.2-.2 3.2 0 11.5 7.1 17.5 20.7 17.5 8.4 0 15.9-2 24.3-6.3l-4.1 24.8zM228 342.2c0-2 .2-3.8.2-5 0-8.2-4.1-12.9-11.1-12.9-7.4 0-12.7 6.3-15 17.9H228zM519.7 401.8c-7.9 2.7-15.6 4.1-24 4.1-26.4 0-39.9-15.5-39.9-44.9 0-34.3 17.5-59.7 40.9-59.7 19.3 0 31.8 14.1 31.8 36.5 0 7.3-.9 14.5-3 24.8H479c-.2 1.6-.2 2.2-.2 3.2 0 11.5 7.1 17.5 20.7 17.5 8.4 0 15.9-2 24.3-6.3l-4.1 24.8zm-13.1-59.6c.2-2 .2-3.8.2-5 0-8.2-4.1-12.9-11.1-12.9-7.4 0-12.7 6.3-15 17.9h25.9zM846.4 401.8c-8.2 2.7-15.9 4.1-24 4.1-26.1 0-39.9-15.5-39.9-44.9 0-34.3 17.5-59.7 41.1-59.7 19.3 0 31.6 14.1 31.6 36.5 0 7.3-.9 14.5-3 24.8h-46.5c-.2 1.6-.2 2.2-.2 3.2 0 11.5 7.1 17.5 20.7 17.5 8.4 0 15.9-2 24.3-6.3l-4.1 24.8zm-13.2-59.6c0-2 .2-3.8.2-5 0-8.2-4.1-12.9-11.1-12.9-7.4 0-12.7 6.3-15 17.9h25.9zM171.7 306.8c-4.6-3.2-10.9-5.7-19.6-5.7-9.5 0-17 2-17 12 0 17.7 34.5 11.1 34.5 49.3 0 34.7-22.7 43.8-43.3 43.8-9 0-19.7-3-27.5-6.6l5.7-25.4c4.7 4.3 14.1 7.3 22 7.3 7.4 0 18.8-2 18.8-15 0-20.2-34.5-12.7-34.5-48.1 0-32.4 20.2-42 39.7-42 10.9 0 21.3 1.6 27.2 5.7l-6 24.7zM309.6 401.8c-4.7 2.2-11.4 3.8-20.9 3.8-20.4 0-33.2-20.4-33.2-45.3 0-32.7 18.3-58.6 45.3-58.6 5.9 0 15 2.5 22 6.6l-5.2 23.8c-5-3.4-10.2-5.4-15.6-5.4-12.5 0-21.5 11.5-21.5 32 0 11.8 6.6 21.5 16.8 21.5 6.1 0 10.4-1.4 15.6-4.3l-3.3 25.9zM397.2 376.6c-1.1 8.7-2.2 17-3 25.9h-22.4l1.8-16.1h-.2c-7.1 10.9-14.2 18.3-27.2 18.3-14.1 0-21.8-15-21.8-34.3 0-6.8.5-10.4 1.8-20.9l6.3-46.3h25.1l-6.8 46.5c-.7 5-1.6 10-1.6 15.2 0 5.9 2.7 11.8 9.5 11.4 10.2 0 16.3-12.5 18.2-27.2l7.1-45.8h24.3l-11.1 73.3zM869.8 401.4h-3.9v-16.6h-5.4v-3.6h14.7v3.6h-5.4zM895 401.4h-3.7v-16.8l-3.3 16.8h-3.7l-3.4-16.8v16.8h-3.6v-20.2h5.6l3.2 15.9h.3l3.2-15.9h5.4z"/></svg>