<svg id="图层_1" xmlns="http://www.w3.org/2000/svg" viewBox="-227 150.2 800 260.8"><style>.st0{fill:#a6acb6}</style><path class="st0" d="M-71.2 286.7v-52.4h21.4V285l30.2-9.7-35.7-81.5-162.9 9.2 31.9 80.5v-49.8h22.5c2.6.1 5.9.4 9.2.7 14.4 1.4 20.6 9.1 20.6 19.4s-13.5 17.4-26.8 17.4c-1.5 0-2.9 0-4.2-.1v15.7h-20l14.9 37.3L-55 286.7h-16.2zm-7.7-14.7v12c-44.3 11.3-53.1-10.9-53.1-25.4 0-14.5 15.8-31.8 52.8-22.7l.3 13c-26.5-6.8-30.3 6.4-30.3 11.5 0 5.2 5.2 20 30.3 11.6m18.8-67.9c7.1 0 12.9 5.7 12.9 12.9 0 7.1-5.7 12.8-12.9 12.8-7.1 0-12.9-5.7-12.9-12.8.1-7.1 5.9-12.9 12.9-12.9"/><path class="st0" d="M-154.2 252.1c0-3.6-2.1-6-7.3-6.6-1.2-.1-2.4-.2-3.2-.3h-1.3v13.1h2.4c4.7.1 9.4-2.7 9.4-6.2M45.7 253.3c2.7 1.7 6.5 3 10.7 3 6 0 9.7-3.2 9.7-7.9 0-4.3-2.5-6.8-8.7-9.2-7.5-2.7-12.2-6.5-12.2-13 0-7.2 6-12.5 14.9-12.5 4.7 0 8.2 1.2 10.2 2.3l-1.7 4.8c-1.5-.8-4.5-2.2-8.7-2.2-6.3 0-8.7 3.7-8.7 6.8 0 4.3 2.8 6.3 9.2 8.9 7.9 3 11.7 6.7 11.7 13.5 0 7.2-5.2 13.2-16 13.2-4.5 0-9.4-1.3-11.7-3l1.3-4.7zM83.3 245.1c.2 8.2 5.3 11.5 11.4 11.5 4.3 0 6.8-.8 9.2-1.7l1 4.3c-2.2 1-5.7 2-11 2-10.2 0-16.2-6.7-16.2-16.7s5.8-17.9 15.5-17.9c10.9 0 13.7 9.5 13.7 15.5 0 1.2-.2 2.2-.2 2.8H83.3zm17.7-4.3c0-3.8-1.5-9.7-8.4-9.7-6 0-8.7 5.7-9.2 9.7H101zM137.7 259.3c-1.5.8-5 1.8-9.5 1.8-10 0-16.5-6.7-16.5-16.9s7-17.5 17.7-17.5c3.5 0 6.7.8 8.4 1.7l-1.3 4.7c-1.5-.8-3.7-1.5-7-1.5-7.5 0-11.7 5.5-11.7 12.5 0 7.7 4.8 12.4 11.5 12.4 3.3 0 5.7-.8 7.3-1.7l1.1 4.5zM172.3 251.5c0 3.3 0 6.3.3 9h-5.3l-.3-5.3h-.2c-1.5 2.7-5 6.2-10.9 6.2-5.2 0-11.4-2.8-11.4-14.5v-19.4h6v18.4c0 6.3 1.8 10.5 7.3 10.5 4 0 6.8-2.8 7.9-5.5.3-.8.5-2 .5-3v-20.4h6v24zM182.3 237.8c0-3.8 0-7.2-.3-10.4h5.2l.2 6.5h.3c1.5-4.5 5.2-7.2 9.2-7.2.7 0 1.2 0 1.7.2v5.7c-.7-.2-1.2-.2-2-.2-4.2 0-7.2 3.2-8 7.7-.2.8-.3 1.8-.3 2.8v17.5h-6v-22.7zM211.4 218.2c0 2-1.5 3.7-3.8 3.7-2.2 0-3.7-1.7-3.7-3.7 0-2.2 1.5-3.7 3.7-3.7 2.3-.1 3.8 1.6 3.8 3.7zm-6.7 42.3v-33.1h6v33.1h-6zM227.9 218.1v9.5h8.7v4.5h-8.7V250c0 4.2 1.2 6.3 4.5 6.3 1.5 0 2.7-.2 3.5-.3l.3 4.5c-1.2.5-3 .8-5.3.8-2.8 0-5-.8-6.5-2.5-1.7-1.8-2.3-4.7-2.3-8.7v-18h-5.2v-4.5h5.2v-7.9l5.8-1.6z"/><g><path class="st0" d="M246.6 227.4l7.2 19.5c.8 2.2 1.5 4.8 2.2 6.8h.2c.7-2 1.3-4.5 2.2-6.8l6.5-19.4h6.3l-9 23.6c-4.3 11.4-7.2 17.2-11.4 20.7-3 2.7-5.8 3.7-7.3 3.8l-1.5-5c1.5-.5 3.5-1.5 5.2-3 1.7-1.3 3.7-3.7 5-6.7.3-.7.5-1.2.5-1.5 0-.3-.2-.8-.3-1.5l-12.2-30.4h6.5v-.1z"/></g><g><path class="st0" d="M45.7 325.8c2.7 1.7 6.5 3 10.7 3 6 0 9.7-3.2 9.7-7.9 0-4.3-2.5-6.8-8.7-9.2-7.5-2.7-12.2-6.5-12.2-13 0-7.2 6-12.5 14.9-12.5 4.7 0 8.2 1.2 10.2 2.3l-1.7 4.8c-1.5-.8-4.5-2.2-8.7-2.2-6.3 0-8.7 3.7-8.7 6.8 0 4.3 2.8 6.3 9.2 8.9 7.9 3 11.7 6.7 11.7 13.5 0 7.2-5.2 13.2-16 13.2-4.5 0-9.4-1.3-11.7-3l1.3-4.7zM87.1 290.6v9.5h8.7v4.5h-8.7v17.9c0 4.2 1.2 6.3 4.5 6.3 1.5 0 2.7-.2 3.5-.3l.3 4.5c-1.2.5-3 .8-5.3.8-2.8 0-5-.8-6.5-2.5-1.7-1.8-2.3-4.7-2.3-8.7v-18h-5.2v-4.5h5.2v-7.9l5.8-1.6zM120.8 333l-.5-4.2h-.2c-1.8 2.7-5.3 4.8-10 4.8-6.7 0-10-4.7-10-9.5 0-8 7-12.4 19.9-12.4v-.7c0-2.7-.7-7.7-7.5-7.7-3 0-6.3 1-8.5 2.5l-1.3-4c2.7-1.8 6.7-3 10.9-3 10 0 12.5 6.8 12.5 13.5v12.4c0 2.8.2 5.7.5 7.9h-5.7v.4zm-.8-16.9c-6.5-.2-14 1-14 7.5 0 3.8 2.7 5.7 5.7 5.7 4.3 0 7-2.7 8-5.5.2-.7.3-1.3.3-1.8v-5.9zM135.4 308.9c0-3.3 0-6.2-.3-9h5.3l.3 5.5h.2c1.7-3.2 5.5-6.2 10.9-6.2 4.5 0 11.7 2.7 11.7 14V333h-5.8v-19c0-5.3-2-9.7-7.7-9.7-4 0-7 2.8-8 6.2-.3.8-.5 1.8-.5 2.8v19.9h-6v-24.3zM201.8 284.5v39.9c0 3 0 6.3.3 8.5h-5.3l-.3-5.7h-.2c-1.8 3.7-5.8 6.5-11.2 6.5-8 0-14.2-6.7-14.2-16.9 0-11 6.8-17.7 14.9-17.7 5 0 8.5 2.3 10 5h.2v-19.7c0 .1 5.8.1 5.8.1zm-6 28.9c0-.7 0-1.8-.3-2.5-.8-3.8-4.2-7-8.7-7-6.2 0-9.9 5.5-9.9 12.7 0 6.7 3.3 12.2 9.7 12.2 4 0 7.7-2.7 8.9-7.2.2-.8.3-1.7.3-2.7v-5.5zM230.1 333l-.5-4.2h-.2c-1.8 2.7-5.3 4.8-10 4.8-6.7 0-10-4.7-10-9.5 0-8 7-12.4 19.9-12.4v-.7c0-2.7-.7-7.7-7.5-7.7-3 0-6.3 1-8.5 2.5l-1.3-4c2.7-1.8 6.7-3 10.9-3 10 0 12.5 6.8 12.5 13.5v12.4c0 2.8.2 5.7.5 7.9h-5.7v.4zm-.9-16.9c-6.5-.2-14 1-14 7.5 0 3.8 2.7 5.7 5.7 5.7 4.3 0 7-2.7 8-5.5.2-.7.3-1.3.3-1.8v-5.9zM244.6 310.3c0-3.8 0-7.2-.3-10.4h5.2l.2 6.5h.3c1.5-4.5 5.2-7.2 9.2-7.2.7 0 1.2 0 1.7.2v5.7c-.7-.2-1.2-.2-2-.2-4.2 0-7.2 3.2-8 7.7-.2.8-.3 1.8-.3 2.8V333h-6v-22.7zM295.5 284.5v39.9c0 3 0 6.3.3 8.5h-5.3l-.3-5.7h-.2c-1.8 3.7-5.8 6.5-11.2 6.5-8 0-14.2-6.7-14.2-16.9 0-11 6.8-17.7 14.9-17.7 5 0 8.5 2.3 10 5h.2v-19.7c0 .1 5.8.1 5.8.1zm-6 28.9c0-.7 0-1.8-.3-2.5-.8-3.8-4.2-7-8.7-7-6.2 0-9.9 5.5-9.9 12.7 0 6.7 3.3 12.2 9.7 12.2 4 0 7.7-2.7 8.9-7.2.2-.8.3-1.7.3-2.7v-5.5zM304.7 327c1.8 1.2 4.8 2.3 7.9 2.3 4.3 0 6.3-2.2 6.3-4.8 0-2.8-1.7-4.5-6.2-6-6-2.2-8.7-5.3-8.7-9.4 0-5.3 4.3-9.7 11.4-9.7 3.3 0 6.3 1 8.2 2l-1.5 4.3c-1.3-.8-3.7-1.8-6.7-1.8-3.5 0-5.5 2-5.5 4.5 0 2.7 2 4 6.3 5.7 5.7 2.2 8.7 5 8.7 10 0 5.8-4.5 9.9-12.4 9.9-3.7 0-7-.8-9.4-2.2l1.6-4.8z"/></g><g><path class="st0" d="M387.4 331.5c-2.2 1.2-6.5 2.2-12.2 2.2-13 0-22.7-8.2-22.7-23.2 0-14.4 9.7-24.2 24.1-24.2 5.7 0 9.4 1.2 10.9 2l-1.5 4.8c-2.2-1.2-5.5-1.8-9.4-1.8-10.9 0-18 6.8-18 19 0 11.2 6.5 18.5 17.7 18.5 3.7 0 7.3-.7 9.7-1.8l1.4 4.5z"/></g><g><path class="st0" d="M423.8 316.3c0 12.2-8.5 17.5-16.5 17.5-9 0-15.9-6.5-15.9-17 0-11 7.2-17.5 16.4-17.5 9.7-.1 16 6.8 16 17zm-26.2.3c0 7.2 4.2 12.7 10 12.7 5.7 0 10-5.3 10-12.9 0-5.7-2.8-12.7-9.9-12.7-6.9 0-10.1 6.6-10.1 12.9zM459.1 324c0 3.3 0 6.3.3 9h-5.3l-.3-5.3h-.2c-1.5 2.7-5 6.2-10.9 6.2-5.2 0-11.4-2.8-11.4-14.5V300h6v18.4c0 6.3 1.8 10.5 7.3 10.5 4 0 6.8-2.8 7.9-5.5.3-.8.5-2 .5-3v-20.2h6V324zM469.1 308.9c0-3.3 0-6.2-.3-9h5.3l.3 5.5h.2c1.7-3.2 5.5-6.2 10.9-6.2 4.5 0 11.7 2.7 11.7 14V333h-6v-19c0-5.3-2-9.7-7.7-9.7-4 0-7 2.8-8 6.2-.3.8-.5 1.8-.5 2.8v19.9h-6V309h.1zM530.4 331.8c-1.5.8-5 1.8-9.5 1.8-10 0-16.5-6.7-16.5-16.9s7-17.5 17.7-17.5c3.5 0 6.7.8 8.4 1.7l-1.3 4.7c-1.5-.8-3.7-1.5-7-1.5-7.5 0-11.7 5.7-11.7 12.5 0 7.7 4.8 12.4 11.5 12.4 3.3 0 5.7-.8 7.3-1.7l1.1 4.5zM544.3 290.7c0 2-1.5 3.7-3.8 3.7-2.2 0-3.7-1.7-3.7-3.7 0-2.2 1.5-3.7 3.7-3.7 2.2-.1 3.8 1.5 3.8 3.7zm-6.7 42.3v-33.1h6V333h-6zM553.4 284.5h6V333h-6v-48.5z"/></g><g><path class="st0" d="M563.6 227.7c0 7.9-6.2 14-14.2 14-8 0-14.4-6.2-14.4-14 0-7.7 6.3-13.9 14.4-13.9 8 .1 14.2 6.3 14.2 13.9zm-25 0c0 6.2 4.5 11 10.9 11 6.2 0 10.5-4.8 10.5-11s-4.5-11.2-10.7-11.2c-6.1.2-10.7 5.1-10.7 11.2zm8.5 7.4h-3.2v-13.9c1.3-.2 3-.5 5.3-.5 2.7 0 3.8.5 4.8 1 .8.7 1.3 1.7 1.3 3 0 1.5-1.2 2.7-2.8 3.2v.2c1.3.5 2.2 1.5 2.5 3.3.5 2.2.7 3 1 3.5h-3.5c-.5-.5-.7-1.8-1.2-3.3-.3-1.5-1.2-2.2-2.8-2.2H547l.1 5.7zm.2-8h1.5c1.8 0 3.2-.7 3.2-2s-1-2.2-3-2.2c-.8 0-1.5.2-1.8.2v4h.1z"/></g><path class="st0" d="M-35.5 302.4c.8-.1 2.5-.4 5.3-.4 5.4.1 8.6 2.5 8.6 7.2 0 4.6-3.5 7.5-9.3 7.5h-4.6v-14.3zM-47 345.5h11.5v-20.3h3.5c4.8.1 7 1.9 8.4 8.3 1.5 6.4 2.8 10.6 3.6 12h12c-1-2-2.6-8.8-4.2-14.6-1.3-4.8-3.3-8.2-6.9-9.7v-.2c4.4-1.6 9.1-6.2 9.1-12.7 0-4.8-1.7-8.4-4.8-10.9-3.7-2.9-9.1-4.1-16.7-4.1-6.2 0-11.8.5-15.6 1.1v51h.1zm-21.9 0h11.8v-51.8h-11.8v51.8zm-32.6-8.5c-7.8 0-12.6-7.5-12.5-17.4 0-9.7 4.6-17.5 12.6-17.5s12.4 7.8 12.4 17.3c0 10.2-4.6 17.6-12.5 17.6m25.1 8.3c-4.1-.8-8.5-1.8-12.5-2.9v-.3c6.8-3 12.3-11.3 12.3-23.1 0-14.1-8.7-26.1-24.5-26.1-15.4 0-25.3 11.7-25.3 27.2 0 16.9 10.9 25.5 22.6 26.3 1.2.1 2.5.3 3.6.8 6.9 2.9 13.1 5.1 20.5 7.3l3.3-9.2z"/></svg>