<svg id="Layer_1" xmlns="http://www.w3.org/2000/svg" viewBox="-386 234.1 186.4 93.9"><style>.st0{fill:#a6acb6}</style><path class="st0" d="M-349.5 274.6l-7-21.6h3l3.4 10.6c.9 2.9 1.7 5.5 2.3 8.1h.1c.6-2.5 1.5-5.2 2.4-8l3.7-10.7h3l-7.7 21.6h-3.2zM-337.1 267.4c.1 3.8 2.5 5.4 5.3 5.4 2 0 3.2-.4 4.3-.8l.5 2c-1 .4-2.7.9-5.2.9-4.8 0-7.6-3.2-7.6-7.8 0-4.7 2.7-8.4 7.2-8.4 5.1 0 6.4 4.4 6.4 7.3 0 .6-.1 1-.1 1.3l-10.8.1zm8.2-2c.1-1.8-.7-4.6-3.9-4.6-2.9 0-4.1 2.7-4.3 4.6h8.2zM-323.9 263.9c0-1.8 0-3.4-.1-4.8h2.4l.1 3h.1c.7-2.1 2.4-3.4 4.3-3.4.3 0 .6 0 .8.1v2.7c-.3-.1-.6-.1-.9-.1-2 0-3.4 1.5-3.8 3.6-.1.4-.1.9-.1 1.3v8.2h-2.8v-10.6zM-311.5 254.7c0 .9-.6 1.7-1.8 1.7-1 0-1.7-.8-1.7-1.7 0-1 .7-1.8 1.8-1.8 1 0 1.7.8 1.7 1.8m-3.1 4.4h2.8v15.5h-2.8v-15.5zM-308.1 274.6v-13.3h-2.2v-2.2h2.2v-.7c0-2.2.5-4.2 1.8-5.5 1.1-1 2.4-1.4 3.8-1.4 1 0 1.9.2 2.4.4l-.4 2.2c-.4-.2-1-.4-1.8-.4-2.4 0-3 2.1-3 4.5v.9h3.7v2.2h-3.7v13.3h-2.8zM-295.7 254.7c.1.9-.6 1.7-1.8 1.7-1 0-1.7-.8-1.7-1.7 0-1 .7-1.8 1.8-1.8s1.7.8 1.7 1.8m-3.1 4.4h2.8v15.5h-2.8v-15.5zM-291 267.4c.1 3.8 2.5 5.4 5.3 5.4 2 0 3.2-.4 4.3-.8l.5 2c-1 .4-2.7.9-5.2.9-4.8 0-7.6-3.2-7.6-7.8 0-4.7 2.7-8.4 7.2-8.4 5.1 0 6.4 4.4 6.4 7.3 0 .6-.1 1-.1 1.3l-10.8.1zm8.2-2c0-1.8-.7-4.6-3.9-4.6-2.9 0-4.1 2.7-4.3 4.6h8.2zM-264.4 251.9v18.7c0 1.4 0 2.9.1 4h-2.5l-.1-2.7h-.1c-.9 1.7-2.7 3-5.3 3-3.7 0-6.6-3.2-6.6-7.9 0-5.2 3.2-8.3 7-8.3 2.4 0 3.9 1.1 4.7 2.4h.1v-9.2h2.7zm-2.8 13.5c0-.4 0-.9-.1-1.2-.4-1.8-1.9-3.3-4.1-3.3-2.9 0-4.7 2.6-4.7 6 0 3.2 1.5 5.7 4.6 5.7 1.9 0 3.6-1.2 4.2-3.4.1-.4.1-.8.1-1.2v-2.6zM-254 274.6c.1-1.1.1-2.7.1-4v-18.7h2.8v9.8h.1c1-1.7 2.8-2.9 5.3-2.9 3.9 0 6.6 3.2 6.5 7.9 0 5.5-3.5 8.3-7 8.3-2.2 0-4-.9-5.2-2.9h-.1l-.1 2.6h-2.4zm2.9-6.2c0 .4.1.7.1 1 .6 1.9 2.2 3.3 4.2 3.3 2.9 0 4.7-2.4 4.7-6 0-3.1-1.6-5.7-4.6-5.7-1.9 0-3.7 1.3-4.3 3.4-.1.3-.1.7-.1 1.1v2.9zM-236.1 259.1l3.4 9.2c.4 1 .7 2.2 1 3.2h.1c.3-.9.6-2.2 1-3.2l3.1-9.1h3l-4.2 11c-2 5.3-3.4 8-5.3 9.7-1.4 1.2-2.7 1.7-3.4 1.8l-.7-2.4c.7-.2 1.6-.6 2.4-1.4.8-.6 1.7-1.7 2.4-3.2.1-.3.2-.5.2-.6 0-.1-.1-.4-.2-.7l-5.7-14.3h2.9z"/><g><path class="st0" d="M-302.1 284.1l-5.8 14.7-2.3-12.5c-.3-1.4-1.4-2.2-2.6-2.2h-9.5l-.1.6c2 .4 4.2 1.1 5.5 1.9.8.4 1.1.8 1.3 1.9l4.5 17.3h6l9.1-21.7h-6.1zM-293.8 284.1l-4.6 21.7h5.6l4.6-21.7zM-280.8 290.1c0-.8.8-1.6 2.4-1.8.8-.1 3-.2 5.5 1l1-4.6c-1.4-.5-3.1-1-5.2-1-5.5 0-9.4 2.9-9.5 7.2 0 3.1 2.8 4.8 4.9 5.9 2.2 1.1 2.9 1.7 2.9 2.7 0 1.5-1.8 2.1-3.3 2.1-2.8 0-4.5-.8-5.8-1.4l-1 4.7c1.3.6 3.7 1.1 6.2 1.1 5.9 0 9.7-2.9 9.7-7.4.1-5.6-7.8-5.9-7.8-8.5M-264.6 298.1l3-8.1 1.7 8.1h-4.7zm2.1-14c-1.1 0-2 .6-2.4 1.6l-8.4 20.1h5.9l1.2-3.2h7.2l.7 3.2h5.2l-4.5-21.7h-4.9z"/></g></svg>