<svg id="Layer_1" xmlns="http://www.w3.org/2000/svg" viewBox="0 0 300 300"><style>.st0{fill:#383fcf}</style><path class="st0" d="M275.2 290.3c-3.4-16.4-23.4-33.9-47.8-33.9-10.7 0-22.2 1.8-31.9 3.9 12.3-15.1 17.3-36.4 17.3-57.1 0-20.1-3.4-35.5-6.3-45l20.4 2.6-5.1-8.5c-.1-.2-13.8-23.7-13.8-60.4C208 59.8 208 0 154.8 0c-1 0-24 .2-35.9 14-1.8-.3-4.1-.4-6.6 0-6.6.9-11.6 4.9-14.5 11.1-6 2.1-20.5 8.6-20.5 23.3 0 9.6 4 15.7 9.1 19.4H0v9.7h43.3C23.2 87.5 0 107.3 0 145.2h9.7c0-56.5 58.1-66.9 63.3-67.7h18.9c.5 2.6 1.5 5.4 3.4 7.8 1.9 2.4 4.5 4.2 7.5 5.3-5.4 10-1.9 19.8 2.5 25.9-.3.8-.6 1.6-.9 2.5-4.9-5.9-12.5-12.4-22.1-12.4-10.7 0-14.5 8.7-14.5 14.5v2.4l1.9 1.5c25.2 18.9 21.4 35.4 16.6 56.3-2 8.6-4 17.5-4 27 0 22.3 5.5 39.7 15.9 51.9-9.4-1.9-20.2-3.6-30.4-3.6-24.4 0-44.4 17.5-47.8 33.9H0v9.7h300v-9.7h-24.8zM154.8 9.7c36.1 0 43.5 32.9 43.5 82.3 0 26.6 6.6 46.5 11.1 57l-6.6-.8c0-.1-.1-.2-.1-.2l-.3.1-22.1-2.8c-1.6-1-11-8.2-11-38.8 0-5.3 1.7-12.9 3.7-21.7 2.8-12.6 6-26.8 6-41.2h-9.7c0 13.3-3.1 27-5.8 39.1-2.1 9.4-3.9 17.5-3.9 23.8 0 2 .1 3.8.1 5.6l-19.9 3.3c.4-7.4 2.9-16 9.2-25.5 14.4-21.6 17.7-44.5 8.7-61.2-4.2-7.8-10.5-13.3-18.3-16.3 8-2.6 15.3-2.7 15.4-2.7zm-17.5 132.7l-23.1 6.6c-9.5-27.4 9-42.9 9.8-43.6l-6.1-7.5c-.1.1-3.6 3-7.3 8.4-1.6-4.2-1.7-9.9 4.1-15.7 2.1-2.1 4.3-4.2 6.5-6.3 12.2-11.8 25.6-24.8 31.1-42.8 2.7 12.5-1.1 27.9-11.1 43-17.8 26.5-9.8 47.9-3.9 57.9zm-34.4-63.1c-1.5-1.8-1.8-4.5-1.8-6.7h10.2v-9.7h-9.6c-2.4 0-14.5-.9-14.5-14.5 0-10.5 15.5-14.6 15.7-14.7l2.6-.6.8-2.5c3-9.1 10.9-7.3 13.2-6.6l3.5 1.2 2-3.2c.6-.9 1.4-1.8 2.1-2.6 7.1.3 13.3 3 17.9 7.7-1.3 21.7-16.1 36.1-30.6 50.1-1.7 1.6-3.3 3.3-5 4.9-3-.2-5.2-1.2-6.5-2.8zm-11 128.8c0-8.4 1.9-16.7 3.8-24.8 4.8-20.8 9.7-42.4-17.9-64.4.5-1.5 1.8-2.7 4.5-2.7 9.1 0 17 11.3 19.6 16.2-.2 7.2 1.1 15.3 5 24.4l1.7 3.9 18-5.1c5.5 2.5 19.3 10.6 22.7 29.1-9.6 2.2-28.2 10.7-28.2 42.8v4.8h4.8c.3 0 33.9-.4 33.9-38.7 0-22-11.4-34.8-20.6-41.6l15-4.3-5.4-5.8c-.4-.5-6-6.6-8-16.8l19.9-3.3c3.3 27.4 15.4 32.4 16.9 32.9L196 157c2.7 7.6 7.3 23.8 7.3 46.3 0 15.9-3.8 67.7-53.2 67.7-38.6 0-58.2-21.2-58.2-62.9zm58.1-13.8c-.3 20.2-12 26-19.1 27.6 1.7-19.9 12.5-25.9 19.1-27.6zm-120.1 96c3.7-11 18.7-24.2 37.8-24.2 23.1 0 51.4 9.3 51.7 9.4l.1-.3c8.7 3.5 18.9 5.4 30.5 5.4 9.9 0 18.4-1.9 25.7-5.2v.1c.3-.1 28.6-9.4 51.7-9.4 19.1 0 34.2 13.2 37.8 24.2H29.9z"/><path class="st0" d="M179 164.5h9.7v9.7H179zM188.7 179h9.7v9.7h-9.7zM179 193.5h9.7v9.7H179zM169.4 212.9h9.7v9.7h-9.7zM188.7 212.9h9.7v9.7h-9.7zM179 232.3h9.7v9.7H179zM159.7 241.9h9.7v9.7h-9.7zM140.3 251.6h9.7v9.7h-9.7z"/></svg>