<svg id="Layer_1" xmlns="http://www.w3.org/2000/svg" viewBox="0 0 512 512"><style>.st0{fill:#383fcf}</style><path class="st0" d="M8.5 221.7V256c0 4.7 3.8 8.5 8.5 8.5s8.5-3.8 8.5-8.5v-43.8l8.5-5.7 8.5 5.7V256c0 4.7 3.8 8.5 8.5 8.5s8.5-3.8 8.5-8.5v-34.1c2.8 0 5.5-1.3 7.1-3.8 2.6-3.9 1.6-9.2-2.4-11.8l-21.8-14.5v-12.5c0-4.7-3.8-8.5-8.5-8.5s-8.5 3.8-8.5 8.5v12.5L3.8 206.2c-3.9 2.6-5 7.9-2.4 11.8 1.7 2.5 4.4 3.7 7.1 3.7zM179.2 238.9h153.6c2.3 0 4.4-.9 6-2.5 1.8-1.8 11-12.4 11-40.2 0-29.9-36.3-64.8-85.3-82.8V59.7c0-4.7-3.8-8.5-8.5-8.5s-8.5 3.8-8.5 8.5v53.7c-49 18-85.3 52.9-85.3 82.8 0 27.7 9.2 38.3 11 40.2 1.6 1.6 3.7 2.5 6 2.5zM256 128.5c47.5 16.6 76.8 47.9 76.8 67.8 0 13.9-2.8 21.9-4.6 25.6H183.8c-1.9-3.7-4.6-11.7-4.6-25.6 0-20 29.3-51.2 76.8-67.8zM452.3 221.7V256c0 4.7 3.8 8.5 8.5 8.5s8.5-3.8 8.5-8.5v-43.8l8.5-5.7 8.5 5.7V256c0 4.7 3.8 8.5 8.5 8.5s8.5-3.8 8.5-8.5v-34.1c2.8 0 5.5-1.3 7.1-3.8 2.6-3.9 1.6-9.2-2.4-11.8l-21.8-14.5v-12.5c0-4.7-3.8-8.5-8.5-8.5s-8.5 3.8-8.5 8.5v12.5l-21.8 14.5c-3.9 2.6-5 7.9-2.4 11.8 1.8 2.4 4.5 3.6 7.3 3.6z"/><path class="st0" d="M512 366.9c0-4.7-3.8-8.5-8.5-8.5h-51.2c-4.7 0-8.5 3.8-8.5 8.5s3.8 8.5 8.5 8.5v68.3h-17.1V264.5c0-4.7-3.8-8.5-8.5-8.5s-8.5 3.8-8.5 8.5v8.5h-11.4c-8.1-17.7-23-27.2-31.3-31.2v-28.5c0-4.7-3.8-8.5-8.5-8.5s-8.5 3.8-8.5 8.5v34.1c0 3.7 2.3 6.9 5.8 8.1.2.1 13.8 4.8 23 17.5h-62.9v-17c0-4.7-3.8-8.5-8.5-8.5s-8.5 3.8-8.5 8.5v25.6c0 4.7 3.8 8.5 8.5 8.5H418v153.6h-8.5v-34.1c0-4.7-3.8-8.5-8.5-8.5s-8.5 3.8-8.5 8.5v34.1h-17.1v-25.6c0-12.8-16.7-22.1-21.8-24.7-2.4-1.2-5.2-1.2-7.6 0-5.1 2.6-21.8 11.9-21.8 24.7v25.6h-17.1v-128c0-21.2-36.8-37.5-48-42.1-2-.8-4.3-.8-6.3 0-11.3 4.5-48 20.9-48 42.1v128h-17.1v-25.6c0-12.8-16.7-22.1-21.8-24.7-2.4-1.2-5.2-1.2-7.6 0-5.1 2.6-21.8 11.9-21.8 24.7v25.6h-17.1v-34.1c0-4.7-3.8-8.5-8.5-8.5s-8.5 3.8-8.5 8.5v34.1h-8.5V290.1h102.3c4.7 0 8.5-3.8 8.5-8.5V256c0-4.7-3.8-8.5-8.5-8.5s-8.5 3.8-8.5 8.5v17.1h-62.9c9.1-12.6 22.8-17.5 22.9-17.5 3.5-1.2 5.8-4.4 5.8-8.1v-34.1c0-4.7-3.8-8.5-8.5-8.5s-8.5 3.8-8.5 8.5v28.5c-8.3 4-23.2 13.5-31.3 31.2H93.9v-8.5c0-4.7-3.8-8.5-8.5-8.5s-8.5 3.8-8.5 8.5v179.2H59.7v-68.3c4.7 0 8.5-3.8 8.5-8.5s-3.8-8.5-8.5-8.5H8.5c-4.7 0-8.5 3.8-8.5 8.5s3.8 8.5 8.5 8.5v68.3c-4.7 0-8.5 3.8-8.5 8.5s3.8 8.5 8.5 8.5h494.9c4.7 0 8.5-3.8 8.5-8.5s-3.8-8.5-8.5-8.5v-68.3c4.8 0 8.6-3.9 8.6-8.6zM42.7 443.7H25.6v-68.3h17.1v68.3zm128 0h-17.1v-25.2c.5-1.6 4.3-4.9 8.6-7.6 4.3 2.7 8.1 5.9 8.5 7.3v25.5zm119.4 0h-68.3v-128c0-5.6 15.9-17 34.1-24.9 18.2 7.9 34.1 19.3 34.1 24.9l.1 128zm68.3 0h-17.1v-25.2c.5-1.6 4.3-4.9 8.6-7.6 4.3 2.7 8.1 5.9 8.5 7.3v25.5zm128 0h-17.1v-68.3h17.1v68.3z"/><path class="st0" d="M8.5 290.1v51.2c0 4.7 3.8 8.5 8.5 8.5s8.5-3.8 8.5-8.5v-51.2h17.1v51.2c0 4.7 3.8 8.5 8.5 8.5s8.5-3.8 8.5-8.5v-51.2c4.7 0 8.5-3.8 8.5-8.5s-3.8-8.5-8.5-8.5H8.5c-4.7 0-8.5 3.8-8.5 8.5s3.8 8.5 8.5 8.5zM102.4 324.3V367c0 4.7 3.8 8.5 8.5 8.5s8.5-3.8 8.5-8.5v-42.7c0-4.7-3.8-8.5-8.5-8.5s-8.5 3.8-8.5 8.5zM179.2 375.5c4.7 0 8.5-3.8 8.5-8.5v-34.1c0-12.8-16.7-22.1-21.8-24.7-2.4-1.2-5.2-1.2-7.6 0-5.1 2.6-21.8 11.9-21.8 24.7V367c0 4.7 3.8 8.5 8.5 8.5s8.5-3.8 8.5-8.5v-33.8c.5-1.6 4.3-4.9 8.6-7.6 4.3 2.7 8.1 5.9 8.5 7.3V367c.1 4.6 3.9 8.5 8.6 8.5zM366.9 375.5c4.7 0 8.5-3.8 8.5-8.5v-34.1c0-12.8-16.7-22.1-21.8-24.7-2.4-1.2-5.2-1.2-7.6 0-5.1 2.6-21.8 11.9-21.8 24.7V367c0 4.7 3.8 8.5 8.5 8.5s8.5-3.8 8.5-8.5v-33.8c.5-1.6 4.3-4.9 8.6-7.6 4.3 2.7 8.1 5.9 8.5 7.3V367c.1 4.6 3.9 8.5 8.6 8.5zM401.1 375.5c4.7 0 8.5-3.8 8.5-8.5v-42.7c0-4.7-3.8-8.5-8.5-8.5s-8.5 3.8-8.5 8.5V367c-.1 4.6 3.7 8.5 8.5 8.5zM503.5 273.1h-51.2c-4.7 0-8.5 3.8-8.5 8.5s3.8 8.5 8.5 8.5v51.2c0 4.7 3.8 8.5 8.5 8.5s8.5-3.8 8.5-8.5v-51.2h17.1v51.2c0 4.7 3.8 8.5 8.5 8.5s8.5-3.8 8.5-8.5v-51.2c4.7 0 8.5-3.8 8.5-8.5s-3.7-8.5-8.4-8.5z"/></svg>