<?xml version="1.0" encoding="utf-8"?>
<!-- Generator: Adobe Illustrator 19.0.0, SVG Export Plug-In . SVG Version: 6.00 Build 0)  -->
<svg version="1.1" id="Capa_1" xmlns="http://www.w3.org/2000/svg" xmlns:xlink="http://www.w3.org/1999/xlink" x="0px" y="0px"
	 viewBox="-223 25 512 512" style="enable-background:new -223 25 512 512;" xml:space="preserve">
<style type="text/css">
	.st0{fill:url(#SVGID_1_);}
	.st1{fill:url(#SVGID_2_);}
	.st2{fill:url(#SVGID_3_);}
	.st3{fill:url(#SVGID_4_);}
	.st4{fill:url(#SVGID_5_);}
	.st5{fill:url(#SVGID_6_);}
	.st6{fill:url(#SVGID_7_);}
	.st7{fill:url(#SVGID_8_);}
</style>
<g>
	<g>
		<linearGradient id="SVGID_1_" gradientUnits="userSpaceOnUse" x1="-222.9995" y1="354.8908" x2="141.2182" y2="354.8908">
			<stop  offset="0" style="stop-color:#C22AFF"/>
			<stop  offset="1" style="stop-color:#3F00D4"/>
		</linearGradient>
		<path class="st0" d="M135.4,178.6c-7.8-7.8-20.5-7.8-28.3,0l-209.2,209.2c-3.6,3.6-5.5,8.2-5.8,12.9l-110.7,110.7
			c-5.9,5.9-5.9,15.4,0,21.2c2.9,2.9,6.8,4.4,10.6,4.4c3.8,0,7.7-1.5,10.6-4.4l110.7-110.7c4.7-0.3,9.3-2.2,12.9-5.8l209.2-209.2
			C143.2,199.1,143.2,186.4,135.4,178.6z"/>
	</g>
</g>
<g>
	<g>
		<linearGradient id="SVGID_2_" gradientUnits="userSpaceOnUse" x1="178.24" y1="102.7547" x2="244.254" y2="102.7547">
			<stop  offset="0" style="stop-color:#C22AFF"/>
			<stop  offset="1" style="stop-color:#3F00D4"/>
		</linearGradient>
		<path class="st1" d="M239.9,74.1c-5.9-5.9-15.4-5.9-21.2,0l-36,36c-5.9,5.9-5.9,15.4,0,21.2c2.9,2.9,6.8,4.4,10.6,4.4
			c3.8,0,7.7-1.5,10.6-4.4l36-36C245.7,89.5,245.7,80,239.9,74.1z"/>
	</g>
</g>
<g>
	<g>
		<linearGradient id="SVGID_3_" gradientUnits="userSpaceOnUse" x1="178.24" y1="282.8094" x2="244.2536" y2="282.8094">
			<stop  offset="0" style="stop-color:#C22AFF"/>
			<stop  offset="1" style="stop-color:#3F00D4"/>
		</linearGradient>
		<path class="st2" d="M239.9,290.2l-36-36c-5.9-5.9-15.4-5.9-21.2,0c-5.9,5.9-5.9,15.4,0,21.2l36,36c2.9,2.9,6.8,4.4,10.6,4.4
			s7.7-1.5,10.6-4.4C245.7,305.6,245.7,296.1,239.9,290.2z"/>
	</g>
</g>
<g>
	<g>
		<linearGradient id="SVGID_4_" gradientUnits="userSpaceOnUse" x1="-1.8145" y1="102.7546" x2="64.1972" y2="102.7546">
			<stop  offset="0" style="stop-color:#C22AFF"/>
			<stop  offset="1" style="stop-color:#3F00D4"/>
		</linearGradient>
		<path class="st3" d="M59.8,110.2l-36-36c-5.9-5.9-15.4-5.9-21.2,0s-5.9,15.4,0,21.2l36,36c2.9,2.9,6.8,4.4,10.6,4.4
			s7.7-1.5,10.6-4.4C65.7,125.5,65.7,116,59.8,110.2z"/>
	</g>
</g>
<g>
	<g>
		<linearGradient id="SVGID_5_" gradientUnits="userSpaceOnUse" x1="208.074" y1="192.782" x2="289.001" y2="192.782">
			<stop  offset="0" style="stop-color:#C22AFF"/>
			<stop  offset="1" style="stop-color:#3F00D4"/>
		</linearGradient>
		<path class="st4" d="M274,177.8h-50.9c-8.3,0-15,6.7-15,15s6.7,15,15,15H274c8.3,0,15-6.7,15-15S282.3,177.8,274,177.8z"/>
	</g>
</g>
<g>
	<g>
		<linearGradient id="SVGID_6_" gradientUnits="userSpaceOnUse" x1="-46.564" y1="192.782" x2="34.363" y2="192.782">
			<stop  offset="0" style="stop-color:#C22AFF"/>
			<stop  offset="1" style="stop-color:#3F00D4"/>
		</linearGradient>
		<path class="st5" d="M19.4,177.8h-50.9c-8.3,0-15,6.7-15,15s6.7,15,15,15h50.9c8.3,0,15-6.7,15-15S27.6,177.8,19.4,177.8z"/>
	</g>
</g>
<g>
	<g>
		<linearGradient id="SVGID_7_" gradientUnits="userSpaceOnUse" x1="106.219" y1="320.101" x2="136.219" y2="320.101">
			<stop  offset="0" style="stop-color:#C22AFF"/>
			<stop  offset="1" style="stop-color:#3F00D4"/>
		</linearGradient>
		<path class="st6" d="M121.2,279.6c-8.3,0-15,6.7-15,15v50.9c0,8.3,6.7,15,15,15s15-6.7,15-15v-50.9
			C136.2,286.4,129.5,279.6,121.2,279.6z"/>
	</g>
</g>
<g>
	<g>
		<linearGradient id="SVGID_8_" gradientUnits="userSpaceOnUse" x1="106.219" y1="65.463" x2="136.219" y2="65.463">
			<stop  offset="0" style="stop-color:#C22AFF"/>
			<stop  offset="1" style="stop-color:#3F00D4"/>
		</linearGradient>
		<path class="st7" d="M121.2,25c-8.3,0-15,6.7-15,15v50.9c0,8.3,6.7,15,15,15s15-6.7,15-15V40C136.2,31.7,129.5,25,121.2,25z"/>
	</g>
</g>
</svg>
