<svg xmlns="http://www.w3.org/2000/svg" width="37" height="36"><path data-name="Forma 1" d="M30.312 16.31a.675.675 0 1 1-.673.68.674.674 0 0 1 .673-.68zm-24.238 0a.675.675 0 1 1-.673.68.674.674 0 0 1 .673-.68zm2.02 2.03a.675.675 0 1 1-.673.67.671.671 0 0 1 .673-.67zm4.039 0a.675.675 0 1 1-.673.67.672.672 0 0 1 .673-.67zm-2.019 2.02a.68.68 0 0 1 .673.68.674.674 0 0 1-1.347 0 .681.681 0 0 1 .674-.68zm4.039 0a.681.681 0 0 1 .674.68.674.674 0 0 1-1.347 0 .68.68 0 0 1 .673-.68zm2.02 2.03a.675.675 0 1 1-.673.68.674.674 0 0 1 .673-.68zm4.04 0a.675.675 0 1 1-.674.68.674.674 0 0 1 .674-.68zm2.02-2.03a.681.681 0 0 1 .673.68.674.674 0 0 1-1.347 0 .681.681 0 0 1 .674-.68zm-4.04 4.06a.675.675 0 1 1-.673.67.671.671 0 0 1 .673-.67zm6.059-6.08a.675.675 0 1 1-.673.67.672.672 0 0 1 .673-.67zm4.04 0a.675.675 0 1 1-.673.67.671.671 0 0 1 .673-.67zm-2.02 2.02a.68.68 0 0 1 .673.68.673.673 0 0 1-1.346 0 .68.68 0 0 1 .673-.68zm4.4 1.23l6.325-3.62-6.5-3.71 6.5-3.72L18.5 0 0 10.54l6.5 3.72L0 17.97l6.5 3.72L0 25.4 18.5 36 37 25.4l-6.5-3.71.048-.02a.684.684 0 0 0 .126-.08zM18.5 1.55l15.779 8.99-5.142 2.95-10.636 6.09-15.78-9.04zM7.493 15.25a.666.666 0 0 0 1.067.19l1.523.88a.662.662 0 0 0-.643.67.674.674 0 0 0 1.347 0 .643.643 0 0 0-.089-.32l6.955 3.99a.638.638 0 0 0-.133.38.673.673 0 0 0 1.346 0 .7.7 0 0 0-.019-.1l6.767-3.88a.664.664 0 0 0 .658.6.674.674 0 0 0 .673-.68.655.655 0 0 0-.273-.52l1.483-.85a.621.621 0 0 0 .137.02.67.67 0 0 0 .631-.46l.216-.13 5.14 2.93-1.335.77a.664.664 0 0 0-.612-.4.672.672 0 0 0-.673.67.639.639 0 0 0 .134.38l-2.656 1.53-4.3 2.46a.633.633 0 0 0 .09-.32.673.673 0 0 0-1.346 0 .663.663 0 0 0 .644.67l-1.524.88a.655.655 0 0 0-.467-.19.672.672 0 0 0-.673.67.57.57 0 0 0 .031.15l-3.09 1.78-3.715-2.13a.666.666 0 0 0-.632-.47.639.639 0 0 0-.139.02l-1.482-.85a.639.639 0 0 0 .274-.52.674.674 0 0 0-.673-.68.664.664 0 0 0-.658.6l-6.769-3.88a.5.5 0 0 0 .02-.1.672.672 0 0 0-.673-.67.633.633 0 0 0-.419.16l-.915-.53zM34.278 25.4l-15.779 9.05L2.721 25.4l5.139-2.93 10.64 6.1 10.639-6.1z" fill="#fff" fill-rule="evenodd"/></svg>