<svg xmlns="http://www.w3.org/2000/svg" width="29" height="35"><path data-name="Forma 1" d="M13.05 19.54l-4.39-4.21-1.87 1.98 6.41 6.16 9.76-10.97-2.01-1.83zM25.64 4.46a21.85 21.85 0 0 1-7.82-3.44 5.913 5.913 0 0 0-6.64 0 21.85 21.85 0 0 1-7.82 3.44A4.09 4.09 0 0 0 0 8.5v8.25a15.39 15.39 0 0 0 2.25 7.9 22.816 22.816 0 0 0 4.8 5.58 31.177 31.177 0 0 0 6.9 4.52l.55.25.55-.25a31.177 31.177 0 0 0 6.9-4.52 22.816 22.816 0 0 0 4.8-5.58 15.39 15.39 0 0 0 2.25-7.9V8.5a4.09 4.09 0 0 0-3.36-4.04zm.65 12.29c0 4.06-2.03 7.88-6.05 11.36a29.847 29.847 0 0 1-5.74 3.87c-2.4-1.23-11.79-6.6-11.79-15.23V8.5a1.364 1.364 0 0 1 1.13-1.35 24.342 24.342 0 0 0 8.85-3.86 3.205 3.205 0 0 1 3.62 0 24.342 24.342 0 0 0 8.85 3.86 1.364 1.364 0 0 1 1.13 1.35v8.25z" fill="#fff" fill-rule="evenodd"/></svg>