<svg xmlns="http://www.w3.org/2000/svg" width="34" height="34"><path data-name="Forma 1" d="M26.208 30.46h-3.541v-2.84H21.25v2.84H4.958a.7.7 0 0 0-.708.71 1.417 1.417 0 0 1-2.833 0V1.75l2.57 1.03a.685.685 0 0 0 .526 0l3.279-1.31 3.279 1.31a.682.682 0 0 0 .525 0l3.279-1.31 3.279 1.31a.682.682 0 0 0 .525 0l2.571-1.03v4.62h1.417V.71a.782.782 0 0 0-.051-.27.7.7 0 0 0-.92-.39l-3.279 1.31L15.138.05a.685.685 0 0 0-.526 0l-3.279 1.31L8.055.05a.685.685 0 0 0-.526 0L4.25 1.36.971.05A.782.782 0 0 0 .708 0 .71.71 0 0 0 0 .71v30.46A2.834 2.834 0 0 0 2.833 34h21.25a2.834 2.834 0 0 0 2.834-2.83.7.7 0 0 0-.709-.71zm-2.125 2.12h-18.8a2.757 2.757 0 0 0 .291-.71h19.732a1.412 1.412 0 0 1-1.223.71zm9.209-24.79H11.333V6.37H9.917v21.25h1.416v-1.41h21.959A.71.71 0 0 0 34 25.5v-17a.71.71 0 0 0-.708-.71zm-.709 4.18a3.553 3.553 0 0 1-2.761-2.76h2.761v2.76zm-21.25-2.76h17.052a4.977 4.977 0 0 0 4.2 4.2v6.47a5.671 5.671 0 0 0-4.912 4.91h-16.34V9.21zm17.769 15.58a4.253 4.253 0 0 1 3.481-3.48v3.48H29.1zM28.333 17a6.375 6.375 0 1 0-6.375 6.37A6.38 6.38 0 0 0 28.333 17zm-6.375 4.96A4.96 4.96 0 1 1 26.917 17a4.959 4.959 0 0 1-4.959 4.96zm0-7.09a.711.711 0 0 1 .709.71h1.416a2.124 2.124 0 0 0-1.416-2v-.83H21.25v.83a2.126 2.126 0 0 0 .708 4.13.705.705 0 1 1-.708.71h-1.417a2.125 2.125 0 0 0 1.417 2v.83h1.417v-.83a2.126 2.126 0 0 0-.709-4.13.71.71 0 0 1 0-1.42zm-19.125 8.5H4.25v1.42H2.833v-1.42zm0 2.84H4.25v1.41H2.833v-1.41zm2.834 0h1.416v1.41H5.667v-1.41zM2.833 6.37H8.5v1.42H2.833V6.37zm0 2.84H8.5v1.41H2.833V9.21zm0 2.83h2.834v1.42H2.833v-1.42z" fill="#fff" fill-rule="evenodd"/></svg>