<svg xmlns="http://www.w3.org/2000/svg" width="34" height="34"><path data-name="Forma 1" d="M26.19 32.87a.634.634 0 0 0-.47-.2.666.666 0 0 0-.66.67.66.66 0 0 0 .19.46.668.668 0 0 0 .47.2.634.634 0 0 0 .47-.2.641.641 0 0 0 0-.93zm4.35-6.5l-1.75-.33a.631.631 0 0 1-.23-.08 1.014 1.014 0 0 0-.13-.09.8.8 0 0 1-.3-.61 4.515 4.515 0 0 0 2.28-3.92v-2.56a4.515 4.515 0 1 0-9.03 0v2.56a4.515 4.515 0 0 0 2.28 3.92.8.8 0 0 1-.29.62.458.458 0 0 0-.13.08.619.619 0 0 1-.24.08l-1.74.33a4.224 4.224 0 0 0-3.46 4.16v2.81a.659.659 0 0 0 .66.66h4.8a.665.665 0 1 0 0-1.33h-4.14v-2.14a2.914 2.914 0 0 1 2.38-2.86l1.74-.32a.847.847 0 0 0 .17-.04l1.93 3.08a.661.661 0 0 0 1.12 0l1.93-3.08a.936.936 0 0 0 .16.04l1.75.32a2.914 2.914 0 0 1 2.37 2.86v2.14h-4.45a.665.665 0 0 0 0 1.33h5.12a.666.666 0 0 0 .66-.66v-2.81a4.234 4.234 0 0 0-3.46-4.16zm-7.83-7.42v-.17a3.19 3.19 0 0 1 6.37-.24l-1.57-.92a.661.661 0 0 0-.85.14 3.555 3.555 0 0 1-2.73 1.28h-1.22v-.09zm0 2.39v-.97h1.22a4.854 4.854 0 0 0 3.36-1.34l1.8 1.05v1.26a3.19 3.19 0 1 1-6.38 0zm3.19 7.44l-1.38-2.2a1.964 1.964 0 0 0 .41-.83 4.437 4.437 0 0 0 .97.11 4.347 4.347 0 0 0 .96-.11 2.228 2.228 0 0 0 .41.83zM8.56 32.87a.634.634 0 0 0-.47-.2.666.666 0 0 0-.66.67.66.66 0 0 0 .19.46.668.668 0 0 0 .47.2.658.658 0 0 0 .47-1.13zm4.18-6.5L11 26.04a.619.619 0 0 1-.24-.08 1.014 1.014 0 0 0-.13-.09.764.764 0 0 1-.29-.61 4.515 4.515 0 0 0 2.28-3.92v-2.56a4.515 4.515 0 1 0-9.03 0v2.56a4.515 4.515 0 0 0 2.28 3.92.841.841 0 0 1-.3.62.655.655 0 0 0-.13.08.631.631 0 0 1-.23.08l-1.75.33A4.234 4.234 0 0 0 0 30.53v2.81a.666.666 0 0 0 .66.66h5.03a.665.665 0 0 0 0-1.33H1.33v-2.14a2.914 2.914 0 0 1 2.37-2.86l1.75-.32a.936.936 0 0 0 .16-.04l1.93 3.08a.663.663 0 0 0 .56.31.694.694 0 0 0 .57-.31l1.92-3.08a.847.847 0 0 0 .17.04l1.74.32a2.9 2.9 0 0 1 2.37 2.86v2.14h-4.54a.665.665 0 0 0 0 1.33h5.21a.659.659 0 0 0 .66-.66v-2.81a4.224 4.224 0 0 0-3.46-4.16zm-7.83-7.42v-.17a3.19 3.19 0 0 1 6.37-.24l-1.57-.92a.648.648 0 0 0-.84.14 3.575 3.575 0 0 1-2.74 1.28H4.91v-.09zm0 2.39v-.97h1.22a4.9 4.9 0 0 0 3.37-1.34l1.79 1.05v1.26a3.19 3.19 0 0 1-6.38 0zm3.19 7.44l-1.37-2.2a2.069 2.069 0 0 0 .4-.83 4.508 4.508 0 0 0 .97.11 4.437 4.437 0 0 0 .97-.11 1.964 1.964 0 0 0 .41.83zm-1.09-8.09a.7.7 0 0 0-.47-.19.665.665 0 0 0-.47.19.651.651 0 0 0-.2.47.634.634 0 0 0 .2.47.674.674 0 0 0 .47.2.713.713 0 0 0 .47-.2.665.665 0 0 0 .19-.47.683.683 0 0 0-.19-.47zm3.13 0a.7.7 0 0 0-.47-.19.665.665 0 0 0-.47.19.651.651 0 0 0-.2.47.634.634 0 0 0 .2.47.674.674 0 0 0 .47.2.713.713 0 0 0 .47-.2.665.665 0 0 0 .19-.47.683.683 0 0 0-.19-.47zm-.99 1.58a.664.664 0 0 0-.94 0 .169.169 0 0 1-.23 0 .665.665 0 1 0-.94.94 1.475 1.475 0 0 0 1.05.43 1.5 1.5 0 0 0 1.06-.43.683.683 0 0 0 0-.94zm15.65-1.58a.665.665 0 0 0-.47-.19.7.7 0 0 0-.47.19.683.683 0 0 0-.19.47.665.665 0 0 0 .19.47.713.713 0 0 0 .47.2.674.674 0 0 0 .47-.2.634.634 0 0 0 .2-.47.651.651 0 0 0-.2-.47zm3.13 0a.665.665 0 0 0-.47-.19.7.7 0 0 0-.47.19.683.683 0 0 0-.19.47.665.665 0 0 0 .19.47.713.713 0 0 0 .47.2.674.674 0 0 0 .47-.2.634.634 0 0 0 .2-.47.651.651 0 0 0-.2-.47zm-.99 1.58a.664.664 0 0 0-.94 0 .157.157 0 0 1-.22 0 .665.665 0 1 0-.94.94 1.5 1.5 0 0 0 2.1 0 .664.664 0 0 0 0-.94zM17.02 0H17a6.95 6.95 0 0 0-6.93 6.95 7.076 7.076 0 0 0 2.31 5.19 2.945 2.945 0 0 1 .95 2.17v2.1a1.931 1.931 0 0 0 1.93 1.93h3.48a1.929 1.929 0 0 0 1.92-1.93v-2a.148.148 0 0 0 .01-.07 2.973 2.973 0 0 1 .95-2.2 7.076 7.076 0 0 0 2.31-5.19A6.952 6.952 0 0 0 17.02 0zm2.32 16.41a.6.6 0 0 1-.6.6h-3.48a.6.6 0 0 1-.6-.6v-1.4h4.68v1.4zm1.39-5.25a4.321 4.321 0 0 0-1.35 2.53h-4.76a4.321 4.321 0 0 0-1.35-2.53 5.74 5.74 0 0 1-1.87-4.21A5.614 5.614 0 0 1 17 1.33h.02a5.617 5.617 0 0 1 5.58 5.62 5.74 5.74 0 0 1-1.87 4.21zM15.5 5.17a.665.665 0 0 0-.47-.19.649.649 0 0 0-.66.66.666.666 0 0 0 .66.67.683.683 0 0 0 .67-.67.668.668 0 0 0-.2-.47zm4.11 0a.7.7 0 0 0-.47-.19.665.665 0 0 0-.47.19.713.713 0 0 0-.2.47.674.674 0 0 0 .2.47.634.634 0 0 0 .47.2.666.666 0 0 0 .66-.67.7.7 0 0 0-.19-.47zm-.77 2.87a.664.664 0 0 0-.94 0 1.153 1.153 0 0 1-1.63 0 .652.652 0 0 0-.93 0 .664.664 0 0 0 0 .94 2.428 2.428 0 0 0 1.75.73 2.462 2.462 0 0 0 1.75-.73.683.683 0 0 0 0-.94zm10.91-1.92h-2.74a.665.665 0 0 0 0 1.33h2.74a.665.665 0 0 0 0-1.33zm-2.64-4.55a.664.664 0 0 0-.94 0l-.91.92a.665.665 0 0 0 .94.94l.91-.92a.664.664 0 0 0 0-.94zm-.02 9.46l-.91-.9a.665.665 0 0 0-.94.94l.91.9a.665.665 0 0 0 .94-.94zM6.99 6.12H4.25a.665.665 0 0 0 0 1.33h2.74a.665.665 0 0 0 0-1.33zm1.75-3.63l-.91-.92a.665.665 0 1 0-.94.94l.91.92a.665.665 0 1 0 .94-.94zm.02 7.64a.664.664 0 0 0-.94 0l-.91.9a.665.665 0 1 0 .94.94l.91-.9a.664.664 0 0 0 0-.94z" fill="#fff" fill-rule="evenodd"/></svg>