<?xml version="1.0" encoding="utf-8"?>
<!-- Generator: Adobe Illustrator 19.0.0, SVG Export Plug-In . SVG Version: 6.00 Build 0)  -->
<svg version="1.1" id="Capa_1" xmlns="http://www.w3.org/2000/svg" xmlns:xlink="http://www.w3.org/1999/xlink" x="0px" y="0px"
	 viewBox="-223 25 512 512" style="enable-background:new -223 25 512 512;" xml:space="preserve">
<style type="text/css">
	.st0{fill:url(#SVGID_1_);}
	.st1{fill:url(#SVGID_2_);}
	.st2{fill:url(#SVGID_3_);}
	.st3{fill:url(#SVGID_4_);}
	.st4{fill:url(#SVGID_5_);}
	.st5{fill:url(#SVGID_6_);}
	.st6{fill:url(#SVGID_7_);}
</style>
<g>
	<g>
		<g>
			<linearGradient id="SVGID_1_" gradientUnits="userSpaceOnUse" x1="-11.138" y1="510.517" x2="68.311" y2="510.517">
				<stop  offset="0" style="stop-color:#C22AFF"/>
				<stop  offset="1" style="stop-color:#3F00D4"/>
			</linearGradient>
			<path class="st0" d="M59.5,484H-2.3c-4.9,0-8.8,4-8.8,8.8v35.3c0,4.9,4,8.8,8.8,8.8h61.8c4.9,0,8.8-4,8.8-8.8v-35.3
				C68.3,488,64.4,484,59.5,484z"/>
			<linearGradient id="SVGID_2_" gradientUnits="userSpaceOnUse" x1="-214.173" y1="351.621" x2="-108.229" y2="351.621">
				<stop  offset="0" style="stop-color:#C22AFF"/>
				<stop  offset="1" style="stop-color:#3F00D4"/>
			</linearGradient>
			<path class="st1" d="M-108.2,263.3h-79.4c-14.6,0-26.5,11.9-26.5,26.5v123.6c0,14.6,11.9,26.5,26.5,26.5h79.5L-108.2,263.3z"/>
			<linearGradient id="SVGID_3_" gradientUnits="userSpaceOnUse" x1="-178.862" y1="492.8625" x2="-28.793" y2="492.8625">
				<stop  offset="0" style="stop-color:#C22AFF"/>
				<stop  offset="1" style="stop-color:#3F00D4"/>
			</linearGradient>
			<path class="st2" d="M-143.6,457.6h-35.3c0,39,31.6,70.6,70.6,70.6h79.4v-35.3h-79.4C-127.7,492.8-143.5,477-143.6,457.6z"/>
			<linearGradient id="SVGID_4_" gradientUnits="userSpaceOnUse" x1="-187.513" y1="135.345" x2="253.513" y2="135.345">
				<stop  offset="0" style="stop-color:#C22AFF"/>
				<stop  offset="1" style="stop-color:#3F00D4"/>
			</linearGradient>
			<path class="st3" d="M227,245.7h26.5v-0.4C248.7,121.8,151.9,25,33,25s-215.7,96.8-220.5,220.3v0.4h35.3
				c4.5-104,85.7-185.4,185.2-185.4s180.7,81.4,185.2,185.4L227,245.7L227,245.7z"/>
			<linearGradient id="SVGID_5_" gradientUnits="userSpaceOnUse" x1="174.242" y1="351.621" x2="280.173" y2="351.621">
				<stop  offset="0" style="stop-color:#C22AFF"/>
				<stop  offset="1" style="stop-color:#3F00D4"/>
			</linearGradient>
			<path class="st4" d="M253.7,263.3h-79.4v176.6h79.4c14.6,0,26.5-11.9,26.5-26.5V289.8C280.2,275.2,268.3,263.4,253.7,263.3z"/>
			<linearGradient id="SVGID_6_" gradientUnits="userSpaceOnUse" x1="32.965" y1="342.7933" x2="138.931" y2="342.7933">
				<stop  offset="0" style="stop-color:#C22AFF"/>
				<stop  offset="1" style="stop-color:#3F00D4"/>
			</linearGradient>
			<path class="st5" d="M130.1,360.4h-17.7v-22.1c0-4.9-4-8.8-8.8-8.8c-4.9,0-8.8,4-8.8,8.8v22.1H57.4l44.9-74.9
				c1.6-2.7,1.7-6.1,0.1-8.8c-1.5-2.8-4.4-4.5-7.6-4.5c-3.2-0.1-6.1,1.6-7.7,4.3l-53,88.3c-1.6,2.7-1.7,6.1-0.1,8.9
				c1.6,2.8,4.5,4.5,7.7,4.5h53v26.5c0,4.9,4,8.8,8.8,8.8c4.9,0,8.8-4,8.8-8.8v-26.5h17.7c4.9,0,8.8-4,8.8-8.8
				C138.9,364.4,135,360.4,130.1,360.4z"/>
			<linearGradient id="SVGID_7_" gradientUnits="userSpaceOnUse" x1="-72.9275" y1="342.7912" x2="24.173" y2="342.7912">
				<stop  offset="0" style="stop-color:#C22AFF"/>
				<stop  offset="1" style="stop-color:#3F00D4"/>
			</linearGradient>
			<path class="st6" d="M-68.1,396.7c-3.7,1.8-5.6,5.9-4.6,9.9s4.5,6.8,8.6,6.8h79.4c4.9,0,8.8-4,8.8-8.8c0-4.9-4-8.8-8.8-8.8h-49.1
				c21.8-16.4,49.1-44,49.1-79.4C15.3,298,4,281.5-13.2,275c-17.2-6.5-36.6-1.7-48.7,12.1c-3.2,3.7-2.9,9.2,0.8,12.5
				c3.7,3.2,9.2,2.9,12.5-0.8c7.3-8.3,18.9-11.2,29.2-7.3c10.3,3.9,17.1,13.8,17.1,24.8C-2.3,363.1-67.4,396.4-68.1,396.7z"/>
		</g>
	</g>
</g>
</svg>
