<?xml version="1.0" encoding="utf-8"?>
<!-- Generator: Adobe Illustrator 19.0.0, SVG Export Plug-In . SVG Version: 6.00 Build 0)  -->
<svg version="1.1" id="Capa_1" xmlns="http://www.w3.org/2000/svg" xmlns:xlink="http://www.w3.org/1999/xlink" x="0px" y="0px"
	 viewBox="-239 41 480 480" style="enable-background:new -239 41 480 480;" xml:space="preserve">
<style type="text/css">
	.st0{fill:url(#SVGID_1_);}
	.st1{fill:url(#SVGID_2_);}
	.st2{fill:url(#SVGID_3_);}
	.st3{fill:url(#SVGID_4_);}
	.st4{fill:url(#SVGID_5_);}
	.st5{fill:url(#SVGID_6_);}
	.st6{fill:url(#SVGID_7_);}
	.st7{fill:url(#SVGID_8_);}
	.st8{fill:url(#SVGID_9_);}
	.st9{fill:url(#SVGID_10_);}
	.st10{fill:url(#SVGID_11_);}
	.st11{fill:url(#SVGID_12_);}
</style>
<linearGradient id="SVGID_1_" gradientUnits="userSpaceOnUse" x1="-494" y1="-52.005" x2="-494" y2="11.75" gradientTransform="matrix(8 0 0 8 3801 447)">
	<stop  offset="0" style="stop-color:#FC5C7D"/>
	<stop  offset="0.129" style="stop-color:#F35E85"/>
	<stop  offset="0.343" style="stop-color:#D9659B"/>
	<stop  offset="0.616" style="stop-color:#B070BF"/>
	<stop  offset="0.934" style="stop-color:#777FF0"/>
	<stop  offset="1" style="stop-color:#6A82FB"/>
</linearGradient>
<path class="st0" d="M-159,441h16v16h-16V441z"/>
<g>
	
		<linearGradient id="SVGID_2_" gradientUnits="userSpaceOnUse" x1="-492" y1="-52.005" x2="-492" y2="11.75" gradientTransform="matrix(8 0 0 8 3801 447)">
		<stop  offset="0" style="stop-color:#C22AFF"/>
		<stop  offset="1" style="stop-color:#3F00D4"/>
	</linearGradient>
	<path class="st1" d="M-143,273h16v16h-16V273z"/>
	
		<linearGradient id="SVGID_3_" gradientUnits="userSpaceOnUse" x1="-482" y1="-52.005" x2="-482" y2="11.75" gradientTransform="matrix(8 0 0 8 3801 447)">
		<stop  offset="0" style="stop-color:#C22AFF"/>
		<stop  offset="1" style="stop-color:#3F00D4"/>
	</linearGradient>
	<path class="st2" d="M-63,73h16v16h-16V73z"/>
	
		<linearGradient id="SVGID_4_" gradientUnits="userSpaceOnUse" x1="-478" y1="-52.005" x2="-478" y2="11.75" gradientTransform="matrix(8 0 0 8 3801 447)">
		<stop  offset="0" style="stop-color:#C22AFF"/>
		<stop  offset="1" style="stop-color:#3F00D4"/>
	</linearGradient>
	<path class="st3" d="M-31,73h16v16h-16V73z"/>
	<linearGradient id="SVGID_5_" gradientUnits="userSpaceOnUse" x1="-199.032" y1="281" x2="209" y2="281">
		<stop  offset="0" style="stop-color:#C22AFF"/>
		<stop  offset="1" style="stop-color:#3F00D4"/>
	</linearGradient>
	<path class="st4" d="M73,41h-224c-22.1,0-40,17.9-40,40v400c0,22.1,17.9,40,40,40H49v-32h112v32h16v-32h8c4.4,0,8-3.6,8-8v-64
		c0-4.4-3.6-8-8-8h-8v-22.1c10.5-21.7,16-45.5,16-69.6V281c0-15.5-12.5-28-28-28c-5.2,0-10.3,1.5-14.7,4.3
		c-6.3-13.9-22.7-20.1-36.6-13.8c-0.3,0.1-0.5,0.2-0.8,0.4V81C113,58.9,95.1,41,73,41L73,41z M-151,57H73c13.3,0,24,10.7,24,24v24
		h-272V81C-175,67.7-164.3,57-151,57z M33,505h-184c-13.3,0-24-10.7-24-24V121H97v110.8c-7.6-3.7-16.4-3.7-24,0V189
		c0-15.5-12.5-28-28-28s-28,12.5-28,28v92.7c-26.4,4.7-44,29.9-39.3,56.3c2.5,14.1,11.1,26.3,23.4,33.5l23.2,13.2
		c5.3,3.1,8.6,8.7,8.6,14.9v9.4h-8c-4.4,0-8,3.6-8,8v24h-144v16H17v24c0,4.4,3.6,8,8,8h8V505z M177,473H33v-48h144V473z M125,257
		c6.6,0,12,5.4,12,12l0,0v28h16v-16c0-6.6,5.4-12,12-12s12,5.4,12,12v36.2c0,22.3-5.2,44.3-15.2,64.2c-0.5,1.1-0.8,2.3-0.8,3.6v24
		H49v-9.4c0-11.9-6.4-22.9-16.7-28.8L9.1,357.6C-1,351.6-7.2,340.7-7,329c0.1-14.5,9.9-27.2,24-30.9V329h16V189c0-6.6,5.4-12,12-12
		s12,5.4,12,12v108h16v-40c0-6.6,5.4-12,12-12s12,5.4,12,12v40h16v-28C113,262.4,118.4,257,125,257L125,257z"/>
	
		<linearGradient id="SVGID_6_" gradientUnits="userSpaceOnUse" x1="-486" y1="-52.005" x2="-486" y2="11.75" gradientTransform="matrix(8 0 0 8 3801 447)">
		<stop  offset="0" style="stop-color:#C22AFF"/>
		<stop  offset="1" style="stop-color:#3F00D4"/>
	</linearGradient>
	<path class="st5" d="M-95,231.8v9.2h16v-9.2c12-3.7,18.7-16.5,15-28.5c-1.8-5.9-6-10.8-11.6-13.6l-15.6-7.8
		c-3.4-1.7-4.7-5.8-3.1-9.2c1.2-2.3,3.5-3.8,6.1-3.8h2.3c3.8,0,6.8,3.1,6.8,6.8v1.2h16v-1.2c0-9.9-6.5-18.7-16-21.7V145h-16v9.2
		c-12,3.7-18.7,16.5-15,28.5c1.8,5.9,6,10.8,11.6,13.6l15.6,7.8c3.4,1.7,4.7,5.8,3.1,9.2c-1.2,2.3-3.5,3.8-6.1,3.8h-2.3
		c-3.8,0-6.8-3.1-6.8-6.8V209h-16v1.2C-111,220.1-104.5,228.9-95,231.8L-95,231.8z"/>
	
		<linearGradient id="SVGID_7_" gradientUnits="userSpaceOnUse" x1="-487.5" y1="-52.005" x2="-487.5" y2="11.75" gradientTransform="matrix(8 0 0 8 3801 447)">
		<stop  offset="0" style="stop-color:#C22AFF"/>
		<stop  offset="1" style="stop-color:#3F00D4"/>
	</linearGradient>
	<path class="st6" d="M-151,305h104v16h-104V305z"/>
	
		<linearGradient id="SVGID_8_" gradientUnits="userSpaceOnUse" x1="-487.5" y1="-52.005" x2="-487.5" y2="11.75" gradientTransform="matrix(8 0 0 8 3801 447)">
		<stop  offset="0" style="stop-color:#C22AFF"/>
		<stop  offset="1" style="stop-color:#3F00D4"/>
	</linearGradient>
	<path class="st7" d="M-151,337h104v16h-104V337z"/>
	
		<linearGradient id="SVGID_9_" gradientUnits="userSpaceOnUse" x1="-487.5" y1="-52.005" x2="-487.5" y2="11.75" gradientTransform="matrix(8 0 0 8 3801 447)">
		<stop  offset="0" style="stop-color:#C22AFF"/>
		<stop  offset="1" style="stop-color:#3F00D4"/>
	</linearGradient>
	<path class="st8" d="M-151,369h104v16h-104V369z"/>
	<linearGradient id="SVGID_10_" gradientUnits="userSpaceOnUse" x1="-111" y1="281" x2="-47" y2="281">
		<stop  offset="0" style="stop-color:#C22AFF"/>
		<stop  offset="1" style="stop-color:#3F00D4"/>
	</linearGradient>
	<path class="st9" d="M-111,273h64v16h-64V273z"/>
	
		<linearGradient id="SVGID_11_" gradientUnits="userSpaceOnUse" x1="-480" y1="-52.005" x2="-480" y2="11.75" gradientTransform="matrix(8 0 0 8 3801 447)">
		<stop  offset="0" style="stop-color:#FC5C7D"/>
		<stop  offset="0.129" style="stop-color:#F35E85"/>
		<stop  offset="0.343" style="stop-color:#D9659B"/>
		<stop  offset="0.616" style="stop-color:#B070BF"/>
		<stop  offset="0.934" style="stop-color:#777FF0"/>
		<stop  offset="1" style="stop-color:#6A82FB"/>
	</linearGradient>
	<path class="st10" d="M-47,473h16v16h-16V473z"/>
	
		<linearGradient id="SVGID_12_" gradientUnits="userSpaceOnUse" x1="-456" y1="-52.005" x2="-456" y2="11.75" gradientTransform="matrix(8 0 0 8 3801 447)">
		<stop  offset="0" style="stop-color:#FC5C7D"/>
		<stop  offset="0.129" style="stop-color:#F35E85"/>
		<stop  offset="0.343" style="stop-color:#D9659B"/>
		<stop  offset="0.616" style="stop-color:#B070BF"/>
		<stop  offset="0.934" style="stop-color:#777FF0"/>
		<stop  offset="1" style="stop-color:#6A82FB"/>
	</linearGradient>
	<path class="st11" d="M145,441h16v16h-16V441z"/>
</g>
</svg>
