<svg style="height:500px;width:500px" data-name="BACKGROUND 2" xmlns="http://www.w3.org/2000/svg" viewBox="0 0 810.43 810.43"><defs><clipPath id="a" transform="translate(30.21 155.21)"><path data-name="SVGID" fill="none" d="M-83-178h895v857H-83z"/></clipPath></defs><g clip-path="url(#a)" fill="none" stroke-miterlimit="10"><circle cx="405.21" cy="405.21" r="349.34" stroke="#a9c7ff" stroke-width="5.415"/><circle cx="405.21" cy="405.21" r="392.33" stroke="#abc5fe" stroke-width="25.76" stroke-dasharray="1.2879899740219116,7.727940082550049"><animateTransform attributeName="transform" attributeType="XML" type="rotate" from="0 405.21 405.21" to="360 405.21 405.21" dur="5s" repeatCount="indefinite"/></circle><circle cx="405.21" cy="405.21" r="281.34" stroke="#8462fd" stroke-width="22.192" stroke-dasharray="1.1096199750900269,6.65772008895874"/><circle cx="405.21" cy="405.21" r="320.53" stroke="#a4bffd" stroke-width="2.232" stroke-dasharray="12.132800102233887,12.132800102233887"><animateTransform attributeName="transform" attributeType="XML" type="rotate" from="0 405.21 405.21" to="-360 405.21 405.21" dur="50s" repeatCount="indefinite"/></circle><circle cx="405.21" cy="405.21" r="334" stroke="#a4bffd" stroke-width="2.232" stroke-dasharray="12.201600074768066,12.201600074768066"><animateTransform attributeName="transform" attributeType="XML" type="rotate" from="0 405.21 405.21" to="360 405.21 405.21" dur="25s" repeatCount="indefinite"/></circle><circle cx="405.21" cy="405.21" r="165.33" stroke="#00beff" stroke-width="22.192" stroke-dasharray="1.1096199750900269,6.65772008895874"/></g><g><path d="M405.21 617.33c-117 0-212.12-95.12-212.12-212.12s95.12-212.12 212.12-212.12 212.12 95.12 212.12 212.12-95.12 212.12-212.12 212.12zm0-423.24c-116.41 0-211.12 94.71-211.12 211.12s94.71 211.12 211.12 211.12 211.12-94.71 211.12-211.12-94.71-211.12-211.12-211.12z" fill="#8e79fa"/><circle cx="366" cy="196.42" r="12.46" fill="#9687ff"/><circle cx="366" cy="196.42" r="12.46" fill="#9687ff"><animate attributeType="SVG" attributeName="r" begin="0s" dur="1.5s" repeatCount="indefinite" from="0%" to="8%"/><animate attributeType="CSS" attributeName="fill-width" begin="0s" dur="1.5s" repeatCount="indefinite" from="5%" to="0%"/><animate attributeType="CSS" attributeName="opacity" begin="0s" dur="1.5s" repeatCount="indefinite" from="1" to="0"/></circle><circle cx="483" cy="208.21" r="7.75" fill="#9687ff"/><circle cx="380.87" cy="615.5" r="7.75" fill="#9687ff"/><circle cx="380.87" cy="615.5" r="7.75" fill="#9687ff"><animate attributeType="SVG" attributeName="r" begin="0s" dur="1.4s" repeatCount="indefinite" from="0%" to="8%"/><animate attributeType="CSS" attributeName="fill-width" begin="0s" dur="1.4s" repeatCount="indefinite" from="5%" to="0%"/><animate attributeType="CSS" attributeName="opacity" begin="0s" dur="1.4s" repeatCount="indefinite" from="1" to="0"/></circle><circle cx="616.74" cy="405.21" r="7.75" fill="#9687ff"/><circle cx="257.42" cy="256.81" r="7.75" fill="#9687ff"/><animateTransform attributeName="transform" attributeType="XML" type="rotate" from="0 405.21 405.21" to="360 405.21 405.21" dur="15s" repeatCount="indefinite"/></g><g><path d="M405.21 642.04a236.83 236.83 0 0 1-167.47-404.3 236.838 236.838 0 0 1 334.94 334.94 235.29 235.29 0 0 1-167.47 69.36zm0-472.67c-130 .01-235.83 105.84-235.83 235.84s105.83 235.83 235.83 235.83 235.83-105.83 235.83-235.83-105.83-235.83-235.83-235.83z" fill="#8e79fa"/><circle cx="566.2" cy="576.5" r="7.75" fill="#9687ff"/><circle cx="612.8" cy="289.63" r="7.75" fill="#9687ff"/><circle cx="170.67" cy="373.96" r="7.75" fill="#9687ff"/><circle cx="405.21" cy="168.88" r="7.75" fill="#9687ff"/><circle cx="299.52" cy="616.84" r="12.46" fill="#9687ff"/><circle cx="299.52" cy="616.84" r="12.46" fill="#9687ff"><animate attributeType="SVG" attributeName="r" begin="0s" dur="1.5s" repeatCount="indefinite" from="0%" to="8%"/><animate attributeType="CSS" attributeName="fill-width" begin="0s" dur="1.5s" repeatCount="indefinite" from="5%" to="0%"/><animate attributeType="CSS" attributeName="opacity" begin="0s" dur="1.5s" repeatCount="indefinite" from="1" to="0"/></circle><animateTransform attributeName="transform" attributeType="XML" type="rotate" from="0 405.21 405.21" to="360 405.21 405.21" dur="30s" repeatCount="indefinite"/></g><path d="M405.21 285.92A119.29 119.29 0 1 0 524.5 405.21a119.29 119.29 0 0 0-119.29-119.29zm0 218a98.71 98.71 0 1 1 98.71-98.71 98.71 98.71 0 0 1-98.71 98.71z" fill="#6c27e7" opacity=".5"/><circle cx="405.21" cy="405.21" r="79" fill="#97c8ff"/><circle cx="405.21" cy="405.21" r="79" fill="#9687ff"><animate attributeType="SVG" attributeName="r" begin="0s" dur="1.5s" repeatCount="indefinite" from="0%" to="30%"/><animate attributeType="CSS" attributeName="fill-width" begin="0s" dur="1.5s" repeatCount="indefinite" from="5%" to="0%"/><animate attributeType="CSS" attributeName="opacity" begin="0s" dur="1.5s" repeatCount="indefinite" from="1" to="0"/></circle><circle cx="405.21" cy="405.21" r="84.02" fill="none" stroke="#97c8ff" stroke-miterlimit="10" stroke-width="2" stroke-dasharray="10.481"/><circle cx="405.21" cy="405.21" r="73.5" fill="#7522f1"/><circle cx="405.21" cy="405.21" r="98.71" fill="none" stroke="#9bc8ff" stroke-miterlimit="10" stroke-width="3.139"/><circle cx="405.21" cy="405.21" r="144.75" fill="none" stroke="#9ec8ff" stroke-miterlimit="10" stroke-width="5.415"/><circle cx="405.21" cy="405.21" r="165.33" fill="none" stroke="#9dc3fe" stroke-miterlimit="10" stroke-width="22.192" stroke-dasharray="1.1096199750900269,6.65772008895874"/><circle cx="405.21" cy="405.21" r="127.16" fill="none" stroke="#9dc8ff" stroke-miterlimit="10" stroke-width="2" stroke-dasharray="11.097000122070312,11.097000122070312"/><circle cx="405.21" cy="405.21" r="132.5" fill="none" stroke="#9dc8ff" stroke-miterlimit="10" stroke-width="2" stroke-dasharray="11.563300132751465,11.563300132751465"/><path d="M409.88 369.77q13.32 0 20.78 5.18t7.46 15.5a16.37 16.37 0 0 1-2.77 9.36 16.74 16.74 0 0 1-8.06 6.19q6.79 1.45 10.18 6.22a18.55 18.55 0 0 1 3.4 11q0 10.83-7.15 16.41t-20.26 5.58h-37.11v-9l8-1.56v-54.2l-8-1.55v-9.12h33.54zm-10.37 31.62h10.88q6.07 0 9.33-2.49a8.56 8.56 0 0 0 3.26-7.26q0-5.24-3.29-7.72t-9.82-2.49h-10.35v20zm0 10.47v21.77h13.94q6 0 9.17-2.62t3.16-7.75q0-5.55-2.7-8.47t-8.5-2.93h-15.06zM395.48 361.17h8.08v8.6h-8.08z" fill="#00114f"/><path fill="#00114f" d="M405.64 361.17h8.08v12.79h-8.08zM395.48 445.24h8.08v8.6h-8.08zM405.64 441.05h8.08v12.79h-8.08z"/><path d="M409.88 367.48q13.32 0 20.78 5.18t7.46 15.5a16.36 16.36 0 0 1-2.77 9.36 16.74 16.74 0 0 1-8.06 6.19q6.79 1.45 10.18 6.22a18.55 18.55 0 0 1 3.4 11q0 10.83-7.15 16.41t-20.27 5.57h-37.1v-9.07l8-1.55v-54.14l-8-1.55v-9.12h33.54zm-10.37 31.62h10.88q6.07 0 9.33-2.49a8.56 8.56 0 0 0 3.26-7.26q0-5.23-3.29-7.72t-9.82-2.49h-10.35v20zm0 10.47v21.77h13.94q6 0 9.17-2.62t3.16-7.75q0-5.55-2.7-8.47t-8.5-2.93h-15.06zM395.48 358.88h8.08v8.6h-8.08z" fill="#d9edff"/><path fill="#d9edff" d="M405.64 358.88h8.08v12.79h-8.08zM395.48 442.95h8.08v8.6h-8.08zM405.64 438.76h8.08v12.79h-8.08z"/><path d="M475.27 405.21c0 38.69-140.12 38.69-140.12 0a70.06 70.06 0 0 1 140.12 0z" fill="#fff" opacity=".25"/><circle cx="503.92" cy="405.21" r="6.98" fill="#93c8ff"/><circle cx="306.5" cy="405.21" r="6.98" fill="#93c8ff"/><circle cx="405.21" cy="306.5" r="6.98" fill="#93c8ff"/><circle cx="405.21" cy="503.93" r="6.98" fill="#93c8ff"/><g><circle cx="310.01" cy="204.54" r="27.08" fill="#8cc9ff"/><circle cx="310.01" cy="204.54" r="24.34" fill="#6425f1"/><path d="M332.28 204.54c0 12.3-44.54 12.3-44.54 0a22.27 22.27 0 1 1 44.54 0z" fill="#fff" opacity=".25"/><path d="M317.95 206.52a3.87 3.87 0 0 0-2 .53.21.21 0 0 0-.07 0l-.19.06h-.56l-.17-.08-.17-.11a.31.31 0 0 0-.06 0l-3.48-3.48a1 1 0 0 1-.29-.7v-2.58-.12a1 1 0 0 1 .06-.25.53.53 0 0 1 .1-.16.62.62 0 0 1 .1-.16.73.73 0 0 1 .21-.15.6.6 0 0 1 .1-.07 4 4 0 1 0-3.16 0 .6.6 0 0 1 .1.07.73.73 0 0 1 .21.15.62.62 0 0 1 .1.16.53.53 0 0 1 .1.16 1 1 0 0 1 .06.25v2.68a1 1 0 0 1-.29.7l-3.44 3.48h-.06l-.17.11-.17.08h-.56l-.19-.06a.21.21 0 0 0-.07 0 3.87 3.87 0 0 0-2-.53 4 4 0 1 0 4 4 4.23 4.23 0 0 0-.09-.85.33.33 0 0 1 0-.1.67.67 0 0 1 0-.2 1.15 1.15 0 0 1 0-.18.66.66 0 0 1 .07-.18l.11-.17v-.08l3.09-3.09a1 1 0 0 1 1.41 0l3.09 3.09v.08l.11.17a.66.66 0 0 1 .07.18 1.15 1.15 0 0 1 0 .18.67.67 0 0 1 0 .2.33.33 0 0 1 0 .1 4.23 4.23 0 0 0-.09.85 4 4 0 1 0 4.19-3.98z" fill="#d1edff"/><path d="M313.78 187.06a17.85 17.85 0 0 0-3.58-.39h-.29a17.87 17.87 0 0 0-.1 35.73h.3a18.3 18.3 0 0 0 3.84-.43l.48-.12a17.88 17.88 0 0 0-.65-34.79zm4.17 29.39a6 6 0 0 1-6-6 5.75 5.75 0 0 1 0-.7l-2-2-2 2a5.75 5.75 0 0 1 0 .7 6 6 0 1 1-3.67-5.5l2.68-2.68v-1.52a6 6 0 1 1 6 0v1.56l2.68 2.68a6 6 0 1 1 2.31 11.46z" fill="#d1edff"/></g><g><path d="M236.62 486.94a115.64 115.64 0 0 0-50.41 11.62c0 65.34 50.42 84.43 50.42 84.43s50.41-19.08 50.41-84.43a115.64 115.64 0 0 0-50.42-11.62z" fill="#94c8ff"/><path d="M236.62 576.5a77.39 77.39 0 0 1-21.14-15.55 79.59 79.59 0 0 1-16-24.14 95 95 0 0 1-7.27-34.55 103.78 103.78 0 0 1 10.31-3.92 109.45 109.45 0 0 1 78.54 3.92 95.06 95.06 0 0 1-7.27 34.55 79.62 79.62 0 0 1-16 24.14 77.42 77.42 0 0 1-21.17 15.55z" fill="#6d25f1"/><path fill="#d9edff" d="M234.66 531.65l11.05-4.41-3.47-8.67-5.4 2.15 3.3-16.5-9.15-1.83-4.49 22.47-12.26 4.91 3.47 8.67 6.61-2.65-2.84 14.18h36.49v-9.34h-25.1l1.79-8.98z"/><path d="M205.76 501.8a93.6 93.6 0 0 0-9.33 3.54 93 93 0 0 0 2.32 18.11c9.79 7.45 23.15 12 37.88 12s28.08-4.59 37.88-12a92.92 92.92 0 0 0 2.32-18.11 99 99 0 0 0-71.07-3.54z" fill="#fff" opacity=".25"/></g><g><path d="M194.92 404.47a2.58 2.58 0 0 0-1.89-.8h-48.31a2.72 2.72 0 0 0-2.68 2.68v32.21a19.24 19.24 0 0 0 1.41 7.15 26.68 26.68 0 0 0 3.48 6.29 38.84 38.84 0 0 0 4.95 5.35 57.3 57.3 0 0 0 5.31 4.32q2.43 1.72 5.07 3.25t3.75 2.08q1.11.54 1.78.84a2.48 2.48 0 0 0 2.18 0q.67-.29 1.78-.84t3.75-2.08q2.64-1.53 5.07-3.25a57.55 57.55 0 0 0 5.31-4.32 38.71 38.71 0 0 0 4.95-5.35 26.66 26.66 0 0 0 3.48-6.29 19.28 19.28 0 0 0 1.4-7.15v-32.21a2.58 2.58 0 0 0-.79-1.88z" fill="#8dc9ff"/><path d="M191.38 438.13a16.15 16.15 0 0 1-1.18 6 22.36 22.36 0 0 1-2.92 5.27 32.61 32.61 0 0 1-4.15 4.48 48.28 48.28 0 0 1-4.45 3.62q-2 1.44-4.25 2.72t-3.15 1.74q-.93.46-1.49.7a2.09 2.09 0 0 1-1.83 0q-.56-.25-1.49-.7t-3.15-1.75q-2.21-1.28-4.25-2.72a48.28 48.28 0 0 1-4.45-3.62 32.55 32.55 0 0 1-4.15-4.48 22.36 22.36 0 0 1-2.92-5.27 16.15 16.15 0 0 1-1.18-6v-27a2.28 2.28 0 0 1 2.25-2.25h40.5a2.28 2.28 0 0 1 2.25 2.25v27z" fill="#00beff"/><path d="M190.71 409.55a2.16 2.16 0 0 0-1.58-.67h-40.5a2.28 2.28 0 0 0-2.25 2.25v27a16.15 16.15 0 0 0 1.18 6 22.36 22.36 0 0 0 2.92 5.27 32.55 32.55 0 0 0 4.15 4.48 48.28 48.28 0 0 0 4.45 3.62q2 1.44 4.25 2.72t3.15 1.74q.93.46 1.49.7a2.09 2.09 0 0 0 1.83 0q.56-.25 1.49-.7t3.15-1.74q2.21-1.28 4.25-2.72a48.28 48.28 0 0 0 4.45-3.62 32.61 32.61 0 0 0 4.15-4.48 22.36 22.36 0 0 0 2.92-5.27 16.15 16.15 0 0 0 1.18-6v-27a2.17 2.17 0 0 0-.68-1.58z" fill="#6525f1"/><path d="M186.43 412.47h-35.11a2 2 0 0 0-2 2v20.9a37.23 37.23 0 0 0 39 0v-20.9a2 2 0 0 0-1.89-2z" fill="#fff" opacity=".25"/><path d="M179.49 432.93v-8.57a4.34 4.34 0 0 1 2.89 4.09 1.45 1.45 0 0 0 2.89 0 7.24 7.24 0 0 0-5.78-7.08v-1.59a1.45 1.45 0 1 0-2.89 0v1.59a7.23 7.23 0 0 0 0 14.16v8.57a4.34 4.34 0 0 1-2.89-4.09 1.45 1.45 0 0 0-2.89 0 7.24 7.24 0 0 0 5.78 7.08v1.59a1.45 1.45 0 1 0 2.89 0v-1.59a7.23 7.23 0 0 0 0-14.16zm-5.78-4.48a4.34 4.34 0 0 1 2.89-4.09v8.17a4.34 4.34 0 0 1-2.89-4.09zm5.78 15.65v-8.17a4.33 4.33 0 0 1 0 8.17zm0 0M160.71 424.11a4.34 4.34 0 0 1 4.34 4.34 1.45 1.45 0 0 0 2.89 0 7.23 7.23 0 1 0-7.23 7.23 4.34 4.34 0 1 1-4.34 4.34 1.45 1.45 0 0 0-2.89 0 7.23 7.23 0 1 0 7.23-7.23 4.34 4.34 0 0 1 0-8.67zm0 0" fill="#d1edff"/></g><g><circle cx="549.97" cy="265.18" r="49.24" fill="#97c8ff"/><circle cx="549.97" cy="265.18" r="44.52" fill="#7722f1"/><path d="M591.46 265.21c0 22.92-83 22.92-83 0a41.5 41.5 0 0 1 83 0z" fill="#fff" opacity=".25"/><path fill="#d9edff" d="M569.2 278.22v12.22h-13.62v9.09h-11.22v-9.09h-13.62v-9.01l20.43-27.65h-19.43v-11.62h12.62v-9.21h11.22v9.21h12.82v8.42l-20.44 27.64h21.24z"/></g><g><circle cx="629.33" cy="338.65" r="27.08" fill="#9ec8ff"/><circle cx="629.33" cy="338.65" r="24.34" fill="#7e20f1"/><path d="M651.59 338.64c0 12.3-44.54 12.3-44.54 0a22.27 22.27 0 0 1 44.54 0z" fill="#fff" opacity=".25"/><path d="M636.45 331.58h-10.24l-.87 1.76h11.12a1.72 1.72 0 0 1 1.46.79 1.76 1.76 0 0 1 .15 1.66l-3 7.06a1.75 1.75 0 0 1-1.61 1.08H621l-.87 1.76h13.36a3.45 3.45 0 0 0 3.18-2.13l3-7.06a3.6 3.6 0 0 0-.29-3.34 3.44 3.44 0 0 0-2.93-1.58z" fill="#99e9ff"/><path fill="#99e9ff" d="M619.26 337.76l-.86 1.77h6.7l.87-1.77h-6.71z"/><path d="M632.68 323.12a15.86 15.86 0 0 0-3.18-.34h-.29a15.88 15.88 0 0 0-.09 31.75h.26a16.26 16.26 0 0 0 3.41-.38l.42-.11a15.89 15.89 0 0 0-.53-30.92zm-16.47 17.75a.89.89 0 0 1 0-.86l1.74-3.53a.89.89 0 0 1 .79-.49h8.67a.88.88 0 0 1 .75.41.89.89 0 0 1 0 .86l-1.74 3.53a.88.88 0 0 1-.79.49h-8.68a.88.88 0 0 1-.74-.41zm22.07 3.34a5.21 5.21 0 0 1-4.8 3.21h-14.77a.88.88 0 0 1-.75-.41.89.89 0 0 1 0-.86l1.74-3.53a.88.88 0 0 1 .79-.49h13l3-7h-12.57a.88.88 0 0 1-.75-.41.89.89 0 0 1 0-.86l1.74-3.53a.88.88 0 0 1 .79-.49h10.8a5.17 5.17 0 0 1 4.31 2.37 5.34 5.34 0 0 1 .44 5z" fill="#d9edff"/></g><g><circle cx="468.93" cy="605.78" r="29.28" fill="#a1c8ff"/><circle cx="468.93" cy="605.78" r="26.32" fill="#8020f1"/><path d="M493.01 605.77c0 13.3-48.16 13.3-48.16 0a24.08 24.08 0 0 1 48.16 0z" fill="#fff" opacity=".25"/><path d="M476.88 608.73a3.87 3.87 0 0 0-2 .53.21.21 0 0 0-.07 0l-.19.06h-.56l-.17-.08-.17-.11a.31.31 0 0 0-.06 0l-3.45-3.49a1 1 0 0 1-.29-.7v-2.56-.12a1 1 0 0 1 .06-.25.53.53 0 0 1 .1-.16.62.62 0 0 1 .1-.16.73.73 0 0 1 .21-.15.6.6 0 0 1 .1-.07 4 4 0 1 0-3.16 0 .6.6 0 0 1 .1.07.73.73 0 0 1 .21.15.62.62 0 0 1 .1.16.53.53 0 0 1 .1.16 1 1 0 0 1 .06.25v2.68a1 1 0 0 1-.29.7l-3.4 3.47h-.06l-.17.11-.17.08h-.56l-.19-.06a.21.21 0 0 0-.07 0 3.87 3.87 0 0 0-2-.53 4 4 0 1 0 4 4 4.23 4.23 0 0 0-.09-.85.33.33 0 0 1 0-.1.67.67 0 0 1 0-.2 1.15 1.15 0 0 1 0-.18.66.66 0 0 1 .07-.18l.11-.17v-.08l3.09-3.09a1 1 0 0 1 1.41 0l3.09 3.09v.08l.11.17a.66.66 0 0 1 .07.18 1.15 1.15 0 0 1 0 .18.67.67 0 0 1 0 .2.33.33 0 0 1 0 .1 4.23 4.23 0 0 0-.09.85 4 4 0 1 0 4.12-3.98z" fill="#d9edff"/><path d="M472.71 589.27a17.85 17.85 0 0 0-3.58-.39h-.29a17.87 17.87 0 0 0-.1 35.73h.3a18.3 18.3 0 0 0 3.84-.43l.48-.12a17.88 17.88 0 0 0-.65-34.79zm4.17 29.39a6 6 0 0 1-6-6 5.75 5.75 0 0 1 0-.7l-2-2-2 2a5.75 5.75 0 0 1 0 .7 6 6 0 1 1-3.67-5.5l2.68-2.68v-1.56a6 6 0 1 1 6 0v1.56l2.68 2.68a6 6 0 1 1 2.31 11.5z" fill="#d9edff"/></g><g><circle cx="610.74" cy="466.48" r="36.49" fill="#a0c8ff"/><circle cx="610.74" cy="466.48" r="32.8" fill="#831ff1"/><path d="M594.21 451.35a1.38 1.38 0 0 1 2.45-.87l14.1 17.22 14.1-17.22a1.38 1.38 0 0 1 2.45.87v23.44h6.82a24.81 24.81 0 1 0-46.73 0h6.81v-23.44z" fill="#d9edff"/><path d="M624.52 476.21v-21l-12.72 15.54a1.43 1.43 0 0 1-2.13 0l-12.72-15.54v21a1.38 1.38 0 0 1-1.38 1.38h-7a24.83 24.83 0 0 0 1.58 2.76h9.59v-13.5a1.38 1.38 0 0 1 2.45-.87l8.58 10.48 8.58-10.48a1.38 1.38 0 0 1 2.45.87v13.5h9.59a24.83 24.83 0 0 0 1.58-2.76h-7a1.38 1.38 0 0 1-1.45-1.38z" fill="#d9edff"/><path d="M619.01 481.68v-11l-7.2 8.8a1.43 1.43 0 0 1-2.13 0l-7.2-8.8v11a1.38 1.38 0 0 1-1.38 1.38h-8.79a24.7 24.7 0 0 0 36.89 0h-8.79a1.38 1.38 0 0 1-1.4-1.38z" fill="#d9edff"/><path d="M640.75 466.47c0 16.57-60 16.57-60 0a30 30 0 0 1 60 0z" fill="#fff" opacity=".25"/></g><g><path d="M218.64 287.76l-29.05 11.85a5.42 5.42 0 0 0-3.38 5v30.84a34.48 34.48 0 0 0 34.48 34.48 34.48 34.48 0 0 0 34.52-34.46v-30.84a5.43 5.43 0 0 0-3.38-5l-29.06-11.85a5.42 5.42 0 0 0-4.13-.02z" fill="#8dc9ff"/><path d="M218.89 292.82l-25.46 10.39a4.75 4.75 0 0 0-3 4.4v27a30.22 30.22 0 0 0 30.22 30.22 30.22 30.22 0 0 0 30.22-30.22v-27a4.75 4.75 0 0 0-3-4.4l-25.46-10.38a4.75 4.75 0 0 0-3.52-.01z" fill="#6525f1"/><path d="M203.28 330.59l17.41 25.15 17.41-25.15-17.41-29zm17.41 16.38l-7.33-10.59 7.33 3.27 7.33-3.27zm0-12.79l-10.85-4.82 10.85-18.08 10.85 18.08z" fill="#dcf2ff"/><path d="M245.83 305.21l-23.49-9.58a4.38 4.38 0 0 0-3.31 0l-23.48 9.58a4.39 4.39 0 0 0-2.73 4.06v19.79a114.91 114.91 0 0 0 29.67 3.69 118 118 0 0 0 26.07-2.8v-20.74a4.38 4.38 0 0 0-2.73-4z" fill="#fff" opacity=".25"/></g></svg>