<svg style="height: 500px; width: 500px" id="3d08fc28-9813-49c4-8448-afeff89ceb25" data-name="BACKGROUND 2" xmlns="http://www.w3.org/2000/svg" xmlns:xlink="http://www.w3.org/1999/xlink" viewBox="0 0 810.43 810.43">
  <defs>
        <clipPath id="0ee11232-e18f-44db-a6be-169f8db2991a" transform="translate(30.21 155.21)">
            <rect id="1e1ca1f4-ca7e-4b30-980b-27f5643bcd14" data-name="SVGID" x="-83" y="-178" width="895" height="857" style="fill:none"/>
        </clipPath>
    </defs>  
    <g style="clip-path:url(#0ee11232-e18f-44db-a6be-169f8db2991a)">
        <circle cx="405.21" cy="405.21" r="349.34" style="fill:none;stroke:#a9c7ff;stroke-miterlimit:10;stroke-width:5.4147300000000005px"/>
        <circle cx="405.21" cy="405.21" r="392.33" style="fill:none;stroke:#abc5fe;stroke-miterlimit:10;stroke-width:25.759800000000002px;stroke-dasharray:1.2879899740219116,7.727940082550049">
                <animateTransform attributeName="transform" attributeType="XML" type="rotate" from="0 405.21 405.21" to="360 405.21 405.21" dur="5s" repeatCount="indefinite"/>
        </circle>
        <circle cx="405.21" cy="405.21" r="281.34" style="fill:none;stroke:#8462fd;stroke-miterlimit:10;stroke-width:22.192400000000003px;stroke-dasharray:1.1096199750900269,6.65772008895874"/>
        <circle cx="405.21" cy="405.21" r="320.53" style="fill:none;stroke:#a4bffd;stroke-miterlimit:10;stroke-width:2.23225px;stroke-dasharray:12.132800102233887,12.132800102233887">
                <animateTransform attributeName="transform" attributeType="XML" type="rotate" from="0 405.21 405.21" to="-360 405.21 405.21" dur="50s" repeatCount="indefinite"/>
        </circle>
        <circle cx="405.21" cy="405.21" r="334" style="fill:none;stroke:#a4bffd;stroke-miterlimit:10;stroke-width:2.23225px;stroke-dasharray:12.201600074768066,12.201600074768066">
                <animateTransform attributeName="transform" attributeType="XML" type="rotate" from="0 405.21 405.21" to="360 405.21 405.21" dur="25s" repeatCount="indefinite"/>
        </circle>
        <circle cx="405.21" cy="405.21" r="165.33" style="fill:none;stroke:#00beff;stroke-miterlimit:10;stroke-width:22.192400000000003px;stroke-dasharray:1.1096199750900269,6.65772008895874"/>
    </g>
    <g>

        <path d="M375,462.12C258,462.12,162.88,367,162.88,250S258,37.88,375,37.88,587.12,133,587.12,250,492,462.12,375,462.12Zm0-423.24c-116.41,0-211.12,94.71-211.12,211.12S258.59,461.12,375,461.12,586.12,366.41,586.12,250,491.41,38.88,375,38.88Z" transform="translate(30.21 155.21)" style="fill:#8e79fa"/>
        <circle cx="366" cy="196.42" r="12.46" style="fill:#9687ff"/>
        <circle cx="366" cy="196.42" r="12.46" style="fill:#9687ff">
                <animate attributeType="SVG" attributeName="r" begin="0s" dur="1.5s" repeatCount="indefinite" from="0%" to="8%"/>
                <animate attributeType="CSS" attributeName="fill-width" begin="0s"  dur="1.5s" repeatCount="indefinite" from="5%" to="0%" />
                <animate attributeType="CSS" attributeName="opacity" begin="0s"  dur="1.5s" repeatCount="indefinite" from="1" to="0"/>
            </circle>
            <circle cx="483" cy="208.21" r="7.75" style="fill:#9687ff" />
         
                
         
            <circle cx="380.87" cy="615.5" r="7.75" style="fill:#9687ff"/>
        <circle cx="380.87" cy="615.5" r="7.75" style="fill:#9687ff">
                <animate attributeType="SVG" attributeName="r" begin="0s" dur="1.4s" repeatCount="indefinite" from="0%" to="8%"/>
                <animate attributeType="CSS" attributeName="fill-width" begin="0s"  dur="1.4s" repeatCount="indefinite" from="5%" to="0%" />
                <animate attributeType="CSS" attributeName="opacity" begin="0s"  dur="1.4s" repeatCount="indefinite" from="1" to="0"/>
            </circle>
        <circle cx="616.74" cy="405.21" r="7.75" style="fill:#9687ff"/>
        <circle cx="257.42" cy="256.81" r="7.75" style="fill:#9687ff"/>
        <animateTransform attributeName="transform" attributeType="XML" type="rotate" from="0 405.21 405.21" to="360 405.21 405.21" dur="15s" repeatCount="indefinite"/>
    </g>
    <g>

        <path d="M375,486.83A236.83,236.83,0,0,1,207.53,82.53,236.83,236.83,0,0,1,542.47,417.47,235.29,235.29,0,0,1,375,486.83Zm0-472.67C245,14.17,139.17,120,139.17,250S245,485.83,375,485.83,610.83,380,610.83,250,505,14.17,375,14.17Z" transform="translate(30.21 155.21)" style="fill:#8e79fa"/>
        
            <circle cx="566.2" cy="576.5" r="7.75" style="fill:#9687ff"/>
            <circle cx="612.8" cy="289.63" r="7.75" style="fill:#9687ff"/>
            <circle cx="170.67" cy="373.96" r="7.75" style="fill:#9687ff"/>
            <circle cx="405.21" cy="168.88" r="7.75" style="fill:#9687ff"/>
            <circle cx="299.52" cy="616.84" r="12.46" style="fill:#9687ff"/>
            <circle cx="299.52" cy="616.84" r="12.46" style="fill:#9687ff">
                    <animate attributeType="SVG" attributeName="r" begin="0s" dur="1.5s" repeatCount="indefinite" from="0%" to="8%"/>
                    <animate attributeType="CSS" attributeName="fill-width" begin="0s"  dur="1.5s" repeatCount="indefinite" from="5%" to="0%" />
                    <animate attributeType="CSS" attributeName="opacity" begin="0s"  dur="1.5s" repeatCount="indefinite" from="1" to="0"/>
            </circle>
            <animateTransform attributeName="transform" attributeType="XML" type="rotate" from="0 405.21 405.21" to="360 405.21 405.21" dur="30s" repeatCount="indefinite"/>
    </g>
    
    <path d="M375,130.71A119.29,119.29,0,1,0,494.29,250,119.29,119.29,0,0,0,375,130.71Zm0,218A98.71,98.71,0,1,1,473.71,250,98.71,98.71,0,0,1,375,348.71Z" transform="translate(30.21 155.21)" style="fill:#6c27e7;opacity:0.5"/>
    <circle cx="405.21" cy="405.21" r="79" style="fill:#97c8ff"/>
    <circle cx="405.21" cy="405.21" r="79" style="fill:#9687ff">
            <animate attributeType="SVG" attributeName="r" begin="0s" dur="1.5s" repeatCount="indefinite" from="0%" to="30%"/>
            <animate attributeType="CSS" attributeName="fill-width" begin="0s"  dur="1.5s" repeatCount="indefinite" from="5%" to="0%" />
            <animate attributeType="CSS" attributeName="opacity" begin="0s"  dur="1.5s" repeatCount="indefinite" from="1" to="0"/>
        </circle>
    <circle cx="405.21" cy="405.21" r="84.02" style="fill:none;stroke:#97c8ff;stroke-miterlimit:10;stroke-width:2px;stroke-dasharray:10.480999946594238"/>
    <circle cx="405.21" cy="405.21" r="73.5" style="fill:#7522f1"/>
    
    <circle cx="405.21" cy="405.21" r="98.71" style="fill:none;stroke:#9bc8ff;stroke-miterlimit:10;stroke-width:3.1392400000000005px"/>
    <circle cx="405.21" cy="405.21" r="144.75" style="fill:none;stroke:#9ec8ff;stroke-miterlimit:10;stroke-width:5.4147300000000005px"/>
    <circle cx="405.21" cy="405.21" r="165.33" style="fill:none;stroke:#9dc3fe;stroke-miterlimit:10;stroke-width:22.192400000000003px;stroke-dasharray:1.1096199750900269,6.65772008895874"/>
    <circle cx="405.21" cy="405.21" r="127.16" style="fill:none;stroke:#9dc8ff;stroke-miterlimit:10;stroke-width:2px;stroke-dasharray:11.097000122070312,11.097000122070312"/>
    <circle cx="405.21" cy="405.21" r="132.5" style="fill:none;stroke:#9dc8ff;stroke-miterlimit:10;stroke-width:2px;stroke-dasharray:11.563300132751465,11.563300132751465"/>
    <g>
            <path d="M379.67,214.56q13.32,0,20.78,5.18t7.46,15.5a16.37,16.37,0,0,1-2.77,9.36,16.74,16.74,0,0,1-8.06,6.19q6.79,1.45,10.18,6.22a18.55,18.55,0,0,1,3.4,11q0,10.83-7.15,16.41T383.25,290H346.14V281l8-1.56V225.24l-8-1.55v-9.12h33.54Zm-10.37,31.62h10.88q6.07,0,9.33-2.49a8.56,8.56,0,0,0,3.26-7.26q0-5.24-3.29-7.72t-9.82-2.49H369.31v20Zm0,10.47v21.77h13.94q6,0,9.17-2.62t3.16-7.75q0-5.55-2.7-8.47t-8.5-2.93H369.31Z" transform="translate(30.21 155.21)" style="fill:#00114f"/>
            <rect x="395.48" y="361.17" width="8.08" height="8.6" style="fill:#00114f"/>
            <rect x="405.64" y="361.17" width="8.08" height="12.79" style="fill:#00114f"/>
            <rect x="395.48" y="445.24" width="8.08" height="8.6" style="fill:#00114f"/>
            <rect x="405.64" y="441.05" width="8.08" height="12.79" style="fill:#00114f"/>
        <path d="M379.67,212.27q13.32,0,20.78,5.18t7.46,15.5a16.36,16.36,0,0,1-2.77,9.36,16.74,16.74,0,0,1-8.06,6.19q6.79,1.45,10.18,6.22a18.55,18.55,0,0,1,3.4,11q0,10.83-7.15,16.41t-20.27,5.57H346.14v-9.07l8-1.55V222.94l-8-1.55v-9.12h33.54Zm-10.37,31.62h10.88q6.07,0,9.33-2.49a8.56,8.56,0,0,0,3.26-7.26q0-5.23-3.29-7.72t-9.82-2.49H369.31v20Zm0,10.47v21.77h13.94q6,0,9.17-2.62t3.16-7.75q0-5.55-2.7-8.47t-8.5-2.93H369.31Z" transform="translate(30.21 155.21)" style="fill:#d9edff"/>
        <rect x="395.48" y="358.88" width="8.08" height="8.6" style="fill:#d9edff"/>
        <rect x="405.64" y="358.88" width="8.08" height="12.79" style="fill:#d9edff"/>
        <rect x="395.48" y="442.95" width="8.08" height="8.6" style="fill:#d9edff"/>
        <rect x="405.64" y="438.76" width="8.08" height="12.79" style="fill:#d9edff"/>
        
    </g>

    <path d="M445.06,250c0,38.69-140.12,38.69-140.12,0A70.06,70.06,0,0,1,445.06,250Z" transform="translate(30.21 155.21)" style="fill:#fff;opacity:0.25"/>
    <circle cx="503.92" cy="405.21" r="6.98" style="fill:#93c8ff"/>
    <circle cx="306.5" cy="405.21" r="6.98" style="fill:#93c8ff"/>
    <circle cx="405.21" cy="306.5" r="6.98" style="fill:#93c8ff"/>
    <circle cx="405.21" cy="503.93" r="6.98" style="fill:#93c8ff"/>
    
    <g>
        <circle cx="310.01" cy="204.54" r="27.08" style="fill:#8cc9ff"/>            
        <circle cx="310.01" cy="204.54" r="24.34" style="fill:#6425f1"/>            
        <path d="M302.07,49.33c0,12.3-44.54,12.3-44.54,0A22.27,22.27,0,1,1,302.07,49.33Z" transform="translate(30.21 155.21)" style="fill:#fff;opacity:0.25"/>
        <path d="M287.74,51.31a3.87,3.87,0,0,0-2,.53,0.21,0.21,0,0,0-.07,0l-0.19.06-0.19,0h-0.06l-0.12,0-0.19,0-0.17-.08-0.17-.11a0.31,0.31,0,0,0-.06,0l-3.48-3.48a1,1,0,0,1-.29-0.7V44.95s0-.08,0-0.12a1,1,0,0,1,.06-0.25,0.53,0.53,0,0,1,.1-0.16,0.62,0.62,0,0,1,.1-0.16,0.73,0.73,0,0,1,.21-0.15,0.6,0.6,0,0,1,.1-0.07,4,4,0,1,0-3.16,0,0.6,0.6,0,0,1,.1.07,0.73,0.73,0,0,1,.21.15,0.62,0.62,0,0,1,.1.16,0.53,0.53,0,0,1,.1.16,1,1,0,0,1,.06.25s0,0.08,0,.12v2.56a1,1,0,0,1-.29.7L275,51.69l-0.06,0-0.17.11-0.17.08-0.19,0-0.12,0h-0.07l-0.18,0-0.19-.06a0.21,0.21,0,0,0-.07,0,3.87,3.87,0,0,0-2-.53,4,4,0,1,0,4,4,4.23,4.23,0,0,0-.09-0.85,0.33,0.33,0,0,1,0-.1,0.67,0.67,0,0,1,0-.2,1.15,1.15,0,0,1,0-.18,0.66,0.66,0,0,1,.07-0.18l0.11-.17,0-.08,3.09-3.09a1,1,0,0,1,1.41,0l3.09,3.09,0,0.08,0.11,0.17a0.66,0.66,0,0,1,.07.18,1.15,1.15,0,0,1,0,.18,0.67,0.67,0,0,1,0,.2,0.33,0.33,0,0,1,0,.1,4.23,4.23,0,0,0-.09.85A4,4,0,1,0,287.74,51.31Z" transform="translate(30.21 155.21)" style="fill:#d1edff"/>
        <path d="M283.57,31.85a17.85,17.85,0,0,0-3.58-.39H279.7a17.87,17.87,0,0,0-.1,35.73h0.3a18.3,18.3,0,0,0,3.84-.43l0.48-.12A17.88,17.88,0,0,0,283.57,31.85Zm4.17,29.39a6,6,0,0,1-6-6,5.75,5.75,0,0,1,0-.7l-2-2-2,2a5.75,5.75,0,0,1,0,.7,6,6,0,1,1-3.67-5.5l2.68-2.68V45.54a6,6,0,1,1,6,0V47.1l2.68,2.68A6,6,0,1,1,287.74,61.24Z" transform="translate(30.21 155.21)" style="fill:#d1edff"/>                
            
    </g>
    <g>

        <path d="M206.41,331.73A115.64,115.64,0,0,0,156,343.35c0,65.34,50.42,84.43,50.42,84.43s50.41-19.08,50.41-84.43A115.64,115.64,0,0,0,206.41,331.73Z" transform="translate(30.21 155.21)" style="fill:#94c8ff"/>
        <path d="M206.41,421.29a77.39,77.39,0,0,1-21.14-15.55,79.59,79.59,0,0,1-16-24.14A95,95,0,0,1,162,347.05a103.78,103.78,0,0,1,10.31-3.92,109.45,109.45,0,0,1,78.54,3.92,95.06,95.06,0,0,1-7.27,34.55,79.62,79.62,0,0,1-16,24.14A77.42,77.42,0,0,1,206.41,421.29Z" transform="translate(30.21 155.21)" style="fill:#6d25f1"/>
        <polygon points="234.66 531.65 245.71 527.24 242.24 518.57 236.84 520.72 240.14 504.22 230.99 502.39 226.5 524.86 214.24 529.77 217.71 538.44 224.32 535.79 221.48 549.97 257.97 549.97 257.97 540.63 232.87 540.63 234.66 531.65" style="fill:#d9edff"/>
        <path d="M175.55,346.59a93.6,93.6,0,0,0-9.33,3.54,93,93,0,0,0,2.32,18.11c9.79,7.45,23.15,12,37.88,12s28.08-4.59,37.88-12a92.92,92.92,0,0,0,2.32-18.11A99,99,0,0,0,175.55,346.59Z" transform="translate(30.21 155.21)" style="fill:#fff;opacity:0.25"/>
    </g>
    <g>

        <path d="M164.71,249.26a2.58,2.58,0,0,0-1.89-.8H114.51a2.72,2.72,0,0,0-2.68,2.68v32.21a19.24,19.24,0,0,0,1.41,7.15,26.68,26.68,0,0,0,3.48,6.29,38.84,38.84,0,0,0,4.95,5.35,57.3,57.3,0,0,0,5.31,4.32q2.43,1.72,5.07,3.25t3.75,2.08q1.11,0.54,1.78.84a2.48,2.48,0,0,0,2.18,0q0.67-.29,1.78-0.84t3.75-2.08q2.64-1.53,5.07-3.25a57.55,57.55,0,0,0,5.31-4.32,38.71,38.71,0,0,0,4.95-5.35,26.66,26.66,0,0,0,3.48-6.29,19.28,19.28,0,0,0,1.4-7.15V251.14A2.58,2.58,0,0,0,164.71,249.26Z" transform="translate(30.21 155.21)" style="fill:#8dc9ff"/>
        <path d="M161.17,282.92a16.15,16.15,0,0,1-1.18,6,22.36,22.36,0,0,1-2.92,5.27,32.61,32.61,0,0,1-4.15,4.48,48.28,48.28,0,0,1-4.45,3.62q-2,1.44-4.25,2.72t-3.15,1.74q-0.93.46-1.49,0.7a2.09,2.09,0,0,1-1.83,0q-0.56-.25-1.49-0.7T133.11,305q-2.21-1.28-4.25-2.72a48.28,48.28,0,0,1-4.45-3.62,32.55,32.55,0,0,1-4.15-4.48,22.36,22.36,0,0,1-2.92-5.27,16.15,16.15,0,0,1-1.18-6v-27a2.28,2.28,0,0,1,2.25-2.25h40.5a2.28,2.28,0,0,1,2.25,2.25v27Z" transform="translate(30.21 155.21)" style="fill:#00beff"/>
        <path d="M160.5,254.34a2.16,2.16,0,0,0-1.58-.67h-40.5a2.28,2.28,0,0,0-2.25,2.25v27a16.15,16.15,0,0,0,1.18,6,22.36,22.36,0,0,0,2.92,5.27,32.55,32.55,0,0,0,4.15,4.48,48.28,48.28,0,0,0,4.45,3.62q2,1.44,4.25,2.72t3.15,1.74q0.93,0.46,1.49.7a2.09,2.09,0,0,0,1.83,0q0.56-.25,1.49-0.7t3.15-1.74q2.21-1.28,4.25-2.72a48.28,48.28,0,0,0,4.45-3.62,32.61,32.61,0,0,0,4.15-4.48,22.36,22.36,0,0,0,2.92-5.27,16.15,16.15,0,0,0,1.18-6v-27A2.17,2.17,0,0,0,160.5,254.34Z" transform="translate(30.21 155.21)" style="fill:#6525f1"/>
        <path d="M156.22,257.26H121.11a2,2,0,0,0-2,2v20.9a37.23,37.23,0,0,0,39,0v-20.9A2,2,0,0,0,156.22,257.26Z" transform="translate(30.21 155.21)" style="fill:#fff;opacity:0.25"/>
        <path d="M149.28,277.72v-8.57a4.34,4.34,0,0,1,2.89,4.09,1.45,1.45,0,0,0,2.89,0,7.24,7.24,0,0,0-5.78-7.08v-1.59a1.45,1.45,0,1,0-2.89,0v1.59a7.23,7.23,0,0,0,0,14.16v8.57a4.34,4.34,0,0,1-2.89-4.09,1.45,1.45,0,0,0-2.89,0,7.24,7.24,0,0,0,5.78,7.08v1.59a1.45,1.45,0,1,0,2.89,0v-1.59a7.23,7.23,0,0,0,0-14.16h0Zm-5.78-4.48a4.34,4.34,0,0,1,2.89-4.09v8.17a4.34,4.34,0,0,1-2.89-4.09h0Zm5.78,15.65v-8.17a4.33,4.33,0,0,1,0,8.17h0Zm0,0" transform="translate(30.21 155.21)" style="fill:#d1edff"/>
        <path d="M130.5,268.9a4.34,4.34,0,0,1,4.34,4.34,1.45,1.45,0,0,0,2.89,0,7.23,7.23,0,1,0-7.23,7.23,4.34,4.34,0,1,1-4.34,4.34,1.45,1.45,0,0,0-2.89,0,7.23,7.23,0,1,0,7.23-7.23,4.34,4.34,0,0,1,0-8.67h0Zm0,0" transform="translate(30.21 155.21)" style="fill:#d1edff"/>
    </g>
    
    <g>

        <circle cx="549.97" cy="265.18" r="49.24" style="fill:#97c8ff"/>
        <circle cx="549.97" cy="265.18" r="44.52" style="fill:#7722f1"/>
        <path d="M561.25,110c0,22.92-83,22.92-83,0A41.5,41.5,0,0,1,561.25,110Z" transform="translate(30.21 155.21)" style="fill:#fff;opacity:0.25"/>
        <polygon points="569.2 278.22 569.2 290.44 555.58 290.44 555.58 299.53 549.97 299.53 544.36 299.53 544.36 290.44 530.74 290.44 530.74 281.43 551.17 253.78 531.74 253.78 531.74 242.16 544.36 242.16 544.36 232.95 555.58 232.95 555.58 242.16 568.4 242.16 568.4 250.58 547.96 278.22 569.2 278.22" style="fill:#d9edff"/>
    </g>
    <g>
        <circle cx="629.33" cy="338.65" r="27.08" style="fill:#9ec8ff"/>
        <circle cx="629.33" cy="338.65" r="24.34" style="fill:#7e20f1"/>
        <path d="M621.38,183.43c0,12.3-44.54,12.3-44.54,0A22.27,22.27,0,0,1,621.38,183.43Z" transform="translate(30.21 155.21)" style="fill:#fff;opacity:0.25"/>
        <path d="M606.24,176.37H596l-0.87,1.76h11.12a1.72,1.72,0,0,1,1.46.79,1.76,1.76,0,0,1,.15,1.66l-3,7.06a1.75,1.75,0,0,1-1.61,1.08H590.79l-0.87,1.76h13.36a3.45,3.45,0,0,0,3.18-2.13l3-7.06a3.6,3.6,0,0,0-.29-3.34A3.44,3.44,0,0,0,606.24,176.37Z" transform="translate(30.21 155.21)" style="fill:#99e9ff"/>
        <polygon points="619.26 337.76 618.4 339.53 625.1 339.53 625.97 337.76 619.26 337.76" style="fill:#99e9ff"/>
        <path d="M602.47,167.91a15.86,15.86,0,0,0-3.18-.34H599a15.88,15.88,0,0,0-.09,31.75h0.26a16.26,16.26,0,0,0,3.41-.38l0.42-.11A15.89,15.89,0,0,0,602.47,167.91ZM586,185.66a0.89,0.89,0,0,1,0-.86l1.74-3.53a0.89,0.89,0,0,1,.79-0.49h8.67a0.88,0.88,0,0,1,.75.41,0.89,0.89,0,0,1,0,.86l-1.74,3.53a0.88,0.88,0,0,1-.79.49h-8.68A0.88,0.88,0,0,1,586,185.66ZM608.07,189a5.21,5.21,0,0,1-4.8,3.21H588.5a0.88,0.88,0,0,1-.75-0.41,0.89,0.89,0,0,1,0-.86l1.74-3.53a0.88,0.88,0,0,1,.79-0.49h13l3-7H593.71a0.88,0.88,0,0,1-.75-0.41,0.89,0.89,0,0,1,0-.86l1.74-3.53a0.88,0.88,0,0,1,.79-0.49h10.8A5.17,5.17,0,0,1,610.6,177a5.34,5.34,0,0,1,.44,5Z" transform="translate(30.21 155.21)" style="fill:#d9edff"/>
    </g>
    <g>

        <circle cx="468.93" cy="605.78" r="29.28" style="fill:#a1c8ff"/>
        <circle cx="468.93" cy="605.78" r="26.32" style="fill:#8020f1"/>
        <path d="M462.8,450.56c0,13.3-48.16,13.3-48.16,0A24.08,24.08,0,0,1,462.8,450.56Z" transform="translate(30.21 155.21)" style="fill:#fff;opacity:0.25"/>
        <path d="M446.67,453.52a3.87,3.87,0,0,0-2,.53,0.21,0.21,0,0,0-.07,0l-0.19.06-0.19,0h-0.06l-0.12,0-0.19,0-0.17-.08-0.17-.11a0.31,0.31,0,0,0-.06,0L440,450.43a1,1,0,0,1-.29-0.7v-2.56s0-.08,0-0.12a1,1,0,0,1,.06-0.25,0.53,0.53,0,0,1,.1-0.16,0.62,0.62,0,0,1,.1-0.16,0.73,0.73,0,0,1,.21-0.15,0.6,0.6,0,0,1,.1-0.07,4,4,0,1,0-3.16,0,0.6,0.6,0,0,1,.1.07,0.73,0.73,0,0,1,.21.15,0.62,0.62,0,0,1,.1.16,0.53,0.53,0,0,1,.1.16,1,1,0,0,1,.06.25s0,0.08,0,.12v2.56a1,1,0,0,1-.29.7L434,453.9l-0.06,0-0.17.11-0.17.08-0.19,0-0.12,0h-0.07l-0.18,0-0.19-.06a0.21,0.21,0,0,0-.07,0,3.87,3.87,0,0,0-2-.53,4,4,0,1,0,4,4,4.23,4.23,0,0,0-.09-0.85,0.33,0.33,0,0,1,0-.1,0.67,0.67,0,0,1,0-.2,1.15,1.15,0,0,1,0-.18,0.66,0.66,0,0,1,.07-0.18l0.11-.17,0-.08,3.09-3.09a1,1,0,0,1,1.41,0l3.09,3.09,0,0.08,0.11,0.17a0.66,0.66,0,0,1,.07.18,1.15,1.15,0,0,1,0,.18,0.67,0.67,0,0,1,0,.2,0.33,0.33,0,0,1,0,.1,4.23,4.23,0,0,0-.09.85A4,4,0,1,0,446.67,453.52Z" transform="translate(30.21 155.21)" style="fill:#d9edff"/>
        <path d="M442.5,434.06a17.85,17.85,0,0,0-3.58-.39h-0.29a17.87,17.87,0,0,0-.1,35.73h0.3a18.3,18.3,0,0,0,3.84-.43l0.48-.12A17.88,17.88,0,0,0,442.5,434.06Zm4.17,29.39a6,6,0,0,1-6-6,5.75,5.75,0,0,1,0-.7l-2-2-2,2a5.75,5.75,0,0,1,0,.7,6,6,0,1,1-3.67-5.5l2.68-2.68v-1.56a6,6,0,1,1,6,0v1.56l2.68,2.68A6,6,0,1,1,446.67,463.45Z" transform="translate(30.21 155.21)" style="fill:#d9edff"/>
    </g>
    <g>

        <circle cx="610.74" cy="466.48" r="36.49" style="fill:#a0c8ff"/>
        <circle cx="610.74" cy="466.48" r="32.8" style="fill:#831ff1"/>
        <path d="M564,296.14a1.38,1.38,0,0,1,2.45-.87l14.1,17.22,14.1-17.22a1.38,1.38,0,0,1,2.45.87v23.44h6.82a24.81,24.81,0,1,0-46.73,0H564V296.14Z" transform="translate(30.21 155.21)" style="fill:#d9edff"/>
        <path d="M594.31,321V300l-12.72,15.54a1.43,1.43,0,0,1-2.13,0L566.74,300v21a1.38,1.38,0,0,1-1.38,1.38h-7a24.83,24.83,0,0,0,1.58,2.76h9.59v-13.5a1.38,1.38,0,0,1,2.45-.87l8.58,10.48,8.58-10.48a1.38,1.38,0,0,1,2.45.87v13.5h9.59a24.83,24.83,0,0,0,1.58-2.76h-7A1.38,1.38,0,0,1,594.31,321Z" transform="translate(30.21 155.21)" style="fill:#d9edff"/>
        <path d="M588.8,326.47v-11l-7.2,8.8a1.43,1.43,0,0,1-2.13,0l-7.2-8.8v11a1.38,1.38,0,0,1-1.38,1.38h-8.79a24.7,24.7,0,0,0,36.89,0h-8.79A1.38,1.38,0,0,1,588.8,326.47Z" transform="translate(30.21 155.21)" style="fill:#d9edff"/>
        <path d="M610.54,311.26c0,16.57-60,16.57-60,0A30,30,0,0,1,610.54,311.26Z" transform="translate(30.21 155.21)" style="fill:#fff;opacity:0.25"/>
    </g>
    <g>

        <path d="M188.43,132.55L159.38,144.4a5.42,5.42,0,0,0-3.38,5v30.84a34.48,34.48,0,0,0,34.48,34.48h0A34.48,34.48,0,0,0,225,180.26V149.42a5.43,5.43,0,0,0-3.38-5l-29.06-11.85A5.42,5.42,0,0,0,188.43,132.55Z" transform="translate(30.21 155.21)" style="fill:#8dc9ff"/>
        <path d="M188.68,137.61L163.22,148a4.75,4.75,0,0,0-3,4.4v27a30.22,30.22,0,0,0,30.22,30.22h0a30.22,30.22,0,0,0,30.22-30.22v-27a4.75,4.75,0,0,0-3-4.4l-25.46-10.38A4.75,4.75,0,0,0,188.68,137.61Z" transform="translate(30.21 155.21)" style="fill:#6525f1"/>
        <path d="M173.07,175.38l17.41,25.15,17.41-25.15-17.41-29Zm17.41,16.38-7.33-10.59,7.33,3.27,7.33-3.27Zm0-12.79-10.85-4.82,10.85-18.08,10.85,18.08Z" transform="translate(30.21 155.21)" style="fill:#dcf2ff"/>
        <path d="M215.62,150l-23.49-9.58a4.38,4.38,0,0,0-3.31,0L165.34,150a4.39,4.39,0,0,0-2.73,4.06v19.79a114.91,114.91,0,0,0,29.67,3.69,118,118,0,0,0,26.07-2.8V154A4.38,4.38,0,0,0,215.62,150Z" transform="translate(30.21 155.21)" style="fill:#fff;opacity:0.25"/>
    </g>
</svg>