<svg style="height: 500px; width: 500px;"  data-name="BACKGROUND 2" xmlns="http://www.w3.org/2000/svg" xmlns:xlink="http://www.w3.org/1999/xlink" viewBox="0 0 810.43 810.43">
 
    <g style="clip-path:url(#0ee11232-e18f-44db-a6be-169f8db2991a)">
        <circle cx="405.21" cy="405.21" r="300.33" style="fill:none;stroke:#abc5fe;stroke-miterlimit:10;stroke-width:25.759800000000002px;stroke-dasharray:2,8.9">
                <animateTransform attributeName="transform" attributeType="XML" type="rotate" from="0 405.21 405.21" to="360 405.21 405.21" dur="25s" repeatCount="indefinite"/>
        </circle>        
        <circle cx="405.21" cy="405.21" r="260.53" style="fill:none;stroke:#a4bffd;stroke-miterlimit:10;stroke-width:2.23225px;stroke-dasharray:12.132800102233887,12.132800102233887">
                <animateTransform attributeName="transform" attributeType="XML" type="rotate" from="0 405.21 405.21" to="-360 405.21 405.21" dur="30s" repeatCount="indefinite"/>
        </circle>
    </g>
    <g>
        
		<circle cx="405.21" cy="405.21" r="170" style="fill:none;stroke:#9687ff;stroke-miterlimit:10;stroke-width:2px;"/>
        <circle cx="455" cy="245" r="12.46" style="fill:#9687ff"/>
        <circle cx="366" cy="570" r="10.46" style="fill:#9687ff"/>    
        <circle cx="236" cy="420" r="7.75" style="fill:#9687ff" />                                 
        <circle cx="575" cy="415.5" r="7.75" style="fill:#9687ff"/>
        <animateTransform attributeName="transform" attributeType="XML" type="rotate" from="0 405.21 405.21" to="360 405.21 405.21" dur="15s" repeatCount="indefinite"/>
    </g>
    <g>
        
        <circle cx="405.21" cy="405.21" r="218" style="fill:none;stroke:#9687ff;stroke-miterlimit:10;stroke-width:2px;"/>
            <circle cx="566.2" cy="552" r="7.75" style="fill:#9687ff"/>
            <circle cx="550" cy="242" r="7.75" style="fill:#9687ff"/>
            <circle cx="188" cy="390" r="7.75" style="fill:#9687ff"/>
            <circle cx="405.21" cy="188" r="7.75" style="fill:#9687ff"/>
            <circle cx="300" cy="596" r="12.46" style="fill:#9687ff"/>   
            <animateTransform attributeName="transform" attributeType="XML" type="rotate" from="0 405.21 405.21" to="360 405.21 405.21" dur="30s" repeatCount="indefinite"/>
    </g>
        
    <circle cx="405.21" cy="405.21" r="77" style="fill:#97c8ff"/>
    <circle cx="405.21" cy="405.21"  style="fill:#9687ff">
            <animate attributeType="SVG" attributeName="r" begin="0s" dur="1.5s" repeatCount="indefinite" from="0%" to="30%"/>
            <animate attributeType="CSS" attributeName="fill-width" begin="0s"  dur="1.5s" repeatCount="indefinite" from="5%" to="0%" />
            <animate attributeType="CSS" attributeName="opacity" begin="0s"  dur="1.5s" repeatCount="indefinite" from="1" to="0"/>
        </circle>
    
    <circle cx="405.21" cy="405.21" r="73.5" style="fill:#7522f1"/>
    
		<circle cx="405.21" cy="405.21" r="98.71" style="fill:none;stroke:#9bc8ff;stroke-miterlimit:10;stroke-width:3.1392400000000005px"/>     
    <circle cx="405.21" cy="405.21" r="120.16" style="fill:none;stroke:#9dc8ff;stroke-miterlimit:10;stroke-width:2px;stroke-dasharray:11.097000122070312,11.097000122070312">
	  
                    <animateTransform attributeName="transform" attributeType="XML" type="rotate" from="0 405.21 405.21" to="-360 405.21 405.21" dur="30s" repeatCount="indefinite"/>
            </circle>
    <circle cx="405.21" cy="405.21" r="132.5" style="fill:none;stroke:#9dc8ff;stroke-miterlimit:10;stroke-width:2px;stroke-dasharray:11.563300132751465,11.563300132751465">
	                <animateTransform attributeName="transform" attributeType="XML" type="rotate" from="0 405.21 405.21" to="360 405.21 405.21" dur="30s" repeatCount="indefinite"/>
            </circle>
    
    <g >
            <path d="M379.67,214.56q13.32,0,20.78,5.18t7.46,15.5a16.37,16.37,0,0,1-2.77,9.36,16.74,16.74,0,0,1-8.06,6.19q6.79,1.45,10.18,6.22a18.55,18.55,0,0,1,3.4,11q0,10.83-7.15,16.41T383.25,290H346.14V281l8-1.56V225.24l-8-1.55v-9.12h33.54Zm-10.37,31.62h10.88q6.07,0,9.33-2.49a8.56,8.56,0,0,0,3.26-7.26q0-5.24-3.29-7.72t-9.82-2.49H369.31v20Zm0,10.47v21.77h13.94q6,0,9.17-2.62t3.16-7.75q0-5.55-2.7-8.47t-8.5-2.93H369.31Z" transform="translate(30.21 155.21)" style="fill:#00114f"/>
            <rect x="395.48" y="361.17" width="8.08" height="8.6" style="fill:#00114f"/>
            <rect x="405.64" y="361.17" width="8.08" height="12.79" style="fill:#00114f"/>
            <rect x="395.48" y="445.24" width="8.08" height="8.6" style="fill:#00114f"/>
            <rect x="405.64" y="441.05" width="8.08" height="12.79" style="fill:#00114f"/>
        <path d="M379.67,212.27q13.32,0,20.78,5.18t7.46,15.5a16.36,16.36,0,0,1-2.77,9.36,16.74,16.74,0,0,1-8.06,6.19q6.79,1.45,10.18,6.22a18.55,18.55,0,0,1,3.4,11q0,10.83-7.15,16.41t-20.27,5.57H346.14v-9.07l8-1.55V222.94l-8-1.55v-9.12h33.54Zm-10.37,31.62h10.88q6.07,0,9.33-2.49a8.56,8.56,0,0,0,3.26-7.26q0-5.23-3.29-7.72t-9.82-2.49H369.31v20Zm0,10.47v21.77h13.94q6,0,9.17-2.62t3.16-7.75q0-5.55-2.7-8.47t-8.5-2.93H369.31Z" transform="translate(30.21 155.21)" style="fill:#d9edff"/>
        <rect x="395.48" y="358.88" width="8.08" height="8.6" style="fill:#d9edff"/>
        <rect x="405.64" y="358.88" width="8.08" height="12.79" style="fill:#d9edff"/>
        <rect x="395.48" y="442.95" width="8.08" height="8.6" style="fill:#d9edff"/>
        <rect x="405.64" y="438.76" width="8.08" height="12.79" style="fill:#d9edff"/>
		       
    </g>
    
	<circle cx="405.21" cy="405.21" r="60.16" style="fill:#93c8ff;opacity:0.25;stroke:#9dc8ff;stroke-miterlimit:10;stroke-width:2px;"/>
    <circle cx="503.92" cy="405.21" r="6.98" style="fill:#93c8ff"/>
    <circle cx="306.5" cy="405.21" r="6.98" style="fill:#93c8ff"/>
    <circle cx="405.21" cy="306.5" r="6.98" style="fill:#93c8ff"/>
    <circle cx="405.21" cy="503.93" r="6.98" style="fill:#93c8ff"/>
    


</svg>