<svg xmlns="http://www.w3.org/2000/svg" preserveAspectRatio="xMidYMid" width="103" height="103"><defs><linearGradient id="a" gradientUnits="userSpaceOnUse" x1="51.5" y1="103" x2="51.5"><stop offset="0" stop-color="#3f48f1"/><stop offset="1" stop-color="#b600f2"/></linearGradient></defs><path d="M95.614 56.636L84.011 88.122a1.717 1.717 0 0 1-1.611 1.123h-5.15v3.749a5.15 5.15 0 1 1-6.572 6.57 5.148 5.148 0 0 1 3.139-6.57v-3.749h-15.45v3.749a5.147 5.147 0 0 1 0 9.708 5.15 5.15 0 0 1-3.434-9.708v-3.749H46.35v-3.432h34.853l11.602-31.486a1.717 1.717 0 0 1 1.612-1.123H103v3.432h-7.386zM56.65 96.11a1.717 1.717 0 1 0 0 3.434 1.717 1.717 0 0 0 0-3.434zm18.883 0a1.716 1.716 0 1 0 0 3.433 1.716 1.716 0 0 0 0-3.433zm2.706-14.86a1.717 1.717 0 0 1-1.613 1.13H50.082a1.714 1.714 0 0 1-1.621-1.153l-7.166-20.595a1.718 1.718 0 0 1 1.622-2.279h41.2a1.718 1.718 0 0 1 1.613 2.302L78.239 81.25zM45.332 61.785l5.97 17.163h24.121l6.243-17.163H45.332zm7.885 3.433h20.6v3.432h-20.6v-3.432zM72.1 75.515H54.933v-3.433H72.1v3.433zM65.233 54.92a8.582 8.582 0 0 1-8.583-8.581 8.593 8.593 0 0 1 8.583-8.582 8.583 8.583 0 1 1 0 17.163zm0-13.73a5.15 5.15 0 1 0-.001 10.299 5.15 5.15 0 0 0 .001-10.299zm1.203-7.379c-.154.163-.34.293-.546.383a1.715 1.715 0 0 1-1.87-.372l-5.15-5.148 2.427-2.427 2.22 2.219v-7.871H51.5v-3.433h13.734a1.717 1.717 0 0 1 1.716 1.716v9.588l2.22-2.219 2.427 2.426-5.15 5.149-.011-.011zm-23.679 3.946H5.309A5.313 5.313 0 0 1 0 32.449V5.308A5.314 5.314 0 0 1 5.309 0h37.448a5.316 5.316 0 0 1 5.31 5.308v27.141a5.315 5.315 0 0 1-5.31 5.308zm1.876-24.027h-6.866a3.436 3.436 0 0 0-3.434 3.432v3.433a3.437 3.437 0 0 0 3.434 3.432h6.866V13.73zm0 13.73h-6.866a6.873 6.873 0 0 1-6.867-6.865v-3.433a6.874 6.874 0 0 1 6.867-6.865h6.866V5.308a1.877 1.877 0 0 0-1.876-1.876H5.309a1.878 1.878 0 0 0-1.876 1.876v27.141a1.878 1.878 0 0 0 1.876 1.876h37.448a1.877 1.877 0 0 0 1.876-1.876V27.46zm-37.766 0H10.3v3.432H6.867V27.46zm0-6.865H10.3v3.432H6.867v-3.432zm0-6.865H10.3v3.432H6.867V13.73zm0-6.865H10.3v3.432H6.867V6.865zm30.9 10.297H41.2v3.433h-3.433v-3.433zM5.654 41.692a1.715 1.715 0 0 1 2.426.001l5.15 5.149-2.427 2.427-2.22-2.219v28.465h29.184v3.433h-30.9-.001a1.717 1.717 0 0 1-1.716-1.717V47.049l-2.219 2.219-2.428-2.426 5.15-5.149.001-.001z" fill="url(#a)" fill-rule="evenodd"/></svg>