<svg data-name="Vrstva 1" xmlns="http://www.w3.org/2000/svg" xmlns:xlink="http://www.w3.org/1999/xlink" viewBox="0 0 632.82 110.17"><defs><linearGradient id="a" x1="1075.69" y1="455.92" x2="1075.69" y2="566.08" gradientTransform="matrix(1 0 0 -1 -500.71 566.08)" gradientUnits="userSpaceOnUse"><stop offset="0" stop-color="#359ded"/><stop offset="1" stop-color="#1e2aac"/></linearGradient><linearGradient id="b" x1="1107.28" y1="517.42" x2="1107.28" y2="566.08" xlink:href="#a"/><linearGradient id="c" x1="1046.36" y1="455.92" x2="1046.36" y2="513.08" xlink:href="#a"/></defs><path fill="url(#a)" d="M517.15 0h34.17l81.5 110.17h-33.33L517.15 0z"/><path fill="url(#b)" d="M599.49 0h33.33l-36 48.67-16.5-22.17L599.49 0z"/><path fill="url(#c)" d="M516.32 110.17h32.83l25.84-34.67-16.5-22.5-42.17 57.17z"/><path d="M33.21 22.68a31.14 31.14 0 0 1 22.26 8.56 1.71 1.71 0 0 1 .09 2.58l-5.61 5.79a1.47 1.47 0 0 1-2.3 0 21.77 21.77 0 0 0-14.17-5.43c-11.78 0-20.52 9.84-20.52 21.44s8.83 21.25 20.61 21.25a22.07 22.07 0 0 0 14.08-5.24 1.7 1.7 0 0 1 2.3 0l5.7 5.89a1.75 1.75 0 0 1-.09 2.48 31.58 31.58 0 0 1-22.36 8.92 33.12 33.12 0 1 1 .01-66.24zM95.77 22.68a33.12 33.12 0 1 1-33 33.21 33.06 33.06 0 0 1 33-33.21zm0 54.28A21.16 21.16 0 1 0 74.7 55.89a21.2 21.2 0 0 0 21.07 21.06zM140.94 25.34a1.81 1.81 0 0 1 1.75-1.75h8.6a1.81 1.81 0 0 1 1.75 1.75v60.9a1.81 1.81 0 0 1-1.75 1.75h-8.6a1.81 1.81 0 0 1-1.75-1.75v-60.9zM169.73 24.33a1.73 1.73 0 0 1 1.75-1.66h2.3l38.27 40.66h.09v-38a1.75 1.75 0 0 1 1.75-1.75h8.46a1.81 1.81 0 0 1 1.75 1.75v61.91a1.73 1.73 0 0 1-1.75 1.66h-2.21l-38.45-42.21h-.09v39.56a1.75 1.75 0 0 1-1.75 1.75h-8.37a1.81 1.81 0 0 1-1.75-1.75V24.33zM249.5 34.63h-14.08a1.75 1.75 0 0 1-1.75-1.75v-7.54a1.75 1.75 0 0 1 1.75-1.75h40.2a1.75 1.75 0 0 1 1.75 1.75v7.54a1.75 1.75 0 0 1-1.75 1.75h-14.07v51.61a1.81 1.81 0 0 1-1.75 1.75h-8.51a1.81 1.81 0 0 1-1.75-1.75V34.63zM286.94 25.34a1.75 1.75 0 0 1 1.75-1.75H315a19.93 19.93 0 0 1 20.06 19.78c0 8.46-5.61 15.36-13.62 18.58l12.6 23.37a1.74 1.74 0 0 1-1.56 2.67h-9.66a1.58 1.58 0 0 1-1.47-.83l-12.24-24.38H298.9v23.46a1.81 1.81 0 0 1-1.75 1.75h-8.46a1.75 1.75 0 0 1-1.75-1.75v-60.9zm27 27.6a9.37 9.37 0 0 0 9.11-9.38 9.15 9.15 0 0 0-9.11-8.92h-15v18.31h15zM376.64 22.68a33.12 33.12 0 1 1-33 33.21 33.06 33.06 0 0 1 33-33.21zm0 54.28a21.16 21.16 0 1 0-21.07-21.07 21.2 21.2 0 0 0 21.07 21.06zM421.81 24.33a1.73 1.73 0 0 1 1.75-1.66h2.3l38.27 40.66h.09v-38a1.75 1.75 0 0 1 1.75-1.75h8.46a1.81 1.81 0 0 1 1.75 1.75v61.91a1.73 1.73 0 0 1-1.75 1.66h-2.21l-38.45-42.23h-.09v39.56a1.75 1.75 0 0 1-1.75 1.75h-8.37a1.81 1.81 0 0 1-1.75-1.75v-61.9zM492.92 25.34a1.81 1.81 0 0 1 1.75-1.75h8.56a1.81 1.81 0 0 1 1.75 1.75v60.9a1.81 1.81 0 0 1-1.75 1.75h-8.56a1.81 1.81 0 0 1-1.75-1.75v-60.9z" fill="#003"/></svg>