<svg data-name="Layer 1" xmlns="http://www.w3.org/2000/svg" viewBox="0 0 41.41 46.4"><path d="M24.66 32.53V9.87a2 2 0 0 1 2-2h12.8a2 2 0 0 1 2 2v22.66a2 2 0 0 1-2 2H26.63a2 2 0 0 1-1.97-2z" fill="#4398d1"/><path d="M24.66 9.87v.39c8.26 4.66 13.92 13.34 16.75 18.64v-19a2 2 0 0 0-2-2H26.63a2 2 0 0 0-1.97 1.97z" fill="#3e8cc7"/><path fill="#fdb62f" d="M27.13 27.11h3.94v4.92h-3.94z"/><path fill="#fd7b2f" d="M28.6 30.56h.98v1.48h-.98zM28.6 27.11h.98v1.48h-.98z"/><circle cx="36.48" cy="12.83" r="2.46" fill="#fdb62f"/><circle cx="36.48" cy="15.78" r="2.46" fill="#de4c3c"/><path fill="#87ced9" d="M34.51 29.57h.98v2.95h-.98zM34.51 24.65h.98v2.95h-.98zM34.51 19.72h.98v2.95h-.98zM37.47 19.72h.98v12.8h-.98zM27.13 16.27h1.97v.98h-1.97zM27.13 14.3h1.97v.98h-1.97zM27.13 12.33h1.97v.98h-1.97zM27.13 10.37h1.97v.98h-1.97z"/><path d="M26.61 46.4H3.79A3.79 3.79 0 0 1 0 42.61V3.79A3.79 3.79 0 0 1 3.79 0h22.82a3.79 3.79 0 0 1 3.79 3.79v38.82a3.79 3.79 0 0 1-3.79 3.79zm0 0" fill="#3c494e"/><path fill="#b1d194" d="M4 7.2h22.4V16H4z"/><path d="M8 4.8H3.2a.8.8 0 0 1 0-1.6H8a.8.8 0 0 1 0 1.6zm0 0" fill="#8697cb"/><path fill="#fdfdfd" d="M4.8 19.2h4.8v4H4.8zM12.8 19.2h4.8v4h-4.8z"/><path fill="#f65246" d="M20.8 19.2h4.8v4h-4.8z"/><path fill="#fdfdfd" d="M4.8 25.6h4.8v4H4.8zM12.8 25.6h4.8v4h-4.8z"/><path fill="#f5d758" d="M20.8 25.6h4.8v4h-4.8z"/><path fill="#fdfdfd" d="M4.8 32h4.8v4H4.8zM12.8 32h4.8v4h-4.8zM4.8 38.4h4.8v4H4.8zM12.8 38.4h4.8v4h-4.8z"/><path fill="#1fd483" d="M20.8 32h4.8v11.2h-4.8z"/><path d="M13.1 8.86a.78.78 0 0 0-.61 0 .76.76 0 0 0-.26.17l-.8.8A.8.8 0 0 0 12 11.2v2.4a.8.8 0 0 0 1.6 0v-4a.84.84 0 0 0-.06-.31.79.79 0 0 0-.43-.43zm0 0M20.3 8.86a.81.81 0 0 0-.87.17l-.8.8a.8.8 0 0 0 .57 1.36v2.4a.8.8 0 0 0 1.6 0v-4a.84.84 0 0 0-.06-.31.79.79 0 0 0-.43-.43zm0 0M16.23 12.23l-.8.8a.8.8 0 0 0 1.13 1.13l.8-.8a.8.8 0 1 0-1.13-1.13zm0 0M23.94 9.29a.77.77 0 0 0-.43-.43.81.81 0 0 0-.87.17l-.8.8a.8.8 0 0 0 .56 1.36v2.4a.8.8 0 0 0 1.6 0v-4a.84.84 0 0 0-.06-.31zm0 0" fill="#70845a"/></svg>