<svg data-name="Capa 1" xmlns="http://www.w3.org/2000/svg" viewBox="0 0 461.47 511.98"><path d="M99.2 20.16L33.67 271a27 27 0 0 0 19.23 32.9l128.93 33.68a27 27 0 0 0 32.91-19.29l65.49-250.83A27 27 0 0 0 261 34.56L132.07.88A27 27 0 0 0 99.2 20.16z" fill="#7fb239"/><path d="M195.64 288.72a24.75 24.75 0 0 0-30.19 17.71l-83-21.68a24.74 24.74 0 0 0-17.71-30.21l53.55-204.83A24.75 24.75 0 0 0 148.48 32l83 21.68a24.73 24.73 0 0 0 17.68 30.21z" fill="#64892f"/><ellipse cx="182.21" cy="169.23" rx="36.18" ry="50.7" transform="rotate(-75.36 169.566 185.585)" fill="#7fb239"/><ellipse cx="159.83" cy="254.92" rx="17.26" ry="17.25" transform="rotate(-75.36 147.186 271.263)" fill="#7fb239"/><ellipse cx="204.59" cy="83.52" rx="17.26" ry="17.25" transform="rotate(-75.36 191.955 99.882)" fill="#7fb239"/><path d="M325.25 82.34L92.5 196.72a27 27 0 0 0-12.32 36.1L139 352.53a27 27 0 0 0 36.1 12.29l232.74-114.4a27 27 0 0 0 12.32-36.1L361.35 94.61a27 27 0 0 0-36.1-12.27z" fill="#8cc63e"/><path d="M184.98 331a24.77 24.77 0 0 0-33.15-11.3l-37.86-77.06a24.78 24.78 0 0 0 11.31-33.15l190.08-93.42a24.77 24.77 0 0 0 33.15 11.3l37.86 77.06a24.78 24.78 0 0 0-11.31 33.15z" fill="#719d34"/><ellipse cx="275.43" cy="223.66" rx="36.19" ry="50.75" transform="rotate(-26.17 262.837 278.013)" fill="#8cc63e"/><ellipse cx="195.92" cy="262.67" rx="17.28" ry="17.26" transform="rotate(-26.17 183.315 317.053)" fill="#8cc63e"/><ellipse cx="354.89" cy="184.54" rx="17.28" ry="17.26" transform="rotate(-26.17 342.31 238.893)" fill="#8cc63e"/><path d="M448.18 211.82v264.53A35.63 35.63 0 0 1 412.55 512H35.64A35.63 35.63 0 0 1 .01 476.37V211.82a35.63 35.63 0 0 1 35.63-35.63h376.91a35.63 35.63 0 0 1 35.63 35.63z" fill="#89664c"/><path d="M448.18 211.82v264.53A35.63 35.63 0 0 1 412.55 512H35.64a35.61 35.61 0 0 1-29.9-16.26c176.26-4.93 431.55-160.54 442.08-289a35.59 35.59 0 0 1 .36 5.08z" fill="#7a5b44"/><path d="M362.23 176.19C300.61 273.87 124.02 364.94 0 392V211.84a35.63 35.63 0 0 1 35.64-35.63h326.59z" fill="#fff" opacity=".05"/><path d="M461.48 314.64v58.93a14.36 14.36 0 0 1-14.35 14.35H344.74a14.36 14.36 0 0 1-14.35-14.35v-58.93a14.35 14.35 0 0 1 14.35-14.35h102.38a14.33 14.33 0 0 1 14.36 14.35z" fill="#9a795f"/><path d="M461.48 314.64v58.93a14.36 14.36 0 0 1-14.35 14.35H344.74a14.21 14.21 0 0 1-7.78-2.29c43.52-1.46 95.47-29.55 117.5-64a74 74 0 0 0 6.18-11.76 13.82 13.82 0 0 1 .84 4.77z" fill="#8f6d52"/><path d="M426.52 300.27h-81.78a14.36 14.36 0 0 0-14.35 14.35V358c36.35-3.2 77.12-27.52 96.13-57.73z" fill="#fff" opacity=".05"/><circle cx="378.42" cy="344.1" r="23.5" fill="#e9eff4"/><path d="M382.88 325a23.5 23.5 0 0 1-23.5 23.5 24.3 24.3 0 0 1-4.06-.35 24.15 24.15 0 0 1-.35-4.06 23.5 23.5 0 0 1 23.5-23.5 24.3 24.3 0 0 1 4.06.35 24.45 24.45 0 0 1 .35 4.06z" fill="#fff" opacity=".3"/><path d="M401.97 344.1a23.51 23.51 0 0 1-44.38 10.82 23.49 23.49 0 0 0 31.66-31.68 23.44 23.44 0 0 1 12.72 20.86z" fill="#dee4e9"/><ellipse cx="393.44" cy="332.31" rx="6.74" ry="4.18" transform="rotate(-45.01 380.79 362.792)" fill="#fff"/></svg>