<?xml version="1.0" encoding="iso-8859-1"?>
<!-- Generator: Adobe Illustrator 19.0.0, SVG Export Plug-In . SVG Version: 6.00 Build 0)  -->
<svg xmlns="http://www.w3.org/2000/svg" xmlns:xlink="http://www.w3.org/1999/xlink" version="1.1" id="Capa_1" x="0px" y="0px" viewBox="0 0 512.009 512.009" style="enable-background:new 0 0 512.009 512.009;" xml:space="preserve" width="512px" height="512px">
<g>
	<g>
		<path d="M256.004,0.005c-65.877,0-119.467,58.948-119.467,131.413c0,70.46,108.663,185.353,113.289,190.199    c1.613,1.698,3.849,2.654,6.178,2.654c2.329,0,4.565-0.956,6.178-2.654c4.625-4.847,113.289-119.74,113.289-190.199    C375.47,58.953,321.881,0.005,256.004,0.005z M256.004,303.143c-23.023-25.412-102.4-117.018-102.4-171.725    c0-63.044,45.935-114.347,102.4-114.347c56.465,0,102.4,51.302,102.4,114.347C358.404,186.125,279.027,277.722,256.004,303.143z" fill="#881dec"/>
	</g>
</g>
<g>
	<g>
		<path d="M415.637,360.905c-3.337-3.336-8.73-3.336-12.066,0l-14.566,14.566H119.47c-2.261,0-4.437,0.896-6.033,2.5L96.37,395.038    c-3.337,3.337-3.337,8.73,0,12.066c1.664,1.664,3.849,2.5,6.033,2.5c2.185,0,4.369-0.836,6.033-2.5l14.566-14.566h269.534    c2.261,0,4.437-0.896,6.033-2.5l17.067-17.067C418.973,369.635,418.973,364.241,415.637,360.905z" fill="#881dec"/>
	</g>
</g>
<g>
	<g>
		<path d="M415.637,429.172c-3.337-3.336-8.73-3.336-12.066,0l-14.566,14.566H119.47c-2.261,0-4.437,0.896-6.033,2.5L96.37,463.305    c-3.337,3.337-3.337,8.73,0,12.066c1.664,1.664,3.849,2.5,6.033,2.5c2.185,0,4.369-0.836,6.033-2.5l14.566-14.566h269.534    c2.261,0,4.437-0.896,6.033-2.5l17.067-17.067C418.973,437.901,418.973,432.508,415.637,429.172z" fill="#881dec"/>
	</g>
</g>
<g>
	<g>
		<path d="M145.07,409.605h-17.067c-4.71,0-8.533,3.814-8.533,8.533s3.823,8.533,8.533,8.533h17.067c4.71,0,8.533-3.814,8.533-8.533    S149.781,409.605,145.07,409.605z" fill="#881dec"/>
	</g>
</g>
<g>
	<g>
		<path d="M230.404,409.605H196.27c-4.71,0-8.533,3.814-8.533,8.533s3.823,8.533,8.533,8.533h34.133c4.71,0,8.533-3.814,8.533-8.533    S235.114,409.605,230.404,409.605z" fill="#881dec"/>
	</g>
</g>
<g>
	<g>
		<path d="M315.737,409.605h-34.133c-4.71,0-8.533,3.814-8.533,8.533s3.823,8.533,8.533,8.533h34.133    c4.71,0,8.533-3.814,8.533-8.533S320.447,409.605,315.737,409.605z" fill="#881dec"/>
	</g>
</g>
<g>
	<g>
		<path d="M384.004,409.605h-17.067c-4.71,0-8.533,3.814-8.533,8.533s3.823,8.533,8.533,8.533h17.067    c4.71,0,8.533-3.814,8.533-8.533S388.714,409.605,384.004,409.605z" fill="#881dec"/>
	</g>
</g>
<g>
	<g>
		<path d="M256.004,51.205c-37.641,0-68.267,30.626-68.267,68.267s30.626,68.267,68.267,68.267s68.267-30.626,68.267-68.267    C324.27,81.831,293.644,51.205,256.004,51.205z M256.004,170.671c-28.237,0-51.2-22.963-51.2-51.2s22.963-51.2,51.2-51.2    s51.2,22.963,51.2,51.2S284.241,170.671,256.004,170.671z" fill="#881dec"/>
	</g>
</g>
<g>
	<g>
		<path d="M511.62,500.928l-85.333-273.067c-1.118-3.567-4.412-5.99-8.149-5.99h-93.491c-2.825,0-5.47,1.399-7.057,3.738    c-23.091,33.997-49.766,64.495-61.585,77.534c-11.819-13.03-38.477-43.503-61.594-77.534c-1.587-2.338-4.233-3.738-7.057-3.738    H93.87c-3.729,0-7.031,2.423-8.149,5.99L0.388,500.928c-0.811,2.586-0.333,5.41,1.271,7.603c1.613,2.185,4.164,3.473,6.878,3.473    H503.47c2.714,0,5.265-1.289,6.878-3.473C511.961,506.339,512.43,503.514,511.62,500.928z M20.142,494.938l80-256h82.714    c30.78,44.527,65.468,81.109,66.978,82.679c3.217,3.379,9.139,3.379,12.356,0c1.502-1.57,36.19-38.153,66.961-82.679h82.714    l80,256H20.142z" fill="#881dec"/>
	</g>
</g>
<g>
	<g>
		<path d="M285.102,278.422c-3.422-1.348-7.305-0.35-9.66,2.449c-7.979,9.489-14.831,17.203-19.439,22.281    c-4.608-5.069-11.469-12.792-19.447-22.281c-2.364-2.799-6.238-3.789-9.66-2.449c-18.893,7.45-30.626,21.751-30.626,37.316    c0,23.927,26.24,42.667,59.733,42.667c33.493,0,59.733-18.739,59.733-42.667C315.737,300.165,304.004,285.871,285.102,278.422z     M256.004,341.338c-23.125,0-42.667-11.725-42.667-25.6c0-7.074,5.376-14.02,14.379-18.91c12.791,14.985,21.7,24.363,22.11,24.789    c3.217,3.388,9.148,3.379,12.356,0c0.41-0.435,9.31-9.805,22.11-24.789c9.003,4.89,14.379,11.836,14.379,18.91    C298.67,329.613,279.129,341.338,256.004,341.338z" fill="#881dec"/>
	</g>
</g>
<g>
</g>
<g>
</g>
<g>
</g>
<g>
</g>
<g>
</g>
<g>
</g>
<g>
</g>
<g>
</g>
<g>
</g>
<g>
</g>
<g>
</g>
<g>
</g>
<g>
</g>
<g>
</g>
<g>
</g>
</svg>
