<?xml version="1.0" encoding="utf-8"?>
<!-- Generator: Adobe Illustrator 19.0.0, SVG Export Plug-In . SVG Version: 6.00 Build 0)  -->
<svg version="1.1" id="Layer_1" xmlns="http://www.w3.org/2000/svg" xmlns:xlink="http://www.w3.org/1999/xlink" x="0px" y="0px"
	 viewBox="173 -172 451 451" style="enable-background:new 173 -172 451 451;" xml:space="preserve">
<style type="text/css">
	.st0{fill:#122195;}
</style>
<g>
	<path class="st0" d="M304.2-7.8h134.8c7.7,0,13.5-5.9,13.5-13.5s-5.9-13.5-13.5-13.5H304.2c-7.7,0-13.5,5.9-13.5,13.5
		S296.6-7.8,304.2-7.8z"/>
	<path class="st0" d="M438.6,114.8H304.2c-7.7,0-13.5,5.9-13.5,13.5c0,7.7,5.9,13.5,13.5,13.5h134.8c7.7,0,13.5-5.9,13.5-13.5
		C452.6,120.7,446.3,114.8,438.6,114.8z"/>
	<path class="st0" d="M492.8,40H304.2c-7.7,0-13.5,5.9-13.5,13.5S296.6,67,304.2,67h189c7.7,0,13.5-5.9,13.5-13.5S500.4,40,492.8,40
		z"/>
</g>
</svg>
