<svg xmlns="http://www.w3.org/2000/svg" viewBox="0 0 512 512" width="16" height="16"><path d="M478.609 225.48v-52.959c0-27.618-22.469-50.087-50.087-50.087h-64.609L255.962 26.478c-6.325-5.623-15.859-5.623-22.184 0l-107.952 95.957H83.478C37.448 122.435 0 159.883 0 205.913v200.348c0 46.03 37.448 83.478 83.478 83.478h345.043c27.618 0 50.087-22.469 50.087-50.087v-52.959c19.433-6.892 33.391-25.45 33.391-47.215v-66.783c.001-21.765-13.958-40.323-33.39-47.215zM244.87 61.294l68.783 61.141H176.087l68.783-61.141zm200.347 378.358c0 9.206-7.49 16.696-16.696 16.696H83.478c-27.618 0-50.087-22.469-50.087-50.087V205.913c0-27.618 22.469-50.087 50.087-50.087h345.043c9.206 0 16.696 7.49 16.696 16.696v50.087H395.13c-46.03 0-83.478 37.448-83.478 83.478 0 46.03 37.448 83.478 83.478 83.478h50.087v50.087zm33.392-100.174c0 9.206-7.49 16.696-16.696 16.696H395.13c-27.618 0-50.087-22.469-50.087-50.087 0-27.618 22.469-50.087 50.087-50.087h66.783c9.206 0 16.696 7.49 16.696 16.696v66.782z"/><circle cx="395.13" cy="306.087" r="16.696"/></svg>