<svg xmlns="http://www.w3.org/2000/svg" width="16" height="16" viewBox="0 0 53.908 53.909"><path d="M53.226 43.86l-2.412-4.892c-1.681-3.411-5.865-5.483-9.13-5.769-1.151-.099-3.331-.484-5.183-.92-1.486-.349-2.35-.623-2.829-.801.117-.431.333-.863.66-1.312 3.683-2.896 5.875-7.728 5.875-12.958 0-8.587-5.928-15.572-13.212-15.572S13.783 8.622 13.783 17.209c0 5.233 2.193 10.062 5.873 12.96.323.433.547.875.667 1.327-.49.188-1.363.469-2.87.82-2.074.481-4.174.866-5.231.955-3.166.271-7.439 2.411-9.138 5.854L.681 44.146c-.898 1.817-.908 3.911-.024 5.334 1.082 1.745 2.774 2.789 4.528 2.789h43.536c1.749 0 3.44-1.041 4.527-2.789.89-1.428.879-3.793-.022-5.62zm-2.066 4.323c-.487.785-1.387 1.627-2.439 1.627H5.185c-1.057 0-1.953-.839-2.44-1.625-.425-.683-.364-1.923.146-2.959l2.403-5.022c1.246-2.525 4.606-4.26 7.137-4.479 1.433-.12 3.901-.62 5.58-1.01 3.562-.831 4.224-1.395 4.441-1.579.28-.24.439-.594.432-.964-.027-1.286-.491-2.508-1.364-3.616a1.092 1.092 0 0 0-.238-.237c-3.155-2.424-5.04-6.575-5.04-11.108 0-7.229 4.824-13.11 10.755-13.11 5.932 0 10.753 5.881 10.753 13.109 0 4.532-1.884 8.684-5.04 11.102a1.296 1.296 0 0 0-.221.223c-.888 1.119-1.351 2.338-1.38 3.621-.007.368.148.721.425.957.209.182.843.731 4.406 1.567 1.951.457 4.279.865 5.532.974 2.551.223 5.918 1.932 7.138 4.407l2.412 4.892c.558 1.133.522 2.614.138 3.23z"/></svg>