<?xml version="1.0" encoding="utf-8"?>
<!-- Generator: Adobe Illustrator 19.0.0, SVG Export Plug-In . SVG Version: 6.00 Build 0)  -->
<svg version="1.1" id="Capa_1" xmlns="http://www.w3.org/2000/svg" xmlns:xlink="http://www.w3.org/1999/xlink" x="0px" y="0px"
	 viewBox="0 0 512 512" style="enable-background:new 0 0 512 512;" xml:space="preserve">
<style type="text/css">
	.st0{fill:url(#SVGID_1_);}
	.st1{fill:url(#SVGID_2_);}
	.st2{fill:url(#SVGID_3_);}
	.st3{fill:url(#SVGID_4_);}
	.st4{fill:url(#SVGID_5_);}
	.st5{fill:url(#SVGID_6_);}
	.st6{fill:url(#SVGID_7_);}
	.st7{fill:url(#SVGID_8_);}
	.st8{fill:url(#SVGID_9_);}
	.st9{fill:url(#SVGID_10_);}
	.st10{fill:url(#SVGID_11_);}
	.st11{fill:url(#SVGID_12_);}
	.st12{fill:url(#SVGID_13_);}
	.st13{fill:url(#SVGID_14_);}
	.st14{fill:url(#SVGID_15_);}
	.st15{fill:url(#SVGID_16_);}
	.st16{fill:url(#SVGID_17_);}
</style>
<linearGradient id="SVGID_1_" gradientUnits="userSpaceOnUse" x1="28.6836" y1="278.4748" x2="56.1336" y2="261.6948" gradientTransform="matrix(1.0039 0 0 -1.0039 0.1922 516.5609)">
	<stop  offset="0" style="stop-color:#C3C3C3"/>
	<stop  offset="1" style="stop-color:#777777"/>
</linearGradient>
<circle class="st0" cx="23.7" cy="233.8" r="18"/>
<linearGradient id="SVGID_2_" gradientUnits="userSpaceOnUse" x1="16.272" y1="288.6732" x2="518.202" y2="268.2232" gradientTransform="matrix(1.0039 0 0 -1.0039 0.1922 516.5609)">
	<stop  offset="0" style="stop-color:#C3C3C3"/>
	<stop  offset="1" style="stop-color:#777777"/>
</linearGradient>
<path class="st1" d="M495.1,381.4l-348,0.3c-13.8,0-25.1-11.2-25.1-25.1l-0.2-196.8c0-38.2-14.9-74-41.9-101l-8.6-8.6
	c-6.4-6.4-16.9-7-23.6-0.9c-7.2,6.5-7.4,17.7-0.6,24.4l8.9,8.9c19.5,19.5,30.7,45,31.9,72.3H26.8c-10.2,0-18.9,8.3-18.7,18.5
	c0.2,9.9,8.3,17.9,18.2,17.9H76c6.7,0,12,5.4,12.1,12l0,0c0,6.7-5.4,12.1-12.1,12.1h-9.3c-10.1,0-18.2,8.1-18.2,18.2l0,0
	c0,10.1,8.1,18.2,18.2,18.2h10.2c6.2,0,11.2,5,11.2,11.2l0,0c0,6.2-5,11.2-11.2,11.2H66.7c-10.1,0-18.2,8.1-18.2,18.2l0,0
	c0,10.1,8.1,18.2,18.2,18.2h21.5l0.1,45.9c0,32.4,26.4,58.8,58.9,58.8l348-0.3c9.3,0,16.9-7.6,16.9-16.9
	C512,388.9,504.4,381.3,495.1,381.4z"/>
<linearGradient id="SVGID_3_" gradientUnits="userSpaceOnUse" x1="87.2897" y1="419.2641" x2="49.8497" y2="456.6471" gradientTransform="matrix(1.0039 0 0 -1.0039 0.1922 516.5609)">
	<stop  offset="0" style="stop-color:#C3C3C3;stop-opacity:0"/>
	<stop  offset="0.267" style="stop-color:#A4A4A4;stop-opacity:0.267"/>
	<stop  offset="0.542" style="stop-color:#8B8B8B;stop-opacity:0.542"/>
	<stop  offset="0.794" style="stop-color:#7C7C7C;stop-opacity:0.794"/>
	<stop  offset="1" style="stop-color:#777777"/>
</linearGradient>
<path class="st2" d="M79.8,58.8l-8.9-8.9c-6.6-6.6-17.3-6.6-23.9,0c-6.6,6.6-6.6,17.3,0,23.9l8.9,8.9c9.5,9.5,17,20.4,22.4,32.2
	l25.1-25.1C97.1,78.6,89.2,68.2,79.8,58.8z"/>
<linearGradient id="SVGID_4_" gradientUnits="userSpaceOnUse" x1="55.977" y1="492.8155" x2="18.373" y2="455.1534" gradientTransform="matrix(1.0039 0 0 -1.0039 0.1922 516.5609)">
	<stop  offset="0" style="stop-color:#62E1FB"/>
	<stop  offset="1" style="stop-color:#00A2F3"/>
</linearGradient>
<path class="st3" d="M7.8,11.1L7.8,11.1c10.4-10.4,27.3-10.5,37.8,0l21.5,21.5c10.4,10.4,10.5,27.3,0,37.8l0,0
	c-10.4,10.4-27.3,10.5-37.8,0L7.8,48.9C-2.6,38.5-2.6,21.6,7.8,11.1z"/>
<linearGradient id="SVGID_5_" gradientUnits="userSpaceOnUse" x1="146.0835" y1="103.7622" x2="225.4235" y2="42.0321" gradientTransform="matrix(1.0039 0 0 -1.0039 0.1922 516.5609)">
	<stop  offset="0" style="stop-color:#777777"/>
	<stop  offset="1" style="stop-color:#3B4041"/>
</linearGradient>
<circle class="st4" cx="187.5" cy="444" r="64.7"/>
<linearGradient id="SVGID_6_" gradientUnits="userSpaceOnUse" x1="190.954" y1="37.1336" x2="182.384" y2="105.7836" gradientTransform="matrix(1.0039 0 0 -1.0039 0.1922 516.5609)">
	<stop  offset="0" style="stop-color:#777777"/>
	<stop  offset="1" style="stop-color:#3B4041"/>
</linearGradient>
<circle class="st5" cx="187.5" cy="444" r="44.5"/>
<linearGradient id="SVGID_7_" gradientUnits="userSpaceOnUse" x1="173.1756" y1="82.6848" x2="199.4556" y2="62.2348" gradientTransform="matrix(1.0039 0 0 -1.0039 0.1922 516.5609)">
	<stop  offset="0" style="stop-color:#C3C3C3"/>
	<stop  offset="1" style="stop-color:#777777"/>
</linearGradient>
<circle class="st6" cx="187.5" cy="444" r="21.4"/>
<linearGradient id="SVGID_8_" gradientUnits="userSpaceOnUse" x1="366.2092" y1="103.7566" x2="445.5392" y2="42.0366" gradientTransform="matrix(1.0039 0 0 -1.0039 0.1922 516.5609)">
	<stop  offset="0" style="stop-color:#777777"/>
	<stop  offset="1" style="stop-color:#3B4041"/>
</linearGradient>
<circle class="st7" cx="408.5" cy="444" r="64.7"/>
<linearGradient id="SVGID_9_" gradientUnits="userSpaceOnUse" x1="411.0743" y1="37.1312" x2="402.5043" y2="105.7812" gradientTransform="matrix(1.0039 0 0 -1.0039 0.1922 516.5609)">
	<stop  offset="0" style="stop-color:#777777"/>
	<stop  offset="1" style="stop-color:#3B4041"/>
</linearGradient>
<circle class="st8" cx="408.5" cy="444" r="44.5"/>
<linearGradient id="SVGID_10_" gradientUnits="userSpaceOnUse" x1="393.297" y1="82.6838" x2="419.577" y2="62.2338" gradientTransform="matrix(1.0039 0 0 -1.0039 0.1922 516.5609)">
	<stop  offset="0" style="stop-color:#C3C3C3"/>
	<stop  offset="1" style="stop-color:#777777"/>
</linearGradient>
<circle class="st9" cx="408.5" cy="444" r="21.4"/>
<linearGradient id="SVGID_11_" gradientUnits="userSpaceOnUse" x1="347.232" y1="244.9498" x2="347.232" y2="130.9598" gradientTransform="matrix(1.0039 0 0.1936 -1.0102 -100.5939 519.8576)">
	<stop  offset="0" style="stop-color:#FF4C54"/>
	<stop  offset="1" style="stop-color:#BE3F45"/>
</linearGradient>
<path class="st10" d="M391.2,372.5H161.3c-9.9,0-17-7-17.1-16.7l-1.7-197.6h349.5l-77.4,197.6C410.9,365.5,401,372.5,391.2,372.5z"
	/>
<linearGradient id="SVGID_12_" gradientUnits="userSpaceOnUse" x1="438.5968" y1="251.809" x2="482.4468" y2="137.819" gradientTransform="matrix(1.0039 0 0.1936 -1.0102 -100.5939 519.8576)">
	<stop  offset="0" style="stop-color:#FF4C54"/>
	<stop  offset="1" style="stop-color:#BE3F45"/>
</linearGradient>
<path class="st11" d="M367.4,349.9c-0.6,0-1.3,0-1.9-0.1c-6.9-1.1-10.5-7.7-8.1-14.9l41.2-121.1c2.4-7.1,10-12.1,16.9-11
	c6.9,1.1,10.5,7.7,8.1,14.9l-41.2,121.1C380.2,345.2,373.7,349.9,367.4,349.9z"/>
<linearGradient id="SVGID_13_" gradientUnits="userSpaceOnUse" x1="247.6659" y1="251.8087" x2="291.516" y2="137.8186" gradientTransform="matrix(1.0039 0 0.1936 -1.0102 -100.5939 519.8576)">
	<stop  offset="0" style="stop-color:#FF4C54"/>
	<stop  offset="1" style="stop-color:#BE3F45"/>
</linearGradient>
<path class="st12" d="M193.8,349.9c-6.3,0-11-4.6-10.7-11.1l5.1-121.1c0.3-7.1,6.5-13.8,13.8-14.9c7.3-1.1,13,3.8,12.7,11
	l-5.1,121.1c-0.3,7.1-6.5,13.8-13.8,14.9C195,349.8,194.4,349.9,193.8,349.9z"/>
<linearGradient id="SVGID_14_" gradientUnits="userSpaceOnUse" x1="377.636" y1="248.8379" x2="409.636" y2="134.8479" gradientTransform="matrix(1.0039 0 0.1936 -1.0102 -100.5939 519.8576)">
	<stop  offset="0" style="stop-color:#FF4C54"/>
	<stop  offset="1" style="stop-color:#BE3F45"/>
</linearGradient>
<path class="st13" d="M310.2,349.9c-0.2,0-0.4,0-0.7,0c-7.1-0.4-11.4-6.5-9.7-13.7L329.2,215c1.7-7.2,8.9-12.7,16-12.4
	c7.1,0.4,11.4,6.5,9.7,13.7l-29.3,121.1C323.8,344.4,317.1,349.9,310.2,349.9z"/>
<linearGradient id="SVGID_15_" gradientUnits="userSpaceOnUse" x1="312.5132" y1="248.8371" x2="344.5132" y2="134.8471" gradientTransform="matrix(1.0039 0 0.1936 -1.0102 -100.5939 519.8576)">
	<stop  offset="0" style="stop-color:#FF4C54"/>
	<stop  offset="1" style="stop-color:#BE3F45"/>
</linearGradient>
<path class="st14" d="M251,349.9c-6.9,0-11.6-5.4-10.6-12.4l17-121.1c1-7.2,7.7-13.3,14.9-13.7c7.2-0.4,12.3,5.2,11.3,12.4
	l-17,121.1c-1,7.2-7.7,13.3-14.9,13.7C251.4,349.8,251.2,349.9,251,349.9z"/>
<linearGradient id="SVGID_16_" gradientUnits="userSpaceOnUse" x1="347.2315" y1="180.6398" x2="347.2315" y2="447.7098" gradientTransform="matrix(1.0039 0 0.1936 -1.0102 -100.5939 519.8576)">
	<stop  offset="0" style="stop-color:#BE3F45;stop-opacity:0"/>
	<stop  offset="1" style="stop-color:#BE3F45"/>
</linearGradient>
<path class="st15" d="M142.8,188.9l147.3,183.6h101.1c9.9,0,19.7-7,23.5-16.7l77.4-197.6H142.5L142.8,188.9z"/>
<linearGradient id="SVGID_17_" gradientUnits="userSpaceOnUse" x1="315.8561" y1="349.923" x2="315.8561" y2="315.163" gradientTransform="matrix(1.0039 0 0 -1.0039 0.1922 516.5609)">
	<stop  offset="0" style="stop-color:#FFB92D"/>
	<stop  offset="1" style="stop-color:#F59500"/>
</linearGradient>
<path class="st16" d="M490.5,190.2H144.1c-10.1,0-18.4-8.2-18.4-18.4l0,0c0-10.1,8.2-18.4,18.4-18.4h346.5
	c10.1,0,18.4,8.2,18.4,18.4l0,0C508.9,182,500.7,190.2,490.5,190.2z"/>
</svg>
