<?xml version="1.0" encoding="utf-8"?>
<!-- Generator: Adobe Illustrator 19.0.0, SVG Export Plug-In . SVG Version: 6.00 Build 0)  -->
<svg version="1.1" id="Capa_1" xmlns="http://www.w3.org/2000/svg" xmlns:xlink="http://www.w3.org/1999/xlink" x="0px" y="0px"
	 viewBox="0 0 512 512" style="enable-background:new 0 0 512 512;" xml:space="preserve">
<style type="text/css">
	.st0{fill:url(#SVGID_1_);}
	.st1{fill:url(#SVGID_2_);}
	.st2{fill:url(#SVGID_3_);}
	.st3{opacity:0.32;fill:url(#SVGID_4_);}
	.st4{fill:#FFFFFF;}
	.st5{fill:url(#SVGID_5_);}
	.st6{fill:url(#SVGID_6_);}
</style>
<linearGradient id="SVGID_1_" gradientUnits="userSpaceOnUse" x1="254.1186" y1="190.663" x2="254.1186" y2="514.792" gradientTransform="matrix(1.0039 0 0 -1.0039 0.1922 516.5609)">
	<stop  offset="0" style="stop-color:#FFD659"/>
	<stop  offset="1" style="stop-color:#FFDE00"/>
</linearGradient>
<circle class="st0" cx="255.3" cy="256" r="160.3"/>
<linearGradient id="SVGID_2_" gradientUnits="userSpaceOnUse" x1="254.1186" y1="325.013" x2="254.1186" y2="16.913" gradientTransform="matrix(1.0039 0 0 -1.0039 0.1922 516.5609)">
	<stop  offset="0" style="stop-color:#FFB14F"/>
	<stop  offset="1" style="stop-color:#FFC000"/>
</linearGradient>
<circle class="st1" cx="255.3" cy="256" r="152.4"/>
<linearGradient id="SVGID_3_" gradientUnits="userSpaceOnUse" x1="309.6786" y1="203.983" x2="122.3886" y2="391.273" gradientTransform="matrix(1.0039 0 0 -1.0039 0.1922 516.5609)">
	<stop  offset="0" style="stop-color:#FFCC65"/>
	<stop  offset="1" style="stop-color:#FFB900"/>
</linearGradient>
<circle class="st2" cx="255.3" cy="256" r="123"/>
<linearGradient id="SVGID_4_" gradientUnits="userSpaceOnUse" x1="380.3072" y1="181.2604" x2="138.3272" y2="313.3204" gradientTransform="matrix(1.0039 0 0 -1.0039 0.1922 516.5609)">
	<stop  offset="0" style="stop-color:#FFE600;stop-opacity:0"/>
	<stop  offset="1" style="stop-color:#000000"/>
</linearGradient>
<path class="st3" d="M378.1,262.3l-76.6-76.6c-1.7-3-5.2-5.4-10.6-7.3c-5.5-2-11.4-3.3-17.6-4.1l-8.2-7.3c-0.2-1.2-0.8-2.2-2.1-3.1
	c-1.5-1.1-3-1.6-4.7-1.6c-1.8,0-3.4,0.5-4.7,1.6c-1.3,1.1-1.9,2.3-1.9,3.7v6.6c-12.4,1.4-22.7,5.5-31,12.4
	c-8.3,6.9-12.5,16.9-12.5,30.2c0,4.7,0.5,9,1.6,12.9c1.1,3.9,2.8,7.3,5.3,10.2c2.4,2.9,4.8,5.4,7,7.4c0.1,0.1,0.2,0.2,0.4,0.3
	l29.3,29.4v38.3c-6.8-0.5-12.7-2.2-17.9-5.3c-5.2-3-9.2-5.9-12.1-8.6c-2.9-2.7-5.3-4-7.1-4c-2.7,0-5.2,1.4-7.3,4.3
	c-2.1,2.9-3.2,5.8-3.2,8.7c0,4.7,2.8,9.4,8.2,14l54,54C327,373.1,375,323.6,378.1,262.3z"/>
<path class="st4" d="M204,310.4c0-2.9,1.1-5.8,3.2-8.7c2.1-2.9,4.6-4.3,7.3-4.3c1.8,0,4.2,1.3,7.1,4c2.9,2.7,7,5.5,12.1,8.6
	c5.2,3,11.1,4.8,17.9,5.3v-53.7c-4.6-1.7-8.1-3-10.5-4c-2.4-1-5.7-2.4-9.7-4.3c-4-1.9-7.2-3.9-9.4-5.9c-2.2-2.1-4.5-4.5-7-7.4
	c-2.4-2.9-4.2-6.3-5.3-10.2c-1.1-3.9-1.6-8.2-1.6-12.9c0-13.3,4.2-23.3,12.5-30.2c8.3-6.9,18.7-11,31-12.4v-6.6
	c0-1.4,0.6-2.6,1.9-3.7c1.3-1.1,2.9-1.6,4.7-1.6c1.7,0,3.2,0.5,4.7,1.6c1.4,1.1,2.2,2.3,2.2,3.7v6.2c9.3,0.3,17.9,1.9,25.8,4.7
	c7.9,2.8,11.8,6.8,11.8,11.8c0,2.7-0.9,5.6-2.8,8.6c-1.8,3-4.3,4.5-7.4,4.5c-1.2,0-4.6-1.3-10-3.9c-5.5-2.6-11.3-4.1-17.4-4.6v46.4
	c6.1,2.3,11.1,4.5,15.1,6.5c4,2.1,8.3,4.9,12.8,8.6c4.5,3.7,7.9,8.3,10.1,13.8c2.3,5.6,3.4,12.1,3.4,19.5c0,13.6-3.7,24.5-11.2,32.5
	c-7.4,8-17.5,13-30.3,14.8v7.7c0,1.3-0.7,2.5-2.2,3.6c-1.5,1-3,1.6-4.7,1.6c-1.8,0-3.4-0.5-4.7-1.6c-1.3-1.1-1.9-2.3-1.9-3.6v-7
	c-13.3-0.2-24.5-3.2-33.8-9.1C208.6,322.6,204,316.6,204,310.4z M230.8,214.4c0,5.9,1.9,10.5,5.6,13.6c3.7,3.1,9.3,6.1,16.7,8.8
	v-41.6C238.2,197,230.8,203.4,230.8,214.4z M263.8,314.8c13.4-2.4,20.2-10,20.2-22.6c0-6.7-1.8-12-5.3-15.8
	c-3.5-3.8-8.5-7.1-14.9-9.8L263.8,314.8L263.8,314.8z"/>
<radialGradient id="SVGID_5_" cx="251.5786" cy="261.313" r="253.3692" gradientTransform="matrix(1.0039 0 0 -1.0039 0.1922 516.5609)" gradientUnits="userSpaceOnUse">
	<stop  offset="0" style="stop-color:#00A2F3"/>
	<stop  offset="0.273" style="stop-color:#03A4F3"/>
	<stop  offset="0.463" style="stop-color:#0CAAF4"/>
	<stop  offset="0.627" style="stop-color:#1BB4F5"/>
	<stop  offset="0.777" style="stop-color:#31C2F7"/>
	<stop  offset="0.916" style="stop-color:#4DD4F9"/>
	<stop  offset="1" style="stop-color:#62E1FB"/>
</radialGradient>
<path class="st5" d="M497.2,116c-10.4-3.8-21.7,0.5-27.1,9.7c-17-28-39.4-52.6-66.4-72.4C360.5,21.6,309.1,4.8,255.3,4.8
	S150.1,21.6,106.9,53.4c-42.4,31.1-73.5,73.8-90,123.5c-3.9,11.8,2.5,24.5,14.2,28.4c11.8,3.9,24.5-2.5,28.4-14.2
	c13.5-40.8,39.1-75.8,73.9-101.4c35.5-26.1,77.7-39.8,121.9-39.8s86.3,13.8,121.9,39.8c20.7,15.2,38.2,33.8,51.8,55
	c-10.3-1.6-20.7,4.3-24.4,14.5c-4.3,11.7,1.7,24.6,13.4,28.8l46.8,17.1c0.1,0,0.2,0.1,0.3,0.1c0.4,0.1,0.8,0.3,1.2,0.4
	c0.2,0.1,0.4,0.1,0.6,0.2c0.4,0.1,0.8,0.2,1.2,0.3c0.2,0,0.4,0.1,0.6,0.1c0.4,0.1,0.9,0.1,1.3,0.2c0.2,0,0.4,0,0.5,0.1
	c0.6,0.1,1.2,0.1,1.9,0.1c0,0,0,0,0,0h0c0.6,0,1.2,0,1.7-0.1c0.1,0,0.3,0,0.4,0c0.4,0,0.9-0.1,1.3-0.2c0.2,0,0.3-0.1,0.5-0.1
	c0.4-0.1,0.8-0.2,1.2-0.2c0.2,0,0.4-0.1,0.6-0.2c0.4-0.1,0.8-0.2,1.1-0.3c0.1,0,0.1,0,0.2,0c0.1,0,0.2-0.1,0.3-0.1
	c0.5-0.2,1-0.4,1.5-0.6c0.2-0.1,0.4-0.2,0.6-0.3c0.5-0.2,0.9-0.5,1.4-0.7c0.1-0.1,0.3-0.1,0.4-0.2c0.5-0.3,1.1-0.7,1.6-1
	c0.2-0.1,0.4-0.3,0.6-0.4c0.3-0.3,0.7-0.5,1-0.8c0.2-0.2,0.4-0.3,0.5-0.5c0.4-0.3,0.7-0.7,1.1-1.1c0.1-0.1,0.2-0.2,0.3-0.3
	c0.5-0.5,0.9-1,1.3-1.6c0,0,0.1-0.1,0.1-0.1c0.4-0.5,0.7-1,1.1-1.5c0.1-0.1,0.2-0.3,0.3-0.4c0.3-0.4,0.5-0.9,0.7-1.3
	c0.1-0.2,0.2-0.4,0.3-0.6c0.2-0.4,0.4-0.8,0.6-1.3c0.1-0.2,0.2-0.4,0.2-0.6c0-0.1,0.1-0.1,0.1-0.2l17.1-46.8
	C514.9,133.2,508.9,120.3,497.2,116z"/>
<radialGradient id="SVGID_6_" cx="169.1914" cy="805.963" r="253.3718" gradientTransform="matrix(-1.0039 0 0 1.0039 429.1076 -551.3407)" gradientUnits="userSpaceOnUse">
	<stop  offset="0" style="stop-color:#BE3F45"/>
	<stop  offset="0.317" style="stop-color:#C14046"/>
	<stop  offset="0.538" style="stop-color:#CA4148"/>
	<stop  offset="0.729" style="stop-color:#D9444B"/>
	<stop  offset="0.902" style="stop-color:#EF4950"/>
	<stop  offset="1" style="stop-color:#FF4C54"/>
</radialGradient>
<path class="st6" d="M14.8,396c10.4,3.8,21.7-0.5,27.1-9.7c17,28,39.4,52.6,66.4,72.4c43.3,31.8,94.6,48.5,148.4,48.5
	s105.2-16.8,148.4-48.5c42.4-31.1,73.5-73.8,90-123.5c3.9-11.8-2.5-24.5-14.2-28.4c-11.8-3.9-24.5,2.5-28.4,14.2
	c-13.5,40.8-39.1,75.8-73.9,101.4c-35.5,26.1-77.7,39.8-121.9,39.8s-86.3-13.8-121.9-39.8c-20.7-15.2-38.2-33.8-51.8-55
	c10.3,1.6,20.7-4.3,24.4-14.5c4.3-11.7-1.7-24.6-13.4-28.8L47.3,307c-0.1,0-0.2-0.1-0.3-0.1c-0.4-0.1-0.8-0.3-1.2-0.4
	c-0.2-0.1-0.4-0.1-0.6-0.2c-0.4-0.1-0.8-0.2-1.2-0.3c-0.2,0-0.4-0.1-0.6-0.1c-0.4-0.1-0.9-0.1-1.3-0.2c-0.2,0-0.4,0-0.5-0.1
	c-0.6-0.1-1.2-0.1-1.9-0.1c0,0,0,0,0,0h0c-0.6,0-1.2,0-1.7,0.1c-0.1,0-0.3,0-0.4,0c-0.4,0-0.9,0.1-1.3,0.2c-0.2,0-0.3,0.1-0.5,0.1
	c-0.4,0.1-0.8,0.2-1.2,0.2c-0.2,0-0.4,0.1-0.6,0.2c-0.4,0.1-0.8,0.2-1.1,0.3c-0.1,0-0.1,0-0.2,0c-0.1,0-0.2,0.1-0.3,0.1
	c-0.5,0.2-1,0.4-1.5,0.6c-0.2,0.1-0.4,0.2-0.6,0.3c-0.5,0.2-0.9,0.5-1.4,0.7c-0.1,0.1-0.3,0.1-0.4,0.2c-0.5,0.3-1.1,0.7-1.6,1
	c-0.2,0.1-0.4,0.3-0.6,0.4c-0.3,0.3-0.7,0.5-1,0.8c-0.2,0.2-0.4,0.3-0.5,0.5c-0.4,0.3-0.7,0.7-1.1,1.1c-0.1,0.1-0.2,0.2-0.3,0.3
	c-0.5,0.5-0.9,1-1.3,1.6c0,0-0.1,0.1-0.1,0.1c-0.4,0.5-0.7,1-1.1,1.5c-0.1,0.1-0.2,0.3-0.3,0.4c-0.3,0.4-0.5,0.9-0.7,1.3
	c-0.1,0.2-0.2,0.4-0.3,0.6c-0.2,0.4-0.4,0.8-0.6,1.3c-0.1,0.2-0.2,0.4-0.2,0.6c0,0.1-0.1,0.1-0.1,0.2L1.4,367.1
	C-2.9,378.8,3.1,391.7,14.8,396z"/>
</svg>
