<?xml version="1.0" encoding="utf-8"?>
<!-- Generator: Adobe Illustrator 19.0.0, SVG Export Plug-In . SVG Version: 6.00 Build 0)  -->
<svg version="1.1" id="Capa_1" xmlns="http://www.w3.org/2000/svg" xmlns:xlink="http://www.w3.org/1999/xlink" x="0px" y="0px"
	 viewBox="0 0 512 512" style="enable-background:new 0 0 512 512;" xml:space="preserve">
<style type="text/css">
	.st0{fill:url(#SVGID_1_);}
	.st1{fill:url(#SVGID_2_);}
	.st2{fill:url(#SVGID_3_);}
	.st3{fill:url(#SVGID_4_);}
	.st4{fill:url(#SVGID_5_);}
	.st5{fill:url(#SVGID_6_);}
	.st6{fill:url(#SVGID_7_);}
	.st7{fill:url(#SVGID_8_);}
	.st8{fill:url(#SVGID_9_);}
	.st9{fill:url(#SVGID_10_);}
	.st10{fill:url(#SVGID_11_);}
	.st11{fill:url(#SVGID_12_);}
	.st12{fill:url(#SVGID_13_);}
	.st13{fill:url(#SVGID_14_);}
	.st14{fill:url(#SVGID_15_);}
	.st15{fill:url(#SVGID_16_);}
	.st16{fill:url(#SVGID_17_);}
	.st17{fill:url(#SVGID_18_);}
	.st18{fill:url(#SVGID_19_);}
	.st19{fill:url(#SVGID_20_);}
	.st20{fill:url(#SVGID_21_);}
	.st21{fill:url(#SVGID_22_);}
	.st22{fill:url(#SVGID_23_);}
	.st23{fill:url(#SVGID_24_);}
	.st24{fill:url(#SVGID_25_);}
	.st25{fill:url(#SVGID_26_);}
	.st26{fill:url(#SVGID_27_);}
	.st27{fill:url(#SVGID_28_);}
	.st28{fill:url(#SVGID_29_);}
	.st29{fill:url(#SVGID_30_);}
	.st30{fill:url(#SVGID_31_);}
	.st31{fill:url(#SVGID_32_);}
	.st32{fill:url(#SVGID_33_);}
	.st33{fill:url(#SVGID_34_);}
	.st34{fill:url(#SVGID_35_);}
	.st35{fill:url(#SVGID_36_);}
	.st36{fill:url(#SVGID_37_);}
	.st37{fill:url(#SVGID_38_);}
	.st38{fill:url(#SVGID_39_);}
	.st39{fill:url(#SVGID_40_);}
	.st40{fill:url(#SVGID_41_);}
	.st41{fill:url(#SVGID_42_);}
	.st42{fill:url(#SVGID_43_);}
	.st43{fill:url(#SVGID_44_);}
	.st44{fill:url(#SVGID_45_);}
	.st45{fill:url(#SVGID_46_);}
	.st46{fill:url(#SVGID_47_);}
	.st47{fill:url(#SVGID_48_);}
	.st48{fill:url(#SVGID_49_);}
	.st49{fill:url(#SVGID_50_);}
	.st50{fill:url(#SVGID_51_);}
	.st51{fill:url(#SVGID_52_);}
	.st52{fill:url(#SVGID_53_);}
	.st53{fill:url(#SVGID_54_);}
	.st54{fill:url(#SVGID_55_);}
	.st55{fill:url(#SVGID_56_);}
	.st56{fill:url(#SVGID_57_);}
	.st57{fill:url(#SVGID_58_);}
	.st58{fill:url(#SVGID_59_);}
	.st59{fill:url(#SVGID_60_);}
	.st60{fill:url(#SVGID_61_);}
	.st61{fill:url(#SVGID_62_);}
	.st62{fill:url(#SVGID_63_);}
	.st63{fill:url(#SVGID_64_);}
	.st64{fill:url(#SVGID_65_);}
	.st65{fill:url(#SVGID_66_);}
	.st66{fill:url(#SVGID_67_);}
	.st67{fill:url(#SVGID_68_);}
	.st68{fill:url(#SVGID_69_);}
	.st69{fill:url(#SVGID_70_);}
	.st70{fill:url(#SVGID_71_);}
	.st71{fill:url(#SVGID_72_);}
	.st72{fill:url(#SVGID_73_);}
	.st73{fill:url(#SVGID_74_);}
	.st74{fill:url(#SVGID_75_);}
	.st75{fill:url(#SVGID_76_);}
	.st76{fill:url(#SVGID_77_);}
	.st77{fill:url(#SVGID_78_);}
	.st78{fill:url(#SVGID_79_);}
	.st79{fill:url(#SVGID_80_);}
	.st80{fill:url(#SVGID_81_);}
	.st81{fill:url(#SVGID_82_);}
	.st82{fill:url(#SVGID_83_);}
	.st83{fill:url(#SVGID_84_);}
	.st84{fill:url(#SVGID_85_);}
	.st85{fill:url(#SVGID_86_);}
	.st86{fill:url(#SVGID_87_);}
	.st87{fill:url(#SVGID_88_);}
	.st88{fill:url(#SVGID_89_);}
</style>
<linearGradient id="SVGID_1_" gradientUnits="userSpaceOnUse" x1="72.1906" y1="237.7365" x2="509.8086" y2="237.7365" gradientTransform="matrix(1.0039 0 0 -1.0039 0.1922 516.5609)">
	<stop  offset="0" style="stop-color:#61DB99"/>
	<stop  offset="1" style="stop-color:#009E74"/>
</linearGradient>
<path class="st0" d="M495.5,389.3H89.1c-9.1,0-16.5-7.4-16.5-16.5V183c0-9.1,7.4-16.5,16.5-16.5h406.4c9.1,0,16.5,7.4,16.5,16.5
	v189.8C512,381.9,504.6,389.3,495.5,389.3z"/>
<linearGradient id="SVGID_2_" gradientUnits="userSpaceOnUse" x1="310.7664" y1="170.8424" x2="287.8265" y2="254.2824" gradientTransform="matrix(1.0039 0 0 -1.0039 0.1922 516.5609)">
	<stop  offset="0" style="stop-color:#009E74;stop-opacity:0"/>
	<stop  offset="1" style="stop-color:#009E74"/>
</linearGradient>
<path class="st1" d="M73.1,366l23.3,23.3h399.1c9.1,0,16.5-7.4,16.5-16.5V183c0-9.1-7.4-16.5-16.5-16.5H89.1
	c-9.1,0-16.5,7.4-16.5,16.5v182L73.1,366z"/>
<linearGradient id="SVGID_3_" gradientUnits="userSpaceOnUse" x1="47.5776" y1="262.3495" x2="485.1956" y2="262.3495" gradientTransform="matrix(1.0039 0 0 -1.0039 0.1922 516.5609)">
	<stop  offset="0" style="stop-color:#61DB99"/>
	<stop  offset="1" style="stop-color:#009E74"/>
</linearGradient>
<path class="st2" d="M470.8,364.6H64.4c-9.1,0-16.5-7.4-16.5-16.5V158.3c0-9.1,7.4-16.5,16.5-16.5h406.4c9.1,0,16.5,7.4,16.5,16.5
	v189.8C487.3,357.2,479.9,364.6,470.8,364.6z"/>
<linearGradient id="SVGID_4_" gradientUnits="userSpaceOnUse" x1="283.441" y1="185.3835" x2="268.311" y2="257.8735" gradientTransform="matrix(1.0039 0 0 -1.0039 0.1922 516.5609)">
	<stop  offset="0" style="stop-color:#009E74;stop-opacity:0"/>
	<stop  offset="1" style="stop-color:#009E74"/>
</linearGradient>
<path class="st3" d="M48.4,341.2l23.3,23.3h399.1c9.1,0,16.5-7.4,16.5-16.5V158.3c0-9.1-7.4-16.5-16.5-16.5H64.4
	c-9.1,0-16.5,7.4-16.5,16.5v182L48.4,341.2z"/>
<linearGradient id="SVGID_5_" gradientUnits="userSpaceOnUse" x1="22.9636" y1="286.9635" x2="460.5816" y2="286.9635" gradientTransform="matrix(1.0039 0 0 -1.0039 0.1922 516.5609)">
	<stop  offset="0" style="stop-color:#61DB99"/>
	<stop  offset="1" style="stop-color:#009E74"/>
</linearGradient>
<path class="st4" d="M446.1,339.9H39.7c-9.1,0-16.5-7.4-16.5-16.5V133.6c0-9.1,7.4-16.5,16.5-16.5h406.4c9.1,0,16.5,7.4,16.5,16.5
	v189.8C462.6,332.5,455.2,339.9,446.1,339.9z"/>
<linearGradient id="SVGID_6_" gradientUnits="userSpaceOnUse" x1="274.7043" y1="161.4919" x2="204.3244" y2="440.1519" gradientTransform="matrix(1.0039 0 0 -1.0039 0.1922 516.5609)">
	<stop  offset="0" style="stop-color:#009E74;stop-opacity:0"/>
	<stop  offset="1" style="stop-color:#009E74"/>
</linearGradient>
<path class="st5" d="M23.7,316.5L47,339.9h399.1c9.1,0,16.5-7.4,16.5-16.5V133.6c0-9.1-7.4-16.5-16.5-16.5H39.7
	c-9.1,0-16.5,7.4-16.5,16.5v182L23.7,316.5z"/>
<linearGradient id="SVGID_7_" gradientUnits="userSpaceOnUse" x1="-0.1914" y1="310.1185" x2="437.4266" y2="310.1185" gradientTransform="matrix(1.0039 0 0 -1.0039 0.1922 516.5609)">
	<stop  offset="0" style="stop-color:#A7F3CE"/>
	<stop  offset="1" style="stop-color:#61DB99"/>
</linearGradient>
<path class="st6" d="M422.9,316.6H16.5c-9.1,0-16.5-7.4-16.5-16.5V110.3c0-9.1,7.4-16.5,16.5-16.5h406.4c9.1,0,16.5,7.4,16.5,16.5
	v189.8C439.3,309.2,432,316.6,422.9,316.6z"/>
<linearGradient id="SVGID_8_" gradientUnits="userSpaceOnUse" x1="104.3006" y1="424.435" x2="382.7706" y2="145.965" gradientTransform="matrix(1.0039 0 0 -1.0039 0.1922 516.5609)">
	<stop  offset="0" style="stop-color:#61DB99"/>
	<stop  offset="1" style="stop-color:#009E74"/>
</linearGradient>
<path class="st7" d="M414.5,140.9c-11.9-0.6-21.7-10.4-22.3-22.3c-0.1-2.6,0.2-5.2,0.8-7.6l0,0H46.3l0,0c0.7,2.4,1,4.9,0.8,7.6
	c-0.6,11.9-10.4,21.7-22.3,22.3c-4.1,0.2-7.9-0.6-11.4-2.2l0,0v133.1l0,0c3.4-1.6,7.3-2.5,11.4-2.2c11.9,0.6,21.7,10.4,22.3,22.3
	c0.1,2.6-0.2,5.2-0.8,7.6l0,0h346.8l0,0c-0.7-2.4-1-4.9-0.8-7.6c0.6-11.9,10.4-21.7,22.3-22.3c4.1-0.2,7.9,0.6,11.4,2.2l0,0V138.7
	l0,0C422.5,140.3,418.6,141.1,414.5,140.9z"/>
<linearGradient id="SVGID_9_" gradientUnits="userSpaceOnUse" x1="184.8015" y1="343.9359" x2="267.1815" y2="261.5659" gradientTransform="matrix(1.0039 0 0 -1.0039 0.1922 516.5609)">
	<stop  offset="0" style="stop-color:#A7F3CE"/>
	<stop  offset="1" style="stop-color:#61DB99"/>
</linearGradient>
<circle class="st8" cx="219.7" cy="205.2" r="57"/>
<linearGradient id="SVGID_10_" gradientUnits="userSpaceOnUse" x1="73.2486" y1="394.133" x2="130.8386" y2="336.543" gradientTransform="matrix(1.0039 0 0 -1.0039 0.1922 516.5609)">
	<stop  offset="0" style="stop-color:#A7F3CE"/>
	<stop  offset="1" style="stop-color:#61DB99"/>
</linearGradient>
<rect x="53.7" y="132" class="st9" width="87.6" height="25.2"/>
<linearGradient id="SVGID_11_" gradientUnits="userSpaceOnUse" x1="316.6986" y1="273.393" x2="374.2986" y2="215.793" gradientTransform="matrix(1.0039 0 0 -1.0039 0.1922 516.5609)">
	<stop  offset="0" style="stop-color:#A7F3CE"/>
	<stop  offset="1" style="stop-color:#61DB99"/>
</linearGradient>
<rect x="298.1" y="253.2" class="st10" width="87.6" height="25.2"/>
<linearGradient id="SVGID_12_" gradientUnits="userSpaceOnUse" x1="415.9385" y1="270.7829" x2="490.5885" y2="213.9029" gradientTransform="matrix(1.0039 0 0 -1.0039 0.1922 516.5609)">
	<stop  offset="0" style="stop-color:#FFF465"/>
	<stop  offset="1" style="stop-color:#FFE600"/>
</linearGradient>
<path class="st11" d="M486.1,263.8H365.6c-2.6,0-4.7-2.1-4.7-4.7v-16.5c0-2.6,2.1-4.7,4.7-4.7h120.6c2.6,0,4.7,2.1,4.7,4.7v16.5
	C490.8,261.7,488.7,263.8,486.1,263.8z"/>
<linearGradient id="SVGID_13_" gradientUnits="userSpaceOnUse" x1="430.938" y1="269.9438" x2="366.518" y2="220.8638" gradientTransform="matrix(1.0039 0 0 -1.0039 0.1922 516.5609)">
	<stop  offset="0" style="stop-color:#FFF465"/>
	<stop  offset="1" style="stop-color:#FFE600"/>
</linearGradient>
<path class="st12" d="M375.3,263.8h101.1c2.4,0,4.3-1.9,4.3-4.3v-17.3c0-2.4-1.9-4.3-4.3-4.3H375.3c-2.4,0-4.3,1.9-4.3,4.3v17.3
	C371,261.9,372.9,263.8,375.3,263.8z"/>
<linearGradient id="SVGID_14_" gradientUnits="userSpaceOnUse" x1="418.3283" y1="268.9626" x2="470.7783" y2="228.9926" gradientTransform="matrix(1.0039 0 0 -1.0039 0.1922 516.5609)">
	<stop  offset="0" style="stop-color:#FFF465"/>
	<stop  offset="1" style="stop-color:#FFE600"/>
</linearGradient>
<path class="st13" d="M465,263.8h-78.3c-2.1,0-3.8-1.7-3.8-3.8v-18.2c0-2.1,1.7-3.8,3.8-3.8H465c2.1,0,3.8,1.7,3.8,3.8V260
	C468.8,262.1,467.1,263.8,465,263.8z"/>
<linearGradient id="SVGID_15_" gradientUnits="userSpaceOnUse" x1="428.4068" y1="268.0153" x2="387.4468" y2="236.8153" gradientTransform="matrix(1.0039 0 0 -1.0039 0.1922 516.5609)">
	<stop  offset="0" style="stop-color:#FFF465"/>
	<stop  offset="1" style="stop-color:#FFE600"/>
</linearGradient>
<path class="st14" d="M397.6,263.8h56.6c1.8,0,3.2-1.5,3.2-3.2v-19.3c0-1.8-1.5-3.2-3.2-3.2h-56.6c-1.8,0-3.2,1.5-3.2,3.2v19.3
	C394.3,262.3,395.8,263.8,397.6,263.8z"/>
<linearGradient id="SVGID_16_" gradientUnits="userSpaceOnUse" x1="420.8919" y1="267.0074" x2="449.602" y2="245.1374" gradientTransform="matrix(1.0039 0 0 -1.0039 0.1922 516.5609)">
	<stop  offset="0" style="stop-color:#FFF465"/>
	<stop  offset="1" style="stop-color:#FFE600"/>
</linearGradient>
<path class="st15" d="M442.6,263.8h-33.5c-1.4,0-2.5-1.1-2.5-2.5v-20.7c0-1.4,1.1-2.5,2.5-2.5h33.5c1.4,0,2.5,1.1,2.5,2.5v20.7
	C445.1,262.6,444,263.8,442.6,263.8z"/>
<linearGradient id="SVGID_17_" gradientUnits="userSpaceOnUse" x1="425.8005" y1="266.0305" x2="408.9905" y2="253.2205" gradientTransform="matrix(1.0039 0 0 -1.0039 0.1922 516.5609)">
	<stop  offset="0" style="stop-color:#FFF465"/>
	<stop  offset="1" style="stop-color:#FFE600"/>
</linearGradient>
<path class="st16" d="M420.1,263.8h11.4c0.9,0,1.6-0.7,1.6-1.6v-22.7c0-0.9-0.7-1.6-1.6-1.6h-11.4c-0.9,0-1.6,0.7-1.6,1.6v22.7
	C418.6,263.1,419.3,263.8,420.1,263.8z"/>
<linearGradient id="SVGID_18_" gradientUnits="userSpaceOnUse" x1="432.1554" y1="260.036" x2="-0.1246" y2="247.416" gradientTransform="matrix(1.0039 0 0 -1.0039 0.1922 516.5609)">
	<stop  offset="0" style="stop-color:#FFE600;stop-opacity:0"/>
	<stop  offset="1" style="stop-color:#F59500"/>
</linearGradient>
<path class="st17" d="M360.9,247.8v11.3c0,2.6,2.1,4.7,4.7,4.7h9.7h11.4h10.9h11.5h11.1h11.4h11.1h11.5H465h11.4h9.7
	c2.6,0,4.7-2.1,4.7-4.7v-11.3H360.9z"/>
<linearGradient id="SVGID_19_" gradientUnits="userSpaceOnUse" x1="415.9388" y1="245.1532" x2="490.5888" y2="188.2732" gradientTransform="matrix(1.0039 0 0 -1.0039 0.1922 516.5609)">
	<stop  offset="0" style="stop-color:#FFF465"/>
	<stop  offset="1" style="stop-color:#FFE600"/>
</linearGradient>
<path class="st18" d="M486.1,289.5H365.6c-2.6,0-4.7-2.1-4.7-4.7v-16.5c0-2.6,2.1-4.7,4.7-4.7h120.6c2.6,0,4.7,2.1,4.7,4.7v16.5
	C490.8,287.4,488.7,289.5,486.1,289.5z"/>
<linearGradient id="SVGID_20_" gradientUnits="userSpaceOnUse" x1="430.9375" y1="244.3144" x2="366.5175" y2="195.2344" gradientTransform="matrix(1.0039 0 0 -1.0039 0.1922 516.5609)">
	<stop  offset="0" style="stop-color:#FFF465"/>
	<stop  offset="1" style="stop-color:#FFE600"/>
</linearGradient>
<path class="st19" d="M375.3,289.5h101.1c2.4,0,4.3-1.9,4.3-4.3V268c0-2.4-1.9-4.3-4.3-4.3H375.3c-2.4,0-4.3,1.9-4.3,4.3v17.3
	C371,287.6,372.9,289.5,375.3,289.5z"/>
<linearGradient id="SVGID_21_" gradientUnits="userSpaceOnUse" x1="418.3287" y1="243.3332" x2="470.7787" y2="203.3632" gradientTransform="matrix(1.0039 0 0 -1.0039 0.1922 516.5609)">
	<stop  offset="0" style="stop-color:#FFF465"/>
	<stop  offset="1" style="stop-color:#FFE600"/>
</linearGradient>
<path class="st20" d="M465,289.5h-78.3c-2.1,0-3.8-1.7-3.8-3.8v-18.2c0-2.1,1.7-3.8,3.8-3.8H465c2.1,0,3.8,1.7,3.8,3.8v18.2
	C468.8,287.8,467.1,289.5,465,289.5z"/>
<linearGradient id="SVGID_22_" gradientUnits="userSpaceOnUse" x1="428.4063" y1="242.3859" x2="387.4464" y2="211.1859" gradientTransform="matrix(1.0039 0 0 -1.0039 0.1922 516.5609)">
	<stop  offset="0" style="stop-color:#FFF465"/>
	<stop  offset="1" style="stop-color:#FFE600"/>
</linearGradient>
<path class="st21" d="M397.6,289.5h56.6c1.8,0,3.2-1.5,3.2-3.2v-19.3c0-1.8-1.5-3.2-3.2-3.2h-56.6c-1.8,0-3.2,1.5-3.2,3.2v19.3
	C394.3,288.1,395.8,289.5,397.6,289.5z"/>
<linearGradient id="SVGID_23_" gradientUnits="userSpaceOnUse" x1="420.8881" y1="241.3824" x2="449.5981" y2="219.5023" gradientTransform="matrix(1.0039 0 0 -1.0039 0.1922 516.5609)">
	<stop  offset="0" style="stop-color:#FFF465"/>
	<stop  offset="1" style="stop-color:#FFE600"/>
</linearGradient>
<path class="st22" d="M442.6,289.5h-33.5c-1.4,0-2.5-1.1-2.5-2.5v-20.7c0-1.4,1.1-2.5,2.5-2.5h33.5c1.4,0,2.5,1.1,2.5,2.5V287
	C445.1,288.4,444,289.5,442.6,289.5z"/>
<linearGradient id="SVGID_24_" gradientUnits="userSpaceOnUse" x1="425.8" y1="240.4011" x2="408.99" y2="227.5911" gradientTransform="matrix(1.0039 0 0 -1.0039 0.1922 516.5609)">
	<stop  offset="0" style="stop-color:#FFF465"/>
	<stop  offset="1" style="stop-color:#FFE600"/>
</linearGradient>
<path class="st23" d="M420.1,289.5h11.4c0.9,0,1.6-0.7,1.6-1.6v-22.7c0-0.9-0.7-1.6-1.6-1.6h-11.4c-0.9,0-1.6,0.7-1.6,1.6V288
	C418.6,288.8,419.3,289.5,420.1,289.5z"/>
<linearGradient id="SVGID_25_" gradientUnits="userSpaceOnUse" x1="432.1553" y1="234.4065" x2="-0.1247" y2="221.7865" gradientTransform="matrix(1.0039 0 0 -1.0039 0.1922 516.5609)">
	<stop  offset="0" style="stop-color:#FFE600;stop-opacity:0"/>
	<stop  offset="1" style="stop-color:#F59500"/>
</linearGradient>
<path class="st24" d="M360.9,273.6v11.3c0,2.6,2.1,4.7,4.7,4.7h9.7h11.4h10.9h11.5h11.1h11.4h11.1h11.5H465h11.4h9.7
	c2.6,0,4.7-2.1,4.7-4.7v-11.3H360.9z"/>
<linearGradient id="SVGID_26_" gradientUnits="userSpaceOnUse" x1="415.9395" y1="219.5242" x2="490.5895" y2="162.6441" gradientTransform="matrix(1.0039 0 0 -1.0039 0.1922 516.5609)">
	<stop  offset="0" style="stop-color:#FFF465"/>
	<stop  offset="1" style="stop-color:#FFE600"/>
</linearGradient>
<path class="st25" d="M486.1,315.2H365.6c-2.6,0-4.7-2.1-4.7-4.7v-16.5c0-2.6,2.1-4.7,4.7-4.7h120.6c2.6,0,4.7,2.1,4.7,4.7v16.5
	C490.8,313.2,488.7,315.2,486.1,315.2z"/>
<linearGradient id="SVGID_27_" gradientUnits="userSpaceOnUse" x1="430.937" y1="218.6851" x2="366.517" y2="169.605" gradientTransform="matrix(1.0039 0 0 -1.0039 0.1922 516.5609)">
	<stop  offset="0" style="stop-color:#FFF465"/>
	<stop  offset="1" style="stop-color:#FFE600"/>
</linearGradient>
<path class="st26" d="M375.3,315.2h101.1c2.4,0,4.3-1.9,4.3-4.3v-17.3c0-2.4-1.9-4.3-4.3-4.3H375.3c-2.4,0-4.3,1.9-4.3,4.3V311
	C371,313.3,372.9,315.2,375.3,315.2z"/>
<linearGradient id="SVGID_28_" gradientUnits="userSpaceOnUse" x1="418.3292" y1="217.7038" x2="470.7792" y2="177.7338" gradientTransform="matrix(1.0039 0 0 -1.0039 0.1922 516.5609)">
	<stop  offset="0" style="stop-color:#FFF465"/>
	<stop  offset="1" style="stop-color:#FFE600"/>
</linearGradient>
<path class="st27" d="M465,315.2h-78.3c-2.1,0-3.8-1.7-3.8-3.8v-18.2c0-2.1,1.7-3.8,3.8-3.8H465c2.1,0,3.8,1.7,3.8,3.8v18.2
	C468.8,313.5,467.1,315.2,465,315.2z"/>
<linearGradient id="SVGID_29_" gradientUnits="userSpaceOnUse" x1="428.4059" y1="216.7566" x2="387.4459" y2="185.5566" gradientTransform="matrix(1.0039 0 0 -1.0039 0.1922 516.5609)">
	<stop  offset="0" style="stop-color:#FFF465"/>
	<stop  offset="1" style="stop-color:#FFE600"/>
</linearGradient>
<path class="st28" d="M397.6,315.2h56.6c1.8,0,3.2-1.5,3.2-3.2v-19.3c0-1.8-1.5-3.2-3.2-3.2h-56.6c-1.8,0-3.2,1.5-3.2,3.2V312
	C394.3,313.8,395.8,315.2,397.6,315.2z"/>
<linearGradient id="SVGID_30_" gradientUnits="userSpaceOnUse" x1="420.8881" y1="215.7523" x2="449.5981" y2="193.8823" gradientTransform="matrix(1.0039 0 0 -1.0039 0.1922 516.5609)">
	<stop  offset="0" style="stop-color:#FFF465"/>
	<stop  offset="1" style="stop-color:#FFE600"/>
</linearGradient>
<path class="st29" d="M442.6,315.2h-33.5c-1.4,0-2.5-1.1-2.5-2.5V292c0-1.4,1.1-2.5,2.5-2.5h33.5c1.4,0,2.5,1.1,2.5,2.5v20.7
	C445.1,314.1,444,315.2,442.6,315.2z"/>
<linearGradient id="SVGID_31_" gradientUnits="userSpaceOnUse" x1="425.7995" y1="214.7717" x2="408.9895" y2="201.9617" gradientTransform="matrix(1.0039 0 0 -1.0039 0.1922 516.5609)">
	<stop  offset="0" style="stop-color:#FFF465"/>
	<stop  offset="1" style="stop-color:#FFE600"/>
</linearGradient>
<path class="st30" d="M420.1,315.2h11.4c0.9,0,1.6-0.7,1.6-1.6V291c0-0.9-0.7-1.6-1.6-1.6h-11.4c-0.9,0-1.6,0.7-1.6,1.6v22.7
	C418.6,314.5,419.3,315.2,420.1,315.2z"/>
<linearGradient id="SVGID_32_" gradientUnits="userSpaceOnUse" x1="432.1553" y1="208.7766" x2="-0.1247" y2="196.1565" gradientTransform="matrix(1.0039 0 0 -1.0039 0.1922 516.5609)">
	<stop  offset="0" style="stop-color:#FFE600;stop-opacity:0"/>
	<stop  offset="1" style="stop-color:#F59500"/>
</linearGradient>
<path class="st31" d="M360.9,299.3v11.3c0,2.6,2.1,4.7,4.7,4.7h9.7h11.4h10.9h11.5h11.1h11.4h11.1h11.5H465h11.4h9.7
	c2.6,0,4.7-2.1,4.7-4.7v-11.3H360.9z"/>
<linearGradient id="SVGID_33_" gradientUnits="userSpaceOnUse" x1="415.939" y1="193.8935" x2="490.589" y2="137.0235" gradientTransform="matrix(1.0039 0 0 -1.0039 0.1922 516.5609)">
	<stop  offset="0" style="stop-color:#FFF465"/>
	<stop  offset="1" style="stop-color:#FFE600"/>
</linearGradient>
<path class="st32" d="M486.1,341H365.6c-2.6,0-4.7-2.1-4.7-4.7v-16.5c0-2.6,2.1-4.7,4.7-4.7h120.6c2.6,0,4.7,2.1,4.7,4.7v16.5
	C490.8,338.9,488.7,341,486.1,341z"/>
<linearGradient id="SVGID_34_" gradientUnits="userSpaceOnUse" x1="430.937" y1="193.0551" x2="366.517" y2="143.975" gradientTransform="matrix(1.0039 0 0 -1.0039 0.1922 516.5609)">
	<stop  offset="0" style="stop-color:#FFF465"/>
	<stop  offset="1" style="stop-color:#FFE600"/>
</linearGradient>
<path class="st33" d="M375.3,341h101.1c2.4,0,4.3-1.9,4.3-4.3v-17.3c0-2.4-1.9-4.3-4.3-4.3H375.3c-2.4,0-4.3,1.9-4.3,4.3v17.3
	C371,339.1,372.9,341,375.3,341z"/>
<linearGradient id="SVGID_35_" gradientUnits="userSpaceOnUse" x1="418.3287" y1="192.0732" x2="470.7787" y2="152.1132" gradientTransform="matrix(1.0039 0 0 -1.0039 0.1922 516.5609)">
	<stop  offset="0" style="stop-color:#FFF465"/>
	<stop  offset="1" style="stop-color:#FFE600"/>
</linearGradient>
<path class="st34" d="M465,341h-78.3c-2.1,0-3.8-1.7-3.8-3.8v-18.2c0-2.1,1.7-3.8,3.8-3.8H465c2.1,0,3.8,1.7,3.8,3.8v18.2
	C468.8,339.3,467.1,341,465,341z"/>
<linearGradient id="SVGID_36_" gradientUnits="userSpaceOnUse" x1="428.4059" y1="191.1266" x2="387.4459" y2="159.9266" gradientTransform="matrix(1.0039 0 0 -1.0039 0.1922 516.5609)">
	<stop  offset="0" style="stop-color:#FFF465"/>
	<stop  offset="1" style="stop-color:#FFE600"/>
</linearGradient>
<path class="st35" d="M397.6,341h56.6c1.8,0,3.2-1.5,3.2-3.2v-19.3c0-1.8-1.5-3.2-3.2-3.2h-56.6c-1.8,0-3.2,1.5-3.2,3.2v19.3
	C394.3,339.5,395.8,341,397.6,341z"/>
<linearGradient id="SVGID_37_" gradientUnits="userSpaceOnUse" x1="420.8883" y1="190.1226" x2="449.5983" y2="168.2526" gradientTransform="matrix(1.0039 0 0 -1.0039 0.1922 516.5609)">
	<stop  offset="0" style="stop-color:#FFF465"/>
	<stop  offset="1" style="stop-color:#FFE600"/>
</linearGradient>
<path class="st36" d="M442.6,341h-33.5c-1.4,0-2.5-1.1-2.5-2.5v-20.7c0-1.4,1.1-2.5,2.5-2.5h33.5c1.4,0,2.5,1.1,2.5,2.5v20.7
	C445.1,339.8,444,341,442.6,341z"/>
<linearGradient id="SVGID_38_" gradientUnits="userSpaceOnUse" x1="425.7995" y1="189.1417" x2="408.9895" y2="176.3317" gradientTransform="matrix(1.0039 0 0 -1.0039 0.1922 516.5609)">
	<stop  offset="0" style="stop-color:#FFF465"/>
	<stop  offset="1" style="stop-color:#FFE600"/>
</linearGradient>
<path class="st37" d="M420.1,341h11.4c0.9,0,1.6-0.7,1.6-1.6v-22.7c0-0.9-0.7-1.6-1.6-1.6h-11.4c-0.9,0-1.6,0.7-1.6,1.6v22.7
	C418.6,340.3,419.3,341,420.1,341z"/>
<linearGradient id="SVGID_39_" gradientUnits="userSpaceOnUse" x1="432.1553" y1="183.1476" x2="-0.1247" y2="170.5275" gradientTransform="matrix(1.0039 0 0 -1.0039 0.1922 516.5609)">
	<stop  offset="0" style="stop-color:#FFE600;stop-opacity:0"/>
	<stop  offset="1" style="stop-color:#F59500"/>
</linearGradient>
<path class="st38" d="M360.9,325v11.3c0,2.6,2.1,4.7,4.7,4.7h9.7h11.4h10.9h11.5h11.1h11.4h11.1h11.5H465h11.4h9.7
	c2.6,0,4.7-2.1,4.7-4.7V325H360.9z"/>
<linearGradient id="SVGID_40_" gradientUnits="userSpaceOnUse" x1="415.9395" y1="168.2641" x2="490.5894" y2="111.3941" gradientTransform="matrix(1.0039 0 0 -1.0039 0.1922 516.5609)">
	<stop  offset="0" style="stop-color:#FFF465"/>
	<stop  offset="1" style="stop-color:#FFE600"/>
</linearGradient>
<path class="st39" d="M486.1,366.7H365.6c-2.6,0-4.7-2.1-4.7-4.7v-16.5c0-2.6,2.1-4.7,4.7-4.7h120.6c2.6,0,4.7,2.1,4.7,4.7V362
	C490.8,364.6,488.7,366.7,486.1,366.7z"/>
<linearGradient id="SVGID_41_" gradientUnits="userSpaceOnUse" x1="430.9365" y1="167.4257" x2="366.5165" y2="118.3457" gradientTransform="matrix(1.0039 0 0 -1.0039 0.1922 516.5609)">
	<stop  offset="0" style="stop-color:#FFF465"/>
	<stop  offset="1" style="stop-color:#FFE600"/>
</linearGradient>
<path class="st40" d="M375.3,366.7h101.1c2.4,0,4.3-1.9,4.3-4.3v-17.3c0-2.4-1.9-4.3-4.3-4.3H375.3c-2.4,0-4.3,1.9-4.3,4.3v17.3
	C371,364.8,372.9,366.7,375.3,366.7z"/>
<linearGradient id="SVGID_42_" gradientUnits="userSpaceOnUse" x1="418.3292" y1="166.4438" x2="470.7792" y2="126.4838" gradientTransform="matrix(1.0039 0 0 -1.0039 0.1922 516.5609)">
	<stop  offset="0" style="stop-color:#FFF465"/>
	<stop  offset="1" style="stop-color:#FFE600"/>
</linearGradient>
<path class="st41" d="M465,366.7h-78.3c-2.1,0-3.8-1.7-3.8-3.8v-18.2c0-2.1,1.7-3.8,3.8-3.8H465c2.1,0,3.8,1.7,3.8,3.8v18.2
	C468.8,365,467.1,366.7,465,366.7z"/>
<linearGradient id="SVGID_43_" gradientUnits="userSpaceOnUse" x1="428.4054" y1="165.4972" x2="387.4454" y2="134.2972" gradientTransform="matrix(1.0039 0 0 -1.0039 0.1922 516.5609)">
	<stop  offset="0" style="stop-color:#FFF465"/>
	<stop  offset="1" style="stop-color:#FFE600"/>
</linearGradient>
<path class="st42" d="M397.6,366.7h56.6c1.8,0,3.2-1.5,3.2-3.2v-19.3c0-1.8-1.5-3.2-3.2-3.2h-56.6c-1.8,0-3.2,1.5-3.2,3.2v19.3
	C394.3,365.2,395.8,366.7,397.6,366.7z"/>
<linearGradient id="SVGID_44_" gradientUnits="userSpaceOnUse" x1="420.8885" y1="164.493" x2="449.5986" y2="142.6229" gradientTransform="matrix(1.0039 0 0 -1.0039 0.1922 516.5609)">
	<stop  offset="0" style="stop-color:#FFF465"/>
	<stop  offset="1" style="stop-color:#FFE600"/>
</linearGradient>
<path class="st43" d="M442.6,366.7h-33.5c-1.4,0-2.5-1.1-2.5-2.5v-20.7c0-1.4,1.1-2.5,2.5-2.5h33.5c1.4,0,2.5,1.1,2.5,2.5v20.7
	C445.1,365.6,444,366.7,442.6,366.7z"/>
<linearGradient id="SVGID_45_" gradientUnits="userSpaceOnUse" x1="425.799" y1="163.5124" x2="408.989" y2="150.7024" gradientTransform="matrix(1.0039 0 0 -1.0039 0.1922 516.5609)">
	<stop  offset="0" style="stop-color:#FFF465"/>
	<stop  offset="1" style="stop-color:#FFE600"/>
</linearGradient>
<path class="st44" d="M420.1,366.7h11.4c0.9,0,1.6-0.7,1.6-1.6v-22.7c0-0.9-0.7-1.6-1.6-1.6h-11.4c-0.9,0-1.6,0.7-1.6,1.6v22.7
	C418.6,366,419.3,366.7,420.1,366.7z"/>
<linearGradient id="SVGID_46_" gradientUnits="userSpaceOnUse" x1="432.1553" y1="157.5185" x2="-0.1247" y2="144.8985" gradientTransform="matrix(1.0039 0 0 -1.0039 0.1922 516.5609)">
	<stop  offset="0" style="stop-color:#FFE600;stop-opacity:0"/>
	<stop  offset="1" style="stop-color:#F59500"/>
</linearGradient>
<path class="st45" d="M360.9,350.8V362c0,2.6,2.1,4.7,4.7,4.7h9.7h11.4h10.9h11.5h11.1h11.4h11.1h11.5H465h11.4h9.7
	c2.6,0,4.7-2.1,4.7-4.7v-11.3H360.9z"/>
<linearGradient id="SVGID_47_" gradientUnits="userSpaceOnUse" x1="415.9399" y1="142.6347" x2="490.5899" y2="85.7647" gradientTransform="matrix(1.0039 0 0 -1.0039 0.1922 516.5609)">
	<stop  offset="0" style="stop-color:#FFF465"/>
	<stop  offset="1" style="stop-color:#FFE600"/>
</linearGradient>
<path class="st46" d="M486.1,392.4H365.6c-2.6,0-4.7-2.1-4.7-4.7v-16.5c0-2.6,2.1-4.7,4.7-4.7h120.6c2.6,0,4.7,2.1,4.7,4.7v16.5
	C490.8,390.3,488.7,392.4,486.1,392.4z"/>
<linearGradient id="SVGID_48_" gradientUnits="userSpaceOnUse" x1="430.9361" y1="141.7963" x2="366.5161" y2="92.7163" gradientTransform="matrix(1.0039 0 0 -1.0039 0.1922 516.5609)">
	<stop  offset="0" style="stop-color:#FFF465"/>
	<stop  offset="1" style="stop-color:#FFE600"/>
</linearGradient>
<path class="st47" d="M375.3,392.4h101.1c2.4,0,4.3-1.9,4.3-4.3v-17.3c0-2.4-1.9-4.3-4.3-4.3H375.3c-2.4,0-4.3,1.9-4.3,4.3v17.3
	C371,390.5,372.9,392.4,375.3,392.4z"/>
<linearGradient id="SVGID_49_" gradientUnits="userSpaceOnUse" x1="418.3297" y1="140.8144" x2="470.7797" y2="100.8544" gradientTransform="matrix(1.0039 0 0 -1.0039 0.1922 516.5609)">
	<stop  offset="0" style="stop-color:#FFF465"/>
	<stop  offset="1" style="stop-color:#FFE600"/>
</linearGradient>
<path class="st48" d="M465,392.4h-78.3c-2.1,0-3.8-1.7-3.8-3.8v-18.2c0-2.1,1.7-3.8,3.8-3.8H465c2.1,0,3.8,1.7,3.8,3.8v18.2
	C468.8,390.7,467.1,392.4,465,392.4z"/>
<linearGradient id="SVGID_50_" gradientUnits="userSpaceOnUse" x1="428.4049" y1="139.8678" x2="387.4449" y2="108.6678" gradientTransform="matrix(1.0039 0 0 -1.0039 0.1922 516.5609)">
	<stop  offset="0" style="stop-color:#FFF465"/>
	<stop  offset="1" style="stop-color:#FFE600"/>
</linearGradient>
<path class="st49" d="M397.6,392.4h56.6c1.8,0,3.2-1.5,3.2-3.2v-19.3c0-1.8-1.5-3.2-3.2-3.2h-56.6c-1.8,0-3.2,1.5-3.2,3.2v19.3
	C394.3,391,395.8,392.4,397.6,392.4z"/>
<linearGradient id="SVGID_51_" gradientUnits="userSpaceOnUse" x1="420.889" y1="138.8636" x2="449.5991" y2="116.9936" gradientTransform="matrix(1.0039 0 0 -1.0039 0.1922 516.5609)">
	<stop  offset="0" style="stop-color:#FFF465"/>
	<stop  offset="1" style="stop-color:#FFE600"/>
</linearGradient>
<path class="st50" d="M442.6,392.4h-33.5c-1.4,0-2.5-1.1-2.5-2.5v-20.7c0-1.4,1.1-2.5,2.5-2.5h33.5c1.4,0,2.5,1.1,2.5,2.5v20.7
	C445.1,391.3,444,392.4,442.6,392.4z"/>
<linearGradient id="SVGID_52_" gradientUnits="userSpaceOnUse" x1="425.7986" y1="137.883" x2="408.9886" y2="125.073" gradientTransform="matrix(1.0039 0 0 -1.0039 0.1922 516.5609)">
	<stop  offset="0" style="stop-color:#FFF465"/>
	<stop  offset="1" style="stop-color:#FFE600"/>
</linearGradient>
<path class="st51" d="M420.1,392.4h11.4c0.9,0,1.6-0.7,1.6-1.6v-22.7c0-0.9-0.7-1.6-1.6-1.6h-11.4c-0.9,0-1.6,0.7-1.6,1.6v22.7
	C418.6,391.7,419.3,392.4,420.1,392.4z"/>
<linearGradient id="SVGID_53_" gradientUnits="userSpaceOnUse" x1="432.1553" y1="131.8891" x2="-0.1247" y2="119.269" gradientTransform="matrix(1.0039 0 0 -1.0039 0.1922 516.5609)">
	<stop  offset="0" style="stop-color:#FFE600;stop-opacity:0"/>
	<stop  offset="1" style="stop-color:#F59500"/>
</linearGradient>
<path class="st52" d="M360.9,376.5v11.3c0,2.6,2.1,4.7,4.7,4.7h9.7h11.4h10.9h11.5h11.1h11.4h11.1h11.5H465h11.4h9.7
	c2.6,0,4.7-2.1,4.7-4.7v-11.3H360.9z"/>
<linearGradient id="SVGID_54_" gradientUnits="userSpaceOnUse" x1="415.9399" y1="117.0047" x2="490.5899" y2="60.1347" gradientTransform="matrix(1.0039 0 0 -1.0039 0.1922 516.5609)">
	<stop  offset="0" style="stop-color:#FFF465"/>
	<stop  offset="1" style="stop-color:#FFE600"/>
</linearGradient>
<path class="st53" d="M486.1,418.2H365.6c-2.6,0-4.7-2.1-4.7-4.7V397c0-2.6,2.1-4.7,4.7-4.7h120.6c2.6,0,4.7,2.1,4.7,4.7v16.5
	C490.8,416.1,488.7,418.2,486.1,418.2z"/>
<linearGradient id="SVGID_55_" gradientUnits="userSpaceOnUse" x1="430.9358" y1="116.1666" x2="366.5158" y2="67.0866" gradientTransform="matrix(1.0039 0 0 -1.0039 0.1922 516.5609)">
	<stop  offset="0" style="stop-color:#FFF465"/>
	<stop  offset="1" style="stop-color:#FFE600"/>
</linearGradient>
<path class="st54" d="M375.3,418.2h101.1c2.4,0,4.3-1.9,4.3-4.3v-17.3c0-2.4-1.9-4.3-4.3-4.3H375.3c-2.4,0-4.3,1.9-4.3,4.3v17.3
	C371,416.2,372.9,418.2,375.3,418.2z"/>
<linearGradient id="SVGID_56_" gradientUnits="userSpaceOnUse" x1="418.3297" y1="115.1844" x2="470.7797" y2="75.2244" gradientTransform="matrix(1.0039 0 0 -1.0039 0.1922 516.5609)">
	<stop  offset="0" style="stop-color:#FFF465"/>
	<stop  offset="1" style="stop-color:#FFE600"/>
</linearGradient>
<path class="st55" d="M465,418.2h-78.3c-2.1,0-3.8-1.7-3.8-3.8v-18.2c0-2.1,1.7-3.8,3.8-3.8H465c2.1,0,3.8,1.7,3.8,3.8v18.2
	C468.8,416.5,467.1,418.2,465,418.2z"/>
<linearGradient id="SVGID_57_" gradientUnits="userSpaceOnUse" x1="428.4092" y1="114.2422" x2="387.4492" y2="83.0322" gradientTransform="matrix(1.0039 0 0 -1.0039 0.1922 516.5609)">
	<stop  offset="0" style="stop-color:#FFF465"/>
	<stop  offset="1" style="stop-color:#FFE600"/>
</linearGradient>
<path class="st56" d="M397.6,418.2h56.6c1.8,0,3.2-1.5,3.2-3.2v-19.3c0-1.8-1.5-3.2-3.2-3.2h-56.6c-1.8,0-3.2,1.5-3.2,3.2v19.3
	C394.3,416.7,395.8,418.2,397.6,418.2z"/>
<linearGradient id="SVGID_58_" gradientUnits="userSpaceOnUse" x1="420.889" y1="113.2336" x2="449.5991" y2="91.3636" gradientTransform="matrix(1.0039 0 0 -1.0039 0.1922 516.5609)">
	<stop  offset="0" style="stop-color:#FFF465"/>
	<stop  offset="1" style="stop-color:#FFE600"/>
</linearGradient>
<path class="st57" d="M442.6,418.2h-33.5c-1.4,0-2.5-1.1-2.5-2.5v-20.7c0-1.4,1.1-2.5,2.5-2.5h33.5c1.4,0,2.5,1.1,2.5,2.5v20.7
	C445.1,417,444,418.2,442.6,418.2z"/>
<linearGradient id="SVGID_59_" gradientUnits="userSpaceOnUse" x1="425.7986" y1="112.253" x2="408.9886" y2="99.443" gradientTransform="matrix(1.0039 0 0 -1.0039 0.1922 516.5609)">
	<stop  offset="0" style="stop-color:#FFF465"/>
	<stop  offset="1" style="stop-color:#FFE600"/>
</linearGradient>
<path class="st58" d="M420.1,418.2h11.4c0.9,0,1.6-0.7,1.6-1.6v-22.7c0-0.9-0.7-1.6-1.6-1.6h-11.4c-0.9,0-1.6,0.7-1.6,1.6v22.7
	C418.6,417.5,419.3,418.2,420.1,418.2z"/>
<linearGradient id="SVGID_60_" gradientUnits="userSpaceOnUse" x1="432.1552" y1="106.2596" x2="-0.1247" y2="93.6395" gradientTransform="matrix(1.0039 0 0 -1.0039 0.1922 516.5609)">
	<stop  offset="0" style="stop-color:#FFE600;stop-opacity:0"/>
	<stop  offset="1" style="stop-color:#F59500"/>
</linearGradient>
<path class="st59" d="M360.9,402.2v11.3c0,2.6,2.1,4.7,4.7,4.7h9.7h11.4h10.9h11.5h11.1h11.4h11.1h11.5H465h11.4h9.7
	c2.6,0,4.7-2.1,4.7-4.7v-11.3H360.9z"/>
<linearGradient id="SVGID_61_" gradientUnits="userSpaceOnUse" x1="432.0894" y1="90.1838" x2="313.1394" y2="209.1338" gradientTransform="matrix(1.0039 0 0 -1.0039 0.1922 516.5609)">
	<stop  offset="0" style="stop-color:#FFE600;stop-opacity:0"/>
	<stop  offset="1" style="stop-color:#F59500"/>
</linearGradient>
<path class="st60" d="M387.9,317.8c-0.7-1.6-2.3-2.7-4.2-2.7h-9.7h-9c0.1,0,0.2,0,0.2,0c-2.4,0.2-4.2,2.2-4.2,4.6v5.2v11.3
	c0,2.4,1.9,4.4,4.2,4.6c-2.4,0.2-4.2,2.2-4.2,4.6v5.2V362c0,2.4,1.9,4.4,4.2,4.6c-2.4,0.2-4.2,2.2-4.2,4.6v5.2v11.3
	c0,2.4,1.9,4.4,4.2,4.6c-2.4,0.2-4.2,2.2-4.2,4.6v5.2v11.3c0,2.6,2.1,4.7,4.7,4.7h9.7h11.4h10.9h11.5h11.1h11.4h11.1h11.5H465h11.4
	h9.7c0.6,0,1.2-0.1,1.7-0.3L387.9,317.8z"/>
<linearGradient id="SVGID_62_" gradientUnits="userSpaceOnUse" x1="313.8889" y1="193.8935" x2="388.539" y2="137.0235" gradientTransform="matrix(1.0039 0 0 -1.0039 0.1922 516.5609)">
	<stop  offset="0" style="stop-color:#FFF465"/>
	<stop  offset="1" style="stop-color:#FFE600"/>
</linearGradient>
<path class="st61" d="M383.7,341H263.1c-2.6,0-4.7-2.1-4.7-4.7v-16.5c0-2.6,2.1-4.7,4.7-4.7h120.6c2.6,0,4.7,2.1,4.7,4.7v16.5
	C388.3,338.9,386.2,341,383.7,341z"/>
<linearGradient id="SVGID_63_" gradientUnits="userSpaceOnUse" x1="328.887" y1="193.0551" x2="264.467" y2="143.9751" gradientTransform="matrix(1.0039 0 0 -1.0039 0.1922 516.5609)">
	<stop  offset="0" style="stop-color:#FFF465"/>
	<stop  offset="1" style="stop-color:#FFE600"/>
</linearGradient>
<path class="st62" d="M272.8,341h101.1c2.4,0,4.3-1.9,4.3-4.3v-17.3c0-2.4-1.9-4.3-4.3-4.3H272.8c-2.4,0-4.3,1.9-4.3,4.3v17.3
	C268.6,339.1,270.5,341,272.8,341z"/>
<linearGradient id="SVGID_64_" gradientUnits="userSpaceOnUse" x1="316.2787" y1="192.0732" x2="368.7287" y2="152.1132" gradientTransform="matrix(1.0039 0 0 -1.0039 0.1922 516.5609)">
	<stop  offset="0" style="stop-color:#FFF465"/>
	<stop  offset="1" style="stop-color:#FFE600"/>
</linearGradient>
<path class="st63" d="M362.6,341h-78.3c-2.1,0-3.8-1.7-3.8-3.8v-18.2c0-2.1,1.7-3.8,3.8-3.8h78.3c2.1,0,3.8,1.7,3.8,3.8v18.2
	C366.4,339.3,364.7,341,362.6,341z"/>
<linearGradient id="SVGID_65_" gradientUnits="userSpaceOnUse" x1="326.3558" y1="191.1266" x2="285.3958" y2="159.9266" gradientTransform="matrix(1.0039 0 0 -1.0039 0.1922 516.5609)">
	<stop  offset="0" style="stop-color:#FFF465"/>
	<stop  offset="1" style="stop-color:#FFE600"/>
</linearGradient>
<path class="st64" d="M295.1,341h56.6c1.8,0,3.2-1.5,3.2-3.2v-19.3c0-1.8-1.5-3.2-3.2-3.2h-56.6c-1.8,0-3.2,1.5-3.2,3.2v19.3
	C291.9,339.5,293.3,341,295.1,341z"/>
<linearGradient id="SVGID_66_" gradientUnits="userSpaceOnUse" x1="318.8383" y1="190.1226" x2="347.5483" y2="168.2526" gradientTransform="matrix(1.0039 0 0 -1.0039 0.1922 516.5609)">
	<stop  offset="0" style="stop-color:#FFF465"/>
	<stop  offset="1" style="stop-color:#FFE600"/>
</linearGradient>
<path class="st65" d="M340.1,341h-33.5c-1.4,0-2.5-1.1-2.5-2.5v-20.7c0-1.4,1.1-2.5,2.5-2.5h33.5c1.4,0,2.5,1.1,2.5,2.5v20.7
	C342.7,339.8,341.6,341,340.1,341z"/>
<linearGradient id="SVGID_67_" gradientUnits="userSpaceOnUse" x1="323.7499" y1="189.1413" x2="306.9399" y2="176.3313" gradientTransform="matrix(1.0039 0 0 -1.0039 0.1922 516.5609)">
	<stop  offset="0" style="stop-color:#FFF465"/>
	<stop  offset="1" style="stop-color:#FFE600"/>
</linearGradient>
<path class="st66" d="M317.7,341h11.4c0.9,0,1.6-0.7,1.6-1.6v-22.7c0-0.9-0.7-1.6-1.6-1.6h-11.4c-0.9,0-1.6,0.7-1.6,1.6v22.7
	C316.1,340.3,316.8,341,317.7,341z"/>
<linearGradient id="SVGID_68_" gradientUnits="userSpaceOnUse" x1="432.0684" y1="186.1243" x2="-0.2116" y2="173.5042" gradientTransform="matrix(1.0039 0 0 -1.0039 0.1922 516.5609)">
	<stop  offset="0" style="stop-color:#FFE600;stop-opacity:0"/>
	<stop  offset="1" style="stop-color:#F59500"/>
</linearGradient>
<path class="st67" d="M258.5,325v11.3c0,2.6,2.1,4.7,4.7,4.7h9.7h11.4h10.9h11.5h11.1h11.4h11.1h11.5h10.9h11.4h9.7
	c2.6,0,4.7-2.1,4.7-4.7V325H258.5z"/>
<linearGradient id="SVGID_69_" gradientUnits="userSpaceOnUse" x1="313.8894" y1="168.2641" x2="388.5395" y2="111.3941" gradientTransform="matrix(1.0039 0 0 -1.0039 0.1922 516.5609)">
	<stop  offset="0" style="stop-color:#FFF465"/>
	<stop  offset="1" style="stop-color:#FFE600"/>
</linearGradient>
<path class="st68" d="M383.7,366.7H263.1c-2.6,0-4.7-2.1-4.7-4.7v-16.5c0-2.6,2.1-4.7,4.7-4.7h120.6c2.6,0,4.7,2.1,4.7,4.7V362
	C388.3,364.6,386.2,366.7,383.7,366.7z"/>
<linearGradient id="SVGID_70_" gradientUnits="userSpaceOnUse" x1="328.8865" y1="167.4257" x2="264.4665" y2="118.3457" gradientTransform="matrix(1.0039 0 0 -1.0039 0.1922 516.5609)">
	<stop  offset="0" style="stop-color:#FFF465"/>
	<stop  offset="1" style="stop-color:#FFE600"/>
</linearGradient>
<path class="st69" d="M272.8,366.7h101.1c2.4,0,4.3-1.9,4.3-4.3v-17.3c0-2.4-1.9-4.3-4.3-4.3H272.8c-2.4,0-4.3,1.9-4.3,4.3v17.3
	C268.6,364.8,270.5,366.7,272.8,366.7z"/>
<linearGradient id="SVGID_71_" gradientUnits="userSpaceOnUse" x1="316.2792" y1="166.4438" x2="368.7292" y2="126.4838" gradientTransform="matrix(1.0039 0 0 -1.0039 0.1922 516.5609)">
	<stop  offset="0" style="stop-color:#FFF465"/>
	<stop  offset="1" style="stop-color:#FFE600"/>
</linearGradient>
<path class="st70" d="M362.6,366.7h-78.3c-2.1,0-3.8-1.7-3.8-3.8v-18.2c0-2.1,1.7-3.8,3.8-3.8h78.3c2.1,0,3.8,1.7,3.8,3.8v18.2
	C366.4,365,364.7,366.7,362.6,366.7z"/>
<linearGradient id="SVGID_72_" gradientUnits="userSpaceOnUse" x1="326.3554" y1="165.4972" x2="285.3954" y2="134.2972" gradientTransform="matrix(1.0039 0 0 -1.0039 0.1922 516.5609)">
	<stop  offset="0" style="stop-color:#FFF465"/>
	<stop  offset="1" style="stop-color:#FFE600"/>
</linearGradient>
<path class="st71" d="M295.1,366.7h56.6c1.8,0,3.2-1.5,3.2-3.2v-19.3c0-1.8-1.5-3.2-3.2-3.2h-56.6c-1.8,0-3.2,1.5-3.2,3.2v19.3
	C291.9,365.2,293.3,366.7,295.1,366.7z"/>
<linearGradient id="SVGID_73_" gradientUnits="userSpaceOnUse" x1="318.8386" y1="164.493" x2="347.5486" y2="142.6229" gradientTransform="matrix(1.0039 0 0 -1.0039 0.1922 516.5609)">
	<stop  offset="0" style="stop-color:#FFF465"/>
	<stop  offset="1" style="stop-color:#FFE600"/>
</linearGradient>
<path class="st72" d="M340.1,366.7h-33.5c-1.4,0-2.5-1.1-2.5-2.5v-20.7c0-1.4,1.1-2.5,2.5-2.5h33.5c1.4,0,2.5,1.1,2.5,2.5v20.7
	C342.7,365.6,341.6,366.7,340.1,366.7z"/>
<linearGradient id="SVGID_74_" gradientUnits="userSpaceOnUse" x1="323.7494" y1="163.5119" x2="306.9394" y2="150.7019" gradientTransform="matrix(1.0039 0 0 -1.0039 0.1922 516.5609)">
	<stop  offset="0" style="stop-color:#FFF465"/>
	<stop  offset="1" style="stop-color:#FFE600"/>
</linearGradient>
<path class="st73" d="M317.7,366.7h11.4c0.9,0,1.6-0.7,1.6-1.6v-22.7c0-0.9-0.7-1.6-1.6-1.6h-11.4c-0.9,0-1.6,0.7-1.6,1.6v22.7
	C316.1,366,316.8,366.7,317.7,366.7z"/>
<linearGradient id="SVGID_75_" gradientUnits="userSpaceOnUse" x1="432.0684" y1="160.4953" x2="-0.2116" y2="147.8752" gradientTransform="matrix(1.0039 0 0 -1.0039 0.1922 516.5609)">
	<stop  offset="0" style="stop-color:#FFE600;stop-opacity:0"/>
	<stop  offset="1" style="stop-color:#F59500"/>
</linearGradient>
<path class="st74" d="M258.5,350.8V362c0,2.6,2.1,4.7,4.7,4.7h9.7h11.4h10.9h11.5h11.1h11.4h11.1h11.5h10.9h11.4h9.7
	c2.6,0,4.7-2.1,4.7-4.7v-11.3H258.5z"/>
<linearGradient id="SVGID_76_" gradientUnits="userSpaceOnUse" x1="313.8899" y1="142.6347" x2="388.5399" y2="85.7647" gradientTransform="matrix(1.0039 0 0 -1.0039 0.1922 516.5609)">
	<stop  offset="0" style="stop-color:#FFF465"/>
	<stop  offset="1" style="stop-color:#FFE600"/>
</linearGradient>
<path class="st75" d="M383.7,392.4H263.1c-2.6,0-4.7-2.1-4.7-4.7v-16.5c0-2.6,2.1-4.7,4.7-4.7h120.6c2.6,0,4.7,2.1,4.7,4.7v16.5
	C388.3,390.3,386.2,392.4,383.7,392.4z"/>
<linearGradient id="SVGID_77_" gradientUnits="userSpaceOnUse" x1="328.886" y1="141.7963" x2="264.466" y2="92.7163" gradientTransform="matrix(1.0039 0 0 -1.0039 0.1922 516.5609)">
	<stop  offset="0" style="stop-color:#FFF465"/>
	<stop  offset="1" style="stop-color:#FFE600"/>
</linearGradient>
<path class="st76" d="M272.8,392.4h101.1c2.4,0,4.3-1.9,4.3-4.3v-17.3c0-2.4-1.9-4.3-4.3-4.3H272.8c-2.4,0-4.3,1.9-4.3,4.3v17.3
	C268.6,390.5,270.5,392.4,272.8,392.4z"/>
<linearGradient id="SVGID_78_" gradientUnits="userSpaceOnUse" x1="316.2797" y1="140.8144" x2="368.7297" y2="100.8544" gradientTransform="matrix(1.0039 0 0 -1.0039 0.1922 516.5609)">
	<stop  offset="0" style="stop-color:#FFF465"/>
	<stop  offset="1" style="stop-color:#FFE600"/>
</linearGradient>
<path class="st77" d="M362.6,392.4h-78.3c-2.1,0-3.8-1.7-3.8-3.8v-18.2c0-2.1,1.7-3.8,3.8-3.8h78.3c2.1,0,3.8,1.7,3.8,3.8v18.2
	C366.4,390.7,364.7,392.4,362.6,392.4z"/>
<linearGradient id="SVGID_79_" gradientUnits="userSpaceOnUse" x1="326.3549" y1="139.8678" x2="285.3949" y2="108.6678" gradientTransform="matrix(1.0039 0 0 -1.0039 0.1922 516.5609)">
	<stop  offset="0" style="stop-color:#FFF465"/>
	<stop  offset="1" style="stop-color:#FFE600"/>
</linearGradient>
<path class="st78" d="M295.1,392.4h56.6c1.8,0,3.2-1.5,3.2-3.2v-19.3c0-1.8-1.5-3.2-3.2-3.2h-56.6c-1.8,0-3.2,1.5-3.2,3.2v19.3
	C291.9,391,293.3,392.4,295.1,392.4z"/>
<linearGradient id="SVGID_80_" gradientUnits="userSpaceOnUse" x1="318.8391" y1="138.8636" x2="347.549" y2="116.9936" gradientTransform="matrix(1.0039 0 0 -1.0039 0.1922 516.5609)">
	<stop  offset="0" style="stop-color:#FFF465"/>
	<stop  offset="1" style="stop-color:#FFE600"/>
</linearGradient>
<path class="st79" d="M340.1,392.4h-33.5c-1.4,0-2.5-1.1-2.5-2.5v-20.7c0-1.4,1.1-2.5,2.5-2.5h33.5c1.4,0,2.5,1.1,2.5,2.5v20.7
	C342.7,391.3,341.6,392.4,340.1,392.4z"/>
<linearGradient id="SVGID_81_" gradientUnits="userSpaceOnUse" x1="323.7489" y1="137.8825" x2="306.9389" y2="125.0725" gradientTransform="matrix(1.0039 0 0 -1.0039 0.1922 516.5609)">
	<stop  offset="0" style="stop-color:#FFF465"/>
	<stop  offset="1" style="stop-color:#FFE600"/>
</linearGradient>
<path class="st80" d="M317.7,392.4h11.4c0.9,0,1.6-0.7,1.6-1.6v-22.7c0-0.9-0.7-1.6-1.6-1.6h-11.4c-0.9,0-1.6,0.7-1.6,1.6v22.7
	C316.1,391.7,316.8,392.4,317.7,392.4z"/>
<linearGradient id="SVGID_82_" gradientUnits="userSpaceOnUse" x1="432.0684" y1="134.8658" x2="-0.2116" y2="122.2457" gradientTransform="matrix(1.0039 0 0 -1.0039 0.1922 516.5609)">
	<stop  offset="0" style="stop-color:#FFE600;stop-opacity:0"/>
	<stop  offset="1" style="stop-color:#F59500"/>
</linearGradient>
<path class="st81" d="M258.5,376.5v11.3c0,2.6,2.1,4.7,4.7,4.7h9.7h11.4h10.9h11.5h11.1h11.4h11.1h11.5h10.9h11.4h9.7
	c2.6,0,4.7-2.1,4.7-4.7v-11.3H258.5z"/>
<linearGradient id="SVGID_83_" gradientUnits="userSpaceOnUse" x1="313.8899" y1="117.0047" x2="388.5399" y2="60.1347" gradientTransform="matrix(1.0039 0 0 -1.0039 0.1922 516.5609)">
	<stop  offset="0" style="stop-color:#FFF465"/>
	<stop  offset="1" style="stop-color:#FFE600"/>
</linearGradient>
<path class="st82" d="M383.7,418.2H263.1c-2.6,0-4.7-2.1-4.7-4.7V397c0-2.6,2.1-4.7,4.7-4.7h120.6c2.6,0,4.7,2.1,4.7,4.7v16.5
	C388.3,416.1,386.2,418.2,383.7,418.2z"/>
<linearGradient id="SVGID_84_" gradientUnits="userSpaceOnUse" x1="328.8858" y1="116.1666" x2="264.4658" y2="67.0867" gradientTransform="matrix(1.0039 0 0 -1.0039 0.1922 516.5609)">
	<stop  offset="0" style="stop-color:#FFF465"/>
	<stop  offset="1" style="stop-color:#FFE600"/>
</linearGradient>
<path class="st83" d="M272.8,418.2h101.1c2.4,0,4.3-1.9,4.3-4.3v-17.3c0-2.4-1.9-4.3-4.3-4.3H272.8c-2.4,0-4.3,1.9-4.3,4.3v17.3
	C268.6,416.2,270.5,418.2,272.8,418.2z"/>
<linearGradient id="SVGID_85_" gradientUnits="userSpaceOnUse" x1="316.2797" y1="115.1844" x2="368.7297" y2="75.2244" gradientTransform="matrix(1.0039 0 0 -1.0039 0.1922 516.5609)">
	<stop  offset="0" style="stop-color:#FFF465"/>
	<stop  offset="1" style="stop-color:#FFE600"/>
</linearGradient>
<path class="st84" d="M362.6,418.2h-78.3c-2.1,0-3.8-1.7-3.8-3.8v-18.2c0-2.1,1.7-3.8,3.8-3.8h78.3c2.1,0,3.8,1.7,3.8,3.8v18.2
	C366.4,416.5,364.7,418.2,362.6,418.2z"/>
<linearGradient id="SVGID_86_" gradientUnits="userSpaceOnUse" x1="326.3592" y1="114.2422" x2="285.3992" y2="83.0322" gradientTransform="matrix(1.0039 0 0 -1.0039 0.1922 516.5609)">
	<stop  offset="0" style="stop-color:#FFF465"/>
	<stop  offset="1" style="stop-color:#FFE600"/>
</linearGradient>
<path class="st85" d="M295.1,418.2h56.6c1.8,0,3.2-1.5,3.2-3.2v-19.3c0-1.8-1.5-3.2-3.2-3.2h-56.6c-1.8,0-3.2,1.5-3.2,3.2v19.3
	C291.9,416.7,293.3,418.2,295.1,418.2z"/>
<linearGradient id="SVGID_87_" gradientUnits="userSpaceOnUse" x1="318.8391" y1="113.2336" x2="347.549" y2="91.3636" gradientTransform="matrix(1.0039 0 0 -1.0039 0.1922 516.5609)">
	<stop  offset="0" style="stop-color:#FFF465"/>
	<stop  offset="1" style="stop-color:#FFE600"/>
</linearGradient>
<path class="st86" d="M340.1,418.2h-33.5c-1.4,0-2.5-1.1-2.5-2.5v-20.7c0-1.4,1.1-2.5,2.5-2.5h33.5c1.4,0,2.5,1.1,2.5,2.5v20.7
	C342.7,417,341.6,418.2,340.1,418.2z"/>
<linearGradient id="SVGID_88_" gradientUnits="userSpaceOnUse" x1="323.7489" y1="112.2525" x2="306.9389" y2="99.4425" gradientTransform="matrix(1.0039 0 0 -1.0039 0.1922 516.5609)">
	<stop  offset="0" style="stop-color:#FFF465"/>
	<stop  offset="1" style="stop-color:#FFE600"/>
</linearGradient>
<path class="st87" d="M317.7,418.2h11.4c0.9,0,1.6-0.7,1.6-1.6v-22.7c0-0.9-0.7-1.6-1.6-1.6h-11.4c-0.9,0-1.6,0.7-1.6,1.6v22.7
	C316.1,417.5,316.8,418.2,317.7,418.2z"/>
<linearGradient id="SVGID_89_" gradientUnits="userSpaceOnUse" x1="432.0684" y1="109.2363" x2="-0.2116" y2="96.6162" gradientTransform="matrix(1.0039 0 0 -1.0039 0.1922 516.5609)">
	<stop  offset="0" style="stop-color:#FFE600;stop-opacity:0"/>
	<stop  offset="1" style="stop-color:#F59500"/>
</linearGradient>
<path class="st88" d="M258.5,402.2v11.3c0,2.6,2.1,4.7,4.7,4.7h9.7h11.4h10.9h11.5h11.1h11.4h11.1h11.5h10.9h11.4h9.7
	c2.6,0,4.7-2.1,4.7-4.7v-11.3H258.5z"/>
</svg>
