<svg id="ce3e5fea-e1f1-44bb-837d-bd61b73690fc" data-name="Vrstva 1" xmlns="http://www.w3.org/2000/svg" viewBox="0 0 632.82 110.17"><title>logo-cointronix-fullwhite-bluebg</title><polygon points="516.32 110.17 549.15 110.17 574.99 75.5 558.48 53 516.32 110.17" style="fill:#fff"/><polygon points="517.15 0 551.32 0 632.82 110.17 599.48 110.17 517.15 0" style="fill:#fff"/><polygon points="599.48 0 632.82 0 596.82 48.67 580.32 26.5 599.48 0" style="fill:#fff"/><path d="M311.67,741.06a31.13,31.13,0,0,1,22.26,8.56,1.71,1.71,0,0,1,.09,2.58l-5.61,5.8a1.47,1.47,0,0,1-2.3,0,21.77,21.77,0,0,0-14.17-5.43c-11.77,0-20.52,9.84-20.52,21.44s8.83,21.25,20.61,21.25A22.07,22.07,0,0,0,326.11,790a1.69,1.69,0,0,1,2.3,0l5.7,5.89a1.75,1.75,0,0,1-.09,2.48,31.58,31.58,0,0,1-22.36,8.92A33.12,33.12,0,1,1,311.67,741.06Z" transform="translate(-278.46 -718.38)" style="fill:#fff"/><path d="M374.23,741.06a33.12,33.12,0,1,1-33,33.21A33.06,33.06,0,0,1,374.23,741.06Zm0,54.28a21.16,21.16,0,1,0-21.07-21.07A21.2,21.2,0,0,0,374.23,795.33Z" transform="translate(-278.46 -718.38)" style="fill:#fff"/><path d="M419.4,743.72a1.81,1.81,0,0,1,1.75-1.75h8.55a1.81,1.81,0,0,1,1.75,1.75v60.9a1.81,1.81,0,0,1-1.75,1.75h-8.55a1.81,1.81,0,0,1-1.75-1.75v-60.9Z" transform="translate(-278.46 -718.38)" style="fill:#fff"/><path d="M448.19,742.71a1.73,1.73,0,0,1,1.75-1.66h2.3l38.27,40.66h0.09v-38a1.75,1.75,0,0,1,1.75-1.75h8.46a1.81,1.81,0,0,1,1.75,1.75v61.91a1.73,1.73,0,0,1-1.75,1.66h-2.21l-38.45-42.22h-0.09v39.56a1.75,1.75,0,0,1-1.75,1.75h-8.37a1.81,1.81,0,0,1-1.75-1.75V742.71h0Z" transform="translate(-278.46 -718.38)" style="fill:#fff"/><path d="M528,753H513.88a1.74,1.74,0,0,1-1.75-1.75v-7.54a1.75,1.75,0,0,1,1.75-1.75h40.2a1.75,1.75,0,0,1,1.75,1.75v7.54a1.74,1.74,0,0,1-1.75,1.75H540v51.61a1.81,1.81,0,0,1-1.75,1.75H529.7a1.81,1.81,0,0,1-1.75-1.75V753h0Z" transform="translate(-278.46 -718.38)" style="fill:#fff"/><path d="M565.4,743.72a1.75,1.75,0,0,1,1.75-1.75h26.31a19.93,19.93,0,0,1,20.06,19.78c0,8.46-5.61,15.36-13.61,18.58l12.6,23.37a1.74,1.74,0,0,1-1.56,2.67h-9.66a1.58,1.58,0,0,1-1.47-.83l-12.23-24.38H577.36v23.46a1.81,1.81,0,0,1-1.75,1.75h-8.46a1.75,1.75,0,0,1-1.75-1.75v-60.9h0Zm27,27.6a9.37,9.37,0,0,0,9.11-9.38,9.15,9.15,0,0,0-9.11-8.92h-15v18.31h15Z" transform="translate(-278.46 -718.38)" style="fill:#fff"/><path d="M655.1,741.06a33.12,33.12,0,1,1-33,33.21A33.06,33.06,0,0,1,655.1,741.06Zm0,54.28A21.16,21.16,0,1,0,634,774.27,21.2,21.2,0,0,0,655.1,795.33Z" transform="translate(-278.46 -718.38)" style="fill:#fff"/><path d="M700.27,742.71a1.73,1.73,0,0,1,1.75-1.66h2.3l38.27,40.66h0.09v-38a1.75,1.75,0,0,1,1.75-1.75h8.47a1.81,1.81,0,0,1,1.75,1.75v61.91a1.73,1.73,0,0,1-1.75,1.66h-2.21l-38.45-42.22h-0.09v39.56a1.75,1.75,0,0,1-1.75,1.75H702a1.81,1.81,0,0,1-1.75-1.75V742.71h0Z" transform="translate(-278.46 -718.38)" style="fill:#fff"/><path d="M771.39,743.72a1.81,1.81,0,0,1,1.75-1.75h8.56a1.81,1.81,0,0,1,1.75,1.75v60.9a1.81,1.81,0,0,1-1.75,1.75h-8.56a1.81,1.81,0,0,1-1.75-1.75v-60.9Z" transform="translate(-278.46 -718.38)" style="fill:#fff"/></svg>