<svg id="c03103c1-16f7-4d7b-91d2-22bd07659fea" data-name="Vrstva 1" xmlns="http://www.w3.org/2000/svg" xmlns:xlink="http://www.w3.org/1999/xlink" viewBox="0 0 632.82 110.17"><defs><linearGradient id="f04c4454-c549-4a56-a6b2-3f7ff204ec2f" x1="1075.69" y1="455.92" x2="1075.69" y2="566.08" gradientTransform="matrix(1, 0, 0, -1, -500.71, 566.08)" gradientUnits="userSpaceOnUse"><stop offset="0" stop-color="#359ded"/><stop offset="1" stop-color="#1e2aac"/></linearGradient><linearGradient id="e93d7ee5-6e47-4186-a0dc-1942ee435026" x1="1107.28" y1="517.42" x2="1107.28" y2="566.08" xlink:href="#f04c4454-c549-4a56-a6b2-3f7ff204ec2f"/><linearGradient id="2665e0e7-45b5-4e87-a658-2ae3e519b64e" x1="1046.36" y1="455.92" x2="1046.36" y2="513.08" xlink:href="#f04c4454-c549-4a56-a6b2-3f7ff204ec2f"/></defs><title>logo-cointronix-color-dark</title><polygon points="517.15 0 551.32 0 632.82 110.17 599.49 110.17 517.15 0" style="fill:url(#f04c4454-c549-4a56-a6b2-3f7ff204ec2f)"/><polygon points="599.49 0 632.82 0 596.82 48.67 580.32 26.5 599.49 0" style="fill:url(#e93d7ee5-6e47-4186-a0dc-1942ee435026)"/><polygon points="516.32 110.17 549.15 110.17 574.99 75.5 558.49 53 516.32 110.17" style="fill:url(#2665e0e7-45b5-4e87-a658-2ae3e519b64e)"/><path d="M320.92,767.6a31.14,31.14,0,0,1,22.26,8.56,1.71,1.71,0,0,1,.09,2.58l-5.61,5.79a1.47,1.47,0,0,1-2.3,0,21.77,21.77,0,0,0-14.17-5.43c-11.78,0-20.52,9.84-20.52,21.44s8.83,21.25,20.61,21.25a22.07,22.07,0,0,0,14.08-5.24,1.7,1.7,0,0,1,2.3,0l5.7,5.89a1.75,1.75,0,0,1-.09,2.48,31.58,31.58,0,0,1-22.36,8.92A33.12,33.12,0,1,1,320.92,767.6Z" transform="translate(-287.71 -744.92)" style="fill:#003"/><path d="M383.48,767.6a33.12,33.12,0,1,1-33,33.21A33.06,33.06,0,0,1,383.48,767.6Zm0,54.28a21.16,21.16,0,1,0-21.07-21.07A21.2,21.2,0,0,0,383.48,821.87Z" transform="translate(-287.71 -744.92)" style="fill:#003"/><path d="M428.65,770.26a1.81,1.81,0,0,1,1.75-1.75H439a1.81,1.81,0,0,1,1.75,1.75v60.9a1.81,1.81,0,0,1-1.75,1.75H430.4a1.81,1.81,0,0,1-1.75-1.75v-60.9Z" transform="translate(-287.71 -744.92)" style="fill:#003"/><path d="M457.44,769.25a1.73,1.73,0,0,1,1.75-1.66h2.3l38.27,40.66h0.09v-38a1.75,1.75,0,0,1,1.75-1.75h8.46a1.81,1.81,0,0,1,1.75,1.75v61.91a1.73,1.73,0,0,1-1.75,1.66h-2.21L469.4,791.61h-0.09v39.56a1.75,1.75,0,0,1-1.75,1.75h-8.37a1.81,1.81,0,0,1-1.75-1.75V769.25h0Z" transform="translate(-287.71 -744.92)" style="fill:#003"/><path d="M537.21,779.55H523.13a1.75,1.75,0,0,1-1.75-1.75v-7.54a1.75,1.75,0,0,1,1.75-1.75h40.2a1.75,1.75,0,0,1,1.75,1.75v7.54a1.75,1.75,0,0,1-1.75,1.75H549.26v51.61a1.81,1.81,0,0,1-1.75,1.75H539a1.81,1.81,0,0,1-1.75-1.75V779.55h0Z" transform="translate(-287.71 -744.92)" style="fill:#003"/><path d="M574.65,770.26a1.75,1.75,0,0,1,1.75-1.75h26.31a19.93,19.93,0,0,1,20.06,19.78c0,8.46-5.61,15.36-13.62,18.58l12.6,23.37a1.74,1.74,0,0,1-1.56,2.67h-9.66a1.58,1.58,0,0,1-1.47-.83l-12.24-24.38H586.61v23.46a1.81,1.81,0,0,1-1.75,1.75H576.4a1.75,1.75,0,0,1-1.75-1.75v-60.9h0Zm27,27.6a9.37,9.37,0,0,0,9.11-9.38,9.15,9.15,0,0,0-9.11-8.92h-15v18.31h15Z" transform="translate(-287.71 -744.92)" style="fill:#003"/><path d="M664.35,767.6a33.12,33.12,0,1,1-33,33.21A33.06,33.06,0,0,1,664.35,767.6Zm0,54.28a21.16,21.16,0,1,0-21.07-21.07A21.2,21.2,0,0,0,664.35,821.87Z" transform="translate(-287.71 -744.92)" style="fill:#003"/><path d="M709.52,769.25a1.73,1.73,0,0,1,1.75-1.66h2.3l38.27,40.66h0.09v-38a1.75,1.75,0,0,1,1.75-1.75h8.46a1.81,1.81,0,0,1,1.75,1.75v61.91a1.73,1.73,0,0,1-1.75,1.66h-2.21l-38.45-42.23h-0.09v39.56a1.75,1.75,0,0,1-1.75,1.75h-8.37a1.81,1.81,0,0,1-1.75-1.75V769.25h0Z" transform="translate(-287.71 -744.92)" style="fill:#003"/><path d="M780.63,770.26a1.81,1.81,0,0,1,1.75-1.75h8.56a1.81,1.81,0,0,1,1.75,1.75v60.9a1.81,1.81,0,0,1-1.75,1.75h-8.56a1.81,1.81,0,0,1-1.75-1.75v-60.9Z" transform="translate(-287.71 -744.92)" style="fill:#003"/></svg>