<?xml version="1.0" encoding="utf-8"?>
<!-- Generator: Adobe Illustrator 19.0.0, SVG Export Plug-In . SVG Version: 6.00 Build 0)  -->
<svg version="1.1" id="Layer_1" xmlns="http://www.w3.org/2000/svg" xmlns:xlink="http://www.w3.org/1999/xlink" x="0px" y="0px"
	 viewBox="147 -147 400 400" style="enable-background:new 147 -147 400 400;" xml:space="preserve">
<style type="text/css">
	.st0{fill:#2B2A2A;}
</style>
<g>
	<path class="st0" d="M277-56.7h42v-42h-42V-56.7z M278.4-97.3h39.1v39.1h-39.1V-97.3z"/>
	<rect x="284" y="-84" class="st0" width="1.4" height="12.6"/>
	<path class="st0" d="M294-72.7c-2.8,0-5.1-2.3-5.1-5c0-2.8,2.3-5,5.1-5c1.4,0,2.8,0.6,3.7,1.6l0.9-1c-1.2-1.1-2.9-1.8-4.6-1.8
		c-3.7,0-6.6,2.8-6.6,6.3c0,3.6,2.9,6.4,6.5,6.4c1.7,0,3.4-0.7,4.7-1.9l-0.9-1C296.7-73.3,295.4-72.7,294-72.7z"/>
	<path class="st0" d="M305.4-84c-3.7,0-6.6,2.8-6.6,6.3s2.9,6.4,6.6,6.4c3.7,0,6.6-2.8,6.6-6.4S309.1-84,305.4-84z M305.4-72.7
		c-2.8,0-5.1-2.3-5.1-5c0-2.8,2.3-5,5.1-5c2.8,0,5.1,2.2,5.1,5C310.6-74.9,308.2-72.7,305.4-72.7z"/>
	<path class="st0" d="M335-83.5c-2.2,0-3.9,0.9-5.1,2.4v-8.6h-5.7v23.9h5.7v-2.3c1.2,1.6,3,2.4,5.2,2.4c4.8,0,8-3.5,8-8.8
		C343.1-79.9,339.9-83.5,335-83.5z M333.6-70.3c-2.2,0-3.7-1.7-3.7-4.3c0-2.6,1.5-4.3,3.7-4.3c2.3,0,3.8,1.8,3.8,4.3
		C337.4-72,335.8-70.3,333.6-70.3z"/>
	<path class="st0" d="M353.1-83.5c-5.4,0-9.1,3.6-9.1,9c0,5.3,3.5,8.8,9.2,8.8c3.2,0,5.8-1.1,7.6-3.1l-3-3c-1.2,1.2-2.6,1.8-4.1,1.8
		c-2,0-3.4-1.1-4-3.1h12.1C362.2-79.4,359.2-83.5,353.1-83.5z M349.6-76.1c0.4-2,1.6-3.3,3.5-3.3s3.2,1.4,3.2,3.3H349.6z"/>
	<path class="st0" d="M374.3-83.5c-2.5,0-4.5,1.1-5.8,3.1v-2.8h-5.7v17.4h5.7V-75c0.2-2,1.5-3.3,3.4-3.3c1.8,0,3,1.2,3,3.2v9.3h5.7
		v-11C380.6-80.9,378-83.5,374.3-83.5z"/>
	<path class="st0" d="M390.7-70.3c-2.1,0-3.5-1.7-3.5-4.2s1.4-4.2,3.5-4.2c1.5,0,2.6,0.7,3.4,1.8l4.1-2.4c-1.5-2.6-4.3-4.1-7.8-4.1
		c-5.4,0-9,3.6-9,9c0,5.3,3.6,8.8,8.9,8.8c3.7,0,6.5-1.5,7.9-4.2l-4.2-2.4C393.4-70.9,392.2-70.3,390.7-70.3z"/>
	<path class="st0" d="M410.7-83.5c-2.5,0-4.5,1.1-5.8,3.1v-9.3h-5.7v23.9h5.7v-8.6c0-2.3,1.3-3.9,3.4-3.9c1.8,0,3,1.2,3,3.2v9.3h5.7
		v-11C417-80.9,414.5-83.5,410.7-83.5z"/>
</g>
</svg>
