<svg id="750d7a69-4ba8-4a6b-8eb4-159d302b2c79" data-name="Layer 1" xmlns="http://www.w3.org/2000/svg" xmlns:xlink="http://www.w3.org/1999/xlink" viewBox="0 0 1872.8 1379"><defs><linearGradient id="1141bee7-0c84-4dab-b13c-1dbefe58f8fa" x1="-82.97" y1="124.49" x2="1583.61" y2="1291.45" gradientUnits="userSpaceOnUse"><stop offset="0" stop-color="#2919d7"/><stop offset="0.15" stop-color="#311bd6"/><stop offset="0.38" stop-color="#4621d5"/><stop offset="0.65" stop-color="#692ad3"/><stop offset="0.91" stop-color="#9034d0"/></linearGradient></defs><title>Vector Smart Object</title><path d="M0,695.5C0,1364.9.1,1385,1.8,1385c2.3,0,978.2-124.2,1465.7-186.5,62.2-8,118.9-15.6,126-17.1,17.8-3.5,41-11.3,56.2-18.9,33.6-16.6,55.1-37.5,65.5-63.3,4.1-10.3,6.2-20.5,87.8-422.7,49.2-242.5,60.2-296.8,65-319.5,9.2-43.2,5.6-62.5-14.5-77.7-16.7-12.6-39.3-19.7-83.5-26.2C1728.7,247,1188.2,171.6,429,66,195.5,33.6,3.5,6.8,2.3,6.5L0,6V695.5Z" transform="translate(0 -6)"/><path d="M0,695.5C0,1364.9.1,1385,1.8,1385c2.3,0,978.2-124.2,1465.7-186.5,62.2-8,118.9-15.6,126-17.1,17.8-3.5,41-11.3,56.2-18.9,33.6-16.6,55.1-37.5,65.5-63.3,4.1-10.3,6.2-20.5,87.8-422.7,49.2-242.5,60.2-296.8,65-319.5,9.2-43.2,5.6-62.5-14.5-77.7-16.7-12.6-39.3-19.7-83.5-26.2C1728.7,247,1188.2,171.6,429,66,195.5,33.6,3.5,6.8,2.3,6.5L0,6V695.5Z" transform="translate(0 -6)" style="fill:url(#1141bee7-0c84-4dab-b13c-1dbefe58f8fa)"/></svg>