<?xml version="1.0" encoding="utf-8"?>
<!-- Generator: Adobe Illustrator 19.0.0, SVG Export Plug-In . SVG Version: 6.00 Build 0)  -->
<svg version="1.1" id="Capa_1" xmlns="http://www.w3.org/2000/svg" xmlns:xlink="http://www.w3.org/1999/xlink" x="0px" y="0px"
	 viewBox="0 0 512 512" style="enable-background:new 0 0 512 512;" xml:space="preserve">
<style type="text/css">
	.st0{fill:url(#SVGID_1_);}
	.st1{fill:url(#SVGID_2_);}
	.st2{fill:url(#SVGID_3_);}
	.st3{fill:url(#SVGID_4_);}
	.st4{fill:url(#SVGID_5_);}
	.st5{fill:url(#SVGID_6_);}
	.st6{fill:url(#SVGID_7_);}
	.st7{fill:url(#SVGID_8_);}
	.st8{fill:url(#SVGID_9_);}
	.st9{fill:url(#SVGID_10_);}
	.st10{fill:url(#SVGID_11_);}
	.st11{fill:#61DB99;}
	.st12{fill:url(#SVGID_12_);}
	.st13{fill:url(#SVGID_13_);}
	.st14{fill:url(#SVGID_14_);}
	.st15{fill:url(#SVGID_15_);}
	.st16{fill:url(#SVGID_16_);}
	.st17{fill:url(#SVGID_17_);}
	.st18{fill:url(#SVGID_18_);}
</style>
<g>
	
		<linearGradient id="SVGID_1_" gradientUnits="userSpaceOnUse" x1="262.3983" y1="468.969" x2="259.6884" y2="389.513" gradientTransform="matrix(1.0039 0 0 -1.0039 0.1922 516.5609)">
		<stop  offset="0" style="stop-color:#FFB92D"/>
		<stop  offset="1" style="stop-color:#F59500"/>
	</linearGradient>
	<path class="st0" d="M451.3,469.5H60.7c-20.8,0-37.7-16.9-37.7-37.7V106.5c0-20.8,16.9-37.7,37.7-37.7h390.6
		c20.8,0,37.7,16.9,37.7,37.7v325.2C489,452.6,472.1,469.5,451.3,469.5z"/>
	
		<linearGradient id="SVGID_2_" gradientUnits="userSpaceOnUse" x1="275.3916" y1="416.2126" x2="268.0117" y2="355.3426" gradientTransform="matrix(1.0039 0 0 -1.0039 0.1922 516.5609)">
		<stop  offset="0" style="stop-color:#FFB92D"/>
		<stop  offset="1" style="stop-color:#F59500"/>
	</linearGradient>
	<path class="st1" d="M442.6,460.5H69.4c-19.9,0-36-16.1-36-36V113.8c0-19.9,16.1-36,36-36h373.1c19.9,0,36,16.1,36,36v310.7
		C478.6,444.4,462.5,460.5,442.6,460.5z"/>
	
		<linearGradient id="SVGID_3_" gradientUnits="userSpaceOnUse" x1="251.9901" y1="414.413" x2="251.9901" y2="368.043" gradientTransform="matrix(1.0039 0 0 -1.0039 0.1922 516.5609)">
		<stop  offset="0" style="stop-color:#A7F3CE"/>
		<stop  offset="1" style="stop-color:#61DB99"/>
	</linearGradient>
	<path class="st2" d="M463.7,174.1L369.8,11.3c-6.3-10.8-20.1-14.6-31-8.3l-296.2,171H463.7z"/>
	
		<linearGradient id="SVGID_4_" gradientUnits="userSpaceOnUse" x1="254.8086" y1="334.143" x2="254.8086" y2="204.023" gradientTransform="matrix(1.0039 0 0 -1.0039 0.1922 516.5609)">
		<stop  offset="0" style="stop-color:#FF4C54"/>
		<stop  offset="1" style="stop-color:#BE3F45"/>
	</linearGradient>
	<path class="st3" d="M23,305h466V181.6c0-15.6-12.6-28.2-28.2-28.2H51.2C35.7,153.4,23,166,23,181.6V305z"/>
	
		<linearGradient id="SVGID_5_" gradientUnits="userSpaceOnUse" x1="254.8086" y1="237.523" x2="254.8086" y2="36.563" gradientTransform="matrix(1.0039 0 0 -1.0039 0.1922 516.5609)">
		<stop  offset="0" style="stop-color:#FF4C54"/>
		<stop  offset="1" style="stop-color:#BE3F45"/>
	</linearGradient>
	<path class="st4" d="M23,258.6v173.2c0,20.8,16.9,37.7,37.7,37.7h390.6c20.8,0,37.7-16.9,37.7-37.7V258.6
		c0-12.9-10.4-23.3-23.3-23.3H46.3C33.4,235.3,23,245.7,23,258.6z"/>
	
		<linearGradient id="SVGID_6_" gradientUnits="userSpaceOnUse" x1="460.4786" y1="196.424" x2="426.6186" y2="196.424" gradientTransform="matrix(1.0039 0 0 -1.0039 0.1922 516.5609)">
		<stop  offset="0" style="stop-color:#BE3F45;stop-opacity:0"/>
		<stop  offset="1" style="stop-color:#BE3F45"/>
	</linearGradient>
	<path class="st5" d="M418.7,169.3v300.2h32.6c20.8,0,37.7-16.9,37.7-37.7V239.6L418.7,169.3z"/>
	
		<linearGradient id="SVGID_7_" gradientUnits="userSpaceOnUse" x1="157.6527" y1="231.1847" x2="329.9027" y2="151.7287" gradientTransform="matrix(1.0039 0 0 -1.0039 0.1922 516.5609)">
		<stop  offset="0" style="stop-color:#FFB92D"/>
		<stop  offset="1" style="stop-color:#F59500"/>
	</linearGradient>
	<path class="st6" d="M386.9,511.7l-327.1-38c-21-2.4-36.8-20.2-36.8-41.3V103.7c0,7.1,5.3,13,12.3,13.8l361.2,41.9
		c21,2.4,36.8,20.2,36.8,41.3v269.6C433.3,495.3,411.6,514.6,386.9,511.7z"/>
	
		<linearGradient id="SVGID_8_" gradientUnits="userSpaceOnUse" x1="221.5803" y1="54.2728" x2="214.4603" y2="-0.1473" gradientTransform="matrix(1.0039 0 0 -1.0039 0.1922 516.5609)">
		<stop  offset="0" style="stop-color:#BE3F45;stop-opacity:0"/>
		<stop  offset="1" style="stop-color:#BE3F45"/>
	</linearGradient>
	<path class="st7" d="M386.9,446.1l-327.1-38c-21-2.4-36.8-20.2-36.8-41.3v65.7c0,21.1,15.8,38.9,36.8,41.3l327.1,38
		c24.7,2.9,46.4-16.4,46.4-41.3v-65.7C433.3,429.6,411.6,448.9,386.9,446.1z"/>
	
		<linearGradient id="SVGID_9_" gradientUnits="userSpaceOnUse" x1="44.4896" y1="376.8239" x2="44.4896" y2="28.8139" gradientTransform="matrix(1.0039 0 0 -1.0039 0.1922 516.5609)">
		<stop  offset="0" style="stop-color:#FFF465"/>
		<stop  offset="1" style="stop-color:#FFE600"/>
	</linearGradient>
	<path class="st8" d="M52.3,155c-0.3,0-0.6,0-0.8,0l-15-1.6c-4.1-0.5-7.1-4.2-6.7-8.3s4.2-7.1,8.3-6.7l15,1.6
		c4.1,0.5,7.1,4.2,6.7,8.3C59.4,152.1,56.1,155,52.3,155z"/>
	
		<linearGradient id="SVGID_10_" gradientUnits="userSpaceOnUse" x1="244.5418" y1="376.813" x2="244.5418" y2="29.533" gradientTransform="matrix(1.0039 0 0 -1.0039 0.1922 516.5609)">
		<stop  offset="0" style="stop-color:#FFF465"/>
		<stop  offset="1" style="stop-color:#FFE600"/>
	</linearGradient>
	<path class="st9" d="M359.9,486.9c-0.3,0-0.6,0-1-0.1l-29.1-3.7c-4.1-0.5-7-4.3-6.5-8.4c0.5-4.1,4.3-7,8.4-6.5l29.1,3.7
		c4.1,0.5,7,4.3,6.5,8.4C366.9,484.1,363.6,486.9,359.9,486.9z M388.5,483.2c-2.8,0-5.5-1.6-6.8-4.3c-1.8-3.8-0.2-8.2,3.6-10
		c7.6-3.6,13.4-9.6,15.8-16.4c1.4-3.9,5.7-6,9.6-4.6c3.9,1.4,6,5.7,4.6,9.6c-3.8,10.8-12.1,19.7-23.6,25
		C390.7,483,389.6,483.2,388.5,483.2z M301.7,479.5c-0.3,0-0.6,0-1-0.1l-29.1-3.7c-4.1-0.5-7-4.3-6.5-8.4c0.5-4.1,4.3-7,8.4-6.5
		l29.1,3.7c4.1,0.5,7,4.3,6.5,8.4C308.7,476.7,305.5,479.5,301.7,479.5z M243.6,472.1c-0.3,0-0.6,0-1-0.1l-29.1-3.7
		c-4.1-0.5-7-4.3-6.5-8.4c0.5-4.1,4.3-7,8.4-6.5l29.1,3.7c4.1,0.5,7,4.3,6.5,8.4C250.5,469.3,247.3,472.1,243.6,472.1z M185.4,464.7
		c-0.3,0-0.6,0-1-0.1l-29.1-3.7c-4.1-0.5-7-4.3-6.5-8.4c0.5-4.1,4.3-7,8.4-6.5l29.1,3.7c4.1,0.5,7,4.3,6.5,8.4
		C192.3,461.9,189.1,464.7,185.4,464.7z M127.2,457.3c-0.3,0-0.6,0-1-0.1l-29.1-3.7c-4.1-0.5-7-4.3-6.5-8.4c0.5-4.1,4.3-7,8.4-6.5
		l29.1,3.7c4.1,0.5,7,4.3,6.5,8.4C134.2,454.5,130.9,457.3,127.2,457.3z M409.9,433.3c-4.2,0-7.5-3.4-7.5-7.5v-29.3
		c0-4.2,3.4-7.5,7.5-7.5c4.2,0,7.5,3.4,7.5,7.5v29.3C417.4,430,414.1,433.3,409.9,433.3z M409.9,374.7c-4.2,0-7.5-3.4-7.5-7.5v-29.3
		c0-4.2,3.4-7.5,7.5-7.5c4.2,0,7.5,3.4,7.5,7.5v29.3C417.4,371.3,414.1,374.7,409.9,374.7z M409.9,316c-4.2,0-7.5-3.4-7.5-7.5v-29.3
		c0-4.2,3.4-7.5,7.5-7.5c4.2,0,7.5,3.4,7.5,7.5v29.3C417.4,312.7,414.1,316,409.9,316z M409.9,257.4c-4.2,0-7.5-3.4-7.5-7.5v-29.3
		c0-4.2,3.4-7.5,7.5-7.5c4.2,0,7.5,3.4,7.5,7.5v29.3C417.4,254,414.1,257.4,409.9,257.4z M399.4,201.7c-1.9,0-3.7-0.7-5.2-2.1
		c-5.6-5.3-13.3-8.7-21.8-9.5l-0.2,0c-4.1-0.4-7.1-4.2-6.7-8.3c0.4-4.1,4.2-7.1,8.3-6.7l0.1,0c11.7,1.1,22.6,6,30.6,13.5
		c3,2.9,3.1,7.6,0.3,10.6C403.4,201,401.4,201.7,399.4,201.7z M343.8,187c-0.3,0-0.6,0-0.8,0l-29.1-3.2c-4.1-0.5-7.1-4.2-6.7-8.3
		c0.5-4.1,4.2-7.1,8.3-6.7l29.1,3.2c4.1,0.5,7.1,4.2,6.7,8.3C350.9,184.2,347.6,187,343.8,187z M285.5,180.6c-0.3,0-0.6,0-0.8,0
		l-29.1-3.2c-4.1-0.5-7.1-4.2-6.7-8.3c0.5-4.1,4.2-7.1,8.3-6.7l29.1,3.2c4.1,0.5,7.1,4.2,6.7,8.3
		C292.6,177.7,289.3,180.6,285.5,180.6z M227.2,174.2c-0.3,0-0.6,0-0.8,0l-29.1-3.2c-4.1-0.5-7.1-4.2-6.7-8.3
		c0.5-4.1,4.2-7.1,8.3-6.7l29.1,3.2c4.1,0.5,7.1,4.2,6.7,8.3C234.3,171.3,231,174.2,227.2,174.2z M168.9,167.8c-0.3,0-0.6,0-0.8,0
		l-29.1-3.2c-4.1-0.5-7.1-4.2-6.7-8.3c0.5-4.1,4.2-7.1,8.3-6.7l29.1,3.2c4.1,0.5,7.1,4.2,6.7,8.3C176,164.9,172.7,167.8,168.9,167.8
		z M110.6,161.4c-0.3,0-0.6,0-0.8,0l-29.1-3.2c-4.1-0.5-7.1-4.2-6.7-8.3c0.5-4.1,4.2-7.1,8.3-6.7l29.1,3.2c4.1,0.5,7.1,4.2,6.7,8.3
		C117.7,158.5,114.4,161.4,110.6,161.4z"/>
	
		<linearGradient id="SVGID_11_" gradientUnits="userSpaceOnUse" x1="61.0256" y1="376.833" x2="61.0256" y2="28.833" gradientTransform="matrix(1.0039 0 0 -1.0039 0.1922 516.5609)">
		<stop  offset="0" style="stop-color:#FFF465"/>
		<stop  offset="1" style="stop-color:#FFE600"/>
	</linearGradient>
	<path class="st10" d="M68.9,449.9c-0.3,0-0.6,0-1-0.1L53,447.9c-4.1-0.5-7-4.3-6.5-8.4c0.5-4.1,4.3-7,8.4-6.5l14.9,1.9
		c4.1,0.5,7,4.3,6.5,8.4C75.9,447.1,72.7,449.9,68.9,449.9z"/>
	<path class="st11" d="M345.6,56.1l-48.2,26.2c-6.3,3.4-14.1,1.1-17.5-5.2l0,0c-3.4-6.3-1.1-14.1,5.2-17.5l48.2-26.2
		c6.3-3.4,14.1-1.1,17.5,5.2l0,0C354.2,44.8,351.8,52.7,345.6,56.1z"/>
	
		<linearGradient id="SVGID_12_" gradientUnits="userSpaceOnUse" x1="405.7481" y1="125.8424" x2="302.7081" y2="228.8824" gradientTransform="matrix(1.0039 0 0 -1.0039 0.1922 516.5609)">
		<stop  offset="0" style="stop-color:#BE3F45;stop-opacity:0"/>
		<stop  offset="1" style="stop-color:#BE3F45"/>
	</linearGradient>
	<path class="st12" d="M433.3,363.8L385.5,316c-6.7-7.3-16.4-12-27.2-12c-20.4,0-36.9,16.5-36.9,36.9c0,10.8,4.6,20.4,12,27.2
		l100,100V363.8z"/>
	
		<linearGradient id="SVGID_13_" gradientUnits="userSpaceOnUse" x1="356.6686" y1="198.003" x2="356.6686" y2="144.833" gradientTransform="matrix(1.0039 0 0 -1.0039 0.1922 516.5609)">
		<stop  offset="0" style="stop-color:#FF4C54"/>
		<stop  offset="1" style="stop-color:#BE3F45"/>
	</linearGradient>
	<circle class="st13" cx="358.3" cy="341" r="36.9"/>
	
		<linearGradient id="SVGID_14_" gradientUnits="userSpaceOnUse" x1="356.6686" y1="158.993" x2="356.6686" y2="195.683" gradientTransform="matrix(1.0039 0 0 -1.0039 0.1922 516.5609)">
		<stop  offset="0" style="stop-color:#FF4C54"/>
		<stop  offset="1" style="stop-color:#BE3F45"/>
	</linearGradient>
	<circle class="st14" cx="358.3" cy="341" r="25.5"/>
	
		<linearGradient id="SVGID_15_" gradientUnits="userSpaceOnUse" x1="297.2639" y1="404.3331" x2="307.7639" y2="357.9631" gradientTransform="matrix(1.0039 0 0 -1.0039 0.1922 516.5609)">
		<stop  offset="0" style="stop-color:#A7F3CE"/>
		<stop  offset="1" style="stop-color:#61DB99"/>
	</linearGradient>
	<circle class="st15" cx="348.6" cy="331.3" r="5.3"/>
	
		<linearGradient id="SVGID_16_" gradientUnits="userSpaceOnUse" x1="316.5444" y1="404.3309" x2="327.0444" y2="357.9609" gradientTransform="matrix(1.0039 0 0 -1.0039 0.1922 516.5609)">
		<stop  offset="0" style="stop-color:#A7F3CE"/>
		<stop  offset="1" style="stop-color:#61DB99"/>
	</linearGradient>
	<circle class="st16" cx="367.9" cy="331.3" r="5.3"/>
	
		<linearGradient id="SVGID_17_" gradientUnits="userSpaceOnUse" x1="293.109" y1="403.3922" x2="303.609" y2="357.0222" gradientTransform="matrix(1.0039 0 0 -1.0039 0.1922 516.5609)">
		<stop  offset="0" style="stop-color:#A7F3CE"/>
		<stop  offset="1" style="stop-color:#61DB99"/>
	</linearGradient>
	<circle class="st17" cx="348.6" cy="350.6" r="5.3"/>
	
		<linearGradient id="SVGID_18_" gradientUnits="userSpaceOnUse" x1="312.3895" y1="403.3901" x2="322.8895" y2="357.0201" gradientTransform="matrix(1.0039 0 0 -1.0039 0.1922 516.5609)">
		<stop  offset="0" style="stop-color:#A7F3CE"/>
		<stop  offset="1" style="stop-color:#61DB99"/>
	</linearGradient>
	<circle class="st18" cx="367.9" cy="350.6" r="5.3"/>
</g>
</svg>
