<svg xmlns="http://www.w3.org/2000/svg" viewBox="0 0 345.2 345.2" fill="#383fcf"><path d="M330 108.636h-75.2l-50.4-102.8c-1.6-3.6-6-5.2-9.6-3.2-3.6 1.6-5.2 6-3.2 9.6l47.2 96.8H106l47.2-96.8c1.6-3.6.4-8-3.2-9.6-3.6-1.6-8-.4-9.6 3.2L90 109.036H15.2c-8.4 0-15.2 6.8-15.2 15.2v37.6c0 8.4 6.8 15.2 15.2 15.2h17.6v131.6c0 21.6 13.2 34.8 34.8 34.8h210c21.6 0 34.8-13.2 34.8-34.8v-131.2-.8H330c8.4 0 15.2-6.8 15.2-15.2v-37.6c0-8.4-6.8-15.2-15.2-15.2zm-32 200c0 13.6-6.8 20.4-20.4 20.4H67.2c-13.6 0-20.4-6.8-20.4-20.4v-131.2c0-.4.4-.8.8-.8h249.2c.8 0 1.2.4 1.2.8v131.2zm32.4-146.8c0 .4-.4.8-.8.8H15.2c-.4 0-.8-.4-.8-.8v-37.6c0-.4.4-.8.8-.8h67.6l-8 16.4c-1.6 3.6-.4 8 3.2 9.6 1.2.4 2 .8 3.2.8 2.8 0 5.2-1.6 6.4-4l11.2-22.8H246l11.2 22.8c1.2 2.4 3.6 4 6.4 4 1.2 0 2-.4 3.2-.8 3.6-1.6 5.2-6 3.2-9.6l-8-16.4h67.6c.4 0 .8.4.8.8v37.6z"/><path d="M86 193.036c-4 0-7.2 3.2-7.2 7.2v85.6c0 4.4 3.2 7.6 7.2 7.6s7.2-3.2 7.2-7.2v-86c0-4-3.2-7.2-7.2-7.2zM129.2 193.036c-4 0-7.2 3.2-7.2 7.2v85.6c.4 4.4 3.6 7.6 7.2 7.6 4 0 7.2-3.2 7.2-7.2v-86c0-4-3.2-7.2-7.2-7.2zM172.8 193.036c-4 0-7.2 3.2-7.2 7.2v85.6c0 4.4 3.2 7.6 7.2 7.6s7.2-3.2 7.2-7.2v-86c0-4-3.2-7.2-7.2-7.2zM216 193.036c-4 0-7.2 3.2-7.2 7.2v85.6c0 4.4 3.2 7.6 7.2 7.6s7.2-3.2 7.2-7.2v-86c0-4-3.2-7.2-7.2-7.2zM259.2 193.036c-4 0-7.2 3.2-7.2 7.2v85.6c.4 4.4 3.6 7.6 7.2 7.6 4 0 7.2-3.2 7.2-7.2v-86c0-4-3.2-7.2-7.2-7.2z"/></svg>