<svg xmlns="http://www.w3.org/2000/svg" viewBox="0 0 512 512" fill="#383fcf"><path d="M450 118h-58.5c-5.523 0-10 4.477-10 10s4.477 10 10 10H450c12.131 0 22 9.869 22 22v114.121c0 13.069-10.633 23.702-23.702 23.702H438V224c0-23.159-18.841-42-42-42H248.5v-30.5c0-5.523-4.477-10-10-10s-10 4.477-10 10V182H62c-12.131 0-22-9.869-22-22s9.869-22 22-22h66.172c5.523 0 10-4.477 10-10s-4.477-10-10-10H62c-23.159 0-42 18.841-42 42 0 .555.021 1.106.042 1.656-.022.276-.042.552-.042.833V470c0 23.159 18.841 42 42 42l388-.012c23.159 0 42-18.841 42-42V160c0-23.158-18.841-42-42-42zm-32 352c0 11.976-9.62 21.741-21.538 21.988H396c-.078 0-.154.01-.232.012H62c-12.131 0-22-9.869-22-22V195.759A41.747 41.747 0 0 0 62 202h334c12.131 0 22 9.869 22 22v73.823h-90c-34.187 0-62 27.813-62 62s27.813 62 62 62h90V470zm54-.011c0 12.131-9.869 22-22 22h-18.234A41.741 41.741 0 0 0 438 470.001v-48.177h6c10.444 0 20.112-3.363 28-9.049v57.214zm0-96.165c0 15.439-12.561 28-28 28H328c-23.159 0-42-18.841-42-42s18.841-42 42-42h120.298A43.43 43.43 0 0 0 472 310.809v63.015z"/><path d="M309 65.168c-25.908 0-46.985 21.077-46.985 46.985 0 25.908 21.078 46.985 46.985 46.985 25.908 0 46.985-21.077 46.985-46.985 0-25.908-21.077-46.985-46.985-46.985zm0 73.97c-14.88 0-26.985-12.105-26.985-26.985S294.121 85.168 309 85.168s26.985 12.105 26.985 26.985S323.88 139.138 309 139.138zM212 0c-25.908 0-46.985 21.077-46.985 46.985 0 25.908 21.078 46.985 46.985 46.985 25.908 0 46.985-21.077 46.985-46.985S237.908 0 212 0zm0 73.97c-14.88 0-26.985-12.105-26.985-26.985S197.121 20 212 20s26.985 12.105 26.985 26.985S226.88 73.97 212 73.97zM382.674 16.659H377v-5.674c0-5.523-4.477-10-10-10s-10 4.477-10 10v5.674h-5.674c-5.523 0-10 4.477-10 10s4.477 10 10 10H357v5.675c0 5.523 4.477 10 10 10s10-4.477 10-10v-5.675h5.674c5.523 0 10-4.477 10-10s-4.477-10-10-10zM179.667 97.75c-5.523 0-10 4.478-10 10v40.5c0 5.523 4.477 10 10 10s10-4.477 10-10v-40.5c0-5.523-4.477-10-10-10zM341.15 354.001a10.1 10.1 0 0 0-7.08-2.931c-2.63 0-5.2 1.07-7.07 2.931a10.062 10.062 0 0 0-2.92 7.069c0 2.631 1.06 5.211 2.92 7.07a10.05 10.05 0 0 0 7.07 2.93c2.64 0 5.21-1.06 7.08-2.93a10.072 10.072 0 0 0 2.93-7.07c0-2.63-1.07-5.21-2.93-7.069zM86.334 260c-5.523 0-10 4.478-10 10v82.333c0 5.522 4.477 10 10 10s10-4.478 10-10V270c0-5.522-4.477-10-10-10zM93.4 379.77a10.062 10.062 0 0 0-7.07-2.93c-2.63 0-5.21 1.07-7.07 2.93s-2.93 4.44-2.93 7.07 1.07 5.21 2.93 7.07a10.08 10.08 0 0 0 7.07 2.93c2.64 0 5.21-1.07 7.07-2.93 1.87-1.86 2.93-4.44 2.93-7.07s-1.06-5.21-2.93-7.07z"/></svg>