<svg xmlns="http://www.w3.org/2000/svg" viewBox="0 0 512.081 512.081" fill="#383fcf"><path d="M512.041 384V128c0-29.455-23.878-53.333-53.333-53.333h-192V53.333c0-5.891-4.776-10.667-10.667-10.667h-42.667c-5.891 0-10.667 4.776-10.667 10.667v21.333h-21.333v-64c0-5.89-4.776-10.666-10.667-10.666H128.04c-5.891 0-10.667 4.776-10.667 10.667v64H96.041V21.333H74.707v53.333H53.374C23.919 74.667.041 98.545.041 128v256c0 17.673 14.327 32 32 32h160v35.627a50.558 50.558 0 0 0-30.933 39.04h-22.4V512h234.667v-21.333h-22.4a50.56 50.56 0 0 0-30.933-39.04V436.8c3.52 0 7.04.533 10.667.533a116.465 116.465 0 0 0 48.853-10.667l69.973 69.013 7.573 7.36c12.583 12.055 32.43 12.055 45.013 0 12.312-11.759 12.761-31.272 1.003-43.584a31.62 31.62 0 0 0-1.003-1.003l-7.573-7.36L458.707 416h21.333c17.674 0 32.001-14.327 32.001-32zm-288-320h21.333v106.667h-21.333V64zm-42.667 32h21.333v74.667h-21.333V96zm-42.667-74.667h21.333v149.333h-21.333V21.333zM96.041 96h21.333v74.667H96.041V96zm-74.667 32c0-17.673 14.327-32 32-32h21.333v85.333c0 5.891 4.776 10.667 10.667 10.667h298.667v-21.333h-32V128c0-5.891-4.776-10.667-10.667-10.667h-42.667c-5.891 0-10.667 4.776-10.667 10.667v42.667h-21.333V96h192c17.673 0 32 14.327 32 32v202.667h-43.2c0-3.52.533-7.04.533-10.667 0-64.801-52.532-117.333-117.333-117.333S213.374 255.199 213.374 320c0 3.627 0 7.147.533 10.667H21.374V128zm288 42.667v-32h21.333v32h-21.333zm-277.333 224c-5.891 0-10.667-4.776-10.667-10.667v-32h196.587a117.337 117.337 0 0 0 22.293 42.667H32.041zm296.96 96h-145.92c3.499-13.578 16.33-22.614 30.293-21.333h42.667V448h-42.667v-32h50.133a117.348 117.348 0 0 0 35.2 16.747v36.587c13.964-1.281 26.795 7.754 30.294 21.333zM330.707 416c-53.019 0-96-42.981-96-96s42.981-96 96-96 96 42.981 96 96-42.98 96-96 96zm156.374 57.6c3.859 3.636 4.039 9.712.403 13.57-.13.138-.265.273-.403.403-4.148 4.066-10.786 4.066-14.933 0l14.933-13.973zm-15.254-14.933l-10.667 10.667-3.627 3.52-58.347-57.6a118.206 118.206 0 0 0 15.253-12.8l57.388 56.213zm-34.453-64v.96l-9.813-9.493a117.35 117.35 0 0 0 16-34.133h47.147v32c0 5.891-4.776 10.667-10.667 10.667h-42.667z"/><path d="M64.041 266.667H42.707v32c0 5.891 4.776 10.667 10.667 10.667h32V288H64.041v-21.333zM330.707 245.333v21.333c29.455 0 53.333 23.878 53.333 53.333h21.333c.001-41.236-33.428-74.666-74.666-74.666z"/></svg>