<svg xmlns="http://www.w3.org/2000/svg" viewBox="0 0 512 512" fill="#383fcf"><path d="M502 116.277h-30a10.002 10.002 0 0 0-9.599 7.195L452.311 158h-44.083V90.885c0-5.996 4.878-10.874 10.874-10.874h22.178c10.312 0 18.701 8.389 18.701 18.701 0 5.523 4.477 10 10 10h21.417c5.523 0 10-4.477 10-10V73.163C501.396 32.821 468.575 0 428.233 0h-79.58a10 10 0 0 0-9.594 7.179l-1.15 3.91h-2.652l-3.559-6.118A10.002 10.002 0 0 0 323.054 0h-33.919c-5.523 0-10 4.477-10 10v69.796c0 5.523 4.477 10 10 10h33.919c3.561 0 6.853-1.894 8.644-4.972l3.559-6.118h1.498l1.898 12.909V158H307v-4.159c0-1.74-.473-3.517-1.352-5.02l-32-55.128a9.998 9.998 0 0 0-17.296 0l-32 55.128a10.067 10.067 0 0 0-1.352 5.02V158h-22.6l24.391-146.356A10.002 10.002 0 0 0 214.928 0H92c-5.523 0-10 4.477-10 10v148H59.69l-10.091-34.528A10.001 10.001 0 0 0 40 116.277H10c-5.523 0-10 4.477-10 10V502c0 5.522 4.477 10 10 10h492c5.523 0 10-4.478 10-10V126.277c0-5.523-4.477-10-10-10zM446.466 178l-21.626 74h-4.871v-56.012c0-6.792-2.353-13.04-6.278-17.988h32.775zM329.505 58.707a10.001 10.001 0 0 0-8.644 4.972l-3.559 6.118h-18.168V20h18.168l3.559 6.118a10 10 0 0 0 8.644 4.971h15.886a10 10 0 0 0 9.594-7.179l1.15-3.91h72.098c29.314 0 53.164 23.849 53.164 53.163v15.549h-2.726c-4.419-16.509-19.508-28.701-37.392-28.701h-22.178c-13.525 0-25.047 8.743-29.212 20.874H357.29l-2.005-13.633a10 10 0 0 0-9.894-8.545h-15.886zm61.464 128.281c4.962 0 9 4.038 9 9V252h-53.057v-56.012c0-4.962 4.038-9 9-9h35.057zm-32.316-20v-66.103h29.575v66.103h-29.575zM307 178h26.19c-3.925 4.948-6.278 11.196-6.278 17.988V252H307v-74zm-42-59.368l14.633 25.209h-29.266L265 118.632zm-22 45.209h44V252h-44v-88.159zM223 178v74h-38.266l12.333-74H223zM138.969 20h27.31l-3.815 24h-23.495V20zM102 20h16.969v34c0 5.523 4.477 10 10 10H171a10 10 0 0 0 9.876-8.43L186.53 20h16.593l-11.451 68.712H102V20zm0 88.712h86.338L164.458 252H102V108.712zM82 178v56.34L65.535 178H82zm410 194H343.739c-5.523 0-10 4.478-10 10s4.477 10 10 10H492v60H318.604c-5.523 0-10 4.478-10 10s4.477 10 10 10H492v20H20V136.277h12.504l10.131 34.665.014.047 27.418 93.817A10 10 0 0 0 79.666 272h352.669c4.442 0 8.353-2.931 9.599-7.195l37.562-128.528H492V372z"/><path d="M57.07 454.93C55.21 453.07 52.63 452 50 452s-5.21 1.069-7.07 2.93C41.07 456.79 40 459.37 40 462s1.07 5.21 2.93 7.069C44.79 470.93 47.37 472 50 472s5.21-1.07 7.07-2.931C58.93 467.21 60 464.63 60 462s-1.07-5.21-2.93-7.07zM57.07 306.94c-1.86-1.859-4.44-2.93-7.07-2.93s-5.21 1.07-7.07 2.93-2.93 4.44-2.93 7.07c0 2.64 1.07 5.21 2.93 7.07 1.86 1.859 4.44 2.93 7.07 2.93s5.21-1.07 7.07-2.93 2.93-4.431 2.93-7.07c0-2.63-1.07-5.21-2.93-7.07zM469.07 306.94c-1.86-1.859-4.44-2.93-7.07-2.93s-5.21 1.07-7.07 2.93c-1.86 1.86-2.93 4.44-2.93 7.07s1.07 5.21 2.93 7.07c1.86 1.859 4.44 2.93 7.07 2.93s5.21-1.07 7.07-2.93 2.93-4.431 2.93-7.07c0-2.63-1.07-5.21-2.93-7.07zM285.07 454.93c-1.86-1.86-4.44-2.93-7.07-2.93s-5.21 1.069-7.07 2.93c-1.86 1.86-2.93 4.44-2.93 7.07s1.07 5.21 2.93 7.069c1.86 1.86 4.44 2.931 7.07 2.931s5.21-1.07 7.07-2.931c1.86-1.859 2.93-4.439 2.93-7.069s-1.07-5.21-2.93-7.07zM223 412l-142.509.001c-5.523 0-10 4.478-10 10s4.477 10 10 10L223 432c5.523 0 10-4.478 10-10s-4.477-10-10-10zM159.838 341.751H50c-5.523 0-10 4.478-10 10s4.477 10 10 10h109.838c5.523 0 10-4.478 10-10s-4.477-10-10-10zM301.105 372h-.813c-5.523 0-10 4.478-10 10s4.477 10 10 10h.813c5.523 0 10-4.478 10-10s-4.477-10-10-10z"/></svg>