<svg xmlns="http://www.w3.org/2000/svg" width="33" height="33"><path data-name="Forma 1" d="M11.71 23.64a.59.59 0 0 0-.14-.02 4.109 4.109 0 0 0 1.14-2.85v-3.39a.277.277 0 0 0-.01-.09 1.148 1.148 0 0 0 .01-.19v-2.14a.647.647 0 0 0-.64-.65H7.74a3.312 3.312 0 0 0-3.3 3.31v3.15a4.154 4.154 0 0 0 1.14 2.85.675.675 0 0 0-.14.02A5.99 5.99 0 0 0 0 29.6v2.75a.647.647 0 0 0 .64.65h15.87a.647.647 0 0 0 .64-.65V29.6a5.99 5.99 0 0 0-5.44-5.96zm-5.98-5.21v-.81a2.019 2.019 0 0 1 2.01-2.02h3.68v1.5a1.366 1.366 0 0 1-1.37 1.37H5.73v-.04zm0 1.33h4.32a2.659 2.659 0 0 0 1.37-.38v1.39a2.845 2.845 0 1 1-5.69 0v-1.01zm4.25 5.15l-1.4 1.4-1.41-1.4h2.81zm5.88 6.8H1.29v-1.29h2.67a.645.645 0 1 0 0-1.29H1.31a4.7 4.7 0 0 1 4.08-4.18l2.73 2.73a.65.65 0 0 0 .46.18.627.627 0 0 0 .45-.18l2.73-2.73a4.689 4.689 0 0 1 4.1 4.65v2.11zm11.7-22.38a.7.7 0 0 0-.14-.03 4.129 4.129 0 0 0 1.14-2.84V3.07a.308.308 0 0 0-.01-.1 1.087 1.087 0 0 0 .01-.18V.64a.647.647 0 0 0-.65-.64h-4.32a3.3 3.3 0 0 0-3.3 3.3v3.16a4.084 4.084 0 0 0 1.14 2.84.577.577 0 0 0-.14.03 5.983 5.983 0 0 0-5.44 5.96v2.75a.638.638 0 0 0 .64.64h5.19a.64.64 0 1 0 0-1.28h-4.54v-2.11a4.7 4.7 0 0 1 4.1-4.66l2.73 2.73a.613.613 0 0 0 .45.19.635.635 0 0 0 .46-.19l2.73-2.73a4.7 4.7 0 0 1 4.1 4.66v2.11h-4.75a.64.64 0 1 0 0 1.28h5.4a.638.638 0 0 0 .64-.64v-2.75a5.983 5.983 0 0 0-5.44-5.96zm-3.14 2.66l-1.4-1.4h2.81zm2.85-5.53a2.845 2.845 0 0 1-5.69 0V5.45h4.32a2.659 2.659 0 0 0 1.37-.38v1.39zm0-3.67a1.372 1.372 0 0 1-1.37 1.37h-4.32V3.3a2.01 2.01 0 0 1 2.01-2.01h3.68v1.5zm-2.39 14.79a.65.65 0 0 0-.46-.18.627.627 0 0 0-.45.18.652.652 0 0 0 0 .92.627.627 0 0 0 .45.18.65.65 0 0 0 .46-.18.652.652 0 0 0 0-.92zm-7.65-8.56l-2.69-2.7v-3.1A3.231 3.231 0 0 0 11.32 0h-8.1A3.231 3.231 0 0 0 0 3.22v5.67a3.233 3.233 0 0 0 3.22 3.23h8.1a3.206 3.206 0 0 0 2.98-2h2.48a.641.641 0 0 0 .59-.4.629.629 0 0 0-.14-.7zm-3.4-.19a.652.652 0 0 0-.63.5 1.926 1.926 0 0 1-1.88 1.5h-8.1a1.94 1.94 0 0 1-1.93-1.94V3.22a1.938 1.938 0 0 1 1.93-1.93h8.1a1.938 1.938 0 0 1 1.93 1.93v3.37a.678.678 0 0 0 .19.46l1.78 1.78h-1.39zm15.95 12.05h-8.1a3.206 3.206 0 0 0-2.98 2h-2.48a.631.631 0 0 0-.59.4.644.644 0 0 0 .13.7l2.7 2.7v3.1A3.231 3.231 0 0 0 21.68 33h8.1A3.231 3.231 0 0 0 33 29.78v-5.67a3.233 3.233 0 0 0-3.22-3.23zm1.93 8.9a1.938 1.938 0 0 1-1.93 1.93h-8.1a1.938 1.938 0 0 1-1.93-1.93v-3.37a.66.66 0 0 0-.19-.46l-1.78-1.78h1.39a.652.652 0 0 0 .63-.5 1.926 1.926 0 0 1 1.88-1.5h8.1a1.94 1.94 0 0 1 1.93 1.94v5.67zm-3.08-4.55a.628.628 0 0 0-.91 0L26 26.94l-.79-.8a.658.658 0 0 0-.92 0 .646.646 0 0 0 0 .91l1.26 1.26a.654.654 0 0 0 .45.19.678.678 0 0 0 .46-.19l2.17-2.17a.646.646 0 0 0 0-.91zM10.2 4.27a2.236 2.236 0 0 0-3.75-1.48 2.216 2.216 0 0 0-.71 1.64.638.638 0 0 0 .64.64.647.647 0 0 0 .65-.64.9.9 0 0 1 .3-.69.964.964 0 0 1 .71-.26.945.945 0 0 1 .87.88.927.927 0 0 1-.73.99 1.081 1.081 0 0 0-.85 1.06v.35a.638.638 0 0 0 .64.64.647.647 0 0 0 .65-.64v-.19a2.235 2.235 0 0 0 1.58-2.3zm-1.77 4.5a.66.66 0 0 0-.46-.19.636.636 0 0 0-.45.19.6.6 0 0 0-.19.45.619.619 0 0 0 .19.46.636.636 0 0 0 .45.19.649.649 0 0 0 .65-.65.636.636 0 0 0-.19-.45zM7 29.32a.66.66 0 0 0-.46-.19.636.636 0 0 0-.45.19.66.66 0 0 0-.19.46.649.649 0 0 0 .64.64.66.66 0 0 0 .46-.19.636.636 0 0 0 .19-.45.66.66 0 0 0-.19-.46z" fill="#fff" fill-rule="evenodd"/></svg>