<svg xmlns="http://www.w3.org/2000/svg" width="37" height="35"><path data-name="Forma 1" d="M2.467 24.38H3.7a6.835 6.835 0 0 1 6.783-6.88v-1.25a8.085 8.085 0 0 0-8.016 8.13zm14.8 0a6.834 6.834 0 0 1-6.783 6.87v1.25a8.076 8.076 0 0 0 8.016-8.12h-1.233zm-3.16 1.25a2.453 2.453 0 0 0-.76-1.25 2.52 2.52 0 0 0 .226-3.52 2.409 2.409 0 0 0-1.239-.77v-1.34H11.1V20H9.867v-1.25H8.634V20H7.4a.62.62 0 0 0-.617.62v7.51a.62.62 0 0 0 .617.62h1.233V30h1.233v-1.25H11.1V30h1.234v-1.34a2.5 2.5 0 0 0 1.773-3.03zm-2.39 1.87h-3.7V25h3.7a1.25 1.25 0 0 1 0 2.5zm0-3.75h-3.7v-2.5h3.7a1.25 1.25 0 0 1 0 2.5zM3.701 6.25H2.467a2.484 2.484 0 0 1-2.466 2.5V10a2.484 2.484 0 0 1 2.466 2.5H3.7A2.484 2.484 0 0 1 6.166 10V8.75A2.484 2.484 0 0 1 3.7 6.25zm-.617 4.19a3.921 3.921 0 0 0-1.04-1.07 1.04 1.04 0 1 1 2.08 0 3.921 3.921 0 0 0-1.04 1.07zm33.3 15.81h-1.85v-6.88a.62.62 0 0 0-.616-.62H33.3v-2.5h1.85a.623.623 0 0 0 .617-.63v-3.75a.621.621 0 0 0-.617-.62H33.3v-2.5h.617a.622.622 0 0 0 .616-.63V4.37a.62.62 0 0 0-.616-.62h-1.234V.62a.62.62 0 0 0-.616-.62H12.334a.62.62 0 0 0-.617.62v3.75a.622.622 0 0 0 .617.63h1.233v2.5h-.617a.62.62 0 0 0-.616.62v3.75a.622.622 0 0 0 .616.63h1.85v2.2A10.428 10.428 0 0 0 .94 20.01a10.679 10.679 0 0 0 5.235 14.05 10.342 10.342 0 0 0 7.421.46.608.608 0 0 0 .588.48h19.733a.62.62 0 0 0 .616-.62v-3.13h1.85a.62.62 0 0 0 .617-.62v-3.76a.62.62 0 0 0-.617-.62zm-1.85-13.75V15H33.3v-1.25h-1.233V15h-1.234v-1.25H29.6V15h-1.233v-1.25h-1.234V15H25.9v-1.25h-1.233V15h-1.233v-1.25H22.2V15h-1.233v-1.25h-1.233V15H18.5v-1.25h-1.233V15h-1.233v-2.5h18.5zm-3.7 12.5v1.25H29.6V25h-1.233v1.25h-1.234V25H25.9v1.25h-1.233V25h-1.233v1.25H22.2V25h-1.233v1.25h-.173c0-.02 0-.03.007-.05a10.407 10.407 0 0 0 .166-1.82c0-.21-.007-.41-.022-.63H33.3v2.5h-1.233V25h-1.234zm1.234-2.5v-1.25h-1.234v1.25H29.6v-1.25h-1.233v1.25h-1.234v-1.25H25.9v1.25h-1.233v-1.25h-1.233v1.25H22.2v-1.25h-1.233v1.25H20.8l-.007-.03c-.03-.17-.066-.34-.1-.51a5.637 5.637 0 0 0-.1-.37 9.794 9.794 0 0 0-.212-.7c-.047-.13-.1-.27-.148-.41s-.111-.28-.172-.41a.53.53 0 0 0-.026-.07H33.3v2.5h-1.233zm-2.467-5v1.25h-1.233V17.5h-1.234v1.25H25.9V17.5h-1.233v1.25h-1.233V17.5H22.2v1.25h-1.233V17.5h-1.233v1.25h-.366c-.02-.03-.043-.06-.062-.09-.1-.16-.2-.31-.3-.46a5.356 5.356 0 0 0-.242-.32c-.1-.13-.2-.26-.3-.38a9.656 9.656 0 0 0-.364-.41c-.082-.09-.159-.18-.243-.26-.2-.2-.406-.4-.621-.58h14.835v2.5h-1.234V17.5H29.6zm3.7-12.5v2.5h-1.233V6.25h-1.234V7.5H29.6V6.25h-1.233V7.5h-1.234V6.25H25.9V7.5h-1.233V6.25h-1.233V7.5H22.2V6.25h-1.233V7.5h-1.233V6.25H18.5V7.5h-1.233V6.25h-1.233V7.5H14.8V5h18.5zm-20.35-1.25v-2.5h18.5v2.5h-1.233V2.5h-1.234v1.25H27.75V2.5h-1.233v1.25h-1.233V2.5H24.05v1.25h-1.233V2.5h-1.233v1.25H20.35V2.5h-1.233v1.25h-1.233V2.5H16.65v1.25h-1.233V2.5h-1.233v1.25H12.95zm.617 7.5v-2.5h18.5v2.5h-1.234V10H29.6v1.25h-1.233V10h-1.234v1.25H25.9V10h-1.233v1.25h-1.233V10H22.2v1.25h-1.233V10h-1.233v1.25H18.5V10h-1.233v1.25h-1.233V10H14.8v1.25h-1.233zm2.467 22.5h-.621c.212-.12.417-.24.621-.37v.37zm.906-2.68c-.048.05-.1.09-.148.14-.218.21-.446.4-.682.59-.071.05-.142.11-.214.16a8.656 8.656 0 0 1-.8.52.659.659 0 0 1-.108.07 9.15 9.15 0 0 1-4.506 1.2A9.376 9.376 0 0 1 10.465 15a9.179 9.179 0 0 1 5.123 1.56l.17.12c.167.12.33.24.489.37l.175.15c.19.16.373.33.55.5.066.07.124.14.19.21.111.11.218.23.322.35.081.1.162.2.239.3s.152.2.226.3q.219.315.416.63c.046.08.094.15.138.23.133.24.253.48.364.72.017.04.036.07.052.11.111.25.209.5.3.76l.033.1a8.611 8.611 0 0 1 .234.84.227.227 0 0 1 .01.04c.067.3.12.6.158.91.02.16.032.31.045.45.018.24.036.48.036.72 0 .27-.018.52-.039.78-.01.11-.019.23-.034.34-.01.09-.026.18-.039.26-.048.32-.108.63-.185.95l-.009.03a8.928 8.928 0 0 1-.273.88.867.867 0 0 1-.036.1c-.094.25-.2.5-.318.74-.029.07-.058.13-.089.19-.106.21-.225.42-.347.62-.047.08-.09.16-.138.23-.128.2-.267.39-.411.58-.048.06-.092.13-.141.19a8.131 8.131 0 0 1-.736.81zm16.36 2.68h-1.233V32.5h-1.234v1.25H29.6V32.5h-1.233v1.25h-1.234V32.5H25.9v1.25h-1.233V32.5h-1.233v1.25H22.2V32.5h-1.233v1.25h-1.233V32.5H18.5v1.25h-1.233V32.5h-.042c.1-.09.2-.19.3-.28s.208-.18.309-.28c.133-.13.256-.27.382-.41.084-.1.175-.18.255-.28H33.3v2.5zM35.768 30h-1.234v-1.25H33.3V30h-1.233v-1.25h-1.234V30H29.6v-1.25h-1.233V30h-1.234v-1.25H25.9V30h-1.233v-1.25h-1.233V30H22.2v-1.25h-1.233V30h-1.6c.079-.12.15-.26.223-.39s.136-.25.2-.38a8.325 8.325 0 0 0 .446-1c.028-.07.056-.15.083-.23.062-.16.124-.33.179-.5h15.264V30z" fill="#fff" fill-rule="evenodd"/></svg>