<svg xmlns="http://www.w3.org/2000/svg" width="34.625" height="34.63"><path data-name="Forma 1" d="M26.813 18.46l-3.742-4.76a8.082 8.082 0 0 0 2.265-5.06h5.795v.64a2.884 2.884 0 1 0 1.153 0V8.07a.578.578 0 0 0-.576-.58h-6.372a8.063 8.063 0 0 0-1.69-4.39l.8-.8h6.787a1.736 1.736 0 1 0 0-1.15h-7.025a.57.57 0 0 0-.408.17l-.931.93A8.053 8.053 0 0 0 9.245 7.49H4.402L2.517 3.25a1.734 1.734 0 1 0-1.194.15L3.5 8.3a.571.571 0 0 0 .527.34h5.218a8.057 8.057 0 0 0 2.224 5.01l-4.867 4.87a5.764 5.764 0 0 0-1.708 11.4l.286.03v2.92a.576.576 0 0 0 .576.57h5.3a1.729 1.729 0 1 0 1.054-2.21 1.761 1.761 0 0 0-1.054 1.06H6.337v-2.34a5.763 5.763 0 0 0 1.557-11.09l4.44-4.44a8.019 8.019 0 0 0 9.871.04l3.2 4.07a8.087 8.087 0 1 0 1.408-.07zm6.624-6.36a1.73 1.73 0 1 1-1.729-1.73 1.727 1.727 0 0 1 1.729 1.73zm-.576-10.95a.575.575 0 1 1-.577.57.576.576 0 0 1 .577-.57zM1.724 2.3a.575.575 0 1 1 .577-.58.578.578 0 0 1-.577.58zM12.68 32.29a.575.575 0 1 1-.577.58.578.578 0 0 1 .577-.58zm-4.613-4.08a4.584 4.584 0 0 1-4.613 0V27.1a2.307 2.307 0 1 1 4.613 0v1.11zm-3.46-5.72a1.154 1.154 0 1 1 1.153 1.15 1.157 1.157 0 0 1-1.153-1.15zm4.613-1.34a4.638 4.638 0 0 1 1.153 3.07 4.587 4.587 0 0 1-1.153 3.04v-.16a3.466 3.466 0 0 0-1.791-3.03 2.308 2.308 0 1 0-3.337 0 3.464 3.464 0 0 0-1.791 3.03v.16a4.615 4.615 0 1 1 6.919-6.11zm12.109-7.47a6.9 6.9 0 0 1-8.073 0v-1.4a1.91 1.91 0 0 1 1.9-1.91h1.28l-.836 2.1a.573.573 0 0 0 .127.62l1.154 1.15a.568.568 0 0 0 .815 0l1.153-1.15a.572.572 0 0 0 .128-.62l-.836-2.1h1.282a1.91 1.91 0 0 1 1.9 1.91v1.4zm-3.954-9.37a.608.608 0 0 0-.052.11c-.292.88-1.867 1.21-2.882 1.31.155-1.94 1.064-2.85 2.852-2.85a2.517 2.517 0 0 1 2.794 2.39l-1.921-1.16a.583.583 0 0 0-.791.2zm.713 1.1l2.061 1.24a3.57 3.57 0 0 1-2.856 2.57 3.629 3.629 0 0 1-2.8-2.34c.984-.08 2.766-.38 3.595-1.47zm-.319 7.13l-.476.48-.477-.48.477-1.19zm2.039-3.29a4.013 4.013 0 0 0 1.521-2.91c0-3.82-2.2-4.62-4.036-4.62s-4.037.8-4.037 4.62a4.01 4.01 0 0 0 1.521 2.91 3.05 3.05 0 0 0-2.674 3.03v.35a6.922 6.922 0 1 1 10.379 0v-.35a3.049 3.049 0 0 0-2.674-3.03zm10.746 22.88a6.862 6.862 0 0 1-8.072 0v-1.4a1.9 1.9 0 0 1 1.9-1.9h1.28l-.837 2.09a.57.57 0 0 0 .128.62l1.153 1.16a.587.587 0 0 0 .816 0l1.153-1.16a.57.57 0 0 0 .128-.62l-.836-2.09h1.282a1.9 1.9 0 0 1 1.9 1.9v1.4zm-3.241-8.26l2.061 1.23a3.582 3.582 0 0 1-2.856 2.58 3.649 3.649 0 0 1-2.8-2.34c.984-.08 2.767-.38 3.595-1.47zm-3.646.31c.154-1.93 1.064-2.85 2.851-2.85a2.524 2.524 0 0 1 2.795 2.39l-1.921-1.15a.566.566 0 0 0-.791.2.4.4 0 0 0-.053.11c-.292.87-1.867 1.21-2.881 1.3zM26.995 31l-.477.47-.476-.47.476-1.2zm4.713.08v-.35a3.049 3.049 0 0 0-2.674-3.03 4.008 4.008 0 0 0 1.52-2.91c0-3.81-2.195-4.61-4.036-4.61s-4.036.8-4.036 4.61a3.976 3.976 0 0 0 1.52 2.91 3.05 3.05 0 0 0-2.673 3.03v.35a6.919 6.919 0 1 1 10.379 0z" fill="#fff" fill-rule="evenodd"/></svg>