<?xml version="1.0" encoding="utf-8"?>
<!-- Generator: Adobe Illustrator 19.0.0, SVG Export Plug-In . SVG Version: 6.00 Build 0)  -->
<svg version="1.1" id="Capa_1" xmlns="http://www.w3.org/2000/svg" xmlns:xlink="http://www.w3.org/1999/xlink" x="0px" y="0px"
	 viewBox="-223 25 512 512" style="enable-background:new -223 25 512 512;" xml:space="preserve">
<style type="text/css">
	.st0{fill:url(#SVGID_1_);}
	.st1{fill:url(#SVGID_2_);}
	.st2{fill:url(#SVGID_3_);}
	.st3{fill:url(#SVGID_4_);}
</style>
<g>
	<g>
		<linearGradient id="SVGID_1_" gradientUnits="userSpaceOnUse" x1="-223" y1="171.6325" x2="285.235" y2="171.6325">
			<stop  offset="0" style="stop-color:#C22AFF"/>
			<stop  offset="1" style="stop-color:#3F00D4"/>
		</linearGradient>
		<path class="st0" d="M259.8,165.6l-12.7,20.6c-7.9-27.1-21.9-51.2-41.7-70.9c-43.7-43.7-108.9-59.2-176-42.5
			C2.9,44-35.2,26-77.4,26C-157.7,26-223,91.3-223,171.6s65.3,145.6,145.6,145.6S68.3,251.9,68.3,171.6c0-26.4-7.1-51.2-19.4-72.5
			c52.4-9.6,102,3.8,135.5,37.3c16.9,16.9,28.7,37.7,35,61.4L193,181.5l-15.6,25.4l66.8,41.1l41.1-66.8L259.8,165.6z M-77.4,287.4
			c-63.9,0-115.8-52-115.8-115.8c0-63.9,52-115.8,115.8-115.8c63.9,0,115.8,52,115.8,115.8S-13.5,287.4-77.4,287.4z"/>
	</g>
</g>
<g>
	<g>
		<linearGradient id="SVGID_2_" gradientUnits="userSpaceOnUse" x1="-126.984" y1="165.438" x2="-22.772" y2="165.438">
			<stop  offset="0" style="stop-color:#C22AFF"/>
			<stop  offset="1" style="stop-color:#3F00D4"/>
		</linearGradient>
		<path class="st1" d="M-84.8,203.3c1.6-4.6,2.5-9.6,2.5-14.9v-2.4h21.2v-29.8h-21.2v-13.9c0-8.2,6.7-14.9,14.9-14.9
			s14.9,6.7,14.9,14.9h29.8c0-24.6-20-44.7-44.7-44.7s-44.7,20-44.7,44.7v13.9H-127v29.8h14.9v2.4c0,8.2-6.7,14.9-14.9,14.9v29.8
			h99.3v-29.8h0H-84.8z"/>
	</g>
</g>
<g>
	<g>
		<linearGradient id="SVGID_3_" gradientUnits="userSpaceOnUse" x1="-217.525" y1="390.367" x2="289" y2="390.367">
			<stop  offset="0" style="stop-color:#C22AFF"/>
			<stop  offset="1" style="stop-color:#3F00D4"/>
		</linearGradient>
		<path class="st2" d="M143.4,244.7c-80.3,0-145.6,65.3-145.6,145.6c0,27.2,7.5,52.8,20.6,74.6c-52.2,9.4-101.6-4-135-37.4
			c-16.9-16.9-28.7-37.7-35-61.4l26.4,16.3l15.6-25.4l-66.8-41.1l-41.1,66.8l25.4,15.6l12.7-20.6c7.9,27.1,21.9,51.2,41.7,70.9
			c32.2,32.2,76,49.1,123.8,49.1c17.1,0,34.7-2.2,52.4-6.6c26.5,27.6,63.8,44.8,105,44.8c80.3,0,145.6-65.3,145.6-145.6
			C289,310.1,223.7,244.7,143.4,244.7z M143.4,506.2c-63.9,0-115.8-52-115.8-115.8c0-63.9,52-115.8,115.8-115.8
			s115.8,52,115.8,115.8C259.2,454.2,207.2,506.2,143.4,506.2z"/>
	</g>
</g>
<g>
	<g>
		<linearGradient id="SVGID_4_" gradientUnits="userSpaceOnUse" x1="105.036" y1="390.365" x2="181.689" y2="390.365">
			<stop  offset="0" style="stop-color:#C22AFF"/>
			<stop  offset="1" style="stop-color:#3F00D4"/>
		</linearGradient>
		<path class="st3" d="M145.6,375.5h-4.6c-3.4,0-6.2-2.8-6.2-6.2c0-3.4,2.8-6.2,6.2-6.2h4.6c3.4,0,6.2,2.8,6.2,6.2h29.8
			c0-15.4-9.8-28.6-23.4-33.8v-20.9h-29.8v20.9c-13.7,5.1-23.4,18.3-23.4,33.8c0,19.9,16.2,36.1,36,36.1h4.6c3.4,0,6.2,2.8,6.2,6.2
			c0,3.4-2.8,6.2-6.2,6.2h-4.6c-3.4,0-6.2-2.8-6.2-6.2H105c0,15.4,9.8,28.6,23.4,33.8v20.9h29.8v-20.9c13.7-5.1,23.4-18.3,23.4-33.8
			C181.7,391.6,165.5,375.5,145.6,375.5z"/>
	</g>
</g>
</svg>
