<?xml version="1.0" encoding="utf-8"?>
<!-- Generator: Adobe Illustrator 19.0.0, SVG Export Plug-In . SVG Version: 6.00 Build 0)  -->
<svg version="1.1" id="Capa_1" xmlns="http://www.w3.org/2000/svg" xmlns:xlink="http://www.w3.org/1999/xlink" x="0px" y="0px"
	 viewBox="-223 25 512 512" style="enable-background:new -223 25 512 512;" xml:space="preserve">
<style type="text/css">
	.st0{fill:url(#SVGID_1_);}
	.st1{fill:url(#SVGID_2_);}
</style>
<linearGradient id="SVGID_1_" gradientUnits="userSpaceOnUse" x1="-151.917" y1="152.8725" x2="259.9527" y2="152.8725">
	<stop  offset="0" style="stop-color:#C22AFF"/>
	<stop  offset="1" style="stop-color:#3F00D4"/>
</linearGradient>
<path class="st0" d="M252.2,104.8L163.4,30c-9-7.6-22.5-6.4-30.1,2.6S127,55.1,136,62.7l44,37.4H-30.8
	c-66.8,0.1-121,54.2-121.1,121.1v38.3c0,11.8,9.6,21.3,21.3,21.3s21.3-9.6,21.3-21.3v-38.7c0.1-43.3,35.1-78.4,78.4-78.4h211
	l-44,37.4c-9,7.6-10.2,21-2.6,30.1c7.6,9,21,10.2,30.1,2.6l88.8-74.8c9-7.6,10.2-21,2.6-30c-0.8-0.9-1.7-1.8-2.6-2.6L252.2,104.8z"
	/>
<linearGradient id="SVGID_2_" gradientUnits="userSpaceOnUse" x1="-193.9506" y1="408.9359" x2="217.295" y2="408.9359">
	<stop  offset="0" style="stop-color:#C22AFF"/>
	<stop  offset="1" style="stop-color:#3F00D4"/>
</linearGradient>
<path class="st1" d="M196,280.9c-11.8,0-21.3,9.6-21.3,21.3v38.7c-0.1,43.3-35.1,78.4-78.4,78.4h-211l44-37.4
	c10.3-5.7,14.1-18.7,8.4-29c-5.7-10.3-18.7-14.1-29-8.4c-2.4,1.3-4.5,3.1-6.2,5.2l-88.8,74.8c-9,7.6-10.2,21-2.6,30
	c0.8,0.9,1.7,1.8,2.6,2.6l88.8,74.8c9,7.6,22.5,6.4,30.1-2.6c7.6-9,6.4-22.5-2.6-30.1l-44-37.4H96.2c66.8-0.1,121-54.2,121.1-121.1
	v-38.7C217.3,290.4,207.7,280.9,196,280.9z"/>
</svg>
