<?xml version="1.0" encoding="utf-8"?>
<!-- Generator: Adobe Illustrator 19.0.0, SVG Export Plug-In . SVG Version: 6.00 Build 0)  -->
<svg version="1.1" id="Layer_1" xmlns="http://www.w3.org/2000/svg" xmlns:xlink="http://www.w3.org/1999/xlink" x="0px" y="0px"
	 viewBox="-223 25 512 512" style="enable-background:new -223 25 512 512;" xml:space="preserve">
<style type="text/css">
	.st0{fill:url(#SVGID_1_);}
	.st1{fill:url(#SVGID_2_);}
</style>
<g>
	<g>
		<linearGradient id="SVGID_1_" gradientUnits="userSpaceOnUse" x1="-219.022" y1="281" x2="285.021" y2="281">
			<stop  offset="0" style="stop-color:#C22AFF"/>
			<stop  offset="1" style="stop-color:#3F00D4"/>
		</linearGradient>
		<path class="st0" d="M112,25c-95.4,0-173,77.6-173,173c0,21.2,3.8,41.8,11.2,61.4l-165.5,165.5c-2.4,2.4-3.7,5.6-3.7,8.9v90.5
			c0,7,5.6,12.6,12.6,12.6h74.6c3.3,0,6.5-1.3,8.9-3.7l25.1-25.1c2.4-2.4,3.7-5.6,3.7-8.9v-30.9h30.8c7,0,12.6-5.6,12.6-12.6v-12.4
			h12.4c7,0,12.6-5.6,12.6-12.6v-27.1H1.5c3.3,0,6.6-1.3,8.9-3.7l40.1-40.1c19.6,7.4,40.2,11.2,61.4,11.2c95.4,0,173-77.6,173-173
			C285,102.6,207.4,25,112,25z M112,345.9c-20.6,0-40.6-4.2-59.3-12.4c-4.8-2.1-10.3-1-13.9,2.5c0,0-0.1,0.1-0.1,0.1l-42.4,42.4
			h-34.5c-7,0-12.6,5.6-12.6,12.6v27.1h-12.4c-7,0-12.6,5.6-12.6,12.6v12.4h-30.8c-7,0-12.6,5.6-12.6,12.6v38.3l-17.8,17.7h-56.8
			V494l154.1-154.1c4.4-4.4,4.4-11.6,0-16.1s-11.6-4.4-16.1,0l-138.1,138.1v-22.8l167.7-167.7c0,0,0.1-0.1,0.1-0.1
			c3.5-3.6,4.7-9,2.5-13.9c-8.2-18.7-12.4-38.7-12.4-59.3c0-81.5,66.3-147.8,147.8-147.8s147.8,66.3,147.8,147.8
			C259.8,279.6,193.5,345.9,112,345.9z"/>
	</g>
</g>
<g>
	<g>
		<linearGradient id="SVGID_2_" gradientUnits="userSpaceOnUse" x1="117.401" y1="145.381" x2="211.875" y2="145.381">
			<stop  offset="0" style="stop-color:#C22AFF"/>
			<stop  offset="1" style="stop-color:#3F00D4"/>
		</linearGradient>
		<path class="st1" d="M164.6,98.1c-26,0-47.2,21.2-47.2,47.2s21.2,47.2,47.2,47.2s47.2-21.2,47.2-47.2S190.7,98.1,164.6,98.1z
			 M164.6,167.4c-12.1,0-22-9.9-22-22s9.9-22,22-22s22,9.9,22,22S176.8,167.4,164.6,167.4z"/>
	</g>
</g>
</svg>
