<svg xmlns="http://www.w3.org/2000/svg" width="27" height="37"><path data-name="Forma 1" d="M17.881 28.1a.912.912 0 0 1-.91.91h-6.942a.905.905 0 1 1 0-1.81h6.942a.9.9 0 0 1 .91.9zM9.268 13.55c0-1.74 1.859-3.1 4.232-3.1s4.232 1.36 4.232 3.1-1.859 3.11-4.232 3.11-4.232-1.37-4.232-3.11zm1.821 0c0 .62 1.031 1.3 2.411 1.3s2.411-.68 2.411-1.3-1.031-1.29-2.411-1.29-2.411.68-2.411 1.29zM27 4.62V36.1a.91.91 0 0 1-.91.9H.91a.91.91 0 0 1-.91-.9V4.62a.912.912 0 0 1 .91-.91h7.251V3.1a.9.9 0 0 1 .91-.9h1.439a3.131 3.131 0 0 1 5.979 0h1.44a.9.9 0 0 1 .91.9v.61h7.251a.912.912 0 0 1 .91.91zM9.981 6.6h7.037V4.01h-1.3a.911.911 0 0 1-.91-.91 1.3 1.3 0 0 0-1.3-1.29 1.3 1.3 0 0 0-1.3 1.29.912.912 0 0 1-.911.91h-1.3V6.6zM6.362 30.79h14.276V5.52h-1.8V7.5a.911.911 0 0 1-.91.91H9.07a.911.911 0 0 1-.91-.91V5.52h-1.8v25.27zM25.179 5.52h-2.72V31.7a.9.9 0 0 1-.911.9h-16.1a.9.9 0 0 1-.91-.9V5.52h-2.72v29.67h23.358V5.52zm-9.944 19.09a.905.905 0 1 0 0-1.81h-3.47a.905.905 0 1 0 0 1.81h3.47zm1.736-4.68h-6.942a.905.905 0 1 0 0 1.81h6.942a.905.905 0 1 0 0-1.81z" fill="#fff" fill-rule="evenodd"/></svg>