<svg xmlns="http://www.w3.org/2000/svg" viewBox="0 0 512.001 512.001" width="16" height="16"><path d="M433.013 113.612h-74.169V67.268c0-20.929-17.201-37.954-38.344-37.954H191.502c-21.143 0-38.344 17.027-38.344 37.954v46.344h-74.17C35.434 113.612 0 149.046 0 192.6v225.567c0 35.576 28.943 64.52 64.52 64.52h382.961c35.576 0 64.52-28.943 64.52-64.52V192.6c-.001-43.554-35.435-78.988-78.988-78.988zM183.249 67.268c0-4.483 3.548-7.863 8.253-7.863h128.997c4.705 0 8.253 3.38 8.253 7.863v46.344H183.249V67.268zm298.659 350.899c.001 18.984-15.443 34.429-34.427 34.429H64.52c-18.985 0-34.429-15.445-34.429-34.429V277.629a65.056 65.056 0 0 0 15.392 7.061c.288.088.578.169.87.241l153.282 37.461v12.374c0 19.428 15.806 35.234 35.234 35.234h42.262c19.428 0 35.234-15.806 35.234-35.234v-12.374l153.282-37.461c.293-.071.583-.151.87-.241a65.074 65.074 0 0 0 15.392-7.061v140.538zm-252.181-83.401v-42.452a5.149 5.149 0 0 1 5.143-5.143h42.262a5.148 5.148 0 0 1 5.143 5.143v42.452a5.149 5.149 0 0 1-5.143 5.143H234.87a5.15 5.15 0 0 1-5.143-5.143zM481.91 222.921c0 15.126-9.579 28.293-23.883 32.895l-145.683 35.603c-.477-19.016-16.083-34.341-35.212-34.341H234.87c-19.128 0-34.734 15.326-35.212 34.341L53.974 255.817c-14.303-4.603-23.883-17.77-23.883-32.896V192.6c0-26.962 21.935-48.897 48.897-48.897h354.025c26.961 0 48.896 21.935 48.896 48.897v30.321z"/></svg>