<svg xmlns="http://www.w3.org/2000/svg" width="16" height="16" viewBox="0 0 482.115 482.115"><path d="M235.27 0c59.416 0 107.573 48.159 107.573 107.573 0 59.412-48.157 107.571-107.573 107.571-59.41 0-107.575-48.159-107.575-107.571C127.694 48.159 175.859 0 235.27 0zM473.926 257.038v-12.023l-15.909-3.947v.008l-36.961-9.185v.008l-34.436-8.548c-6.901-1.759-14.238-2.749-22.005-3.322v-.234l-7.434-.36a51.069 51.069 0 0 0-3.76-.207l-25.771-.04v-.014H313.2l-1.066 4.458c-6.949 28.906-30.316 51.315-59.515 57.085-12.345 2.433-21.498 2.172-34.345-1.234-27.312-7.237-48.33-28.625-54.87-55.851l-1.066-4.458H124.46l-1.939.092a76.69 76.69 0 0 0-4.961.184v-.05l-6.32.537-5.335.451v.082c-5.927.681-11.163 1.609-16.134 2.881L49.467 233.36v-.008l-36.96 9.185v-.024l-11.66 2.895v145.026c1.475-.076 2.927 0 4.328.389l.03.008c5.214 1.427 8.313 5.975 8.313 12.183v71.168h11.657v-71.168c0-9.782-4.849-17.925-12.669-21.824V254.521l25.292-6.268V474.18h79.761V231.106a81.256 81.256 0 0 1 5.252-.194h.024l20.035-.096v243.365H222.612V292.412c8.975 1.723 16.667 1.955 25.307.857V474.18h74.755c13.04 5.054 27.154 7.935 41.957 7.935 64.315 0 116.637-52.325 116.637-116.636 0-14.19-2.673-27.744-7.342-40.343v-68.098zm-146.264-26.223l24.902.022.401.024v18.57c-8.765.874-17.212 2.798-25.304 5.522v-24.138zm126.107 161.417c-.405 1.351-.897 2.661-1.354 3.987a93.086 93.086 0 0 1-18.126 30.857c-12.387 14.014-28.909 24.225-47.685 28.781-7.061 1.707-14.383 2.713-21.973 2.713-1.963 0-3.895-.168-5.826-.292a101.79 101.79 0 0 1-5.827-.505c-8.893-1.118-17.384-3.435-25.315-6.869-1.975-.85-3.906-1.812-5.822-2.797-1.996-1.038-3.928-2.181-5.827-3.351-26.633-16.378-44.458-45.7-44.458-79.255 0-33.566 17.825-62.889 44.458-79.271a84.778 84.778 0 0 1 5.827-3.343c1.916-.989 3.848-1.947 5.822-2.805 7.932-3.438 16.423-5.751 25.315-6.865 1.92-.236 3.867-.389 5.827-.513 1.947-.108 3.863-.284 5.826-.284 21.252 0 40.771 7.201 56.441 19.175a94.669 94.669 0 0 1 5.826 4.854 91.476 91.476 0 0 1 5.827 5.742c15.46 16.619 24.99 38.82 24.99 63.31a93.414 93.414 0 0 1-3.946 26.731zm4.255-96.326a117.616 117.616 0 0 0-25.299-24.914v-24.181l25.299 6.271v42.824z"/><path d="M421.063 351.489c-1.351-.409-2.753-.693-4.231-.693h-37.51v-37.518c0-8.103-6.58-14.675-14.691-14.675-2.067 0-4.039.437-5.826 1.214-2.328 1.01-4.309 2.637-5.827 4.629-1.867 2.468-3.018 5.506-3.018 8.832v37.518H312.439c-8.111 0-14.68 6.58-14.68 14.684 0 8.11 6.568 14.679 14.68 14.679h37.521v37.521c0 3.326 1.15 6.364 3.018 8.832 1.519 2 3.499 3.619 5.827 4.629a14.544 14.544 0 0 0 5.826 1.21c8.111 0 14.691-6.56 14.691-14.671v-37.521h37.51c1.479 0 2.889-.28 4.231-.689 2.2-.665 4.196-1.791 5.819-3.342 2.837-2.682 4.633-6.448 4.633-10.647 0-4.196-1.796-7.967-4.633-10.648-1.622-1.536-3.618-2.671-5.819-3.344z"/></svg>