<svg xmlns="http://www.w3.org/2000/svg" width="16" height="16" viewBox="0 0 79.292 79.292"><path d="M8.958 51.52c-.896-2.912-1.345-6.049-1.345-9.184 0-13.664 9.185-25.312 21.952-29.121v3.809l16.802-8.512L29.566 0v6.048C13.214 10.304.894 24.864.894 42.336c0 2.463.225 4.928.672 7.168l.672-3.584 6.72 5.6zM63.837 47.711l-1.12 18.816 15.681-10.303-5.15-3.139c1.119-3.357 1.566-6.941 1.566-10.752 0-16.126-10.527-29.791-24.863-34.943l2.688 2.016-8.062 3.36c13.437 3.136 23.518 15.232 23.518 29.567 0 2.465-.448 4.928-.896 7.168l-3.362-1.79zM60.253 62.719c-5.602 6.049-13.439 9.857-22.399 9.857-8.063 0-15.456-3.361-20.832-8.512l3.36-1.793L4.703 51.967l1.119 18.816 5.152-3.137a36.864 36.864 0 0 0 26.88 11.646c9.185 0 17.474-3.358 23.968-8.959l-2.688.896 1.119-8.51z"/><path d="M35.39 21.28v4.928c-5.6 1.121-8.736 4.705-8.736 9.185 0 4.928 3.809 7.616 9.185 9.407 3.808 1.347 5.375 2.466 5.375 4.48s-2.017 3.137-4.927 3.137c-3.36 0-6.272-1.121-8.513-2.24l-1.567 6.05c2.016 1.119 5.376 2.016 8.735 2.237v4.931h5.152v-5.377c5.823-1.119 9.184-4.929 9.184-9.408 0-4.703-2.464-7.394-8.512-9.631-4.479-1.568-6.271-2.688-6.271-4.479 0-1.345 1.119-2.912 4.479-2.912 3.809 0 6.048 1.121 7.393 1.793l1.567-5.824c-1.792-.896-4.032-1.568-7.393-1.793v-4.479l-5.151-.005z"/></svg>