<svg xmlns="http://www.w3.org/2000/svg" preserveAspectRatio="xMidYMid" width="86" height="98"><defs><linearGradient id="a" gradientUnits="userSpaceOnUse" x1="43" y1="98" x2="43"><stop offset="0" stop-color="#3f48f1"/><stop offset="1" stop-color="#b600f2"/></linearGradient></defs><path d="M85.613 69.655L74.639 82.71v13.657c0 .902-.726 1.633-1.622 1.633H1.623A1.628 1.628 0 0 1 0 96.367V11.433C0 10.531.727 9.8 1.623 9.8h24.146l-1.405-7.878A1.628 1.628 0 0 1 25.962 0h22.716a1.632 1.632 0 0 1 1.597 1.922L48.87 9.8h24.147c.896 0 1.622.731 1.622 1.633v55.778l3.601-4.531a1.614 1.614 0 0 1 2.414-.135l4.868 4.9c.596.601.636 1.562.091 2.21zM27.901 3.266L30.813 19.6h13.013l2.912-16.334H27.901zm43.493 9.8H48.288l-1.508 8.456a1.624 1.624 0 0 1-1.597 1.344H29.456a1.625 1.625 0 0 1-1.597-1.344l-1.508-8.456H3.245v81.667h68.149v-8.162l-3.63 4.317a1.616 1.616 0 0 1-1.171.577l-.067.001c-.43 0-.843-.172-1.147-.478l-9.736-9.8v-.001a1.64 1.64 0 0 1 0-2.308l4.868-4.901h.001a1.615 1.615 0 0 1 2.294 0l3.585 3.61 5.003-6.294V13.066zm8.248 53.079L67.793 81.053a1.619 1.619 0 0 1-1.177.611 1.638 1.638 0 0 1-1.237-.476l-3.721-3.745-2.573 2.59 7.342 7.39 15.745-18.731-2.53-2.547zm-16.361-.812H11.358A1.627 1.627 0 0 1 9.736 63.7V27.766c0-.902.726-1.633 1.622-1.633h51.923c.896 0 1.623.731 1.623 1.633V63.7c0 .902-.727 1.633-1.623 1.633zm-34.074-3.267h16.226V53.74c-.003-2.617-2.11-4.738-4.71-4.74h-6.807c-2.6.002-4.707 2.123-4.709 4.74v8.326zm12.98-21.233c0-2.706-2.179-4.9-4.867-4.9-2.689 0-4.868 2.194-4.868 4.9 0 2.706 2.179 4.9 4.868 4.9 2.687-.003 4.865-2.195 4.867-4.9zM61.658 29.4H12.981v32.666h12.981V53.74c.01-3.385 2.137-6.396 5.31-7.517a8.208 8.208 0 0 1 0-10.889 8.076 8.076 0 0 1 11.456-.643c3.34 3.007 3.626 8.17.639 11.532 3.173 1.121 5.3 4.132 5.311 7.517v8.326h12.98V29.4zM34.074 71.866H9.736V68.6h24.338v3.266zM47.055 68.6v3.266H37.32V68.6h9.735zm1.623 13.066H9.736V78.4h38.942v3.266zm-24.339 9.8H9.736V88.2h14.603v3.266zm29.207 0H27.584V88.2h25.962v3.266zM50.3 68.6h6.491v3.266H50.3V68.6zM37.32 16.333c-2.688-.003-4.865-2.195-4.868-4.9 0-2.706 2.179-4.9 4.868-4.9 2.688 0 4.867 2.194 4.867 4.9 0 2.706-2.179 4.9-4.867 4.9zm0-6.533a1.63 1.63 0 0 0-1.623 1.633c0 .902.727 1.633 1.623 1.633s1.622-.731 1.622-1.633S38.216 9.8 37.32 9.8z" fill="url(#a)" fill-rule="evenodd"/></svg>