<svg xmlns="http://www.w3.org/2000/svg" preserveAspectRatio="xMidYMid" width="101" height="101"><defs><linearGradient id="a" gradientUnits="userSpaceOnUse" x1="50.5" y1="101" x2="50.5"><stop offset="0" stop-color="#3f48f1"/><stop offset="1" stop-color="#b600f2"/></linearGradient></defs><path d="M85.85 101c-8.496 0-15.15-3.975-15.15-9.048V57.234c0-4.799 6.513-8.417 15.15-8.417S101 52.435 101 57.234v34.718c0 5.073-6.654 9.048-15.15 9.048zm11.783-43.766c0-2.384-5.039-5.051-11.783-5.051s-11.783 2.667-11.783 5.051v1.052c0 2.687 4.839 5.681 11.783 5.681 6.944 0 11.783-2.994 11.783-5.681v-1.052zm0 6.802a20.257 20.257 0 0 1-11.783 3.297 20.257 20.257 0 0 1-11.783-3.297v2.666c0 2.688 4.839 5.681 11.783 5.681 6.944 0 11.783-2.993 11.783-5.681v-2.666zm0 8.412A20.252 20.252 0 0 1 85.85 75.75a20.243 20.243 0 0 1-11.783-3.302v2.671c0 2.687 4.839 5.681 11.783 5.681 6.944 0 11.783-2.994 11.783-5.681v-2.671zm0 8.421a20.257 20.257 0 0 1-11.783 3.297 20.257 20.257 0 0 1-11.783-3.297v2.666c0 2.688 4.839 5.682 11.783 5.682 6.944 0 11.783-2.994 11.783-5.682v-2.666zm0 8.412a20.245 20.245 0 0 1-11.783 3.302 20.243 20.243 0 0 1-11.783-3.302v2.671c0 2.688 4.839 5.681 11.783 5.681 6.944 0 11.783-2.993 11.783-5.681v-2.671zM95.95 43.767h-3.367v-5.05h-5.05V35.35h5.05V30.3h3.367v5.05H101v3.367h-5.05v5.05zM94.267 15.15H90.9v-5.049h-5.05V6.734h5.05v-5.05h3.367v5.05h5.05v3.367h-5.05v5.049zm-6.734 10.1h-5.05v5.05h-3.366v-5.05h-5.05v-3.366h5.05v-5.05h3.366v5.05h5.05v3.366zM61.835 75.298L29.643 95.689a1.684 1.684 0 0 1-1.715.05l-14.839-8.206H10.1v.001c0 .929-.754 1.683-1.683 1.683H1.683A1.684 1.684 0 0 1 0 87.533v-20.2c0-.93.754-1.683 1.683-1.683h6.735c.929 0 1.682.754 1.682 1.683h8.505c.331 0 .655.098.931.281l4.56 3.028 35.428-3.302h.018a4.269 4.269 0 0 1 4.273 3.158 4.221 4.221 0 0 1-1.98 4.8zM6.733 69.017H3.367V85.85h3.366V69.017zm53.832 2.355a.868.868 0 0 0-.885-.672l-31.12 2.908 2.473 1.642.021.014a5.89 5.89 0 1 1-6.563 9.784l-6.818-4.529 1.863-2.804 6.818 4.528a2.55 2.55 0 0 0 3.526-.709 2.51 2.51 0 0 0-.709-3.479L18.097 70.7H10.1v13.466h3.424c.285 0 .565.073.814.211l14.346 7.933 31.405-19.889a.888.888 0 0 0 .476-1.049zm.43-56.222a5.05 5.05 0 0 1-3.762 8.417h-13.59c.082.557.124 1.12.124 1.684a11.653 11.653 0 0 1-1.61 5.866 11.78 11.78 0 0 1 0 11.89c-3.284 5.619-10.501 7.512-16.119 4.228-5.619-3.283-7.512-10.5-4.228-16.119a11.647 11.647 0 0 1-1.61-5.866c0-.563.042-1.126.124-1.683H1.683c-.93 0-1.683-.754-1.683-1.683v-20.2-.001C0 .753.754 0 1.683 0h55.55a5.048 5.048 0 0 1 3.762 8.417 5.042 5.042 0 0 1 0 6.733zM33.667 45.28a8.418 8.418 0 0 0 0-16.493v1.763a4.274 4.274 0 0 1 3.366 3.959h-3.366c0-.298-.64-.842-1.684-.842-1.043 0-1.683.544-1.683.842 0 .31.463.509 2.065.882 1.746.41 4.668 1.092 4.668 4.168a4.276 4.276 0 0 1-3.366 3.959v1.762zm0-20.03a1.684 1.684 0 0 0-3.367 0c.006.044.015.088.026.131a10.591 10.591 0 0 1 3.315 0c.011-.043.019-.087.026-.131zM30.3 45.28v-1.763a4.276 4.276 0 0 1-3.367-3.959H30.3c0 .298.64.842 1.683.842 1.044 0 1.684-.544 1.684-.842 0-.313-.464-.512-2.068-.887-1.745-.408-4.666-1.092-4.666-4.162A4.276 4.276 0 0 1 30.3 30.55v-1.763a8.43 8.43 0 0 0-6.733 8.247A8.43 8.43 0 0 0 30.3 45.28zm26.933-31.813a1.684 1.684 0 1 0 0-3.366h-20.2V6.734h20.2a1.684 1.684 0 0 0 0-3.367H3.367V20.2H22.47a1.685 1.685 0 0 1 1.587 2.246 8.148 8.148 0 0 0 .093 5.81 11.804 11.804 0 0 1 2.919-1.918 4.918 4.918 0 0 1-.136-1.088 5.05 5.05 0 0 1 10.1 0c-.004.367-.05.732-.135 1.088a11.804 11.804 0 0 1 2.919 1.918 8.148 8.148 0 0 0 .093-5.81 1.685 1.685 0 0 1 1.587-2.246h15.736a1.683 1.683 0 1 0 0-3.366h-20.2v-3.367h20.2z" fill="url(#a)" fill-rule="evenodd"/></svg>