<svg xmlns="http://www.w3.org/2000/svg" viewBox="0 0 492.308 492.308" fill="#fff"><path d="M379.75 124.774c-3.01-.226-6.019-.332-8.289-.308-.913-.077-96.471-7.106-134.731 118.827-33.442 110.082-110.913 105.197-115.01 104.889-1.529 0-3.067-.034-4.606-.106-54.625-2.423-97.423-47.192-97.423-101.923 0-56.26 45.769-102.034 102.029-102.034 34.875 0 66.981 17.538 85.885 46.918l16.558-10.654c-22.538-35.038-60.837-55.957-102.442-55.957C54.606 124.428 0 179.034 0 246.154c0 65.293 51.058 118.707 116.231 121.596 1.817.082 3.635.111 4.615.086.096.01 1.25.096 3.269.096 17.183 0 97.221-6.231 131.462-118.918 33.442-110.091 110.933-105.173 115.01-104.894 2.587 0 5.164.101 7.702.288 52.894 3.942 94.327 48.63 94.327 101.745 0 56.26-45.769 102.029-102.029 102.029-34.875 0-66.971-17.538-85.875-46.918l-16.558 10.654c22.538 35.038 60.827 55.957 102.433 55.957 67.115 0 121.721-54.606 121.721-121.721 0-63.365-49.443-116.682-112.558-121.38z"/></svg>