<svg data-name="Capa 1" xmlns="http://www.w3.org/2000/svg" viewBox="0 0 44.8 45.25"><path d="M30.66 3.61l-5.42-1.74-4.7-1.54-.72-.24a1.31 1.31 0 0 0-1 .08L.89 9.21a1.8 1.8 0 0 0-.61 2.58l11.28 22.3 5.17 10.22.14.29a1.59 1.59 0 0 0 1.73.61h.11a1.69 1.69 0 0 0 .31-.12l24.79-12.56a1.69 1.69 0 0 0 .28-.18l.08-.07a1.59 1.59 0 0 0 .54-1.75l-.14-.29-5.22-10.23-7.79-15.46a1.6 1.6 0 0 0-.9-.94zm-1.92.83l-5.21 2.64-2.65-5.21 4 1.3zm-27.22 6L19.19 1.5a1.07 1.07 0 0 0 .09.26l3.63 7.18 7.17-3.63a1.07 1.07 0 0 0 .27-.16l4 7.85-7.61-2.28a.68.68 0 0 0-.53.06.7.7 0 0 0-.33.42l-2.76 9.67-4.42-1.45a.69.69 0 0 0-.85.39l-5.41 12.93L1.52 11.17c-.07-.14-.27-.59 0-.72zm16.89 33.43a.4.4 0 0 1-.14 0 .32.32 0 0 1-.29-.17l-4.55-9 25.34-12.83 4.58 9a.32.32 0 0 1 0 .34.38.38 0 0 1-.11.09zm-4.54-10.9l5-11.95 9.6 3.15a.694.694 0 1 0 .43-1.32l-4.47-1.47 2.53-9.07 8.19 2.45 3 5.92z" fill="#ededed"/><path d="M23.4 37.75a.77.77 0 0 1 0 .73 1.45 1.45 0 0 1-.63.53 2.08 2.08 0 0 1-.4.15l-.44.1-.4.06a1.41 1.41 0 0 1-.3 0l-.08.9a2.09 2.09 0 0 0 .53 0l.6-.08a4.14 4.14 0 0 0 .58-.14 3.29 3.29 0 0 0 .49-.13 4 4 0 0 0 .69-.44 1.92 1.92 0 0 0 .46-.56 1.48 1.48 0 0 0 .19-.7 1.74 1.74 0 0 0-.21-.82l-2.46-4.85-1 .52zM27.13 30.67a2.38 2.38 0 0 0-.89 0 2.82 2.82 0 0 0-.89.2l-1.75 1 3.15 6.23 1-.51-1.14-2.25.74-.47a3 3 0 0 0 .82-.6 2.26 2.26 0 0 0 .49-.76 2 2 0 0 0 .12-.87 2.47 2.47 0 0 0-.27-.94 1.91 1.91 0 0 0-.6-.71 2.24 2.24 0 0 0-.78-.32zm.66 2.25a1.14 1.14 0 0 1 0 .53 1 1 0 0 1-.23.38 1.25 1.25 0 0 1-.34.25l-.93.47-1.25-2.47.76-.38a1.53 1.53 0 0 1 .69-.19 1.15 1.15 0 0 1 .52.12 1.13 1.13 0 0 1 .34.24 1.94 1.94 0 0 1 .22.33 2.13 2.13 0 0 1 .22.73zM33.07 31.69l1.06-.53.78 1.54a.47.47 0 0 1-.14.25 2.28 2.28 0 0 1-.26.23l-.29.2-.24.14a1.38 1.38 0 0 1-.65.15 1.61 1.61 0 0 1-.71-.19 2.54 2.54 0 0 1-.73-.61 5.14 5.14 0 0 1-.69-1 4.8 4.8 0 0 1-.42-1.17 2.35 2.35 0 0 1 0-.91 1.43 1.43 0 0 1 .3-.66 1.71 1.71 0 0 1 .54-.42 1.56 1.56 0 0 1 .6-.16 1.36 1.36 0 0 1 .64.12l.38-1a2.58 2.58 0 0 0-1-.11 2.92 2.92 0 0 0-1 .31 2.82 2.82 0 0 0-.92.72 2.62 2.62 0 0 0-.52 1 3.18 3.18 0 0 0 0 1.27 5.52 5.52 0 0 0 1.4 2.77 3.16 3.16 0 0 0 1.05.72 2.58 2.58 0 0 0 1.12.19 2.87 2.87 0 0 0 .98-.29 4.22 4.22 0 0 0 .54-.33 3 3 0 0 0 .85-.94 2.07 2.07 0 0 0 .23-.62l-1.22-2.41-2.06 1zM14.53 20.66a3.86 3.86 0 1 0-5.18-1.7 3.86 3.86 0 0 0 5.18 1.7zm-2.86-5.65a2.47 2.47 0 1 1-1.09 3.32 2.48 2.48 0 0 1 1.1-3.32z" fill="#ededed"/></svg>