<svg xmlns="http://www.w3.org/2000/svg" viewBox="0 0 386.187 386.187" fill="#fff"><path d="M48.626 131.93a8.986 8.986 0 0 0 10.686 8.082c6.549 36.481 38.521 64.251 76.858 64.251s70.31-27.77 76.858-64.251a8.995 8.995 0 0 0 10.685-8.081l1.171-13.919c.416-4.953-3.262-9.307-8.214-9.724a8.965 8.965 0 0 0-4.319.703c-3.458-15.338-11.44-28.979-22.469-39.443a9.029 9.029 0 0 0-1.183-1.099c-13.88-12.643-32.32-20.358-52.529-20.358-37.154 0-68.331 26.084-76.181 60.901a9.002 9.002 0 0 0-12.533 9.02l1.17 13.918zm87.544-65.84a59.727 59.727 0 0 1 32.381 9.491c-9.601 6.155-20.789 9.466-32.381 9.466a60.281 60.281 0 0 1-15.876-2.119c-4.79-1.311-9.743 1.517-11.053 6.313-1.309 4.795 1.518 9.743 6.313 11.053a78.305 78.305 0 0 0 20.616 2.754c16.78 0 32.907-5.337 46.26-15.176 8.633 10.406 13.826 23.759 13.826 38.305 0 33.132-26.954 60.087-60.086 60.087s-60.086-26.955-60.086-60.087S103.039 66.09 136.17 66.09zm8.389 57.91a9 9 0 0 1 9-9h10.001c4.971 0 9 4.029 9 9s-4.029 9-9 9h-10.001a9 9 0 0 1-9-9zm-10.888 27h4.998c4.971 0 9 4.029 9 9s-4.029 9-9 9h-4.998a9 9 0 0 1 0-18zm-33.408-27a9 9 0 0 1 9-9h10c4.971 0 9 4.029 9 9s-4.029 9-9 9h-10a9 9 0 0 1-9-9zm191.624-31.222c.04 4.971-3.956 9.222-8.927 9.222h-.075c-4.937 0-8.958-4.13-8.998-9.076-.079-9.746 7.034-15.867 12.749-20.666 4.485-3.767 7.426-6.417 7.426-8.842 0-4.91-3.993-8.904-8.902-8.904-4.913 0-8.906 3.994-8.906 8.904 0 4.971-4.029 9-9 9s-9-4.029-9-9c0-14.835 12.068-26.904 26.902-26.904 14.838 0 26.906 12.069 26.906 26.904 0 10.997-8.006 17.719-13.852 22.627-2.212 1.859-6.334 5.468-6.323 6.735zm-31.263 283.514a8.907 8.907 0 0 1-1.354 5.847c-.002.003-.004-.014-.007-.01-1.071 1.676-2.695 2.961-4.69 3.635-.291.099-.587.103-.89.171-.765.176-1.533.064-2.278.064h-75.252c-4.971 0-9-4.029-9-9s4.029-9 9-9h64.078l-23.773-97.646c-3.654-15.023-22.957-27.718-43.359-29.327-6.951 11.05-21.069 18.31-36.688 18.31s-29.736-7.32-36.688-18.37c-20.402 1.609-39.705 14.374-43.357 29.397L32.591 368h64.076c4.971 0 9 4.029 9 9s-4.029 9-9 9h-75.25c-.09 0-.179.164-.27.164-.663 0-1.336.085-2.01-.068a8.964 8.964 0 0 1-5.559-3.891 8.937 8.937 0 0 1-1.386-5.85c.05-.466.136-.905.254-1.346l26.428-108.676C44.791 241.999 73.396 223 103.997 223h1.237c3.845 0 7.265 2.395 8.513 6.032 2.119 6.173 10.584 12.376 22.664 12.376s20.545-6.218 22.664-12.391c1.248-3.637 4.668-6.017 8.513-6.017h1.236c30.6 0 59.205 18.999 65.124 43.332l26.428 108.65c.114.427.197.861.248 1.31zm31.367-257.552c0 4.971-4.029 9.035-9 9.035s-8.943-3.995-8.943-8.966v-.069c0-4.971 3.972-9 8.943-9s9 4.03 9 9zm82.057-79.688v86.867c0 21.275-17.757 39.081-39.032 39.081H251.8l-26.912 35.664c-1.768 2.358-4.472 3.37-7.208 3.37-1.879 0-3.773-.555-5.392-1.769a8.925 8.925 0 0 1-1.803-12.537l29.612-39.375c1.7-2.268 4.368-3.353 7.201-3.353h87.717c11.35 0 21.032-9.731 21.032-21.081V39.052c0-11.35-9.683-21.052-21.032-21.052h-104.82c-11.351 0-20.585 9.41-20.585 20.759 0 4.971-4.029 9.175-9 9.175s-9-4.146-9-9.117C191.611 17.542 208.92 0 230.196 0h104.82c21.275 0 39.032 17.776 39.032 39.052z"/></svg>