<svg xmlns="http://www.w3.org/2000/svg" viewBox="0 0 64 64" fill="#fff"><path d="M54.836 41.196a3.272 3.272 0 0 0-2.664-.719L32.34 43.926l-5.633-5.633A.996.996 0 0 0 26 38H16a1 1 0 0 0-1-1H4v2h6v14H4v2h11a1 1 0 0 0 1-1h2.764l10.691 5.346a3.26 3.26 0 0 0 3.109-.1L54.38 46.52A3.282 3.282 0 0 0 56 43.697c0-.967-.425-1.879-1.164-2.501zM14 53h-2V39h2v14zm39.371-8.207L31.556 57.518c-.37.216-.821.231-1.206.039l-10.902-5.451A.997.997 0 0 0 19 52h-3V40h9.586l7.879 7.878a1.83 1.83 0 0 1-2.586 2.586l-5.172-5.171-1.414 1.414 5.172 5.171A3.797 3.797 0 0 0 32.172 53 3.833 3.833 0 0 0 36 49.171a3.806 3.806 0 0 0-1.121-2.707l-.809-.809 18.444-3.208a1.268 1.268 0 0 1 .857 2.346zM28.26 25.329l10-11 1.481 1.347-10 10.999zM30 20.5c1.654 0 3-1.346 3-3s-1.346-3-3-3-3 1.346-3 3 1.346 3 3 3zm0-4a1.001 1.001 0 1 1-1 1c0-.551.448-1 1-1zM35 23.5c0 1.654 1.346 3 3 3s3-1.346 3-3-1.346-3-3-3-3 1.346-3 3zm4 0a1.001 1.001 0 0 1-2 0 1.001 1.001 0 0 1 2 0z"/><path d="M33.274 41.688a1.004 1.004 0 0 0 1.452 0L50.584 24.98c4.542-4.786 4.542-12.573 0-17.358C48.367 5.286 45.416 4 42.274 4 39.148 4 36.212 5.272 34 7.584 31.788 5.272 28.852 4 25.726 4c-3.142 0-6.093 1.286-8.31 3.622-4.542 4.786-4.542 12.573 0 17.358l15.858 16.708zM18.867 8.999C20.702 7.065 23.138 6 25.726 6c2.589 0 5.024 1.065 6.859 2.999l.689.727c.379.397 1.072.397 1.451 0l.689-.727C37.25 7.065 39.686 6 42.274 6s5.023 1.065 6.858 2.999c3.822 4.026 3.822 10.578 0 14.604L34 39.547 18.867 23.603c-3.822-4.026-3.822-10.578 0-14.604z"/><path d="M29 28h2v2h-2zM33 28h2v2h-2zM37 28h2v2h-2z"/></svg>