<svg data-name="Capa 1" xmlns="http://www.w3.org/2000/svg" viewBox="0 0 384 464"><path data-name="SVGCleanerId 0" d="M0 80v106.94A295.9 295.9 0 0 0 192 464a295.9 295.9 0 0 0 192-277.06V80a265.16 265.16 0 0 1-169.75-61.46L192 0l-22.25 18.54A265.16 265.16 0 0 1 0 80z" fill="#4398d1"/><path data-name="SVGCleanerId 0" d="M0 80v106.94A295.9 295.9 0 0 0 192 464a295.9 295.9 0 0 0 192-277.06V80a265.16 265.16 0 0 1-169.75-61.46L192 0l-22.25 18.54A265.16 265.16 0 0 1 0 80z" fill="#2f2fc1"/><path d="M62.9 369.1A295.35 295.35 0 0 0 192 464a295.9 295.9 0 0 0 192-277.06V80a265.55 265.55 0 0 1-30.22-1.78z" fill="#2626aa"/><path d="M192 429.52A265.22 265.22 0 0 1 32 186.94v-76.68a297.82 297.82 0 0 0 158.23-67.13l1.77-1.48 1.77 1.48A297.82 297.82 0 0 0 352 110.26v76.68a265.22 265.22 0 0 1-160 242.58z" fill="#4542cc"/><path d="M192 128A104 104 0 1 1 88 232a104 104 0 0 1 104-104" fill="#f9a012"/><path d="M240 208a32 32 0 0 0-24-30.86V160h-16v16h-16v-16h-16v16h-16a8 8 0 0 0-8 8v96a8 8 0 0 0 8 8h16v16h16v-16h16v16h16v-17.14A31.89 31.89 0 0 0 229.14 232 31.92 31.92 0 0 0 240 208zm-32 64h-48v-32h48a16 16 0 0 1 0 32zm0-48h-48v-32h48a16 16 0 0 1 0 32z" fill="#fff"/><path d="M184 72h16v16h-16V72zM184 376h16v16h-16v-16zM56 128h16v16H56v-16zM56 224h16v16H56v-16zM104 328h16v16h-16v-16zM312 128h16v16h-16v-16zM312 224h16v16h-16v-16zM264 328h16v16h-16v-16z" fill="#3e8cc7"/></svg>