<svg data-name="Capa 1" xmlns="http://www.w3.org/2000/svg" viewBox="0 0 512 512"><path d="M512 114.76v273.65H0V114.76a35.3 35.3 0 0 1 35.31-35.31h441.38A35.3 35.3 0 0 1 512 114.76z" fill="#35495e"/><path fill="#95a5a5" d="M185.38 414.9h141.24v88.28H185.38z"/><path d="M512 370.76v35.31a35.3 35.3 0 0 1-35.31 35.31H35.31A35.3 35.3 0 0 1 0 406.07v-35.31h512z" fill="#bdc3c7"/><circle cx="370.76" cy="229.52" r="105.93" fill="#eaad15"/><path d="M247.17 105.93a105.93 105.93 0 0 1-211.86 0 104.67 104.67 0 0 1 3.35-26.48 105.94 105.94 0 0 1 205.15 0 104.67 104.67 0 0 1 3.36 26.48z" fill="#13d373"/><rect x="114.76" y="476.69" width="282.48" height="35.31" rx="8.83" ry="8.83" fill="#bdc3c7"/><path d="M408.34 226.94a28.58 28.58 0 0 0 6.56-18V206a29.74 29.74 0 0 0-26.48-29.06v-9.21a8.83 8.83 0 0 0-17.66 0v8.83H353.1v-8.83a8.83 8.83 0 0 0-17.66 0v8.83h-8.83a8.83 8.83 0 0 0 0 17.66h57.85A12.32 12.32 0 0 1 397.24 206v2.9a12.32 12.32 0 0 1-12.77 11.79H353.1a8.83 8.83 0 0 0-17.66 0V256a8.83 8.83 0 0 0 17.66 0v-17.66h34.76a17.58 17.58 0 0 1 18.21 16.84v1.64a17.58 17.58 0 0 1-18.21 16.84h-61.24a8.83 8.83 0 0 0 0 17.66h8.83v8.83a8.83 8.83 0 1 0 17.66 0v-8.83h17.66v8.83a8.83 8.83 0 0 0 17.66 0v-8.88a35.18 35.18 0 0 0 35.31-34.44v-1.64a34.08 34.08 0 0 0-15.4-28.25zM255.94 301.08a8.8 8.8 0 0 0-2.52-7.18l-25.22-25.22a8.83 8.83 0 1 0-12.48 12.48l10.16 10.15h-3.91a54.29 54.29 0 0 1-54.22-54.23 8.83 8.83 0 1 0-17.66 0A72 72 0 0 0 221.95 309h5.17l-11.42 11.41a8.83 8.83 0 1 0 12.48 12.48l25.22-25.22a8.73 8.73 0 0 0 2.54-6.59zM150.07 98V65.24a17.81 17.81 0 0 1 14.12 15.27 8.83 8.83 0 1 0 17.66 0 36.19 36.19 0 0 0-31.78-33.38v-4.76a8.83 8.83 0 0 0-17.66 0v4.76a36.19 36.19 0 0 0-31.78 33.38 36.19 36.19 0 0 0 31.78 33.38v32.73a17.81 17.81 0 0 1-14.12-15.27 8.83 8.83 0 0 0-17.66 0 36.19 36.19 0 0 0 31.78 33.38v4.76a8.83 8.83 0 0 0 17.66 0v-4.76a36.19 36.19 0 0 0 31.78-33.38A36.19 36.19 0 0 0 150.07 98zm-31.78-17.49a17.81 17.81 0 0 1 14.12-15.27v30.54a17.81 17.81 0 0 1-14.12-15.27zm31.78 66.11v-30.53a17.81 17.81 0 0 1 14.12 15.27 17.81 17.81 0 0 1-14.12 15.26z" fill="#fff"/></svg>