<svg data-name="Layer 1" xmlns="http://www.w3.org/2000/svg" viewBox="0 0 52.75 43.72"><g opacity=".5"><path d="M50.7 32.44L10.99 43.63a2.57 2.57 0 0 1-3.18-1.78L.09 14.46a2.57 2.57 0 0 1 1.78-3.18L41.59.06a2.57 2.57 0 0 1 3.17 1.78l7.72 27.42a2.57 2.57 0 0 1-1.78 3.18" fill="#1befe7"/><path fill="#5e8074" d="M.486 15.828L45.146 3.24l1.736 6.16-44.66 12.587z"/><path d="M15.29 24.13l-6.93 2a.8.8 0 1 1-.43-1.54l6.93-2a.8.8 0 1 1 .43 1.54M25.3 21.31l-6.93 2a.8.8 0 1 1-.43-1.54l6.93-2a.8.8 0 1 1 .43 1.54M10.22 29.71l-.77.22a.8.8 0 1 1-.43-1.54l.77-.22a.8.8 0 0 1 .43 1.54M14.84 28.41l-1.54.43a.8.8 0 0 1-.43-1.54l1.54-.43a.8.8 0 0 1 .43 1.54M18.69 27.33l-.77.22a.8.8 0 0 1-.43-1.54l.77-.22a.8.8 0 0 1 .43 1.54M23.31 26.06l-1.54.43a.8.8 0 0 1-.43-1.54l1.54-.43a.8.8 0 0 1 .43 1.54M26.39 25.16a.86.86 0 0 1-.61-.1.8.8 0 1 1 1.16-.92.85.85 0 0 1-.07.61.86.86 0 0 1-.49.38" fill="#fff"/><path d="M41.55 25.87a4.8 4.8 0 1 1-5.92-3.32 4.8 4.8 0 0 1 5.92 3.32" fill="#14db43"/><path d="M46.94 24.35a4.8 4.8 0 1 1-5.92-3.29 4.8 4.8 0 0 1 5.92 3.32" fill="#a92347"/></g><path d="M46.09 41.54l-40.9-5.4a2.57 2.57 0 0 1-2.21-2.89L6.74 5.06a2.57 2.57 0 0 1 2.89-2.21l40.9 5.4a2.57 2.57 0 0 1 2.21 2.89l-3.73 28.18a2.57 2.57 0 0 1-2.92 2.22" fill="#f0c41b"/><path fill="#806f5e" d="M5.705 12.799l.838-6.345 46 6.072-.837 6.345z"/><path d="M16.87 19.92l-7.14-.94a.802.802 0 1 1 .21-1.59l7.15.94a.802.802 0 1 1-.21 1.59M27.18 21.28l-7.09-.94a.802.802 0 1 1 .21-1.59l7.14.94a.802.802 0 1 1-.21 1.59M10.01 23.06l-.79-.1a.802.802 0 1 1 .21-1.59l.79.1a.802.802 0 0 1-.21 1.59M14.76 23.68l-1.58-.21a.802.802 0 0 1 .21-1.59l1.58.18a.802.802 0 0 1-.21 1.59M18.73 24.2l-.79-.14a.802.802 0 0 1 .21-1.59l.79.1a.802.802 0 0 1-.21 1.59M23.49 24.83l-1.58-.21a.8.8 0 0 1 .18-1.56l1.58.21a.802.802 0 0 1-.21 1.59M26.66 25.25a.86.86 0 0 1-.53-.3.8.8 0 1 1 1.43-.39.85.85 0 0 1-.3.54.86.86 0 0 1-.6.15" fill="#f9eab0"/><path d="M40.31 31.89a4.8 4.8 0 1 1-4.13-5.39 4.8 4.8 0 0 1 4.13 5.39" fill="#db2215"/><path d="M45.86 32.63a4.8 4.8 0 1 1-4.13-5.39 4.8 4.8 0 0 1 4.13 5.39" fill="#245ea9"/></svg>