<svg data-name="Isolation Mode" xmlns="http://www.w3.org/2000/svg" viewBox="0 0 256 256"><path d="M256 192v64H128l-16-80zm0 0" fill="#366796"/><path d="M128 176v80H0v-64zm0 0" fill="#61a2b3"/><path d="M232 112l24 80H128l-16-96zm0 0" fill="#121149"/><path d="M128 96v96H0l24-80zm0 0" fill="#273b7a"/><path fill="#61a2b3" d="M120 128h16v16h-16zM120 160h16v16h-16zM152 128h16v16h-16zM152 160h16v16h-16zM184 160h16v16h-16zM184 128h16v16h-16z"/><path fill="#c2fbff" d="M56 128h16v16H56zM56 160h16v16H56zM88 160h16v16H88zM88 128h16v16H88z"/><path d="M216 48H40a16 16 0 0 0-16 16v48h208V64a16 16 0 0 0-16-16zm0 0" fill="#366796"/><path d="M120 80L80 64 40 80v16h80V80zm0 0" fill="#c61010"/><path d="M120 0v80H80L61.82 50.91 79.99 9.14 93.32 0l13.34 9.14zm0 0" fill="#c61010"/><path d="M79.99 9.14V80h-40V0l13.34 9.14L66.66 0zm0 0" fill="#ff3131"/><path fill="#121149" d="M136 64h80v32h-80zM240 208v32H128l-16-16 16-16h112zm0 0"/><path fill="#273b7a" d="M16 208h112v32H16z"/></svg>