<svg data-name="Capa 1" xmlns="http://www.w3.org/2000/svg" viewBox="0 0 512 360"><path d="M467 0H45A44.94 44.94 0 0 0 0 45v270a44.94 44.94 0 0 0 45 45h422a44.94 44.94 0 0 0 45-45V45a44.94 44.94 0 0 0-45-45z" fill="#e02b2b"/><path d="M512 45v270a44.94 44.94 0 0 1-45 45H165V0h302a44.94 44.94 0 0 1 45 45z" fill="#ce2828"/><path d="M437 240H315a15 15 0 0 1 0-30h122a15 15 0 0 1 0 30zM437 300H315a15 15 0 0 1 0-30h122a15 15 0 0 1 0 30z" fill="#fff"/><path d="M512 120H255a15 15 0 0 0 0 30h257v-30z" fill="#fe9923"/><path d="M75 120H0v30h75a15 15 0 0 0 0-30zM150 0h30v360h-30z" fill="#fea832"/><path fill="#fe9923" d="M165 0h15v360h-15z"/><path d="M245.1 93.3a47.3 47.3 0 0 0-48.3 2.4L165 117l-31.8-21.3a47.2 47.2 0 1 0-48.3 81 48.48 48.48 0 0 0 22.2 5.4 46.37 46.37 0 0 0 9.3-1.2l-24 35.7a15.143 15.143 0 1 0 25.2 16.8L165 162l47.4 71.4A15.65 15.65 0 0 0 225 240a17 17 0 0 0 8.4-2.4 15.36 15.36 0 0 0 4.2-21l-24-35.7a46.29 46.29 0 0 0 9.3 1.2 48.48 48.48 0 0 0 22.2-5.4 47.37 47.37 0 0 0 0-83.4zm-128.4 56.1a17.76 17.76 0 0 1-17.7.6 17 17 0 0 1 0-30 16.33 16.33 0 0 1 8.1-2.1 18.61 18.61 0 0 1 9.6 2.7L138 135zm114.3.6a17.76 17.76 0 0 1-17.7-.6L192 135l21.3-14.4a17.76 17.76 0 0 1 17.7-.6 17 17 0 0 1 0 30z" fill="#fedb41"/><path d="M245.1 93.3a47.3 47.3 0 0 0-48.3 2.4L165 117v45l47.4 71.4A15.65 15.65 0 0 0 225 240a17 17 0 0 0 8.4-2.4 15.36 15.36 0 0 0 4.2-21l-24-35.7a46.29 46.29 0 0 0 9.3 1.2 48.48 48.48 0 0 0 22.2-5.4 47.37 47.37 0 0 0 0-83.4zM231 150a17.76 17.76 0 0 1-17.7-.6L192 135l21.3-14.4a17.76 17.76 0 0 1 17.7-.6 17 17 0 0 1 0 30z" fill="#fcbf29"/></svg>