<svg xmlns="http://www.w3.org/2000/svg" preserveAspectRatio="xMidYMid" width="102.999" height="102.999" viewBox="0 0 95 95"><defs><linearGradient id="a" gradientUnits="userSpaceOnUse" x1="47.5" y1="95" x2="47.5"><stop offset="0" stop-color="#3f48f1"/><stop offset="1" stop-color="#b600f2"/></linearGradient></defs><path d="M93.416 44.332H53.833h-.001a1.582 1.582 0 0 1-1.582-1.583V1.583v-.001C52.25.708 52.959 0 53.833 0H93.417C94.291 0 95 .709 95 1.583V42.75c0 .874-.709 1.582-1.584 1.582zM60.166 3.167h-4.75v11.874a2.375 2.375 0 0 0 4.75 0V3.167zm7.917 0h-4.75v11.874a2.375 2.375 0 0 0 4.75 0V3.167zm7.917 0h-4.75v11.874a2.375 2.375 0 1 0 4.75 0V3.167zm7.916 0h-4.75v11.874a2.375 2.375 0 0 0 4.75 0V3.167zm7.917 0h-4.75v11.874a2.375 2.375 0 1 0 4.75 0V3.167zm0 16.86a5.456 5.456 0 0 1-6.333-1.12l-.121.121a5.514 5.514 0 0 1-7.796-.121c-.039.041-.08.081-.121.121a5.514 5.514 0 0 1-7.796-.121 5.514 5.514 0 0 1-7.916 0 5.457 5.457 0 0 1-6.334 1.12v6.889h36.417v-6.889zm0 10.056H55.416v11.083h36.417V30.083zM48.285 12.457l-11.083 6.334a1.584 1.584 0 0 1-2.369-1.375v-4.75h-13.15a5.857 5.857 0 0 0-5.85 5.849v14.734h-3.166V18.515A9.025 9.025 0 0 1 21.683 9.5h13.15V4.75a1.582 1.582 0 0 1 2.369-1.375l11.083 6.334a1.58 1.58 0 0 1 0 2.748zM38 7.478v7.21l6.308-3.605L38 7.478zm-9.5 46.354v32.656c0 4.772-6.259 8.51-14.25 8.51S0 91.26 0 86.488V53.832c0-4.513 6.126-7.916 14.25-7.916 8.124 0 14.25 3.403 14.25 7.916zM3.167 86.488c0 2.527 4.552 5.343 11.083 5.343 6.531 0 11.083-2.816 11.083-5.343v-2.512a19.044 19.044 0 0 1-11.083 3.105 19.044 19.044 0 0 1-11.083-3.105v2.512zm0-7.917c0 2.528 4.552 5.344 11.083 5.344 6.531 0 11.083-2.816 11.083-5.344v-2.509a19.052 19.052 0 0 1-11.083 3.103 19.052 19.052 0 0 1-11.083-3.103v2.509zm0-7.916c0 2.527 4.552 5.343 11.083 5.343 6.531 0 11.083-2.816 11.083-5.343v-2.512a19.044 19.044 0 0 1-11.083 3.105 19.044 19.044 0 0 1-11.083-3.105v2.512zm0-7.917c0 2.528 4.552 5.344 11.083 5.344 6.531 0 11.083-2.816 11.083-5.344v-2.509a19.052 19.052 0 0 1-11.083 3.103 19.052 19.052 0 0 1-11.083-3.103v2.509zm0-8.906v.99c0 2.527 4.552 5.343 11.083 5.343 6.531 0 11.083-2.816 11.083-5.343v-.99c0-2.242-4.739-4.75-11.083-4.75S3.167 51.59 3.167 53.832zm36.151 26.737a4.983 4.983 0 0 1-.526-2.196c0-4.513 6.126-7.916 14.25-7.916 8.123 0 14.249 3.403 14.249 7.916 0 2.789-2.343 5.151-6.048 6.552.329.671.502 1.408.507 2.156 0 4.514-6.126 7.917-14.25 7.917-8.124 0-14.25-3.403-14.25-7.917 0-2.695 2.284-5.074 6.068-6.512zm24.807-2.196c0-2.242-4.739-4.75-11.083-4.75-6.345 0-11.084 2.508-11.084 4.75s4.739 4.75 11.084 4.75c6.344 0 11.083-2.508 11.083-4.75zM47.5 91.831c6.344 0 11.083-2.508 11.083-4.75a2.138 2.138 0 0 0-.498-1.274 26.036 26.036 0 0 1-5.043.483 19.508 19.508 0 0 1-11.494-3.135c-3.05.901-5.131 2.459-5.131 3.926 0 2.242 4.739 4.75 11.083 4.75zm21.381-6.124l11.083-6.333a1.58 1.58 0 0 1 2.369 1.374v4.59a7.93 7.93 0 0 0 6.333-7.757V52.249h3.167v25.332a11.091 11.091 0 0 1-9.5 10.957v4.876a1.584 1.584 0 0 1-2.369 1.375l-11.083-6.333a1.582 1.582 0 0 1 0-2.749zm10.285 4.979v-7.21l-6.308 3.605 6.308 3.605z" fill="url(#a)" fill-rule="evenodd"/></svg>