<svg data-name="Capa 1" xmlns="http://www.w3.org/2000/svg" viewBox="0 0 393.56 393.55"><path d="M92.67 300.83a32.09 32.09 0 0 1 0 45.29c-12.49 12.48-78 57.75-90.49 45.27s32.72-78 45.18-90.55a32.1 32.1 0 0 1 45.31-.01z" fill="#fc6e51"/><path d="M228.26 244.44a47.85 47.85 0 0 1 0 67.84l-17 17-33.9-34z" fill="#da4453"/><path d="M98.26 238.83l56.49 56.49-5.69 5.64a15.93 15.93 0 0 1-22.52 0l-34-33.91a16 16 0 0 1 0-22.65l.17.09z" fill="#656d78"/><path d="M132.12 272.7l-5.69 5.68a15.93 15.93 0 0 1-22.56 0l22.67 22.58a15.93 15.93 0 0 0 22.56 0l5.69-5.68z" fill="#434a54"/><path d="M149.13 165.32l-50.87 50.87-.08-.08-33.92-33.92 17-17a47.84 47.84 0 0 1 67.84 0z" fill="#ed5565"/><path d="M177.38 295.32l-11.28 11.36-11.36-11.36-56.49-56.49-11.36-11.36 11.36-11.28 50.87-50.87 24.24-24.36a111.91 111.91 0 0 0 79.18 79.16v.08l-24.3 24.24z" fill="#e6e9ed"/><path d="M177.38 295.32l50.87-50.88 24.29-24.24v-.08a110.28 110.28 0 0 1-31.34-13.83l-15.53 15.53-50.93 50.88-11.26 11.36 11.26 11.26 11.36 11.36z" fill="#ccd1d9"/><path d="M360.72 32.76a112 112 0 1 1-158.38 0 112 112 0 0 1 158.38 0z" fill="#ffce54"/><path d="M360.72 32.76a112.91 112.91 0 0 0-12.18-10.37 111.91 111.91 0 0 1-118.69 175.1 110.31 110.31 0 0 1-38-18.47 112.16 112.16 0 0 0 10.49 12.14 112 112 0 1 0 158.38-158.4zM304.26 55.48l.02.01-.02-.01z" fill="#f6bb42"/><path d="M332.54 117.71a32 32 0 0 0 0-45.25 8 8 0 0 0-11.31-11.31l-5.69-5.66a8 8 0 1 0-11.31-11.31l-5.66-5.66a8 8 0 1 0-11.31 11.31l-67.88 67.88a8 8 0 1 0-11.31 11.31l5.66 5.66a8 8 0 1 0 11.34 11.28l5.66 5.66a8.008 8.008 0 1 0 11.31 11.34l2.83 2.83a8 8 0 0 0 2.83 1.8 39.93 39.93 0 0 0 61.84-40.54h.35a31.92 31.92 0 0 0 22.65-9.34zm-38.22 17a24 24 0 0 1-41 17l-22.62-22.63 33.94-33.94 22.62 22.62a23.86 23.86 0 0 1 7.06 16.93zM275.98 83.8l22.62-22.63 17 17 5.66 5.66a16 16 0 0 1-22.62 22.62z" fill="#edab37"/></svg>