<svg data-name="Capa 1" xmlns="http://www.w3.org/2000/svg" viewBox="0 0 45 58"><path d="M44.5 12.19l-.77-.77-10.15-10.1-.77-.77A1.89 1.89 0 0 0 31.5 0h-29C1.28 0 0 .92 0 2.93V56a2.29 2.29 0 0 0 1.84 1.91h.15a2.44 2.44 0 0 0 .51.09h40a2.44 2.44 0 0 0 .47 0h.15A2.29 2.29 0 0 0 45 56V14a2.3 2.3 0 0 0-.5-1.81zm-3-.19H33V3.57zM5 2a1 1 0 0 0 2 0h2a1 1 0 0 0 2 0h2a1 1 0 0 0 2 0h2a1 1 0 0 0 2 0h2a1 1 0 0 0 2 0h2a1 1 0 0 0 2 0h2a1 1 0 0 0 2 0h.06a1.54 1.54 0 0 0-.06.39V14h2a1 1 0 0 0 2 0h2a1 1 0 0 0 2 0h2a1 1 0 0 0 2 0v-.06 12.73l-.16-.16A1 1 0 0 0 43 26a1 1 0 0 0-1-1 1 1 0 0 0-.56.19l-.65-.61A1 1 0 0 0 41 24a1 1 0 0 0-1-1 1 1 0 0 0-.62.23l-.63-.6A1 1 0 0 0 39 22a1 1 0 0 0-1.68-.73l-.61-.58a1 1 0 1 0-1.44-1.37l-.58-.55A1 1 0 0 0 35 18a1 1 0 0 0-2 0 1 1 0 0 0 .36.75 1 1 0 0 0-.1.07l-.5.55A1 1 0 0 0 32 19a1 1 0 0 0-1 1 1 1 0 0 0 .45.81l-.61.67A1 1 0 0 0 30 21a1 1 0 0 0-.44 1.88l-.65.71a1 1 0 1 0-1.23 1.34l-.74.81A1 1 0 0 0 26 25a1 1 0 0 0-1 1 1 1 0 0 0 .83 1l-.85.93a1 1 0 1 0-1 1.1l-.48.52-4.74-4.74a1 1 0 0 0-1.35-.06L11 30.21a.94.94 0 0 0 0-.21 1 1 0 1 0-1 1l-1.06.9a1 1 0 0 0-1-.9 1 1 0 0 0-1 1 1 1 0 0 0 .74.95l-.81.69A1 1 0 0 0 5 34a1 1 0 0 0 .51.85l-.7.59A1 1 0 0 0 4 35a1 1 0 0 0-.69 1.72L2 37.84V35a1 1 0 0 0 0-2v-2a1 1 0 0 0 0-2v-2a1 1 0 0 0 0-2v-2a1 1 0 0 0 0-2v-2a1 1 0 0 0 0-2v-2a1 1 0 0 0 0-2v-2a1 1 0 0 0 0-2V7a1 1 0 0 0 0-2V3a1 1 0 0 0 1-1h2zM2.5 56a.58.58 0 0 1-.2 0 .46.46 0 0 1-.27-.41V41h41v14.54a.46.46 0 0 1-.26.41.58.58 0 0 1-.2 0H2.5zm1.26-17l14.09-12a1 1 0 0 0 .15 0h.07l10.21 10.2a1 1 0 0 0 1.41-1.41L24.88 31l9.17-10L43 29.5V39H3.72z" fill="#ededed"/><path d="M15.5 44.74a3.44 3.44 0 0 0-1.13-.62 4.07 4.07 0 0 0-1.27-.21h-2.9V54h1.64v-3.64h1.26a4.31 4.31 0 0 0 1.45-.23 3.27 3.27 0 0 0 1.12-.66 2.91 2.91 0 0 0 .73-1 3.57 3.57 0 0 0 .26-1.47 2.75 2.75 0 0 0-.31-1.31 3.21 3.21 0 0 0-.85-.95zm-.62 3.33a1.65 1.65 0 0 1-.4.65 1.5 1.5 0 0 1-.54.33 1.81 1.81 0 0 1-.59.1h-1.5v-4h1.23a2.21 2.21 0 0 1 1 .2 1.66 1.66 0 0 1 .59.49 1.64 1.64 0 0 1 .28.62 2.8 2.8 0 0 1 .07.57 3.08 3.08 0 0 1-.1 1.04zM24.15 50.87l-3.95-6.95h-1.67V54h1.67v-6.95L24.15 54h1.67V43.92h-1.67v6.95zM32.32 49.93h1.71v2.49a.68.68 0 0 1-.34.23 3.29 3.29 0 0 1-.49.13l-.51.07h-.4a2 2 0 0 1-.94-.23 2.32 2.32 0 0 1-.79-.71 3.67 3.67 0 0 1-.55-1.23 7.42 7.42 0 0 1-.21-1.78 6.93 6.93 0 0 1 .22-1.78 3.39 3.39 0 0 1 .57-1.12 2.06 2.06 0 0 1 .82-.65 2.46 2.46 0 0 1 1-.19 2.25 2.25 0 0 1 .88.18 2 2 0 0 1 .75.57l1.13-1a3.73 3.73 0 0 0-1.3-.91 4.21 4.21 0 0 0-1.53-.27 4.07 4.07 0 0 0-1.65.33 3.78 3.78 0 0 0-1.33 1 4.59 4.59 0 0 0-.86 1.62 8 8 0 0 0 0 4.48 4.56 4.56 0 0 0 .89 1.61 3.72 3.72 0 0 0 1.33 1 4.14 4.14 0 0 0 1.66.33 6.09 6.09 0 0 0 .87-.1 4.28 4.28 0 0 0 1.71-.65 3 3 0 0 0 .7-.65v-3.9h-3.34v1.12z" fill="#ededed"/><circle cx="4" cy="4" r="1" fill="#ededed"/><circle cx="8" cy="4" r="1" fill="#ededed"/><circle cx="12" cy="4" r="1" fill="#ededed"/><circle cx="16" cy="4" r="1" fill="#ededed"/><circle cx="20" cy="4" r="1" fill="#ededed"/><circle cx="24" cy="4" r="1" fill="#ededed"/><circle cx="28" cy="4" r="1" fill="#ededed"/><circle cx="30" cy="6" r="1" fill="#ededed"/><circle cx="26" cy="6" r="1" fill="#ededed"/><circle cx="22" cy="6" r="1" fill="#ededed"/><circle cx="18" cy="6" r="1" fill="#ededed"/><circle cx="14" cy="6" r="1" fill="#ededed"/><circle cx="10" cy="6" r="1" fill="#ededed"/><circle cx="6" cy="6" r="1" fill="#ededed"/><circle cx="4" cy="8" r="1" fill="#ededed"/><circle cx="8" cy="8" r="1" fill="#ededed"/><circle cx="12" cy="8" r="1" fill="#ededed"/><circle cx="16" cy="8" r="1" fill="#ededed"/><circle cx="20" cy="8" r="1" fill="#ededed"/><circle cx="24" cy="8" r="1" fill="#ededed"/><circle cx="28" cy="8" r="1" fill="#ededed"/><circle cx="30" cy="10" r="1" fill="#ededed"/><circle cx="26" cy="10" r="1" fill="#ededed"/><circle cx="22" cy="10" r="1" fill="#ededed"/><circle cx="18" cy="10" r="1" fill="#ededed"/><circle cx="14" cy="10" r="1" fill="#ededed"/><circle cx="10" cy="10" r="1" fill="#ededed"/><circle cx="6" cy="10" r="1" fill="#ededed"/><circle cx="4" cy="12" r="1" fill="#ededed"/><circle cx="16" cy="12" r="1" fill="#ededed"/><circle cx="20" cy="12" r="1" fill="#ededed"/><circle cx="24" cy="12" r="1" fill="#ededed"/><circle cx="28" cy="12" r="1" fill="#ededed"/><circle cx="30" cy="14" r="1" fill="#ededed"/><circle cx="26" cy="14" r="1" fill="#ededed"/><circle cx="22" cy="14" r="1" fill="#ededed"/><circle cx="18" cy="14" r="1" fill="#ededed"/><circle cx="20" cy="16" r="1" fill="#ededed"/><circle cx="24" cy="16" r="1" fill="#ededed"/><circle cx="28" cy="16" r="1" fill="#ededed"/><circle cx="32" cy="16" r="1" fill="#ededed"/><circle cx="36" cy="16" r="1" fill="#ededed"/><circle cx="38" cy="18" r="1" fill="#ededed"/><circle cx="42" cy="22" r="1" fill="#ededed"/><circle cx="40" cy="20" r="1" fill="#ededed"/><circle cx="42" cy="18" r="1" fill="#ededed"/><circle cx="40" cy="16" r="1" fill="#ededed"/><circle cx="30" cy="18" r="1" fill="#ededed"/><circle cx="26" cy="18" r="1" fill="#ededed"/><circle cx="22" cy="18" r="1" fill="#ededed"/><circle cx="18" cy="18" r="1" fill="#ededed"/><path d="M4 21a1 1 0 0 0 .93-.64 5.53 5.53 0 0 0 .48.86 1 1 0 0 0-.41.79 1 1 0 0 0 1 1 1 1 0 0 0 .78-.4 5.57 5.57 0 0 0 .82.48A1 1 0 1 0 9 24a1 1 0 0 0-.14-.48 5.57 5.57 0 0 0 2.28 0A1 1 0 0 0 11 24a1 1 0 1 0 1.4-.91 5.59 5.59 0 0 0 .82-.48 1 1 0 0 0 .78.4 1 1 0 0 0 1-1 1 1 0 0 0-.41-.78 5.58 5.58 0 0 0 .48-.86A1 1 0 1 0 16 19a1 1 0 0 0-.54.18 5.49 5.49 0 0 0 0-2.39 1 1 0 0 0 .58.21 1 1 0 0 0 0-2 1 1 0 0 0-.95.74 5.52 5.52 0 0 0-.59-.91A1 1 0 0 0 15 14a1 1 0 0 0-1-1 1 1 0 0 0-.84.49 5.51 5.51 0 0 0-1-.53 1 1 0 0 0 .79-1 1 1 0 0 0-2 0 1 1 0 0 0 .25.65 5.41 5.41 0 0 0-2.51 0A1 1 0 0 0 9 12a1 1 0 0 0-2 0 1 1 0 0 0 .79 1 5.55 5.55 0 0 0-1 .53A1 1 0 0 0 6 13a1 1 0 0 0-1 1 1 1 0 0 0 .48.83 5.63 5.63 0 0 0-.53.91A1 1 0 0 0 4 15a1 1 0 0 0 0 2 1 1 0 0 0 .59-.21 5.49 5.49 0 0 0 0 2.39A1 1 0 0 0 4 19a1 1 0 0 0 0 2zm6-6.5a3.57 3.57 0 1 1-3.57 3.57A3.57 3.57 0 0 1 10 14.5z" fill="#ededed"/><circle cx="20" cy="20" r="1" fill="#ededed"/><circle cx="24" cy="20" r="1" fill="#ededed"/><circle cx="28" cy="20" r="1" fill="#ededed"/><circle cx="26" cy="22" r="1" fill="#ededed"/><circle cx="22" cy="22" r="1" fill="#ededed"/><circle cx="18" cy="22" r="1" fill="#ededed"/><circle cx="4" cy="24" r="1" fill="#ededed"/><circle cx="16" cy="24" r="1" fill="#ededed"/><circle cx="20" cy="24" r="1" fill="#ededed"/><circle cx="24" cy="24" r="1" fill="#ededed"/><circle cx="22" cy="26" r="1" fill="#ededed"/><circle cx="14" cy="26" r="1" fill="#ededed"/><circle cx="10" cy="26" r="1" fill="#ededed"/><circle cx="6" cy="26" r="1" fill="#ededed"/><circle cx="4" cy="28" r="1" fill="#ededed"/><circle cx="8" cy="28" r="1" fill="#ededed"/><circle cx="12" cy="28" r="1" fill="#ededed"/><circle cx="6" cy="30" r="1" fill="#ededed"/><circle cx="4" cy="32" r="1" fill="#ededed"/></svg>